<svg width="30" height="30" viewBox="0 0 30 30" fill="none" xmlns="http://www.w3.org/2000/svg">
<circle cx="15" cy="15" r="15" fill="#5C2D91"/>
<path fill-rule="evenodd" clip-rule="evenodd" d="M22 13.5789H20.8462V11.83C20.8462 11.587 20.8011 11.3593 20.7109 11.1468C20.6208 10.9342 20.4976 10.749 20.3413 10.5911C20.1851 10.4332 20.0018 10.3087 19.7915 10.2176C19.5811 10.1265 19.3558 10.081 19.1154 10.081H15.0769V8.17713C15.2512 8.07389 15.3894 7.93117 15.4916 7.74899C15.5998 7.5668 15.6538 7.37247 15.6538 7.16599C15.6538 7.00202 15.6238 6.8502 15.5637 6.71053C15.5036 6.57085 15.4195 6.44939 15.3113 6.34615C15.2091 6.23684 15.0889 6.15182 14.9507 6.09109C14.8125 6.03036 14.6623 6 14.5 6C14.3377 6 14.1875 6.03036 14.0493 6.09109C13.9111 6.15182 13.7879 6.23684 13.6797 6.34615C13.5775 6.44939 13.4964 6.57085 13.4363 6.71053C13.3762 6.8502 13.3462 7.00202 13.3462 7.16599C13.3462 7.37247 13.3972 7.5668 13.4994 7.74899C13.6076 7.93117 13.7488 8.07389 13.9231 8.17713V10.081H9.88462C9.64423 10.081 9.41887 10.1265 9.20853 10.2176C8.9982 10.3087 8.8149 10.4332 8.65865 10.5911C8.5024 10.749 8.37921 10.9342 8.28906 11.1468C8.19892 11.3593 8.15385 11.587 8.15385 11.83V13.5789H7V15.9109H8.15385V18.8259C8.15385 19.0688 8.19892 19.2966 8.28906 19.5091C8.37921 19.7217 8.5024 19.9069 8.65865 20.0648C8.8149 20.2227 8.9982 20.3472 9.20853 20.4383C9.41887 20.5294 9.64423 20.5749 9.88462 20.5749H12.7692V24L16.7356 20.5749H19.1154C19.3558 20.5749 19.5811 20.5294 19.7915 20.4383C20.0018 20.3472 20.1851 20.2227 20.3413 20.0648C20.4976 19.9069 20.6208 19.7217 20.7109 19.5091C20.8011 19.2966 20.8462 19.0688 20.8462 18.8259V15.9109H22V13.5789ZM16.2308 14.7449H17.3846V13.5789H16.2308V14.7449ZM12.7692 14.7449H11.6154V13.5789H12.7692V14.7449ZM13.1569 16.8128C12.7302 16.6306 12.3516 16.3725 12.021 16.0385L11.2097 16.8674C11.6484 17.3107 12.1502 17.6508 12.7151 17.8877C13.2861 18.1245 13.881 18.2429 14.5 18.2429C15.119 18.2429 15.7109 18.1245 16.2758 17.8877C16.8468 17.6508 17.3516 17.3107 17.7903 16.8674L16.979 16.0385C16.6484 16.3725 16.2698 16.6306 15.8431 16.8128C15.4165 16.9889 14.9688 17.0769 14.5 17.0769C14.0313 17.0769 13.5835 16.9889 13.1569 16.8128Z" fill="white"/>
</svg>
