<svg width="50" height="39" viewBox="0 0 50 39" fill="none" xmlns="http://www.w3.org/2000/svg">
<g clip-path="url(#clip0)">
<path d="M38.1353 27.6268V30.0021H42.8801V34.7469H45.2554V30.0021H50.0001V27.6268H45.2554V22.8821H42.8801V27.6268H38.1353Z" fill="#323130"/>
</g>
<path d="M30.9862 23.8355H35.7533V35.7533H23.8355V23.8355H28.6026V19.0684H7.15066V23.8355H11.9178V35.7533H0V23.8355H4.76711V16.6849H16.6849V11.9178H11.9178V0H23.8355V11.9178H19.0684V16.6849H30.9862V23.8355ZM14.3013 2.38355V9.53421H21.452V2.38355H14.3013ZM9.53421 33.3698V26.2191H2.38355V33.3698H9.53421ZM33.3698 33.3698V26.2191H26.2191V33.3698H33.3698Z" fill="#323130"/>
<defs>
<clipPath id="clip0">
<rect width="11.8648" height="11.8648" fill="white" transform="matrix(-1 0 0 1 50.0001 22.8821)"/>
</clipPath>
</defs>
</svg>
