<svg width="45" height="43" viewBox="0 0 45 43" fill="none" xmlns="http://www.w3.org/2000/svg">
<path d="M45 3.93164V42.9316H0V3.93164H6V0.931641H15C16.375 0.931641 17.6953 1.14258 18.9609 1.56445C20.2422 1.98633 21.4219 2.61914 22.5 3.46289C23.5781 2.61914 24.75 1.98633 26.0156 1.56445C27.2969 1.14258 28.625 0.931641 30 0.931641H39V3.93164H45ZM30 3.93164C28.9062 3.93164 27.8438 4.11914 26.8125 4.49414C25.7812 4.85352 24.8438 5.38477 24 6.08789V35.4785C24.9219 34.9629 25.8906 34.5801 26.9062 34.3301C27.9219 34.0645 28.9531 33.9316 30 33.9316H36V3.93164H30ZM9 33.9316H15C16.0469 33.9316 17.0781 34.0645 18.0938 34.3301C19.1094 34.5801 20.0781 34.9629 21 35.4785V6.08789C20.1562 5.38477 19.2188 4.85352 18.1875 4.49414C17.1562 4.11914 16.0938 3.93164 15 3.93164H9V33.9316ZM3 39.9316H21.8906C21.3906 39.4473 20.8828 39.0254 20.3672 38.666C19.8516 38.291 19.3125 37.9785 18.75 37.7285C18.2031 37.4629 17.6172 37.2676 16.9922 37.1426C16.3828 37.002 15.7188 36.9316 15 36.9316H6V6.93164H3V39.9316ZM42 6.93164H39V36.9316H30C29.2812 36.9316 28.6094 37.002 27.9844 37.1426C27.375 37.2676 26.7891 37.4629 26.2266 37.7285C25.6797 37.9785 25.1484 38.291 24.6328 38.666C24.1172 39.0254 23.6094 39.4473 23.1094 39.9316H42V6.93164Z" fill="#212121"/>
</svg>
