<svg width="80" height="8" viewBox="0 0 80 8" fill="none" xmlns="http://www.w3.org/2000/svg">
<path d="M0.72854 6.03755C0.196994 6.18747 -0.112373 6.73991 0.0375503 7.27146C0.187474 7.80301 0.739914 8.11237 1.27146 7.96245L0.72854 6.03755ZM78.7285 7.96245C79.2601 8.11237 79.8125 7.80301 79.9625 7.27146C80.1124 6.73991 79.803 6.18747 79.2715 6.03755L78.7285 7.96245ZM1.41787 7.92124C1.94958 7.77188 2.25953 7.21977 2.11018 6.68806C1.96082 6.15636 1.40871 5.8464 0.877005 5.99576L1.41787 7.92124ZM4.84993 4.94041C4.31419 5.0746 3.98868 5.61769 4.12287 6.15342C4.25706 6.68915 4.80015 7.01467 5.33588 6.88048L4.84993 4.94041ZM5.6308 6.80694C6.16682 6.67389 6.49348 6.1315 6.36043 5.59548C6.22738 5.05946 5.68499 4.73279 5.14898 4.86584L5.6308 6.80694ZM9.15218 3.93233C8.6126 4.0501 8.27065 4.58299 8.38842 5.12257C8.50619 5.66215 9.03908 6.0041 9.57866 5.88633L9.15218 3.93233ZM9.87576 5.82182C10.4156 5.7052 10.7587 5.17304 10.6421 4.63321C10.5254 4.09338 9.99328 3.7503 9.45345 3.86691L9.87576 5.82182ZM13.4831 3.05615C12.9402 3.15738 12.5821 3.67957 12.6834 4.2225C12.7846 4.76543 13.3068 5.12349 13.8497 5.02226L13.4831 3.05615ZM14.1487 4.96684C14.6918 4.86677 15.051 4.34534 14.9509 3.80219C14.8509 3.25905 14.3294 2.89988 13.7863 2.99995L14.1487 4.96684ZM17.8387 2.31266C17.293 2.39726 16.9191 2.90828 17.0037 3.45404C17.0883 3.99981 17.5993 4.37366 18.1451 4.28905L17.8387 2.31266ZM18.4457 4.24279C18.9916 4.15935 19.3666 3.64913 19.2831 3.10319C19.1997 2.55724 18.6895 2.18231 18.1435 2.26574L18.4457 4.24279ZM22.2153 1.70252C21.6672 1.77042 21.2779 2.26977 21.3458 2.81787C21.4137 3.36597 21.913 3.75525 22.4611 3.68735L22.2153 1.70252ZM22.7628 3.65031C23.3111 3.58358 23.7014 3.08505 23.6347 2.53682C23.568 1.98858 23.0694 1.59823 22.5212 1.66496L22.7628 3.65031ZM26.6083 1.22635C26.0584 1.27748 25.6541 1.76471 25.7052 2.31462C25.7563 2.86454 26.2435 3.26889 26.7935 3.21777L26.6083 1.22635ZM27.0962 3.18995C27.6462 3.14 28.0516 2.65363 28.0017 2.10361C27.9517 1.55358 27.4653 1.1482 26.9153 1.19815L27.0962 3.18995ZM31.0138 0.88458C30.4626 0.918883 30.0436 1.39354 30.0779 1.94476C30.1122 2.49598 30.5868 2.91502 31.138 2.88072L31.0138 0.88458ZM31.4415 2.86216C31.9928 2.82903 32.4129 2.35526 32.3797 1.80397C32.3466 1.25268 31.8728 0.83263 31.3215 0.865758L31.4415 2.86216ZM35.4277 0.677506C34.8757 0.694961 34.4423 1.1566 34.4598 1.70861C34.4772 2.26062 34.9389 2.69396 35.4909 2.67651L35.4277 0.677506ZM35.7948 2.66722C36.3468 2.65095 36.7812 2.19023 36.7649 1.63818C36.7486 1.08614 36.2879 0.651814 35.7358 0.668091L35.7948 2.66722ZM39.8458 0.605321C39.2936 0.60591 38.8463 1.0541 38.8469 1.60639C38.8475 2.15867 39.2957 2.60591 39.848 2.60532L39.8458 0.605321ZM40.152 2.60532C40.7043 2.60591 41.1525 2.15867 41.1531 1.60639C41.1537 1.0541 40.7064 0.60591 40.1541 0.605321L40.152 2.60532ZM44.2641 0.668091C43.7121 0.651814 43.2514 1.08614 43.2351 1.63818C43.2188 2.19023 43.6532 2.65094 44.2052 2.66722L44.2641 0.668091ZM44.5091 2.67651C45.0611 2.69396 45.5228 2.26062 45.5402 1.70861C45.5577 1.1566 45.1243 0.69496 44.5723 0.677506L44.5091 2.67651ZM48.6784 0.865758C48.1272 0.832629 47.6534 1.25268 47.6203 1.80397C47.5871 2.35526 48.0072 2.82903 48.5585 2.86216L48.6784 0.865758ZM48.8619 2.88072C49.4132 2.91502 49.8878 2.49598 49.9221 1.94476C49.9564 1.39354 49.5374 0.918882 48.9862 0.884579L48.8619 2.88072ZM53.0847 1.19814C52.5347 1.14819 52.0483 1.55358 51.9983 2.1036C51.9484 2.65363 52.3538 3.14 52.9038 3.18995L53.0847 1.19814ZM53.2065 3.21777C53.7565 3.26889 54.2437 2.86454 54.2948 2.31462C54.3459 1.76471 53.9416 1.27747 53.3917 1.22635L53.2065 3.21777ZM57.4788 1.66496C56.9305 1.59823 56.432 1.98857 56.3653 2.53681C56.2986 3.08505 56.6889 3.58358 57.2372 3.65031L57.4788 1.66496ZM57.5389 3.68735C58.087 3.75525 58.5863 3.36597 58.6542 2.81787C58.7221 2.26977 58.3328 1.77042 57.7847 1.70252L57.5389 3.68735ZM61.8565 2.26574C61.3105 2.1823 60.8003 2.55724 60.7169 3.10318C60.6334 3.64913 61.0084 4.15935 61.5543 4.24279L61.8565 2.26574ZM61.8549 4.28905C62.4007 4.37365 62.9117 3.99981 62.9963 3.45404C63.0809 2.90828 62.707 2.39726 62.1613 2.31266L61.8549 4.28905ZM66.2137 2.99995C65.6706 2.89987 65.1491 3.25905 65.0491 3.80219C64.949 4.34534 65.3082 4.86677 65.8513 4.96684L66.2137 2.99995ZM66.1503 5.02226C66.6932 5.12349 67.2154 4.76543 67.3167 4.2225C67.4179 3.67957 67.0598 3.15738 66.5169 3.05615L66.1503 5.02226ZM70.5465 3.86691C70.0067 3.7503 69.4746 4.09338 69.3579 4.63321C69.2413 5.17304 69.5844 5.7052 70.1242 5.82182L70.5465 3.86691ZM70.4213 5.88633C70.9609 6.0041 71.4938 5.66215 71.6116 5.12257C71.7293 4.58299 71.3874 4.0501 70.8478 3.93233L70.4213 5.88633ZM74.851 4.86584C74.315 4.73279 73.7726 5.05946 73.6396 5.59548C73.5065 6.1315 73.8332 6.67389 74.3692 6.80694L74.851 4.86584ZM74.6641 6.88048C75.1999 7.01467 75.7429 6.68916 75.8771 6.15342C76.0113 5.61769 75.6858 5.07461 75.1501 4.94041L74.6641 6.88048ZM79.123 5.99576C78.5913 5.84641 78.0392 6.15636 77.8898 6.68807C77.7405 7.21977 78.0504 7.77188 78.5821 7.92124L79.123 5.99576ZM1.27146 7.96245C1.32026 7.94869 1.36906 7.93495 1.41787 7.92124L0.877005 5.99576C0.827511 6.00966 0.778023 6.02359 0.72854 6.03755L1.27146 7.96245ZM5.33588 6.88048C5.43417 6.85586 5.53247 6.83134 5.6308 6.80694L5.14898 4.86584C5.04927 4.89059 4.94959 4.91545 4.84993 4.94041L5.33588 6.88048ZM9.57866 5.88633C9.67768 5.86472 9.77671 5.84322 9.87576 5.82182L9.45345 3.86691C9.35301 3.88861 9.25259 3.91042 9.15218 3.93233L9.57866 5.88633ZM13.8497 5.02226C13.9494 5.00368 14.049 4.98521 14.1487 4.96684L13.7863 2.99995C13.6852 3.01857 13.5842 3.03731 13.4831 3.05615L13.8497 5.02226ZM18.1451 4.28905C18.2453 4.27352 18.3455 4.2581 18.4457 4.24279L18.1435 2.26574C18.0419 2.28127 17.9403 2.29691 17.8387 2.31266L18.1451 4.28905ZM22.4611 3.68735C22.5617 3.6749 22.6623 3.66255 22.7628 3.65031L22.5212 1.66496C22.4192 1.67737 22.3172 1.68989 22.2153 1.70252L22.4611 3.68735ZM26.7935 3.21777C26.8944 3.20839 26.9953 3.19911 27.0962 3.18995L26.9153 1.19815C26.813 1.20744 26.7106 1.21684 26.6083 1.22635L26.7935 3.21777ZM31.138 2.88072C31.2392 2.87442 31.3404 2.86824 31.4415 2.86216L31.3215 0.865758C31.219 0.871923 31.1164 0.878197 31.0138 0.88458L31.138 2.88072ZM35.4909 2.67651C35.5922 2.6733 35.6935 2.67021 35.7948 2.66722L35.7358 0.668091C35.6331 0.671121 35.5304 0.674259 35.4277 0.677506L35.4909 2.67651ZM39.848 2.60532C39.9493 2.60521 40.0507 2.60521 40.152 2.60532L40.1541 0.605321C40.0514 0.605212 39.9486 0.605212 39.8458 0.605321L39.848 2.60532ZM44.2052 2.66722C44.3065 2.67021 44.4078 2.6733 44.5091 2.67651L44.5723 0.677506C44.4696 0.674258 44.3669 0.67112 44.2641 0.668091L44.2052 2.66722ZM48.5585 2.86216C48.6596 2.86824 48.7608 2.87442 48.8619 2.88072L48.9862 0.884579C48.8836 0.878196 48.781 0.871922 48.6784 0.865758L48.5585 2.86216ZM52.9038 3.18995C53.0047 3.19911 53.1056 3.20839 53.2065 3.21777L53.3917 1.22635C53.2893 1.21684 53.187 1.20744 53.0847 1.19814L52.9038 3.18995ZM57.2372 3.65031C57.3377 3.66255 57.4383 3.6749 57.5389 3.68735L57.7847 1.70252C57.6828 1.68989 57.5808 1.67737 57.4788 1.66496L57.2372 3.65031ZM61.5543 4.24279C61.6545 4.2581 61.7547 4.27352 61.8549 4.28905L62.1613 2.31266C62.0597 2.29691 61.9581 2.28127 61.8565 2.26574L61.5543 4.24279ZM65.8513 4.96684C65.951 4.98521 66.0506 5.00368 66.1503 5.02226L66.5169 3.05615C66.4158 3.03731 66.3148 3.01857 66.2137 2.99995L65.8513 4.96684ZM70.1242 5.82182C70.2233 5.84322 70.3223 5.86472 70.4213 5.88633L70.8478 3.93233C70.7474 3.91042 70.647 3.88861 70.5465 3.86691L70.1242 5.82182ZM74.3692 6.80694C74.4675 6.83134 74.5658 6.85586 74.6641 6.88048L75.1501 4.94041C75.0504 4.91545 74.9507 4.89059 74.851 4.86584L74.3692 6.80694ZM78.5821 7.92124C78.6309 7.93495 78.6797 7.94869 78.7285 7.96245L79.2715 6.03755C79.222 6.02359 79.1725 6.00966 79.123 5.99576L78.5821 7.92124Z" fill="#A99E9E"/>
</svg>
