<svg width="48" height="48" viewBox="0 0 48 48" fill="none" xmlns="http://www.w3.org/2000/svg">
<path d="M24 0C26.2031 0 28.3281 0.289062 30.375 0.867188C32.4219 1.42969 34.3281 2.23437 36.0938 3.28125C37.875 4.32813 39.4922 5.58594 40.9453 7.05469C42.4141 8.50781 43.6719 10.125 44.7188 11.9062C45.7656 13.6719 46.5703 15.5781 47.1328 17.625C47.7109 19.6719 48 21.7969 48 24C48 26.2031 47.7109 28.3281 47.1328 30.375C46.5703 32.4219 45.7656 34.3359 44.7188 36.1172C43.6719 37.8828 42.4141 39.5 40.9453 40.9688C39.4922 42.4219 37.875 43.6719 36.0938 44.7188C34.3281 45.7656 32.4219 46.5781 30.375 47.1562C28.3281 47.7188 26.2031 48 24 48C21.7969 48 19.6719 47.7188 17.625 47.1562C15.5781 46.5781 13.6641 45.7734 11.8828 44.7422C10.1016 43.6953 8.47656 42.4453 7.00781 40.9922C5.55469 39.5234 4.30469 37.8984 3.25781 36.1172C2.22656 34.3359 1.42188 32.4297 0.84375 30.3984C0.28125 28.3516 0 26.2188 0 24C0 21.7969 0.28125 19.6719 0.84375 17.625C1.42188 15.5781 2.23438 13.6719 3.28125 11.9062C4.32812 10.125 5.57812 8.50781 7.03125 7.05469C8.5 5.58594 10.1172 4.32813 11.8828 3.28125C13.6641 2.23437 15.5781 1.42969 17.625 0.867188C19.6719 0.289062 21.7969 0 24 0ZM24 45C25.9375 45 27.7969 44.75 29.5781 44.25C31.375 43.75 33.0469 43.0469 34.5938 42.1406C36.1562 41.2188 37.5703 40.125 38.8359 38.8594C40.1172 37.5781 41.2109 36.1641 42.1172 34.6172C43.0391 33.0547 43.75 31.3828 44.25 29.6016C44.75 27.8047 45 25.9375 45 24C45 22.0625 44.75 20.2031 44.25 18.4219C43.75 16.625 43.0391 14.9531 42.1172 13.4062C41.2109 11.8437 40.1172 10.4297 38.8359 9.16406C37.5703 7.88281 36.1562 6.78906 34.5938 5.88281C33.0469 4.96094 31.375 4.25 29.5781 3.75C27.7969 3.25 25.9375 3 24 3C22.0625 3 20.1953 3.25 18.3984 3.75C16.6172 4.25 14.9453 4.96094 13.3828 5.88281C11.8359 6.78906 10.4219 7.88281 9.14062 9.16406C7.875 10.4297 6.78125 11.8437 5.85938 13.4062C4.95312 14.9531 4.25 16.625 3.75 18.4219C3.25 20.2031 3 22.0625 3 24C3 25.9375 3.25 27.8047 3.75 29.6016C4.25 31.3828 4.95312 33.0547 5.85938 34.6172C6.76562 36.1641 7.85938 37.5781 9.14062 38.8594C10.4219 40.1406 11.8359 41.2344 13.3828 42.1406C14.9453 43.0469 16.6172 43.75 18.3984 44.25C20.1953 44.75 22.0625 45 24 45ZM18 12L36 23.9297L18 36V12ZM21 30.375L30.5859 23.9531L21 17.5781V30.375Z" fill="white"/>
</svg>
