<svg width="48" height="48" viewBox="0 0 48 48" fill="none" xmlns="http://www.w3.org/2000/svg">
<path d="M24 0.517578C26.2031 0.517578 28.3281 0.806641 30.375 1.38477C32.4219 1.94727 34.3281 2.75195 36.0938 3.79883C37.875 4.8457 39.4922 6.10352 40.9453 7.57227C42.4141 9.02539 43.6719 10.6426 44.7188 12.4238C45.7656 14.1895 46.5703 16.0957 47.1328 18.1426C47.7109 20.1895 48 22.3145 48 24.5176C48 27.0957 47.6016 29.5801 46.8047 31.9707C46.0234 34.3613 44.9141 36.5566 43.4766 38.5566C42.0391 40.5566 40.3125 42.3145 38.2969 43.8301C36.2812 45.3301 34.0469 46.4863 31.5938 47.2988C31.5469 47.3145 31.4766 47.3301 31.3828 47.3457C31.2891 47.3457 31.2188 47.3457 31.1719 47.3457C30.7969 47.3457 30.5 47.2363 30.2812 47.0176C30.0625 46.7988 29.9531 46.5098 29.9531 46.1504C29.9531 45.041 29.9531 43.9473 29.9531 42.8691C29.9688 41.7754 29.9766 40.6738 29.9766 39.5645C29.9766 38.7676 29.8594 37.9629 29.625 37.1504C29.3906 36.3379 28.9688 35.6582 28.3594 35.1113C30.1719 34.9082 31.7578 34.541 33.1172 34.0098C34.4922 33.4629 35.6328 32.7129 36.5391 31.7598C37.4609 30.8066 38.1484 29.6348 38.6016 28.2441C39.0703 26.8379 39.3047 25.1816 39.3047 23.2754C39.3047 22.0566 39.1016 20.9082 38.6953 19.8301C38.2891 18.7363 37.6719 17.7363 36.8438 16.8301C37.0156 16.3926 37.1406 15.9395 37.2188 15.4707C37.2969 15.002 37.3359 14.5332 37.3359 14.0645C37.3359 13.4551 37.2656 12.8535 37.125 12.2598C37 11.6504 36.8281 11.0566 36.6094 10.4785C36.5312 10.4473 36.4453 10.4316 36.3516 10.4316C36.2578 10.4316 36.1719 10.4316 36.0938 10.4316C35.5938 10.4316 35.0703 10.5176 34.5234 10.6895C33.9766 10.8457 33.4297 11.0488 32.8828 11.2988C32.3516 11.5332 31.8359 11.7988 31.3359 12.0957C30.8359 12.3926 30.3906 12.6738 30 12.9395C28.0469 12.3926 26.0469 12.1191 24 12.1191C21.9531 12.1191 19.9531 12.3926 18 12.9395C17.6094 12.6738 17.1641 12.3926 16.6641 12.0957C16.1641 11.7988 15.6406 11.5332 15.0938 11.2988C14.5625 11.0488 14.0156 10.8457 13.4531 10.6895C12.9062 10.5176 12.3906 10.4316 11.9062 10.4316C11.8281 10.4316 11.7422 10.4316 11.6484 10.4316C11.5547 10.4316 11.4688 10.4473 11.3906 10.4785C11.1719 11.0566 10.9922 11.6504 10.8516 12.2598C10.7266 12.8535 10.6641 13.4551 10.6641 14.0645C10.6641 14.5332 10.7031 15.002 10.7812 15.4707C10.8594 15.9395 10.9844 16.3926 11.1562 16.8301C10.3281 17.7363 9.71094 18.7363 9.30469 19.8301C8.89844 20.9082 8.69531 22.0566 8.69531 23.2754C8.69531 25.1816 8.92188 26.8301 9.375 28.2207C9.84375 29.6113 10.5312 30.791 11.4375 31.7598C12.3594 32.7129 13.5 33.4629 14.8594 34.0098C16.2188 34.5566 17.8047 34.9316 19.6172 35.1348C19.1641 35.541 18.8125 36.0332 18.5625 36.6113C18.3281 37.1738 18.1719 37.752 18.0938 38.3457C17.6719 38.5488 17.2266 38.7051 16.7578 38.8145C16.2891 38.9238 15.8203 38.9785 15.3516 38.9785C14.3516 38.9785 13.5234 38.7441 12.8672 38.2754C12.2109 37.8066 11.625 37.166 11.1094 36.3535C10.9219 36.0566 10.6953 35.7598 10.4297 35.4629C10.1641 35.166 9.875 34.9004 9.5625 34.666C9.25 34.4316 8.91406 34.2441 8.55469 34.1035C8.19531 33.9473 7.82031 33.8691 7.42969 33.8691C7.36719 33.8691 7.27344 33.877 7.14844 33.8926C7.02344 33.8926 6.89844 33.9082 6.77344 33.9395C6.66406 33.9707 6.5625 34.0176 6.46875 34.0801C6.375 34.1426 6.32812 34.2207 6.32812 34.3145C6.32812 34.502 6.4375 34.6895 6.65625 34.877C6.875 35.0488 7.05469 35.1816 7.19531 35.2754L7.26562 35.3223C7.60938 35.5879 7.90625 35.8457 8.15625 36.0957C8.42188 36.3301 8.65625 36.5879 8.85938 36.8691C9.0625 37.1348 9.24219 37.4316 9.39844 37.7598C9.57031 38.0723 9.75 38.4316 9.9375 38.8379C10.4688 40.0566 11.2109 40.9473 12.1641 41.5098C13.1328 42.0566 14.2812 42.3301 15.6094 42.3301C16.0156 42.3301 16.4219 42.3066 16.8281 42.2598C17.2344 42.1973 17.6406 42.127 18.0469 42.0488V46.127C18.0469 46.502 17.9297 46.7988 17.6953 47.0176C17.4766 47.2363 17.1797 47.3457 16.8047 47.3457C16.7578 47.3457 16.6875 47.3457 16.5938 47.3457C16.5156 47.3301 16.4531 47.3145 16.4062 47.2988C13.9531 46.502 11.7188 45.3535 9.70312 43.8535C7.6875 42.3379 5.96094 40.5801 4.52344 38.5801C3.08594 36.5645 1.96875 34.3613 1.17188 31.9707C0.390625 29.5801 0 27.0957 0 24.5176C0 22.3145 0.28125 20.1895 0.84375 18.1426C1.42188 16.0957 2.23438 14.1895 3.28125 12.4238C4.32812 10.6426 5.57812 9.02539 7.03125 7.57227C8.5 6.10352 10.1172 4.8457 11.8828 3.79883C13.6641 2.75195 15.5781 1.94727 17.625 1.38477C19.6719 0.806641 21.7969 0.517578 24 0.517578Z" fill="#212121"/>
</svg>
