<svg width="105" height="84" viewBox="0 0 105 84" fill="none" xmlns="http://www.w3.org/2000/svg">
<path d="M86.5093 48.1075L86.3884 81.1441C86.3884 83.7222 84.5747 84.7415 82.3378 83.4225L27.3225 51.9448C26.1541 51.1771 25.1814 50.1509 24.4811 48.9469C23.7813 47.7356 23.3678 46.3825 23.272 44.9897L23.3929 11.9531L86.5093 48.1075Z" fill="white"/>
<path d="M85.2397 83.6734L87.7185 82.2344C88.4439 81.8147 88.8671 80.9154 88.8671 79.6562L86.3884 81.0952C86.3884 82.4143 85.9048 83.2537 85.2397 83.6734Z" fill="#DCDCDC"/>
<path d="M86.5096 48.1187L86.3887 81.1552L88.8674 79.7163L88.9883 46.6797L86.5096 48.1187Z" fill="#DCDCDC"/>
<path d="M82.4574 33.5426C83.6258 34.3102 84.5985 35.3365 85.2988 36.5405C85.9987 37.7518 86.4121 39.1048 86.5079 40.4976V48.3521L23.3311 12.1977V4.34328C23.3311 1.7651 25.1447 0.745825 27.3816 2.00493L82.4574 33.5426Z" fill="#F0F0F0"/>
<path d="M87.8379 35.0415C87.1198 33.8507 86.1505 32.828 84.9964 32.0436L29.9812 0.565919C28.8325 -0.0936132 27.8048 -0.153571 27.0793 0.266132L24.6006 1.70511C25.3261 1.28541 26.3538 1.34537 27.5025 2.0049L82.5177 33.4826C83.6861 34.2502 84.6588 35.2765 85.3592 36.4805C86.059 37.6918 86.4724 39.0448 86.5683 40.4377V48.2921L89.047 46.8531V38.9987C88.9225 37.6112 88.5109 36.2641 87.8379 35.0415Z" fill="#D2D2D2"/>
<path d="M49.3281 35.4045C49.7042 35.6467 50.0154 35.9759 50.2349 36.3638C50.4564 36.7526 50.6 37.1801 50.6581 37.6229C50.6581 38.5223 50.0535 38.7621 49.3281 38.4023L33.3071 29.2288C32.9114 28.9657 32.5807 28.6172 32.3398 28.2096C32.1008 27.8105 31.9755 27.3546 31.9771 26.8905C31.9771 25.9911 32.5816 25.7513 33.3071 26.171L49.3281 35.4045ZM62.3262 40.2011L63.4144 42.1197L56.8246 45.8371L54.1041 41.1604L55.1923 40.5009L56.8246 43.3189L62.3262 40.2011Z" fill="#50E6FF"/>
<path d="M49.267 53.631C49.6432 53.8733 49.9544 54.2025 50.1739 54.5903C50.3953 54.9791 50.539 55.4067 50.5971 55.8495C50.5971 56.7488 49.9925 56.9886 49.267 56.6289L33.2461 47.4554C32.8504 47.1922 32.5197 46.8438 32.2788 46.4361C32.0398 46.0371 31.9144 45.5812 31.916 45.1171C31.916 44.2177 32.5206 43.9779 33.2461 44.3976L49.267 53.631ZM62.2652 58.6675L63.3534 60.5861L56.7636 64.3035L54.0431 59.6268L55.1313 58.9672L56.7636 61.7852L62.2652 58.6675Z" fill="#32B0E7"/>
<path d="M49.3281 44.4611C49.7042 44.7033 50.0154 45.0325 50.2349 45.4204C50.4386 45.8168 50.5813 46.2412 50.6581 46.6795C50.6581 47.5789 50.0535 47.8187 49.3281 47.459L33.3071 38.2855C32.9114 38.0223 32.5807 37.6739 32.3398 37.2662C32.1008 36.8671 31.9755 36.4113 31.9771 35.9471C31.9771 35.0478 32.5816 34.808 33.3071 35.2277L49.3281 44.4611ZM62.3262 49.1978L63.4144 51.1164L56.8246 54.8338L53.9832 50.1571L55.0714 49.4975L56.7642 52.3155L62.3262 49.1978Z" fill="#45CAF2"/>
<path d="M32.7031 68.556C32.2539 64.6761 30.387 61.0938 27.4555 58.4863C24.5239 55.8788 20.7306 54.4267 16.7928 54.4046C12.855 54.3824 9.04539 55.7917 6.08416 58.3661C3.12293 60.9404 1.21523 64.5015 0.721679 68.3761C0.589134 68.9457 0.548324 69.5326 0.600766 70.1148C0.782135 72.3333 2.41446 74.4917 5.31637 76.2305C11.6643 79.828 21.821 79.828 28.1084 76.2305C31.0103 74.5517 32.5822 72.3333 32.7636 70.1748C32.8064 69.6347 32.7861 69.0915 32.7031 68.556Z" fill="url(#paint0_linear)"/>
<path d="M16.6807 52.7308C18.5974 52.7391 20.4723 52.1751 22.0613 51.112C23.6501 50.0598 24.8887 48.564 25.6204 46.8138C26.3521 45.0635 26.5442 43.1374 26.1723 41.279C25.8058 39.4116 24.8786 37.6977 23.5122 36.3624C22.1422 35.0391 20.4242 34.1249 18.5548 33.7243C16.6876 33.3598 14.7535 33.5474 12.9929 34.2639C11.2307 35.0061 9.72009 36.2338 8.64003 37.8014C7.55999 39.3735 6.99042 41.2354 7.00771 43.1376C7.00291 44.3924 7.24951 45.6356 7.73318 46.795C8.23035 47.9593 8.94872 49.0178 9.84915 49.9128C10.7409 50.8187 11.811 51.533 12.9929 52.0113C14.162 52.491 15.4155 52.7356 16.6807 52.7308Z" fill="url(#paint1_linear)"/>
<path d="M101.722 34.388L101.613 57.9213V65.8057L73.9604 50.0369L74.0693 18.6191L80.9008 22.5044L101.722 34.388Z" fill="url(#paint2_linear)"/>
<path d="M74.0688 18.6188L80.9004 22.504L101.613 34.3876L104.073 33.0506L83.2522 21.0591L76.4206 17.1738L74.0688 18.6188Z" fill="#2195DC"/>
<path d="M101.613 65.7977L103.959 64.3528L104.073 33.043L101.613 34.38V65.7977Z" fill="#0078D4"/>
<path d="M87.0537 43.1941V51.4083L88.6256 52.2957V44.0815L95.7897 48.1886V46.5218L88.6256 42.3247V34.0866L87.0537 33.1992V41.4194L79.8896 37.3063V39.105L87.0537 43.1941Z" fill="white" stroke="white" stroke-width="1.85" stroke-miterlimit="10"/>
<defs>
<linearGradient id="paint0_linear" x1="16.672" y1="54.4175" x2="16.672" y2="78.9237" gradientUnits="userSpaceOnUse">
<stop stop-color="#4DC2EB"/>
<stop offset="1" stop-color="#0078D4"/>
</linearGradient>
<linearGradient id="paint1_linear" x1="16.6743" y1="33.5459" x2="16.6743" y2="52.7344" gradientUnits="userSpaceOnUse">
<stop stop-color="#4DC2EB"/>
<stop offset="1" stop-color="#0078D4"/>
</linearGradient>
<linearGradient id="paint2_linear" x1="88.8266" y1="18.9429" x2="86.6324" y2="71.737" gradientUnits="userSpaceOnUse">
<stop stop-color="#32B0E7"/>
<stop offset="1" stop-color="#2195DC"/>
</linearGradient>
</defs>
</svg>
