<svg width="53" height="49" viewBox="0 0 53 49" fill="none" xmlns="http://www.w3.org/2000/svg">
<path d="M16.3928 9.74895C17.5393 9.13076 18.7732 8.93188 19.9745 8.93182C21.3651 8.93174 22.9801 9.39276 24.2847 10.4716C25.6504 11.601 26.5787 13.3338 26.5787 15.595C26.5787 18.1934 24.7593 19.604 23.7337 20.3993C23.654 20.4611 23.579 20.5192 23.5101 20.5739C22.3884 21.4636 21.9558 21.939 21.9558 22.9268C21.9558 24.0311 21.0688 24.9263 19.9746 24.9263C18.8804 24.9263 17.9933 24.0311 17.9933 22.9268C17.9933 19.9035 19.8722 18.373 21.0618 17.4295C22.4178 16.354 22.6162 16.1145 22.6162 15.595C22.6162 14.5365 22.2237 13.9374 21.7732 13.5649C21.2617 13.1418 20.5653 12.9309 19.9747 12.9309C19.1947 12.931 18.6586 13.0613 18.2599 13.2763C17.8809 13.4806 17.48 13.8393 17.0934 14.5589C16.5719 15.5298 15.3693 15.8901 14.4074 15.3637C13.4455 14.8374 13.0884 13.6237 13.61 12.6529C14.3065 11.3563 15.2263 10.3778 16.3928 9.74895ZM19.975 32.9249C21.434 32.9249 22.6168 31.7312 22.6168 30.2586C22.6168 28.7861 21.434 27.5924 19.975 27.5924C18.516 27.5924 17.3332 28.7861 17.3332 30.2586C17.3332 31.7312 18.516 32.9249 19.975 32.9249ZM19.975 0.931641C9.03293 0.931641 0.162661 9.88396 0.162661 20.9272C0.162661 23.9475 0.827482 26.8161 2.01882 29.3876C1.34776 32.0483 0.598011 35.0153 0.10564 36.9628C-0.509922 39.3977 1.66264 41.6127 4.078 41.0268C6.05983 40.546 9.10569 39.8082 11.8199 39.1552C14.3092 40.2911 17.0714 40.9228 19.975 40.9228C30.917 40.9228 39.7873 31.9704 39.7873 20.9272C39.7873 9.88396 30.917 0.931641 19.975 0.931641ZM4.12512 20.9272C4.12512 12.0926 11.2213 4.93075 19.975 4.93075C28.7286 4.93075 35.8248 12.0926 35.8248 20.9272C35.8248 29.7618 28.7286 36.9236 19.975 36.9236C17.437 36.9236 15.0438 36.3231 12.9219 35.257L12.2789 34.9339L11.5801 35.1018C9.14258 35.6874 6.32643 36.3688 4.21585 36.8804C4.74087 34.8032 5.43608 32.0512 6.0388 29.6604L6.22421 28.9249L5.87943 28.2505C4.75879 26.0584 4.12512 23.5704 4.12512 20.9272ZM33.1832 48.9211C27.9808 48.9211 23.2467 46.8974 19.7117 43.5874C19.7994 43.5885 19.8872 43.589 19.9751 43.589C21.8717 43.589 23.7134 43.3517 25.4726 42.9048C27.7548 44.1898 30.3843 44.922 33.1832 44.922C35.7211 44.922 38.1144 44.3215 40.2363 43.2554L40.8793 42.9323L41.5781 43.1002C44.0125 43.6851 46.7692 44.2888 48.814 44.7252C48.3518 42.7243 47.7212 40.046 47.1194 37.6587L46.934 36.9233L47.2787 36.2488C48.3994 34.0568 49.0331 31.5688 49.0331 28.9256C49.0331 23.2876 46.1431 18.3309 41.7766 15.482C41.3054 13.5538 40.5895 11.7227 39.6642 10.0243C47.4235 12.7339 52.9955 20.173 52.9955 28.9256C52.9955 31.9466 52.3304 34.8158 51.1385 37.3878C51.8069 40.0751 52.4838 42.9863 52.913 44.8615C53.4531 47.2208 51.3943 49.3564 49.0367 48.859C47.1158 48.4538 44.0978 47.8038 41.3405 47.1525C38.8506 48.2891 36.0877 48.9211 33.1832 48.9211Z" fill="#212121"/>
</svg>
