<?xml version="1.0" encoding="utf-8"?>
<!-- Generator: Adobe Illustrator 24.2.0, SVG Export Plug-In . SVG Version: 6.00 Build 0)  -->
<svg version="1.1" id="MS-symbol" xmlns="http://www.w3.org/2000/svg" xmlns:xlink="http://www.w3.org/1999/xlink" x="0px" y="0px"
	 viewBox="0 0 482 216" style="enable-background:new 0 0 482 216;" xml:space="preserve">
<style type="text/css">
	.st0{fill:#FFFFFF;}
</style>
<path class="st0" d="M212.3,86.4v43.2h-7.5V95.7h-0.1l-13.4,33.9h-5l-13.7-33.9h-0.1v33.9h-6.9V86.4h10.8l12.4,32h0.2l13.1-32H212.3
	z M218.6,89.7c0-1.2,0.4-2.2,1.3-3c0.9-0.8,1.9-1.2,3.1-1.2c1.3,0,2.4,0.4,3.2,1.3c0.8,0.8,1.3,1.8,1.3,3c0,1.2-0.4,2.2-1.3,3
	c-0.9,0.8-1.9,1.2-3.2,1.2s-2.3-0.4-3.1-1.2C219,91.8,218.6,90.8,218.6,89.7z M226.7,98.6v31h-7.3v-31H226.7z M248.8,124.3
	c1.1,0,2.3-0.3,3.6-0.8c1.3-0.5,2.5-1.2,3.6-2v6.8c-1.2,0.7-2.5,1.2-4,1.5c-1.5,0.3-3.1,0.5-4.9,0.5c-4.6,0-8.3-1.4-11.1-4.3
	c-2.9-2.9-4.3-6.6-4.3-11c0-5,1.5-9.1,4.4-12.3c2.9-3.2,7-4.8,12.4-4.8c1.4,0,2.7,0.2,4.1,0.5c1.4,0.4,2.5,0.8,3.3,1.2v7
	c-1.1-0.8-2.3-1.5-3.4-1.9c-1.2-0.5-2.4-0.7-3.6-0.7c-2.9,0-5.2,0.9-7,2.8c-1.8,1.9-2.7,4.4-2.7,7.6c0,3.1,0.8,5.6,2.5,7.3
	C243.6,123.4,245.9,124.3,248.8,124.3z M276.7,98.1c0.6,0,1.1,0,1.6,0.1s0.9,0.2,1.2,0.3v7.4c-0.4-0.3-0.9-0.5-1.7-0.8
	c-0.7-0.3-1.6-0.4-2.7-0.4c-1.8,0-3.3,0.8-4.5,2.3c-1.2,1.5-1.9,3.8-1.9,7v15.6h-7.3v-31h7.3v4.9h0.1c0.7-1.7,1.7-3,3-4
	C273.2,98.6,274.8,98.1,276.7,98.1z M279.9,114.6c0-5.1,1.4-9.2,4.3-12.2c2.9-3,6.9-4.5,12.1-4.5c4.8,0,8.6,1.4,11.3,4.3
	c2.7,2.9,4.1,6.8,4.1,11.7c0,5-1.4,9-4.3,12c-2.9,3-6.8,4.5-11.8,4.5c-4.8,0-8.6-1.4-11.4-4.2C281.3,123.3,279.9,119.4,279.9,114.6z
	 M287.5,114.3c0,3.2,0.7,5.7,2.2,7.4c1.5,1.7,3.6,2.6,6.3,2.6c2.7,0,4.7-0.9,6.1-2.6c1.4-1.7,2.1-4.2,2.1-7.6c0-3.3-0.7-5.8-2.2-7.5
	c-1.4-1.7-3.4-2.5-6-2.5c-2.7,0-4.7,0.9-6.2,2.7C288.2,108.5,287.5,111,287.5,114.3z M322.5,106.8c0,1,0.3,1.9,1,2.5
	c0.7,0.6,2.1,1.3,4.4,2.2c2.9,1.2,5,2.5,6.1,3.9c1.2,1.5,1.8,3.2,1.8,5.3c0,2.9-1.1,5.3-3.4,7c-2.2,1.8-5.3,2.7-9.1,2.7
	c-1.3,0-2.7-0.2-4.3-0.5c-1.6-0.3-2.9-0.7-4-1.2v-7.2c1.3,0.9,2.8,1.7,4.3,2.2c1.5,0.5,2.9,0.8,4.2,0.8c1.6,0,2.9-0.2,3.6-0.7
	c0.8-0.5,1.2-1.2,1.2-2.3c0-1-0.4-1.9-1.2-2.5c-0.8-0.7-2.4-1.5-4.6-2.4c-2.7-1.1-4.6-2.4-5.7-3.8c-1.1-1.4-1.7-3.2-1.7-5.4
	c0-2.8,1.1-5.1,3.3-6.9c2.2-1.8,5.1-2.7,8.6-2.7c1.1,0,2.3,0.1,3.6,0.4c1.3,0.2,2.5,0.6,3.4,0.9v6.9c-1-0.6-2.1-1.2-3.4-1.7
	c-1.3-0.5-2.6-0.7-3.8-0.7c-1.4,0-2.5,0.3-3.2,0.8C322.9,105.1,322.5,105.8,322.5,106.8z M338.9,114.6c0-5.1,1.4-9.2,4.3-12.2
	c2.9-3,6.9-4.5,12.1-4.5c4.8,0,8.6,1.4,11.3,4.3c2.7,2.9,4.1,6.8,4.1,11.7c0,5-1.4,9-4.3,12c-2.9,3-6.8,4.5-11.8,4.5
	c-4.8,0-8.6-1.4-11.4-4.2C340.4,123.3,338.9,119.4,338.9,114.6z M346.5,114.3c0,3.2,0.7,5.7,2.2,7.4c1.5,1.7,3.6,2.6,6.3,2.6
	c2.7,0,4.7-0.9,6.1-2.6c1.4-1.7,2.1-4.2,2.1-7.6c0-3.3-0.7-5.8-2.2-7.5c-1.4-1.7-3.4-2.5-6-2.5c-2.7,0-4.7,0.9-6.2,2.7
	C347.3,108.5,346.5,111,346.5,114.3z M394.9,104.6h-10.9v25h-7.4v-25h-5.2v-6h5.2v-4.3c0-3.3,1.1-5.9,3.2-8c2.1-2.1,4.8-3.1,8.1-3.1
	c0.9,0,1.7,0,2.4,0.1c0.7,0.1,1.3,0.2,1.8,0.4V90c-0.2-0.1-0.7-0.3-1.3-0.5c-0.6-0.2-1.3-0.3-2.1-0.3c-1.5,0-2.7,0.5-3.5,1.4
	s-1.2,2.4-1.2,4.2v3.7h10.9v-7l7.3-2.2v9.2h7.4v6h-7.4v14.5c0,1.9,0.3,3.3,1,4c0.7,0.8,1.8,1.2,3.3,1.2c0.4,0,0.9-0.1,1.5-0.3
	c0.6-0.2,1.1-0.4,1.6-0.7v6c-0.5,0.3-1.2,0.5-2.3,0.7c-1.1,0.2-2.1,0.3-3.2,0.3c-3.1,0-5.4-0.8-6.9-2.5c-1.5-1.6-2.3-4.1-2.3-7.4
	V104.6z"/>
<g>
	<rect x="72" y="72" class="st0" width="34.2" height="34.2"/>
	<rect x="109.8" y="72" class="st0" width="34.2" height="34.2"/>
	<rect x="72" y="109.8" class="st0" width="34.2" height="34.2"/>
	<rect x="109.8" y="109.8" class="st0" width="34.2" height="34.2"/>
</g>
</svg>
