<svg width="326" height="415" viewBox="0 0 326 415" fill="none" xmlns="http://www.w3.org/2000/svg">
<g clip-path="url(#clip0)">
<rect x="54" y="87" width="220" height="220" rx="110" fill="#F5F5F5"/>
<rect x="5.5" y="32.5" width="316" height="316" rx="158" stroke="#106EBE" stroke-dasharray="5 5"/>
<rect x="108" y="147" width="113" height="113" rx="56.5" fill="white"/>
<g clip-path="url(#clip1)">
<path d="M193.476 182.396C192.366 182.396 191.416 182.897 190.996 183.946H189.503V181.156C189.503 180.559 189.182 180.285 188.565 180.285H187.344V178.711C187.344 175.992 185.246 174 182.432 174H147.141C144.328 174 141.872 175.992 141.872 178.711V180.285H141.008C140.391 180.285 139.713 180.559 139.713 181.156V184.471H138.183C137.763 183.422 136.813 182.921 135.702 182.921C134.209 182.921 133 184.113 133 185.556C133 186.999 134.209 188.168 135.702 188.168C136.813 188.168 137.763 187.62 138.183 186.57H139.7V189.468C139.7 190.064 140.379 190.768 140.996 190.768H141.86V192.962C141.86 195.682 144.315 198.103 147.129 198.103H182.42C185.233 198.103 187.331 195.682 187.331 192.962V190.768H188.553C189.17 190.768 189.491 190.064 189.491 189.468V186.045H190.996C191.416 187.095 192.366 187.643 193.476 187.643C194.969 187.643 196.179 186.487 196.179 185.032C196.179 183.577 194.969 182.396 193.476 182.396ZM184.629 193.165C184.629 194.322 183.839 195.479 182.642 195.479H165.145H146.944H146.919C145.722 195.479 144.575 194.322 144.575 193.165V193.141V179.045V179.021C144.575 177.864 145.722 177.137 146.919 177.137H146.944H165.145H182.642C183.839 177.137 184.629 177.864 184.629 179.021V193.165Z" fill="#0078D4"/>
<path d="M182.642 177.137H165.145V195.467H182.642C183.839 195.467 184.629 194.31 184.629 193.153V179.021C184.629 177.864 183.839 177.137 182.642 177.137Z" fill="url(#paint0_linear)"/>
<path d="M146.944 177.137C145.735 177.137 144.575 177.864 144.575 179.033V193.13C144.575 194.298 145.735 195.455 146.944 195.455H165.145V177.137H146.944Z" fill="#9CEBFF"/>
<path d="M179.101 186.105L175.436 183.314C175.016 182.992 174.436 183.004 174.029 183.326L170.475 186.117C169.994 186.498 169.92 187.19 170.315 187.655C170.5 187.882 170.771 188.025 171.08 188.049C171.117 188.049 171.154 188.049 171.203 188.049C171.462 188.049 171.709 187.965 171.907 187.81L174.757 185.568L177.719 187.822C178.187 188.18 178.928 188.097 179.298 187.643C179.483 187.417 179.569 187.131 179.532 186.844C179.495 186.546 179.335 186.284 179.101 186.105Z" fill="#0078D4"/>
<path d="M159.258 187.643C158.888 188.096 158.148 188.18 157.679 187.822L154.717 185.568L151.867 187.81C151.67 187.965 151.41 188.049 151.164 188.049C151.127 188.049 151.09 188.049 151.04 188.049C150.744 188.013 150.473 187.882 150.275 187.655C149.88 187.19 149.954 186.498 150.436 186.117L153.989 183.326C154.397 183.004 154.977 183.004 155.396 183.314L159.061 186.105C159.295 186.284 159.444 186.546 159.481 186.832C159.53 187.13 159.456 187.405 159.258 187.643Z" fill="#0078D4"/>
<path d="M189.503 216.206V205.58C189.503 204.423 188.528 203.481 187.343 203.481H165.145V231.686C170.302 231.686 189.503 230.124 189.503 216.206Z" fill="url(#paint1_linear)"/>
<path d="M142.958 203.481C141.761 203.481 140.799 204.423 140.799 205.58V216.206C140.799 230.1 159.925 231.674 165.12 231.686V203.481H142.958Z" fill="#9CEBFF"/>
<path d="M188.479 200.857H141.811C139.75 200.857 138.084 202.205 138.084 204.197V216.194C138.084 231.114 156.248 234.107 164.997 233.988C173.918 233.857 192.131 230.971 192.205 216.29V204.209C192.205 202.217 190.54 200.857 188.479 200.857ZM165.145 231.686C159.987 231.686 140.786 230.124 140.786 216.206V205.58C140.786 204.423 141.761 203.481 142.946 203.481H165.132H187.319C188.516 203.481 189.478 204.423 189.478 205.58V216.206C189.503 230.124 170.303 231.686 165.145 231.686Z" fill="#0078D4"/>
<path d="M187.344 225.926H177.373C176.904 225.926 176.522 225.556 176.522 225.103C176.522 224.65 176.904 224.28 177.373 224.28H187.344C187.813 224.28 188.195 224.65 188.195 225.103C188.195 225.556 187.813 225.926 187.344 225.926Z" fill="#0078D4"/>
<path d="M182.728 229.397H172.548C172.079 229.397 171.697 229.027 171.697 228.574C171.697 228.121 172.079 227.751 172.548 227.751H182.728C183.197 227.751 183.58 228.121 183.58 228.574C183.58 229.027 183.197 229.397 182.728 229.397Z" fill="#0078D4"/>
<path d="M152.312 225.926H142.514C142.045 225.926 141.663 225.556 141.663 225.103C141.663 224.65 142.045 224.28 142.514 224.28H152.312C152.781 224.28 153.163 224.65 153.163 225.103C153.163 225.556 152.781 225.926 152.312 225.926Z" fill="#0078D4"/>
<path d="M157.136 229.397H146.82C146.351 229.397 145.969 229.027 145.969 228.574C145.969 228.121 146.351 227.751 146.82 227.751H157.136C157.605 227.751 157.988 228.121 157.988 228.574C157.988 229.027 157.605 229.397 157.136 229.397Z" fill="#0078D4"/>
<path d="M163.405 209.838C162.985 209.671 162.541 209.587 162.072 209.587C161.603 209.587 161.171 209.671 160.739 209.838C160.32 210.005 159.937 210.255 159.604 210.565C159.382 210.78 159.185 211.019 159.037 211.281C158.888 211.543 158.777 211.806 158.703 212.092C158.629 212.366 158.592 212.652 158.592 212.951C158.592 213.237 158.629 213.523 158.703 213.797C158.777 214.072 158.888 214.346 159.037 214.608C159.185 214.871 159.382 215.109 159.604 215.324L164.713 220.261L165.132 220.667L165.552 220.261L170.66 215.324C170.883 215.109 171.08 214.871 171.228 214.608C171.376 214.346 171.487 214.084 171.561 213.797C171.635 213.523 171.672 213.237 171.672 212.951C171.672 212.664 171.635 212.378 171.561 212.092C171.487 211.818 171.376 211.543 171.228 211.281C171.08 211.019 170.883 210.78 170.66 210.565C170.327 210.243 169.957 210.005 169.525 209.838C169.106 209.671 168.661 209.587 168.192 209.587C167.724 209.587 167.279 209.671 166.86 209.838C166.44 210.005 166.058 210.255 165.725 210.565L165.12 211.162L164.515 210.565C164.207 210.243 163.824 210.005 163.405 209.838Z" fill="#0078D4"/>
</g>
<g filter="url(#filter0_dd)">
<rect x="35.5" y="332" width="257" height="64" rx="2" fill="white"/>
<path d="M75.7344 353H71.2812V344.598H75.5469V345.488H72.2656V348.283H75.3008V349.168H72.2656V352.109H75.7344V353ZM82.2031 353H81.2422V349.578C81.2422 348.305 80.7773 347.668 79.8477 347.668C79.3672 347.668 78.9688 347.85 78.6523 348.213C78.3398 348.572 78.1836 349.027 78.1836 349.578V353H77.2227V347H78.1836V347.996H78.207C78.6602 347.238 79.3164 346.859 80.1758 346.859C80.832 346.859 81.334 347.072 81.6816 347.498C82.0293 347.92 82.2031 348.531 82.2031 349.332V353ZM86.8027 352.941C86.5762 353.066 86.2773 353.129 85.9062 353.129C84.8555 353.129 84.3301 352.543 84.3301 351.371V347.82H83.2988V347H84.3301V345.535L85.291 345.225V347H86.8027V347.82H85.291V351.201C85.291 351.604 85.3594 351.891 85.4961 352.062C85.6328 352.234 85.8594 352.32 86.1758 352.32C86.418 352.32 86.627 352.254 86.8027 352.121V352.941ZM92.9082 350.24H88.6719C88.6875 350.908 88.8672 351.424 89.2109 351.787C89.5547 352.15 90.0273 352.332 90.6289 352.332C91.3047 352.332 91.9258 352.109 92.4922 351.664V352.566C91.9648 352.949 91.2676 353.141 90.4004 353.141C89.5527 353.141 88.8867 352.869 88.4023 352.326C87.918 351.779 87.6758 351.012 87.6758 350.023C87.6758 349.09 87.9395 348.33 88.4668 347.744C88.998 347.154 89.6562 346.859 90.4414 346.859C91.2266 346.859 91.834 347.113 92.2637 347.621C92.6934 348.129 92.9082 348.834 92.9082 349.736V350.24ZM91.9238 349.426C91.9199 348.871 91.7852 348.439 91.5195 348.131C91.2578 347.822 90.8926 347.668 90.4238 347.668C89.9707 347.668 89.5859 347.83 89.2695 348.154C88.9531 348.479 88.7578 348.902 88.6836 349.426H91.9238ZM97.4961 347.973C97.3281 347.844 97.0859 347.779 96.7695 347.779C96.3594 347.779 96.0156 347.973 95.7383 348.359C95.4648 348.746 95.3281 349.273 95.3281 349.941V353H94.3672V347H95.3281V348.236H95.3516C95.4883 347.814 95.6973 347.486 95.9785 347.252C96.2598 347.014 96.5742 346.895 96.9219 346.895C97.1719 346.895 97.3633 346.922 97.4961 346.977V347.973ZM99.5234 352.133H99.5V355.76H98.5391V347H99.5V348.055H99.5234C99.9961 347.258 100.688 346.859 101.598 346.859C102.371 346.859 102.975 347.129 103.408 347.668C103.842 348.203 104.059 348.922 104.059 349.824C104.059 350.828 103.814 351.633 103.326 352.238C102.838 352.84 102.17 353.141 101.322 353.141C100.545 353.141 99.9453 352.805 99.5234 352.133ZM99.5 349.713V350.551C99.5 351.047 99.6602 351.469 99.9805 351.816C100.305 352.16 100.715 352.332 101.211 352.332C101.793 352.332 102.248 352.109 102.576 351.664C102.908 351.219 103.074 350.6 103.074 349.807C103.074 349.139 102.92 348.615 102.611 348.236C102.303 347.857 101.885 347.668 101.357 347.668C100.799 347.668 100.35 347.863 100.01 348.254C99.6699 348.641 99.5 349.127 99.5 349.713ZM108.723 347.973C108.555 347.844 108.312 347.779 107.996 347.779C107.586 347.779 107.242 347.973 106.965 348.359C106.691 348.746 106.555 349.273 106.555 349.941V353H105.594V347H106.555V348.236H106.578C106.715 347.814 106.924 347.486 107.205 347.252C107.486 347.014 107.801 346.895 108.148 346.895C108.398 346.895 108.59 346.922 108.723 346.977V347.973ZM110.258 345.477C110.086 345.477 109.939 345.418 109.818 345.301C109.697 345.184 109.637 345.035 109.637 344.855C109.637 344.676 109.697 344.527 109.818 344.41C109.939 344.289 110.086 344.229 110.258 344.229C110.434 344.229 110.582 344.289 110.703 344.41C110.828 344.527 110.891 344.676 110.891 344.855C110.891 345.027 110.828 345.174 110.703 345.295C110.582 345.416 110.434 345.477 110.258 345.477ZM110.727 353H109.766V347H110.727V353ZM112.309 352.783V351.752C112.832 352.139 113.408 352.332 114.037 352.332C114.881 352.332 115.303 352.051 115.303 351.488C115.303 351.328 115.266 351.193 115.191 351.084C115.121 350.971 115.023 350.871 114.898 350.785C114.777 350.699 114.633 350.623 114.465 350.557C114.301 350.486 114.123 350.414 113.932 350.34C113.666 350.234 113.432 350.129 113.229 350.023C113.029 349.914 112.861 349.793 112.725 349.66C112.592 349.523 112.49 349.369 112.42 349.197C112.354 349.025 112.32 348.824 112.32 348.594C112.32 348.312 112.385 348.064 112.514 347.85C112.643 347.631 112.814 347.449 113.029 347.305C113.244 347.156 113.488 347.045 113.762 346.971C114.039 346.896 114.324 346.859 114.617 346.859C115.137 346.859 115.602 346.949 116.012 347.129V348.102C115.57 347.812 115.062 347.668 114.488 347.668C114.309 347.668 114.146 347.689 114.002 347.732C113.857 347.771 113.732 347.828 113.627 347.902C113.525 347.977 113.445 348.066 113.387 348.172C113.332 348.273 113.305 348.387 113.305 348.512C113.305 348.668 113.332 348.799 113.387 348.904C113.445 349.01 113.529 349.104 113.639 349.186C113.748 349.268 113.881 349.342 114.037 349.408C114.193 349.475 114.371 349.547 114.57 349.625C114.836 349.727 115.074 349.832 115.285 349.941C115.496 350.047 115.676 350.168 115.824 350.305C115.973 350.438 116.086 350.592 116.164 350.768C116.246 350.943 116.287 351.152 116.287 351.395C116.287 351.691 116.221 351.949 116.088 352.168C115.959 352.387 115.785 352.568 115.566 352.713C115.348 352.857 115.096 352.965 114.811 353.035C114.525 353.105 114.227 353.141 113.914 353.141C113.297 353.141 112.762 353.021 112.309 352.783ZM122.592 350.24H118.355C118.371 350.908 118.551 351.424 118.895 351.787C119.238 352.15 119.711 352.332 120.312 352.332C120.988 352.332 121.609 352.109 122.176 351.664V352.566C121.648 352.949 120.951 353.141 120.084 353.141C119.236 353.141 118.57 352.869 118.086 352.326C117.602 351.779 117.359 351.012 117.359 350.023C117.359 349.09 117.623 348.33 118.15 347.744C118.682 347.154 119.34 346.859 120.125 346.859C120.91 346.859 121.518 347.113 121.947 347.621C122.377 348.129 122.592 348.834 122.592 349.736V350.24ZM121.607 349.426C121.604 348.871 121.469 348.439 121.203 348.131C120.941 347.822 120.576 347.668 120.107 347.668C119.654 347.668 119.27 347.83 118.953 348.154C118.637 348.479 118.441 348.902 118.367 349.426H121.607ZM131.639 353H130.678V352.062H130.654C130.236 352.781 129.621 353.141 128.809 353.141C128.211 353.141 127.742 352.982 127.402 352.666C127.066 352.35 126.898 351.93 126.898 351.406C126.898 350.285 127.559 349.633 128.879 349.449L130.678 349.197C130.678 348.178 130.266 347.668 129.441 347.668C128.719 347.668 128.066 347.914 127.484 348.406V347.422C128.074 347.047 128.754 346.859 129.523 346.859C130.934 346.859 131.639 347.605 131.639 349.098V353ZM130.678 349.965L129.23 350.164C128.785 350.227 128.449 350.338 128.223 350.498C127.996 350.654 127.883 350.934 127.883 351.336C127.883 351.629 127.986 351.869 128.193 352.057C128.404 352.24 128.684 352.332 129.031 352.332C129.508 352.332 129.9 352.166 130.209 351.834C130.521 351.498 130.678 351.074 130.678 350.562V349.965ZM133.086 352.783V351.752C133.609 352.139 134.186 352.332 134.814 352.332C135.658 352.332 136.08 352.051 136.08 351.488C136.08 351.328 136.043 351.193 135.969 351.084C135.898 350.971 135.801 350.871 135.676 350.785C135.555 350.699 135.41 350.623 135.242 350.557C135.078 350.486 134.9 350.414 134.709 350.34C134.443 350.234 134.209 350.129 134.006 350.023C133.807 349.914 133.639 349.793 133.502 349.66C133.369 349.523 133.268 349.369 133.197 349.197C133.131 349.025 133.098 348.824 133.098 348.594C133.098 348.312 133.162 348.064 133.291 347.85C133.42 347.631 133.592 347.449 133.807 347.305C134.021 347.156 134.266 347.045 134.539 346.971C134.816 346.896 135.102 346.859 135.395 346.859C135.914 346.859 136.379 346.949 136.789 347.129V348.102C136.348 347.812 135.84 347.668 135.266 347.668C135.086 347.668 134.924 347.689 134.779 347.732C134.635 347.771 134.51 347.828 134.404 347.902C134.303 347.977 134.223 348.066 134.164 348.172C134.109 348.273 134.082 348.387 134.082 348.512C134.082 348.668 134.109 348.799 134.164 348.904C134.223 349.01 134.307 349.104 134.416 349.186C134.525 349.268 134.658 349.342 134.814 349.408C134.971 349.475 135.148 349.547 135.348 349.625C135.613 349.727 135.852 349.832 136.062 349.941C136.273 350.047 136.453 350.168 136.602 350.305C136.75 350.438 136.863 350.592 136.941 350.768C137.023 350.943 137.064 351.152 137.064 351.395C137.064 351.691 136.998 351.949 136.865 352.168C136.736 352.387 136.562 352.568 136.344 352.713C136.125 352.857 135.873 352.965 135.588 353.035C135.303 353.105 135.004 353.141 134.691 353.141C134.074 353.141 133.539 353.021 133.086 352.783ZM138.184 352.783V351.752C138.707 352.139 139.283 352.332 139.912 352.332C140.756 352.332 141.178 352.051 141.178 351.488C141.178 351.328 141.141 351.193 141.066 351.084C140.996 350.971 140.898 350.871 140.773 350.785C140.652 350.699 140.508 350.623 140.34 350.557C140.176 350.486 139.998 350.414 139.807 350.34C139.541 350.234 139.307 350.129 139.104 350.023C138.904 349.914 138.736 349.793 138.6 349.66C138.467 349.523 138.365 349.369 138.295 349.197C138.229 349.025 138.195 348.824 138.195 348.594C138.195 348.312 138.26 348.064 138.389 347.85C138.518 347.631 138.689 347.449 138.904 347.305C139.119 347.156 139.363 347.045 139.637 346.971C139.914 346.896 140.199 346.859 140.492 346.859C141.012 346.859 141.477 346.949 141.887 347.129V348.102C141.445 347.812 140.938 347.668 140.363 347.668C140.184 347.668 140.021 347.689 139.877 347.732C139.732 347.771 139.607 347.828 139.502 347.902C139.4 347.977 139.32 348.066 139.262 348.172C139.207 348.273 139.18 348.387 139.18 348.512C139.18 348.668 139.207 348.799 139.262 348.904C139.32 349.01 139.404 349.104 139.514 349.186C139.623 349.268 139.756 349.342 139.912 349.408C140.068 349.475 140.246 349.547 140.445 349.625C140.711 349.727 140.949 349.832 141.16 349.941C141.371 350.047 141.551 350.168 141.699 350.305C141.848 350.438 141.961 350.592 142.039 350.768C142.121 350.943 142.162 351.152 142.162 351.395C142.162 351.691 142.096 351.949 141.963 352.168C141.834 352.387 141.66 352.568 141.441 352.713C141.223 352.857 140.971 352.965 140.686 353.035C140.4 353.105 140.102 353.141 139.789 353.141C139.172 353.141 138.637 353.021 138.184 352.783ZM144.137 345.477C143.965 345.477 143.818 345.418 143.697 345.301C143.576 345.184 143.516 345.035 143.516 344.855C143.516 344.676 143.576 344.527 143.697 344.41C143.818 344.289 143.965 344.229 144.137 344.229C144.312 344.229 144.461 344.289 144.582 344.41C144.707 344.527 144.77 344.676 144.77 344.855C144.77 345.027 144.707 345.174 144.582 345.295C144.461 345.416 144.312 345.477 144.137 345.477ZM144.605 353H143.645V347H144.605V353ZM146.188 352.783V351.752C146.711 352.139 147.287 352.332 147.916 352.332C148.76 352.332 149.182 352.051 149.182 351.488C149.182 351.328 149.145 351.193 149.07 351.084C149 350.971 148.902 350.871 148.777 350.785C148.656 350.699 148.512 350.623 148.344 350.557C148.18 350.486 148.002 350.414 147.811 350.34C147.545 350.234 147.311 350.129 147.107 350.023C146.908 349.914 146.74 349.793 146.604 349.66C146.471 349.523 146.369 349.369 146.299 349.197C146.232 349.025 146.199 348.824 146.199 348.594C146.199 348.312 146.264 348.064 146.393 347.85C146.521 347.631 146.693 347.449 146.908 347.305C147.123 347.156 147.367 347.045 147.641 346.971C147.918 346.896 148.203 346.859 148.496 346.859C149.016 346.859 149.48 346.949 149.891 347.129V348.102C149.449 347.812 148.941 347.668 148.367 347.668C148.188 347.668 148.025 347.689 147.881 347.732C147.736 347.771 147.611 347.828 147.506 347.902C147.404 347.977 147.324 348.066 147.266 348.172C147.211 348.273 147.184 348.387 147.184 348.512C147.184 348.668 147.211 348.799 147.266 348.904C147.324 349.01 147.408 349.104 147.518 349.186C147.627 349.268 147.76 349.342 147.916 349.408C148.072 349.475 148.25 349.547 148.449 349.625C148.715 349.727 148.953 349.832 149.164 349.941C149.375 350.047 149.555 350.168 149.703 350.305C149.852 350.438 149.965 350.592 150.043 350.768C150.125 350.943 150.166 351.152 150.166 351.395C150.166 351.691 150.1 351.949 149.967 352.168C149.838 352.387 149.664 352.568 149.445 352.713C149.227 352.857 148.975 352.965 148.689 353.035C148.404 353.105 148.105 353.141 147.793 353.141C147.176 353.141 146.641 353.021 146.188 352.783ZM154.432 352.941C154.205 353.066 153.906 353.129 153.535 353.129C152.484 353.129 151.959 352.543 151.959 351.371V347.82H150.928V347H151.959V345.535L152.92 345.225V347H154.432V347.82H152.92V351.201C152.92 351.604 152.988 351.891 153.125 352.062C153.262 352.234 153.488 352.32 153.805 352.32C154.047 352.32 154.256 352.254 154.432 352.121V352.941ZM160.01 353H159.049V352.062H159.025C158.607 352.781 157.992 353.141 157.18 353.141C156.582 353.141 156.113 352.982 155.773 352.666C155.438 352.35 155.27 351.93 155.27 351.406C155.27 350.285 155.93 349.633 157.25 349.449L159.049 349.197C159.049 348.178 158.637 347.668 157.812 347.668C157.09 347.668 156.438 347.914 155.855 348.406V347.422C156.445 347.047 157.125 346.859 157.895 346.859C159.305 346.859 160.01 347.605 160.01 349.098V353ZM159.049 349.965L157.602 350.164C157.156 350.227 156.82 350.338 156.594 350.498C156.367 350.654 156.254 350.934 156.254 351.336C156.254 351.629 156.357 351.869 156.564 352.057C156.775 352.24 157.055 352.332 157.402 352.332C157.879 352.332 158.271 352.166 158.58 351.834C158.893 351.498 159.049 351.074 159.049 350.562V349.965ZM166.801 353H165.84V349.578C165.84 348.305 165.375 347.668 164.445 347.668C163.965 347.668 163.566 347.85 163.25 348.213C162.938 348.572 162.781 349.027 162.781 349.578V353H161.82V347H162.781V347.996H162.805C163.258 347.238 163.914 346.859 164.773 346.859C165.43 346.859 165.932 347.072 166.279 347.498C166.627 347.92 166.801 348.531 166.801 349.332V353ZM171.4 352.941C171.174 353.066 170.875 353.129 170.504 353.129C169.453 353.129 168.928 352.543 168.928 351.371V347.82H167.896V347H168.928V345.535L169.889 345.225V347H171.4V347.82H169.889V351.201C169.889 351.604 169.957 351.891 170.094 352.062C170.23 352.234 170.457 352.32 170.773 352.32C171.016 352.32 171.225 352.254 171.4 352.121V352.941ZM176.469 345.477C176.297 345.477 176.15 345.418 176.029 345.301C175.908 345.184 175.848 345.035 175.848 344.855C175.848 344.676 175.908 344.527 176.029 344.41C176.15 344.289 176.297 344.229 176.469 344.229C176.645 344.229 176.793 344.289 176.914 344.41C177.039 344.527 177.102 344.676 177.102 344.855C177.102 345.027 177.039 345.174 176.914 345.295C176.793 345.416 176.645 345.477 176.469 345.477ZM176.938 353H175.977V347H176.938V353ZM178.52 352.783V351.752C179.043 352.139 179.619 352.332 180.248 352.332C181.092 352.332 181.514 352.051 181.514 351.488C181.514 351.328 181.477 351.193 181.402 351.084C181.332 350.971 181.234 350.871 181.109 350.785C180.988 350.699 180.844 350.623 180.676 350.557C180.512 350.486 180.334 350.414 180.143 350.34C179.877 350.234 179.643 350.129 179.439 350.023C179.24 349.914 179.072 349.793 178.936 349.66C178.803 349.523 178.701 349.369 178.631 349.197C178.564 349.025 178.531 348.824 178.531 348.594C178.531 348.312 178.596 348.064 178.725 347.85C178.854 347.631 179.025 347.449 179.24 347.305C179.455 347.156 179.699 347.045 179.973 346.971C180.25 346.896 180.535 346.859 180.828 346.859C181.348 346.859 181.812 346.949 182.223 347.129V348.102C181.781 347.812 181.273 347.668 180.699 347.668C180.52 347.668 180.357 347.689 180.213 347.732C180.068 347.771 179.943 347.828 179.838 347.902C179.736 347.977 179.656 348.066 179.598 348.172C179.543 348.273 179.516 348.387 179.516 348.512C179.516 348.668 179.543 348.799 179.598 348.904C179.656 349.01 179.74 349.104 179.85 349.186C179.959 349.268 180.092 349.342 180.248 349.408C180.404 349.475 180.582 349.547 180.781 349.625C181.047 349.727 181.285 349.832 181.496 349.941C181.707 350.047 181.887 350.168 182.035 350.305C182.184 350.438 182.297 350.592 182.375 350.768C182.457 350.943 182.498 351.152 182.498 351.395C182.498 351.691 182.432 351.949 182.299 352.168C182.17 352.387 181.996 352.568 181.777 352.713C181.559 352.857 181.307 352.965 181.021 353.035C180.736 353.105 180.438 353.141 180.125 353.141C179.508 353.141 178.973 353.021 178.52 352.783ZM192.096 350.24H187.859C187.875 350.908 188.055 351.424 188.398 351.787C188.742 352.15 189.215 352.332 189.816 352.332C190.492 352.332 191.113 352.109 191.68 351.664V352.566C191.152 352.949 190.455 353.141 189.588 353.141C188.74 353.141 188.074 352.869 187.59 352.326C187.105 351.779 186.863 351.012 186.863 350.023C186.863 349.09 187.127 348.33 187.654 347.744C188.186 347.154 188.844 346.859 189.629 346.859C190.414 346.859 191.021 347.113 191.451 347.621C191.881 348.129 192.096 348.834 192.096 349.736V350.24ZM191.111 349.426C191.107 348.871 190.973 348.439 190.707 348.131C190.445 347.822 190.08 347.668 189.611 347.668C189.158 347.668 188.773 347.83 188.457 348.154C188.141 348.479 187.945 348.902 187.871 349.426H191.111ZM198.535 353H197.574V349.578C197.574 348.305 197.109 347.668 196.18 347.668C195.699 347.668 195.301 347.85 194.984 348.213C194.672 348.572 194.516 349.027 194.516 349.578V353H193.555V347H194.516V347.996H194.539C194.992 347.238 195.648 346.859 196.508 346.859C197.164 346.859 197.666 347.072 198.014 347.498C198.361 347.92 198.535 348.531 198.535 349.332V353ZM204.646 353H203.686V352.062H203.662C203.244 352.781 202.629 353.141 201.816 353.141C201.219 353.141 200.75 352.982 200.41 352.666C200.074 352.35 199.906 351.93 199.906 351.406C199.906 350.285 200.566 349.633 201.887 349.449L203.686 349.197C203.686 348.178 203.273 347.668 202.449 347.668C201.727 347.668 201.074 347.914 200.492 348.406V347.422C201.082 347.047 201.762 346.859 202.531 346.859C203.941 346.859 204.646 347.605 204.646 349.098V353ZM203.686 349.965L202.238 350.164C201.793 350.227 201.457 350.338 201.23 350.498C201.004 350.654 200.891 350.934 200.891 351.336C200.891 351.629 200.994 351.869 201.201 352.057C201.412 352.24 201.691 352.332 202.039 352.332C202.516 352.332 202.908 352.166 203.217 351.834C203.529 351.498 203.686 351.074 203.686 350.562V349.965ZM207.441 352.133H207.418V353H206.457V344.117H207.418V348.055H207.441C207.914 347.258 208.605 346.859 209.516 346.859C210.285 346.859 210.887 347.129 211.32 347.668C211.758 348.203 211.977 348.922 211.977 349.824C211.977 350.828 211.732 351.633 211.244 352.238C210.756 352.84 210.088 353.141 209.24 353.141C208.447 353.141 207.848 352.805 207.441 352.133ZM207.418 349.713V350.551C207.418 351.047 207.578 351.469 207.898 351.816C208.223 352.16 208.633 352.332 209.129 352.332C209.711 352.332 210.166 352.109 210.494 351.664C210.826 351.219 210.992 350.6 210.992 349.807C210.992 349.139 210.838 348.615 210.529 348.236C210.221 347.857 209.803 347.668 209.275 347.668C208.717 347.668 208.268 347.863 207.928 348.254C207.588 348.641 207.418 349.127 207.418 349.713ZM214.473 353H213.512V344.117H214.473V353ZM221.24 350.24H217.004C217.02 350.908 217.199 351.424 217.543 351.787C217.887 352.15 218.359 352.332 218.961 352.332C219.637 352.332 220.258 352.109 220.824 351.664V352.566C220.297 352.949 219.6 353.141 218.732 353.141C217.885 353.141 217.219 352.869 216.734 352.326C216.25 351.779 216.008 351.012 216.008 350.023C216.008 349.09 216.271 348.33 216.799 347.744C217.33 347.154 217.988 346.859 218.773 346.859C219.559 346.859 220.166 347.113 220.596 347.621C221.025 348.129 221.24 348.834 221.24 349.736V350.24ZM220.256 349.426C220.252 348.871 220.117 348.439 219.852 348.131C219.59 347.822 219.225 347.668 218.756 347.668C218.303 347.668 217.918 347.83 217.602 348.154C217.285 348.479 217.09 348.902 217.016 349.426H220.256ZM227.82 353H226.859V351.98H226.836C226.391 352.754 225.703 353.141 224.773 353.141C224.02 353.141 223.416 352.873 222.963 352.338C222.514 351.799 222.289 351.066 222.289 350.141C222.289 349.148 222.539 348.354 223.039 347.756C223.539 347.158 224.205 346.859 225.037 346.859C225.861 346.859 226.461 347.184 226.836 347.832H226.859V344.117H227.82V353ZM226.859 350.287V349.402C226.859 348.918 226.699 348.508 226.379 348.172C226.059 347.836 225.652 347.668 225.16 347.668C224.574 347.668 224.113 347.883 223.777 348.312C223.441 348.742 223.273 349.336 223.273 350.094C223.273 350.785 223.434 351.332 223.754 351.734C224.078 352.133 224.512 352.332 225.055 352.332C225.59 352.332 226.023 352.139 226.355 351.752C226.691 351.365 226.859 350.877 226.859 350.287ZM240.617 347L238.818 353H237.822L236.586 348.705C236.539 348.541 236.508 348.355 236.492 348.148H236.469C236.457 348.289 236.416 348.471 236.346 348.693L235.004 353H234.043L232.227 347H233.234L234.477 351.512C234.516 351.648 234.543 351.828 234.559 352.051H234.605C234.617 351.879 234.652 351.695 234.711 351.5L236.094 347H236.973L238.215 351.523C238.254 351.668 238.283 351.848 238.303 352.062H238.35C238.357 351.91 238.391 351.73 238.449 351.523L239.668 347H240.617ZM242.223 345.477C242.051 345.477 241.904 345.418 241.783 345.301C241.662 345.184 241.602 345.035 241.602 344.855C241.602 344.676 241.662 344.527 241.783 344.41C241.904 344.289 242.051 344.229 242.223 344.229C242.398 344.229 242.547 344.289 242.668 344.41C242.793 344.527 242.855 344.676 242.855 344.855C242.855 345.027 242.793 345.174 242.668 345.295C242.547 345.416 242.398 345.477 242.223 345.477ZM242.691 353H241.73V347H242.691V353ZM247.42 352.941C247.193 353.066 246.895 353.129 246.523 353.129C245.473 353.129 244.947 352.543 244.947 351.371V347.82H243.916V347H244.947V345.535L245.908 345.225V347H247.42V347.82H245.908V351.201C245.908 351.604 245.977 351.891 246.113 352.062C246.25 352.234 246.477 352.32 246.793 352.32C247.035 352.32 247.244 352.254 247.42 352.121V352.941ZM253.684 353H252.723V349.543C252.723 348.293 252.258 347.668 251.328 347.668C250.859 347.668 250.465 347.85 250.145 348.213C249.824 348.572 249.664 349.035 249.664 349.602V353H248.703V344.117H249.664V347.996H249.688C250.148 347.238 250.805 346.859 251.656 346.859C253.008 346.859 253.684 347.674 253.684 349.303V353ZM50.6738 368.701C50.0605 368.998 49.2598 369.146 48.2715 369.146C46.9824 369.146 45.9688 368.768 45.2305 368.01C44.4922 367.252 44.123 366.242 44.123 364.98C44.123 363.637 44.5371 362.547 45.3652 361.711C46.1973 360.875 47.2754 360.457 48.5996 360.457C49.4199 360.457 50.1113 360.561 50.6738 360.768V362.59C50.1113 362.254 49.4707 362.086 48.752 362.086C47.9629 362.086 47.3262 362.334 46.8418 362.83C46.3574 363.326 46.1152 363.998 46.1152 364.846C46.1152 365.658 46.3438 366.307 46.8008 366.791C47.2578 367.271 47.873 367.512 48.6465 367.512C49.3848 367.512 50.0605 367.332 50.6738 366.973V368.701ZM57.7168 369H55.8711V365.59C55.8711 364.711 55.5508 364.271 54.9102 364.271C54.582 364.271 54.3164 364.395 54.1133 364.641C53.9102 364.887 53.8086 365.199 53.8086 365.578V369H51.957V360.117H53.8086V363.891H53.832C54.2852 363.199 54.9004 362.854 55.6777 362.854C57.0371 362.854 57.7168 363.674 57.7168 365.314V369ZM60.125 362.051C59.8125 362.051 59.5566 361.959 59.3574 361.775C59.1582 361.588 59.0586 361.359 59.0586 361.09C59.0586 360.812 59.1582 360.586 59.3574 360.41C59.5566 360.234 59.8125 360.146 60.125 360.146C60.4414 360.146 60.6973 360.234 60.8926 360.41C61.0918 360.586 61.1914 360.812 61.1914 361.09C61.1914 361.371 61.0918 361.602 60.8926 361.781C60.6973 361.961 60.4414 362.051 60.125 362.051ZM61.0391 369H59.1875V363H61.0391V369ZM66.2246 368.93C65.9512 369.074 65.5391 369.146 64.9883 369.146C63.6836 369.146 63.0312 368.469 63.0312 367.113V364.365H62.0586V363H63.0312V361.705L64.877 361.178V363H66.2246V364.365H64.877V366.791C64.877 367.416 65.125 367.729 65.6211 367.729C65.8164 367.729 66.0176 367.672 66.2246 367.559V368.93ZM71.7734 368.783C71.3555 369.025 70.752 369.146 69.9629 369.146C69.041 369.146 68.2949 368.867 67.7246 368.309C67.1543 367.75 66.8691 367.029 66.8691 366.146C66.8691 365.127 67.1738 364.324 67.7832 363.738C68.3965 363.148 69.2148 362.854 70.2383 362.854C70.9453 362.854 71.457 362.947 71.7734 363.135V364.705C71.3867 364.416 70.9551 364.271 70.4785 364.271C69.9473 364.271 69.5254 364.428 69.2129 364.74C68.9043 365.049 68.75 365.477 68.75 366.023C68.75 366.555 68.8984 366.973 69.1953 367.277C69.4922 367.578 69.9004 367.729 70.4199 367.729C70.8809 367.729 71.332 367.584 71.7734 367.295V368.783ZM78.752 369H76.9062V365.59C76.9062 364.711 76.5859 364.271 75.9453 364.271C75.6172 364.271 75.3516 364.395 75.1484 364.641C74.9453 364.887 74.8438 365.199 74.8438 365.578V369H72.9922V360.117H74.8438V363.891H74.8672C75.3203 363.199 75.9355 362.854 76.7129 362.854C78.0723 362.854 78.752 363.674 78.752 365.314V369ZM85.2148 369H83.4629V368.139H83.4395C83.0371 368.811 82.4414 369.146 81.6523 369.146C81.0703 369.146 80.6113 368.982 80.2754 368.654C79.9434 368.322 79.7773 367.881 79.7773 367.33C79.7773 366.166 80.4668 365.494 81.8457 365.314L83.4746 365.098C83.4746 364.441 83.1191 364.113 82.4082 364.113C81.6934 364.113 81.0137 364.326 80.3691 364.752V363.357C80.627 363.225 80.9785 363.107 81.4238 363.006C81.873 362.904 82.2812 362.854 82.6484 362.854C84.3594 362.854 85.2148 363.707 85.2148 365.414V369ZM83.4746 366.562V366.158L82.3848 366.299C81.7832 366.377 81.4824 366.648 81.4824 367.113C81.4824 367.324 81.5547 367.498 81.6992 367.635C81.8477 367.768 82.0469 367.834 82.2969 367.834C82.6445 367.834 82.9277 367.715 83.1465 367.477C83.3652 367.234 83.4746 366.93 83.4746 366.562ZM90.3066 368.93C90.0332 369.074 89.6211 369.146 89.0703 369.146C87.7656 369.146 87.1133 368.469 87.1133 367.113V364.365H86.1406V363H87.1133V361.705L88.959 361.178V363H90.3066V364.365H88.959V366.791C88.959 367.416 89.207 367.729 89.7031 367.729C89.8984 367.729 90.0996 367.672 90.3066 367.559V368.93ZM93.1074 367.523L92.2461 370.488H90.8047L91.4023 367.523H93.1074ZM102.969 362.139H100.004V364.201H102.729V365.736H100.004V369H98.1113V360.598H102.969V362.139ZM111.09 369H109.027L108.43 367.131H105.441L104.85 369H102.799L105.857 360.598H108.102L111.09 369ZM107.996 365.678L107.094 362.854C107.027 362.643 106.98 362.391 106.953 362.098H106.906C106.887 362.344 106.838 362.588 106.76 362.83L105.846 365.678H107.996ZM115.689 369.146C114.486 369.146 113.506 368.756 112.748 367.975C111.99 367.186 111.611 366.164 111.611 364.91C111.611 363.586 111.996 362.512 112.766 361.688C113.531 360.867 114.551 360.457 115.824 360.457C117.023 360.457 117.992 360.85 118.73 361.635C119.473 362.416 119.844 363.451 119.844 364.74C119.844 366.057 119.459 367.121 118.689 367.934C118.662 367.961 118.637 367.988 118.613 368.016C118.59 368.039 118.564 368.062 118.537 368.086L120.664 370.131H118.016L116.902 369C116.535 369.098 116.131 369.146 115.689 369.146ZM115.771 362.086C115.111 362.086 114.584 362.336 114.189 362.836C113.799 363.332 113.604 363.99 113.604 364.811C113.604 365.643 113.799 366.301 114.189 366.785C114.58 367.27 115.092 367.512 115.725 367.512C116.377 367.512 116.895 367.277 117.277 366.809C117.66 366.332 117.852 365.678 117.852 364.846C117.852 363.979 117.666 363.301 117.295 362.812C116.928 362.328 116.42 362.086 115.771 362.086ZM130.391 369H128.17L126.254 366.023H126.23V369H124.379V360.117H126.23V365.771H126.254L128.041 363H130.238L128.088 365.818L130.391 369ZM136.889 369H135.043V365.666C135.043 364.736 134.711 364.271 134.047 364.271C133.727 364.271 133.463 364.395 133.256 364.641C133.049 364.887 132.945 365.199 132.945 365.578V369H131.094V363H132.945V363.949H132.969C133.41 363.219 134.053 362.854 134.896 362.854C136.225 362.854 136.889 363.678 136.889 365.326V369ZM141.219 369.146C140.219 369.146 139.432 368.867 138.857 368.309C138.287 367.746 138.002 366.984 138.002 366.023C138.002 365.031 138.299 364.256 138.893 363.697C139.486 363.135 140.289 362.854 141.301 362.854C142.297 362.854 143.078 363.135 143.645 363.697C144.211 364.256 144.494 364.996 144.494 365.918C144.494 366.914 144.201 367.701 143.615 368.279C143.033 368.857 142.234 369.146 141.219 369.146ZM141.266 364.271C140.828 364.271 140.488 364.422 140.246 364.723C140.004 365.023 139.883 365.449 139.883 366C139.883 367.152 140.348 367.729 141.277 367.729C142.164 367.729 142.607 367.137 142.607 365.953C142.607 364.832 142.16 364.271 141.266 364.271ZM154.385 363L152.656 369H150.711L149.826 365.484C149.768 365.25 149.734 364.994 149.727 364.717H149.691C149.664 365.021 149.625 365.27 149.574 365.461L148.625 369H146.703L145.01 363H146.896L147.723 366.914C147.762 367.098 147.791 367.32 147.811 367.582H147.846C147.865 367.309 147.9 367.078 147.951 366.891L148.982 363H150.746L151.672 366.914C151.695 367.012 151.723 367.238 151.754 367.594H151.795C151.814 367.367 151.846 367.141 151.889 366.914L152.668 363H154.385ZM157.121 369H155.27V360.117H157.121V369ZM164.07 366.527H160.156C160.219 367.398 160.768 367.834 161.803 367.834C162.463 367.834 163.043 367.678 163.543 367.365V368.701C162.988 368.998 162.268 369.146 161.381 369.146C160.412 369.146 159.66 368.879 159.125 368.344C158.59 367.805 158.322 367.055 158.322 366.094C158.322 365.098 158.611 364.309 159.189 363.727C159.768 363.145 160.479 362.854 161.322 362.854C162.197 362.854 162.873 363.113 163.35 363.633C163.83 364.152 164.07 364.857 164.07 365.748V366.527ZM162.354 365.391C162.354 364.531 162.006 364.102 161.311 364.102C161.014 364.102 160.756 364.225 160.537 364.471C160.322 364.717 160.191 365.023 160.145 365.391H162.354ZM171.043 369H169.191V368.174H169.168C168.746 368.822 168.127 369.146 167.311 369.146C166.561 369.146 165.957 368.883 165.5 368.355C165.043 367.824 164.814 367.084 164.814 366.135C164.814 365.143 165.066 364.348 165.57 363.75C166.074 363.152 166.734 362.854 167.551 362.854C168.324 362.854 168.863 363.131 169.168 363.686H169.191V360.117H171.043V369ZM169.227 366.082V365.631C169.227 365.24 169.113 364.916 168.887 364.658C168.66 364.4 168.365 364.271 168.002 364.271C167.592 364.271 167.271 364.434 167.041 364.758C166.811 365.078 166.695 365.52 166.695 366.082C166.695 366.609 166.807 367.016 167.029 367.301C167.252 367.586 167.561 367.729 167.955 367.729C168.33 367.729 168.635 367.578 168.869 367.277C169.107 366.977 169.227 366.578 169.227 366.082ZM178.484 368.314C178.484 369.428 178.162 370.289 177.518 370.898C176.873 371.512 175.939 371.818 174.717 371.818C173.908 371.818 173.268 371.703 172.795 371.473V369.914C173.412 370.273 174.035 370.453 174.664 370.453C175.289 370.453 175.773 370.287 176.117 369.955C176.461 369.627 176.633 369.18 176.633 368.613V368.139H176.609C176.188 368.811 175.564 369.146 174.74 369.146C173.975 369.146 173.367 368.877 172.918 368.338C172.469 367.799 172.244 367.076 172.244 366.17C172.244 365.154 172.494 364.348 172.994 363.75C173.494 363.152 174.152 362.854 174.969 362.854C175.699 362.854 176.246 363.135 176.609 363.697H176.633V363H178.484V368.314ZM176.656 366.117V365.643C176.656 365.264 176.543 364.941 176.316 364.676C176.094 364.406 175.803 364.271 175.443 364.271C175.033 364.271 174.711 364.432 174.477 364.752C174.242 365.072 174.125 365.523 174.125 366.105C174.125 366.605 174.236 367.002 174.459 367.295C174.682 367.584 174.986 367.729 175.373 367.729C175.756 367.729 176.064 367.582 176.299 367.289C176.537 366.992 176.656 366.602 176.656 366.117ZM185.422 366.527H181.508C181.57 367.398 182.119 367.834 183.154 367.834C183.814 367.834 184.395 367.678 184.895 367.365V368.701C184.34 368.998 183.619 369.146 182.732 369.146C181.764 369.146 181.012 368.879 180.477 368.344C179.941 367.805 179.674 367.055 179.674 366.094C179.674 365.098 179.963 364.309 180.541 363.727C181.119 363.145 181.83 362.854 182.674 362.854C183.549 362.854 184.225 363.113 184.701 363.633C185.182 364.152 185.422 364.857 185.422 365.748V366.527ZM183.705 365.391C183.705 364.531 183.357 364.102 182.662 364.102C182.365 364.102 182.107 364.225 181.889 364.471C181.674 364.717 181.543 365.023 181.496 365.391H183.705ZM197.727 369.135C197.52 369.135 197.322 369.107 197.135 369.053C196.951 368.998 196.775 368.924 196.607 368.83C196.443 368.736 196.287 368.627 196.139 368.502C195.99 368.373 195.85 368.236 195.717 368.092C195.572 368.209 195.398 368.33 195.195 368.455C194.992 368.58 194.762 368.693 194.504 368.795C194.25 368.893 193.969 368.973 193.66 369.035C193.352 369.102 193.021 369.135 192.67 369.135C192.213 369.135 191.789 369.08 191.398 368.971C191.012 368.861 190.678 368.699 190.396 368.484C190.115 368.266 189.895 367.996 189.734 367.676C189.578 367.355 189.5 366.984 189.5 366.562C189.5 366.23 189.559 365.936 189.676 365.678C189.797 365.416 189.953 365.188 190.145 364.992C190.336 364.797 190.553 364.629 190.795 364.488C191.037 364.348 191.283 364.23 191.533 364.137C191.412 364.043 191.289 363.936 191.164 363.814C191.043 363.689 190.934 363.555 190.836 363.41C190.738 363.262 190.658 363.102 190.596 362.93C190.537 362.758 190.508 362.576 190.508 362.385C190.508 362.076 190.57 361.803 190.695 361.564C190.82 361.326 190.994 361.125 191.217 360.961C191.443 360.797 191.713 360.672 192.025 360.586C192.338 360.5 192.682 360.457 193.057 360.457C193.416 360.457 193.744 360.502 194.041 360.592C194.342 360.682 194.6 360.807 194.814 360.967C195.029 361.127 195.195 361.32 195.312 361.547C195.43 361.77 195.488 362.016 195.488 362.285C195.488 362.719 195.357 363.096 195.096 363.416C194.838 363.732 194.473 363.99 194 364.189C194.188 364.275 194.367 364.373 194.539 364.482C194.711 364.592 194.879 364.717 195.043 364.857C195.207 364.998 195.367 365.158 195.523 365.338C195.68 365.514 195.834 365.717 195.986 365.947C196.307 365.545 196.535 365.117 196.672 364.664C196.812 364.207 196.883 363.732 196.883 363.24C196.883 363.092 196.873 362.949 196.854 362.812C196.838 362.676 196.811 362.549 196.771 362.432H198.348C198.391 362.557 198.422 362.678 198.441 362.795C198.461 362.912 198.471 363.051 198.471 363.211C198.471 363.59 198.43 363.959 198.348 364.318C198.27 364.678 198.158 365.021 198.014 365.35C197.869 365.678 197.693 365.988 197.486 366.281C197.283 366.574 197.059 366.848 196.812 367.102C197.004 367.301 197.201 367.455 197.404 367.564C197.607 367.67 197.799 367.723 197.979 367.723C198.166 367.723 198.357 367.703 198.553 367.664C198.748 367.621 198.918 367.562 199.062 367.488V368.883C198.848 368.969 198.635 369.031 198.424 369.07C198.217 369.113 197.984 369.135 197.727 369.135ZM192.764 367.734C192.994 367.734 193.211 367.713 193.414 367.67C193.617 367.623 193.809 367.562 193.988 367.488C194.168 367.414 194.334 367.328 194.486 367.23C194.643 367.133 194.785 367.031 194.914 366.926C194.715 366.613 194.518 366.35 194.322 366.135C194.127 365.916 193.934 365.73 193.742 365.578C193.551 365.422 193.359 365.291 193.168 365.186C192.98 365.08 192.791 364.984 192.6 364.898C192.439 364.977 192.285 365.064 192.137 365.162C191.992 365.256 191.863 365.367 191.75 365.496C191.637 365.621 191.545 365.766 191.475 365.93C191.408 366.09 191.375 366.275 191.375 366.486C191.375 366.674 191.408 366.844 191.475 366.996C191.541 367.148 191.635 367.279 191.756 367.389C191.881 367.498 192.027 367.584 192.195 367.646C192.367 367.705 192.557 367.734 192.764 367.734ZM193.848 362.414C193.848 362.301 193.826 362.199 193.783 362.109C193.74 362.02 193.682 361.945 193.607 361.887C193.533 361.824 193.449 361.777 193.355 361.746C193.262 361.711 193.162 361.693 193.057 361.693C192.928 361.693 192.809 361.713 192.699 361.752C192.594 361.791 192.5 361.844 192.418 361.91C192.34 361.977 192.279 362.057 192.236 362.15C192.193 362.24 192.172 362.338 192.172 362.443C192.172 362.662 192.24 362.863 192.377 363.047C192.514 363.23 192.684 363.379 192.887 363.492C193.016 363.445 193.137 363.391 193.25 363.328C193.367 363.266 193.469 363.191 193.555 363.105C193.645 363.02 193.715 362.92 193.766 362.807C193.82 362.693 193.848 362.562 193.848 362.414ZM208.344 369H206.592V368.139H206.568C206.166 368.811 205.57 369.146 204.781 369.146C204.199 369.146 203.74 368.982 203.404 368.654C203.072 368.322 202.906 367.881 202.906 367.33C202.906 366.166 203.596 365.494 204.975 365.314L206.604 365.098C206.604 364.441 206.248 364.113 205.537 364.113C204.822 364.113 204.143 364.326 203.498 364.752V363.357C203.756 363.225 204.107 363.107 204.553 363.006C205.002 362.904 205.41 362.854 205.777 362.854C207.488 362.854 208.344 363.707 208.344 365.414V369ZM206.604 366.562V366.158L205.514 366.299C204.912 366.377 204.611 366.648 204.611 367.113C204.611 367.324 204.684 367.498 204.828 367.635C204.977 367.768 205.176 367.834 205.426 367.834C205.773 367.834 206.057 367.715 206.275 367.477C206.494 367.234 206.604 366.93 206.604 366.562ZM215.68 369H213.828V368.174H213.805C213.383 368.822 212.764 369.146 211.947 369.146C211.197 369.146 210.594 368.883 210.137 368.355C209.68 367.824 209.451 367.084 209.451 366.135C209.451 365.143 209.703 364.348 210.207 363.75C210.711 363.152 211.371 362.854 212.188 362.854C212.961 362.854 213.5 363.131 213.805 363.686H213.828V360.117H215.68V369ZM213.863 366.082V365.631C213.863 365.24 213.75 364.916 213.523 364.658C213.297 364.4 213.002 364.271 212.639 364.271C212.229 364.271 211.908 364.434 211.678 364.758C211.447 365.078 211.332 365.52 211.332 366.082C211.332 366.609 211.443 367.016 211.666 367.301C211.889 367.586 212.197 367.729 212.592 367.729C212.967 367.729 213.271 367.578 213.506 367.277C213.744 366.977 213.863 366.578 213.863 366.082ZM222.23 369H220.479V368.139H220.455C220.053 368.811 219.457 369.146 218.668 369.146C218.086 369.146 217.627 368.982 217.291 368.654C216.959 368.322 216.793 367.881 216.793 367.33C216.793 366.166 217.482 365.494 218.861 365.314L220.49 365.098C220.49 364.441 220.135 364.113 219.424 364.113C218.709 364.113 218.029 364.326 217.385 364.752V363.357C217.643 363.225 217.994 363.107 218.439 363.006C218.889 362.904 219.297 362.854 219.664 362.854C221.375 362.854 222.23 363.707 222.23 365.414V369ZM220.49 366.562V366.158L219.4 366.299C218.799 366.377 218.498 366.648 218.498 367.113C218.498 367.324 218.57 367.498 218.715 367.635C218.863 367.768 219.062 367.834 219.312 367.834C219.66 367.834 219.943 367.715 220.162 367.477C220.381 367.234 220.49 366.93 220.49 366.562ZM225.57 368.303H225.547V371.76H223.695V363H225.547V363.902H225.57C226.027 363.203 226.67 362.854 227.498 362.854C228.275 362.854 228.875 363.121 229.297 363.656C229.723 364.188 229.936 364.912 229.936 365.83C229.936 366.83 229.688 367.633 229.191 368.238C228.699 368.844 228.043 369.146 227.223 369.146C226.5 369.146 225.949 368.865 225.57 368.303ZM225.518 365.842V366.322C225.518 366.736 225.627 367.074 225.846 367.336C226.064 367.598 226.352 367.729 226.707 367.729C227.129 367.729 227.455 367.566 227.686 367.242C227.92 366.914 228.037 366.451 228.037 365.854C228.037 364.799 227.627 364.271 226.807 364.271C226.428 364.271 226.117 364.416 225.875 364.705C225.637 364.99 225.518 365.369 225.518 365.842ZM234.764 368.93C234.49 369.074 234.078 369.146 233.527 369.146C232.223 369.146 231.57 368.469 231.57 367.113V364.365H230.598V363H231.57V361.705L233.416 361.178V363H234.764V364.365H233.416V366.791C233.416 367.416 233.664 367.729 234.16 367.729C234.355 367.729 234.557 367.672 234.764 367.559V368.93ZM236.75 362.051C236.438 362.051 236.182 361.959 235.982 361.775C235.783 361.588 235.684 361.359 235.684 361.09C235.684 360.812 235.783 360.586 235.982 360.41C236.182 360.234 236.438 360.146 236.75 360.146C237.066 360.146 237.322 360.234 237.518 360.41C237.717 360.586 237.816 360.812 237.816 361.09C237.816 361.371 237.717 361.602 237.518 361.781C237.322 361.961 237.066 362.051 236.75 362.051ZM237.664 369H235.812V363H237.664V369ZM244.936 363L242.703 369H240.594L238.467 363H240.447L241.49 366.697C241.607 367.115 241.676 367.471 241.695 367.764H241.719C241.746 367.486 241.818 367.143 241.936 366.732L243.002 363H244.936ZM251 366.527H247.086C247.148 367.398 247.697 367.834 248.732 367.834C249.393 367.834 249.973 367.678 250.473 367.365V368.701C249.918 368.998 249.197 369.146 248.311 369.146C247.342 369.146 246.59 368.879 246.055 368.344C245.52 367.805 245.252 367.055 245.252 366.094C245.252 365.098 245.541 364.309 246.119 363.727C246.697 363.145 247.408 362.854 248.252 362.854C249.127 362.854 249.803 363.113 250.279 363.633C250.76 364.152 251 364.857 251 365.748V366.527ZM249.283 365.391C249.283 364.531 248.936 364.102 248.24 364.102C247.943 364.102 247.686 364.225 247.467 364.471C247.252 364.717 247.121 365.023 247.074 365.391H249.283ZM259.965 368.783C259.547 369.025 258.943 369.146 258.154 369.146C257.232 369.146 256.486 368.867 255.916 368.309C255.346 367.75 255.061 367.029 255.061 366.146C255.061 365.127 255.365 364.324 255.975 363.738C256.588 363.148 257.406 362.854 258.43 362.854C259.137 362.854 259.648 362.947 259.965 363.135V364.705C259.578 364.416 259.146 364.271 258.67 364.271C258.139 364.271 257.717 364.428 257.404 364.74C257.096 365.049 256.941 365.477 256.941 366.023C256.941 366.555 257.09 366.973 257.387 367.277C257.684 367.578 258.092 367.729 258.611 367.729C259.072 367.729 259.523 367.584 259.965 367.295V368.783ZM266.176 369H264.424V368.139H264.4C263.998 368.811 263.402 369.146 262.613 369.146C262.031 369.146 261.572 368.982 261.236 368.654C260.904 368.322 260.738 367.881 260.738 367.33C260.738 366.166 261.428 365.494 262.807 365.314L264.436 365.098C264.436 364.441 264.08 364.113 263.369 364.113C262.654 364.113 261.975 364.326 261.33 364.752V363.357C261.588 363.225 261.939 363.107 262.385 363.006C262.834 362.904 263.242 362.854 263.609 362.854C265.32 362.854 266.176 363.707 266.176 365.414V369ZM264.436 366.562V366.158L263.346 366.299C262.744 366.377 262.443 366.648 262.443 367.113C262.443 367.324 262.516 367.498 262.66 367.635C262.809 367.768 263.008 367.834 263.258 367.834C263.605 367.834 263.889 367.715 264.107 367.477C264.326 367.234 264.436 366.93 264.436 366.562ZM271.555 364.67C271.332 364.549 271.072 364.488 270.775 364.488C270.373 364.488 270.059 364.637 269.832 364.934C269.605 365.227 269.492 365.627 269.492 366.135V369H267.641V363H269.492V364.113H269.516C269.809 363.301 270.336 362.895 271.098 362.895C271.293 362.895 271.445 362.918 271.555 362.965V364.67ZM278.246 369H276.395V368.174H276.371C275.949 368.822 275.33 369.146 274.514 369.146C273.764 369.146 273.16 368.883 272.703 368.355C272.246 367.824 272.018 367.084 272.018 366.135C272.018 365.143 272.27 364.348 272.773 363.75C273.277 363.152 273.938 362.854 274.754 362.854C275.527 362.854 276.066 363.131 276.371 363.686H276.395V360.117H278.246V369ZM276.43 366.082V365.631C276.43 365.24 276.316 364.916 276.09 364.658C275.863 364.4 275.568 364.271 275.205 364.271C274.795 364.271 274.475 364.434 274.244 364.758C274.014 365.078 273.898 365.52 273.898 366.082C273.898 366.609 274.01 367.016 274.232 367.301C274.455 367.586 274.764 367.729 275.158 367.729C275.533 367.729 275.838 367.578 276.072 367.277C276.311 366.977 276.43 366.578 276.43 366.082ZM279.412 368.842V367.342C279.717 367.525 280.02 367.662 280.32 367.752C280.625 367.842 280.912 367.887 281.182 367.887C281.51 367.887 281.768 367.842 281.955 367.752C282.146 367.662 282.242 367.525 282.242 367.342C282.242 367.225 282.199 367.127 282.113 367.049C282.027 366.971 281.916 366.902 281.779 366.844C281.646 366.785 281.5 366.732 281.34 366.686C281.18 366.639 281.025 366.586 280.877 366.527C280.639 366.438 280.428 366.342 280.244 366.24C280.064 366.135 279.912 366.014 279.787 365.877C279.666 365.74 279.572 365.582 279.506 365.402C279.443 365.223 279.412 365.01 279.412 364.764C279.412 364.428 279.484 364.139 279.629 363.896C279.777 363.654 279.973 363.457 280.215 363.305C280.461 363.148 280.74 363.035 281.053 362.965C281.369 362.891 281.697 362.854 282.037 362.854C282.303 362.854 282.572 362.875 282.846 362.918C283.119 362.957 283.389 363.016 283.654 363.094V364.523C283.42 364.387 283.168 364.285 282.898 364.219C282.633 364.148 282.371 364.113 282.113 364.113C281.992 364.113 281.877 364.125 281.768 364.148C281.662 364.168 281.568 364.199 281.486 364.242C281.404 364.281 281.34 364.334 281.293 364.4C281.246 364.463 281.223 364.535 281.223 364.617C281.223 364.727 281.258 364.82 281.328 364.898C281.398 364.977 281.49 365.045 281.604 365.104C281.717 365.158 281.842 365.209 281.979 365.256C282.119 365.299 282.258 365.344 282.395 365.391C282.641 365.477 282.863 365.57 283.062 365.672C283.262 365.773 283.432 365.893 283.572 366.029C283.717 366.166 283.826 366.326 283.9 366.51C283.979 366.693 284.018 366.912 284.018 367.166C284.018 367.521 283.939 367.826 283.783 368.08C283.631 368.33 283.426 368.535 283.168 368.695C282.914 368.852 282.619 368.965 282.283 369.035C281.951 369.109 281.605 369.146 281.246 369.146C280.586 369.146 279.975 369.045 279.412 368.842ZM104.814 385H103.854V384.062H103.83C103.412 384.781 102.797 385.141 101.984 385.141C101.387 385.141 100.918 384.982 100.578 384.666C100.242 384.35 100.074 383.93 100.074 383.406C100.074 382.285 100.734 381.633 102.055 381.449L103.854 381.197C103.854 380.178 103.441 379.668 102.617 379.668C101.895 379.668 101.242 379.914 100.66 380.406V379.422C101.25 379.047 101.93 378.859 102.699 378.859C104.109 378.859 104.814 379.605 104.814 381.098V385ZM103.854 381.965L102.406 382.164C101.961 382.227 101.625 382.338 101.398 382.498C101.172 382.654 101.059 382.934 101.059 383.336C101.059 383.629 101.162 383.869 101.369 384.057C101.58 384.24 101.859 384.332 102.207 384.332C102.684 384.332 103.076 384.166 103.385 383.834C103.697 383.498 103.854 383.074 103.854 382.562V381.965ZM107.586 385H106.625V376.117H107.586V385ZM112.039 385.141C111.152 385.141 110.443 384.861 109.912 384.303C109.385 383.74 109.121 382.996 109.121 382.07C109.121 381.062 109.396 380.275 109.947 379.709C110.498 379.143 111.242 378.859 112.18 378.859C113.074 378.859 113.771 379.135 114.271 379.686C114.775 380.236 115.027 381 115.027 381.977C115.027 382.934 114.756 383.701 114.213 384.279C113.674 384.854 112.949 385.141 112.039 385.141ZM112.109 379.668C111.492 379.668 111.004 379.879 110.645 380.301C110.285 380.719 110.105 381.297 110.105 382.035C110.105 382.746 110.287 383.307 110.65 383.717C111.014 384.127 111.5 384.332 112.109 384.332C112.73 384.332 113.207 384.131 113.539 383.729C113.875 383.326 114.043 382.754 114.043 382.012C114.043 381.262 113.875 380.684 113.539 380.277C113.207 379.871 112.73 379.668 112.109 379.668ZM121.543 385H120.582V381.578C120.582 380.305 120.117 379.668 119.188 379.668C118.707 379.668 118.309 379.85 117.992 380.213C117.68 380.572 117.523 381.027 117.523 381.578V385H116.562V379H117.523V379.996H117.547C118 379.238 118.656 378.859 119.516 378.859C120.172 378.859 120.674 379.072 121.021 379.498C121.369 379.92 121.543 380.531 121.543 381.332V385ZM128.48 384.52C128.48 386.723 127.426 387.824 125.316 387.824C124.574 387.824 123.926 387.684 123.371 387.402V386.441C124.047 386.816 124.691 387.004 125.305 387.004C126.781 387.004 127.52 386.219 127.52 384.648V383.992H127.496C127.039 384.758 126.352 385.141 125.434 385.141C124.688 385.141 124.086 384.875 123.629 384.344C123.176 383.809 122.949 383.092 122.949 382.193C122.949 381.174 123.193 380.363 123.682 379.762C124.174 379.16 124.846 378.859 125.697 378.859C126.506 378.859 127.105 379.184 127.496 379.832H127.52V379H128.48V384.52ZM127.52 382.287V381.402C127.52 380.926 127.357 380.518 127.033 380.178C126.713 379.838 126.312 379.668 125.832 379.668C125.238 379.668 124.773 379.885 124.438 380.318C124.102 380.748 123.934 381.352 123.934 382.129C123.934 382.797 124.094 383.332 124.414 383.734C124.738 384.133 125.166 384.332 125.697 384.332C126.236 384.332 126.674 384.141 127.01 383.758C127.35 383.375 127.52 382.885 127.52 382.287ZM141.277 379L139.479 385H138.482L137.246 380.705C137.199 380.541 137.168 380.355 137.152 380.148H137.129C137.117 380.289 137.076 380.471 137.006 380.693L135.664 385H134.703L132.887 379H133.895L135.137 383.512C135.176 383.648 135.203 383.828 135.219 384.051H135.266C135.277 383.879 135.312 383.695 135.371 383.5L136.754 379H137.633L138.875 383.523C138.914 383.668 138.943 383.848 138.963 384.062H139.01C139.018 383.91 139.051 383.73 139.109 383.523L140.328 379H141.277ZM142.883 377.477C142.711 377.477 142.564 377.418 142.443 377.301C142.322 377.184 142.262 377.035 142.262 376.855C142.262 376.676 142.322 376.527 142.443 376.41C142.564 376.289 142.711 376.229 142.883 376.229C143.059 376.229 143.207 376.289 143.328 376.41C143.453 376.527 143.516 376.676 143.516 376.855C143.516 377.027 143.453 377.174 143.328 377.295C143.207 377.416 143.059 377.477 142.883 377.477ZM143.352 385H142.391V379H143.352V385ZM148.08 384.941C147.854 385.066 147.555 385.129 147.184 385.129C146.133 385.129 145.607 384.543 145.607 383.371V379.82H144.576V379H145.607V377.535L146.568 377.225V379H148.08V379.82H146.568V383.201C146.568 383.604 146.637 383.891 146.773 384.062C146.91 384.234 147.137 384.32 147.453 384.32C147.695 384.32 147.904 384.254 148.08 384.121V384.941ZM154.344 385H153.383V381.543C153.383 380.293 152.918 379.668 151.988 379.668C151.52 379.668 151.125 379.85 150.805 380.213C150.484 380.572 150.324 381.035 150.324 381.602V385H149.363V376.117H150.324V379.996H150.348C150.809 379.238 151.465 378.859 152.316 378.859C153.668 378.859 154.344 379.674 154.344 381.303V385ZM164.574 385H163.613V383.98H163.59C163.145 384.754 162.457 385.141 161.527 385.141C160.773 385.141 160.17 384.873 159.717 384.338C159.268 383.799 159.043 383.066 159.043 382.141C159.043 381.148 159.293 380.354 159.793 379.756C160.293 379.158 160.959 378.859 161.791 378.859C162.615 378.859 163.215 379.184 163.59 379.832H163.613V376.117H164.574V385ZM163.613 382.287V381.402C163.613 380.918 163.453 380.508 163.133 380.172C162.812 379.836 162.406 379.668 161.914 379.668C161.328 379.668 160.867 379.883 160.531 380.312C160.195 380.742 160.027 381.336 160.027 382.094C160.027 382.785 160.188 383.332 160.508 383.734C160.832 384.133 161.266 384.332 161.809 384.332C162.344 384.332 162.777 384.139 163.109 383.752C163.445 383.365 163.613 382.877 163.613 382.287ZM167.012 377.477C166.84 377.477 166.693 377.418 166.572 377.301C166.451 377.184 166.391 377.035 166.391 376.855C166.391 376.676 166.451 376.527 166.572 376.41C166.693 376.289 166.84 376.229 167.012 376.229C167.188 376.229 167.336 376.289 167.457 376.41C167.582 376.527 167.645 376.676 167.645 376.855C167.645 377.027 167.582 377.174 167.457 377.295C167.336 377.416 167.188 377.477 167.012 377.477ZM167.48 385H166.52V379H167.48V385ZM172.391 376.961C172.203 376.855 171.99 376.803 171.752 376.803C171.08 376.803 170.744 377.227 170.744 378.074V379H172.15V379.82H170.744V385H169.789V379.82H168.764V379H169.789V378.027C169.789 377.398 169.971 376.902 170.334 376.539C170.697 376.172 171.15 375.988 171.693 375.988C171.986 375.988 172.219 376.023 172.391 376.094V376.961ZM176.152 376.961C175.965 376.855 175.752 376.803 175.514 376.803C174.842 376.803 174.506 377.227 174.506 378.074V379H175.912V379.82H174.506V385H173.551V379.82H172.525V379H173.551V378.027C173.551 377.398 173.732 376.902 174.096 376.539C174.459 376.172 174.912 375.988 175.455 375.988C175.748 375.988 175.98 376.023 176.152 376.094V376.961ZM181.771 382.24H177.535C177.551 382.908 177.73 383.424 178.074 383.787C178.418 384.15 178.891 384.332 179.492 384.332C180.168 384.332 180.789 384.109 181.355 383.664V384.566C180.828 384.949 180.131 385.141 179.264 385.141C178.416 385.141 177.75 384.869 177.266 384.326C176.781 383.779 176.539 383.012 176.539 382.023C176.539 381.09 176.803 380.33 177.33 379.744C177.861 379.154 178.52 378.859 179.305 378.859C180.09 378.859 180.697 379.113 181.127 379.621C181.557 380.129 181.771 380.834 181.771 381.736V382.24ZM180.787 381.426C180.783 380.871 180.648 380.439 180.383 380.131C180.121 379.822 179.756 379.668 179.287 379.668C178.834 379.668 178.449 379.83 178.133 380.154C177.816 380.479 177.621 380.902 177.547 381.426H180.787ZM186.359 379.973C186.191 379.844 185.949 379.779 185.633 379.779C185.223 379.779 184.879 379.973 184.602 380.359C184.328 380.746 184.191 381.273 184.191 381.941V385H183.23V379H184.191V380.236H184.215C184.352 379.814 184.561 379.486 184.842 379.252C185.123 379.014 185.438 378.895 185.785 378.895C186.035 378.895 186.227 378.922 186.359 378.977V379.973ZM192.225 382.24H187.988C188.004 382.908 188.184 383.424 188.527 383.787C188.871 384.15 189.344 384.332 189.945 384.332C190.621 384.332 191.242 384.109 191.809 383.664V384.566C191.281 384.949 190.584 385.141 189.717 385.141C188.869 385.141 188.203 384.869 187.719 384.326C187.234 383.779 186.992 383.012 186.992 382.023C186.992 381.09 187.256 380.33 187.783 379.744C188.314 379.154 188.973 378.859 189.758 378.859C190.543 378.859 191.15 379.113 191.58 379.621C192.01 380.129 192.225 380.834 192.225 381.736V382.24ZM191.24 381.426C191.236 380.871 191.102 380.439 190.836 380.131C190.574 379.822 190.209 379.668 189.74 379.668C189.287 379.668 188.902 379.83 188.586 380.154C188.27 380.479 188.074 380.902 188 381.426H191.24ZM198.664 385H197.703V381.578C197.703 380.305 197.238 379.668 196.309 379.668C195.828 379.668 195.43 379.85 195.113 380.213C194.801 380.572 194.645 381.027 194.645 381.578V385H193.684V379H194.645V379.996H194.668C195.121 379.238 195.777 378.859 196.637 378.859C197.293 378.859 197.795 379.072 198.143 379.498C198.49 379.92 198.664 380.531 198.664 381.332V385ZM203.264 384.941C203.037 385.066 202.738 385.129 202.367 385.129C201.316 385.129 200.791 384.543 200.791 383.371V379.82H199.76V379H200.791V377.535L201.752 377.225V379H203.264V379.82H201.752V383.201C201.752 383.604 201.82 383.891 201.957 384.062C202.094 384.234 202.32 384.32 202.637 384.32C202.879 384.32 203.088 384.254 203.264 384.121V384.941ZM207.477 384.783V383.752C208 384.139 208.576 384.332 209.205 384.332C210.049 384.332 210.471 384.051 210.471 383.488C210.471 383.328 210.434 383.193 210.359 383.084C210.289 382.971 210.191 382.871 210.066 382.785C209.945 382.699 209.801 382.623 209.633 382.557C209.469 382.486 209.291 382.414 209.1 382.34C208.834 382.234 208.6 382.129 208.396 382.023C208.197 381.914 208.029 381.793 207.893 381.66C207.76 381.523 207.658 381.369 207.588 381.197C207.521 381.025 207.488 380.824 207.488 380.594C207.488 380.312 207.553 380.064 207.682 379.85C207.811 379.631 207.982 379.449 208.197 379.305C208.412 379.156 208.656 379.045 208.93 378.971C209.207 378.896 209.492 378.859 209.785 378.859C210.305 378.859 210.77 378.949 211.18 379.129V380.102C210.738 379.812 210.23 379.668 209.656 379.668C209.477 379.668 209.314 379.689 209.17 379.732C209.025 379.771 208.9 379.828 208.795 379.902C208.693 379.977 208.613 380.066 208.555 380.172C208.5 380.273 208.473 380.387 208.473 380.512C208.473 380.668 208.5 380.799 208.555 380.904C208.613 381.01 208.697 381.104 208.807 381.186C208.916 381.268 209.049 381.342 209.205 381.408C209.361 381.475 209.539 381.547 209.738 381.625C210.004 381.727 210.242 381.832 210.453 381.941C210.664 382.047 210.844 382.168 210.992 382.305C211.141 382.438 211.254 382.592 211.332 382.768C211.414 382.943 211.455 383.152 211.455 383.395C211.455 383.691 211.389 383.949 211.256 384.168C211.127 384.387 210.953 384.568 210.734 384.713C210.516 384.857 210.264 384.965 209.979 385.035C209.693 385.105 209.395 385.141 209.082 385.141C208.465 385.141 207.93 385.021 207.477 384.783ZM217.918 385H216.57L213.922 382.117H213.898V385H212.938V376.117H213.898V381.748H213.922L216.441 379H217.701L214.918 381.895L217.918 385ZM219.395 377.477C219.223 377.477 219.076 377.418 218.955 377.301C218.834 377.184 218.773 377.035 218.773 376.855C218.773 376.676 218.834 376.527 218.955 376.41C219.076 376.289 219.223 376.229 219.395 376.229C219.57 376.229 219.719 376.289 219.84 376.41C219.965 376.527 220.027 376.676 220.027 376.855C220.027 377.027 219.965 377.174 219.84 377.295C219.719 377.416 219.57 377.477 219.395 377.477ZM219.863 385H218.902V379H219.863V385ZM222.77 385H221.809V376.117H222.77V385ZM225.676 385H224.715V376.117H225.676V385ZM227.258 384.783V383.752C227.781 384.139 228.357 384.332 228.986 384.332C229.83 384.332 230.252 384.051 230.252 383.488C230.252 383.328 230.215 383.193 230.141 383.084C230.07 382.971 229.973 382.871 229.848 382.785C229.727 382.699 229.582 382.623 229.414 382.557C229.25 382.486 229.072 382.414 228.881 382.34C228.615 382.234 228.381 382.129 228.178 382.023C227.979 381.914 227.811 381.793 227.674 381.66C227.541 381.523 227.439 381.369 227.369 381.197C227.303 381.025 227.27 380.824 227.27 380.594C227.27 380.312 227.334 380.064 227.463 379.85C227.592 379.631 227.764 379.449 227.979 379.305C228.193 379.156 228.438 379.045 228.711 378.971C228.988 378.896 229.273 378.859 229.566 378.859C230.086 378.859 230.551 378.949 230.961 379.129V380.102C230.52 379.812 230.012 379.668 229.438 379.668C229.258 379.668 229.096 379.689 228.951 379.732C228.807 379.771 228.682 379.828 228.576 379.902C228.475 379.977 228.395 380.066 228.336 380.172C228.281 380.273 228.254 380.387 228.254 380.512C228.254 380.668 228.281 380.799 228.336 380.904C228.395 381.01 228.479 381.104 228.588 381.186C228.697 381.268 228.83 381.342 228.986 381.408C229.143 381.475 229.32 381.547 229.52 381.625C229.785 381.727 230.023 381.832 230.234 381.941C230.445 382.047 230.625 382.168 230.773 382.305C230.922 382.438 231.035 382.592 231.113 382.768C231.195 382.943 231.236 383.152 231.236 383.395C231.236 383.691 231.17 383.949 231.037 384.168C230.908 384.387 230.734 384.568 230.516 384.713C230.297 384.857 230.045 384.965 229.76 385.035C229.475 385.105 229.176 385.141 228.863 385.141C228.246 385.141 227.711 385.021 227.258 384.783Z" fill="#323130"/>
</g>
<path d="M75.8188 202.963V206.263L78.7063 203.375V205.419L74.3938 209.731V204.406H71.5063V190.006H91.6626V195.763H90.2188V191.45H72.9501V202.963H75.8188ZM80.1501 197.206H94.5501V207.294H91.6626V211.194L87.7626 207.294H80.1501V197.206ZM93.1063 205.831V198.631H81.5938V205.831H88.3813L90.2376 207.688V205.831H93.1063Z" fill="#201F1E"/>
<path d="M69.9775 226.707C69.4502 226.98 68.7943 227.117 68.0098 227.117C66.9941 227.117 66.1803 226.797 65.5684 226.155C64.9564 225.514 64.6504 224.673 64.6504 223.631C64.6504 222.511 64.9938 221.606 65.6807 220.916C66.3708 220.226 67.2415 219.881 68.293 219.881C68.9701 219.881 69.5316 219.977 69.9775 220.169V221.321C69.5055 221.041 68.9847 220.901 68.415 220.901C67.6566 220.901 67.0413 221.144 66.5693 221.629C66.1006 222.114 65.8662 222.762 65.8662 223.572C65.8662 224.344 66.0859 224.959 66.5254 225.418C66.9648 225.874 67.5426 226.102 68.2588 226.102C68.9196 226.102 69.4925 225.945 69.9775 225.633V226.707ZM75.6221 227H74.4893V224.266C74.4893 223.276 74.1589 222.781 73.498 222.781C73.166 222.781 72.8861 222.924 72.6582 223.211C72.4303 223.497 72.3164 223.864 72.3164 224.31V227H71.1787V219.598H72.3164V222.83H72.3359C72.7135 222.199 73.2539 221.883 73.957 221.883C75.0671 221.883 75.6221 222.562 75.6221 223.919V227ZM77.5703 220.95C77.3848 220.95 77.2253 220.89 77.0918 220.77C76.9616 220.649 76.8965 220.496 76.8965 220.311C76.8965 220.125 76.9616 219.97 77.0918 219.847C77.2253 219.723 77.3848 219.661 77.5703 219.661C77.7624 219.661 77.9251 219.723 78.0586 219.847C78.1921 219.97 78.2588 220.125 78.2588 220.311C78.2588 220.486 78.1921 220.638 78.0586 220.765C77.9251 220.888 77.7624 220.95 77.5703 220.95ZM78.1318 227H76.999V222H78.1318V227ZM82.2529 226.946C82.0316 227.057 81.7402 227.112 81.3789 227.112C80.4089 227.112 79.9238 226.647 79.9238 225.716V222.889H79.0889V222H79.9238V220.843L81.0566 220.521V222H82.2529V222.889H81.0566V225.389C81.0566 225.685 81.1104 225.896 81.2178 226.023C81.3252 226.15 81.5042 226.214 81.7549 226.214C81.9469 226.214 82.113 226.159 82.2529 226.048V226.946ZM86.7207 226.771C86.3203 227.002 85.8467 227.117 85.2998 227.117C84.5576 227.117 83.9587 226.886 83.5029 226.424C83.0472 225.958 82.8193 225.356 82.8193 224.617C82.8193 223.794 83.0635 223.133 83.5518 222.635C84.0433 222.133 84.6992 221.883 85.5195 221.883C85.9753 221.883 86.3773 221.963 86.7256 222.122V223.177C86.3773 222.916 86.0062 222.786 85.6123 222.786C85.1338 222.786 84.7415 222.949 84.4355 223.274C84.1296 223.597 83.9766 224.02 83.9766 224.544C83.9766 225.062 84.1198 225.47 84.4062 225.77C84.696 226.069 85.0833 226.219 85.5684 226.219C85.9753 226.219 86.3594 226.074 86.7207 225.784V226.771ZM92.292 227H91.1592V224.266C91.1592 223.276 90.8288 222.781 90.168 222.781C89.8359 222.781 89.556 222.924 89.3281 223.211C89.1003 223.497 88.9863 223.864 88.9863 224.31V227H87.8486V219.598H88.9863V222.83H89.0059C89.3835 222.199 89.9238 221.883 90.627 221.883C91.737 221.883 92.292 222.562 92.292 223.919V227ZM97.5068 227H96.4082V226.219H96.3887C96.0436 226.818 95.5374 227.117 94.8701 227.117C94.3786 227.117 93.9928 226.984 93.7129 226.717C93.4362 226.45 93.2979 226.097 93.2979 225.657C93.2979 224.713 93.8415 224.163 94.9287 224.007L96.4131 223.797C96.4131 223.084 96.0745 222.728 95.3975 222.728C94.8018 222.728 94.2646 222.933 93.7861 223.343V222.352C94.3135 222.039 94.9222 221.883 95.6123 221.883C96.8753 221.883 97.5068 222.505 97.5068 223.748V227ZM96.4131 224.544L95.3633 224.69C95.0378 224.733 94.792 224.812 94.626 224.93C94.4632 225.044 94.3818 225.245 94.3818 225.535C94.3818 225.747 94.4567 225.921 94.6064 226.058C94.7594 226.191 94.9629 226.258 95.2168 226.258C95.5618 226.258 95.8467 226.137 96.0713 225.896C96.2992 225.652 96.4131 225.346 96.4131 224.979V224.544ZM101.53 226.946C101.309 227.057 101.018 227.112 100.656 227.112C99.6862 227.112 99.2012 226.647 99.2012 225.716V222.889H98.3662V222H99.2012V220.843L100.334 220.521V222H101.53V222.889H100.334V225.389C100.334 225.685 100.388 225.896 100.495 226.023C100.603 226.15 100.782 226.214 101.032 226.214C101.224 226.214 101.39 226.159 101.53 226.048V226.946Z" fill="black"/>
<rect x="128" y="19" width="73" height="26" fill="#106EBE"/>
<path d="M107.989 74.0629C107.966 73.7646 107.847 73.511 107.631 73.3021C107.414 73.1007 107.157 73 106.859 73H93.1413C92.8429 73 92.5855 73.1007 92.3692 73.3021C92.1529 73.511 92.0336 73.7646 92.0112 74.0629L100 80.2727L107.989 74.0629ZM92 75.4951V83.2825C92 83.5958 92.1119 83.8643 92.3357 84.0881C92.5594 84.3119 92.828 84.4238 93.1413 84.4238H106.859C107.172 84.4238 107.441 84.3119 107.664 84.0881C107.888 83.8643 108 83.5958 108 83.2825V75.4951L100 81.7161L92 75.4951Z" fill="#0078D4"/>
<path fill-rule="evenodd" clip-rule="evenodd" d="M227 70H230V84H214V70H217V69H218V70H226V69H227V70ZM217 71H215V73H229V71H227V72H226V71H218V72H217V71ZM229 83H215V74H229V83ZM217 82V75H221V82H217ZM218 81V76H220V81H218ZM223 82V75H227V82H223ZM224 81V76H226V81H224Z" fill="#0078D4"/>
<path d="M274.711 111L279 115.289V127H266V111H274.711ZM275 112.711V115H277.289L275 112.711ZM267 126H278V116H274V112H267V126ZM269 119V118H276V119H269ZM269 121V120H276V121H269ZM269 123V122H276V123H269Z" fill="#106EBE"/>
<path d="M54 127V134C54 134.276 53.9453 134.536 53.8359 134.781C53.7318 135.021 53.5885 135.232 53.4062 135.414C53.2292 135.591 53.0182 135.734 52.7734 135.844C52.5286 135.948 52.2708 136 52 136H39.9453C39.6797 136 39.4271 135.948 39.1875 135.844C38.9531 135.74 38.7474 135.602 38.5703 135.43C38.3984 135.253 38.2604 135.047 38.1562 134.812C38.0521 134.573 38 134.32 38 134.055V125H52V127H54ZM53 128H52V133.5C52 133.635 51.9505 133.753 51.8516 133.852C51.7526 133.951 51.6354 134 51.5 134C51.3646 134 51.2474 133.951 51.1484 133.852C51.0495 133.753 51 133.635 51 133.5V126H39V134.055C39 134.185 39.0234 134.307 39.0703 134.422C39.1224 134.536 39.1901 134.638 39.2734 134.727C39.362 134.81 39.4635 134.878 39.5781 134.93C39.6927 134.977 39.8151 135 39.9453 135H52C52.1406 135 52.2708 134.974 52.3906 134.922C52.5104 134.87 52.6146 134.799 52.7031 134.711C52.7969 134.617 52.8698 134.51 52.9219 134.391C52.974 134.271 53 134.141 53 134V128ZM50 128H40V127H50V128ZM50 134H46V133H50V134ZM50 132H46V131H50V132ZM50 130H46V129H50V130ZM45 134H40V128.977H45V134ZM41 133H44V129.977H41V133Z" fill="#106EBE"/>
<path d="M25.0007 180.337C24.9932 180.07 25.0489 179.784 25.1677 179.48C25.4052 178.871 25.8283 178.485 26.437 178.322L27.5059 178.032C27.6915 177.98 27.8956 177.991 28.1183 178.065C28.5711 178.207 28.9015 178.578 29.1093 179.179L29.8108 181.072C29.8999 181.339 29.9296 181.621 29.8999 181.918C29.8331 182.504 29.5027 182.868 28.9089 183.009L27.1385 183.544C27.5245 186.09 28.4412 188.157 29.8887 189.746L31.4142 188.966C31.5923 188.84 31.8039 188.766 32.0488 188.744C32.5313 188.684 32.9359 188.896 33.2625 189.378L34.4539 191.427C34.5504 191.613 34.6024 191.828 34.6098 192.073C34.6098 192.563 34.3648 192.978 33.8749 193.32L32.973 193.888C32.8023 193.969 32.5722 194.006 32.2827 193.999C31.7111 193.984 31.1321 193.758 30.5457 193.32C29.6475 192.674 28.7456 191.646 27.84 190.236C26.0139 187.422 25.0675 184.123 25.0007 180.337Z" fill="#106EBE"/>
<path d="M146.406 36.6777V34.8027C146.746 35.0879 147.115 35.3027 147.514 35.4473C147.912 35.5879 148.314 35.6582 148.721 35.6582C148.959 35.6582 149.166 35.6367 149.342 35.5938C149.521 35.5508 149.67 35.4922 149.787 35.418C149.908 35.3398 149.998 35.25 150.057 35.1484C150.115 35.043 150.145 34.9297 150.145 34.8086C150.145 34.6445 150.098 34.498 150.004 34.3691C149.91 34.2402 149.781 34.1211 149.617 34.0117C149.457 33.9023 149.266 33.7969 149.043 33.6953C148.82 33.5938 148.58 33.4902 148.322 33.3848C147.666 33.1113 147.176 32.7773 146.852 32.3828C146.531 31.9883 146.371 31.5117 146.371 30.9531C146.371 30.5156 146.459 30.1406 146.635 29.8281C146.811 29.5117 147.049 29.252 147.35 29.0488C147.654 28.8457 148.006 28.6973 148.404 28.6035C148.803 28.5059 149.225 28.457 149.67 28.457C150.107 28.457 150.494 28.4844 150.83 28.5391C151.17 28.5898 151.482 28.6699 151.768 28.7793V30.5312C151.627 30.4336 151.473 30.3477 151.305 30.2734C151.141 30.1992 150.971 30.1387 150.795 30.0918C150.619 30.041 150.443 30.0039 150.268 29.9805C150.096 29.957 149.932 29.9453 149.775 29.9453C149.561 29.9453 149.365 29.9668 149.189 30.0098C149.014 30.0488 148.865 30.1055 148.744 30.1797C148.623 30.2539 148.529 30.3438 148.463 30.4492C148.396 30.5508 148.363 30.666 148.363 30.7949C148.363 30.9355 148.4 31.0625 148.475 31.1758C148.549 31.2852 148.654 31.3906 148.791 31.4922C148.928 31.5898 149.094 31.6875 149.289 31.7852C149.484 31.8789 149.705 31.9766 149.951 32.0781C150.287 32.2188 150.588 32.3691 150.854 32.5293C151.123 32.6855 151.354 32.8633 151.545 33.0625C151.736 33.2617 151.883 33.4902 151.984 33.748C152.086 34.002 152.137 34.2988 152.137 34.6387C152.137 35.1074 152.047 35.502 151.867 35.8223C151.691 36.1387 151.451 36.3965 151.146 36.5957C150.842 36.791 150.486 36.9316 150.08 37.0176C149.678 37.1035 149.252 37.1465 148.803 37.1465C148.342 37.1465 147.902 37.1074 147.484 37.0293C147.07 36.9512 146.711 36.834 146.406 36.6777ZM160.504 37H158.113L155.664 33.3496C155.617 33.2793 155.543 33.125 155.441 32.8867H155.412V37H153.52V28.5977H155.412V32.5703H155.441C155.488 32.4609 155.566 32.3047 155.676 32.1016L157.996 28.5977H160.252L157.322 32.6055L160.504 37ZM163.205 37H161.312V28.5977H163.205V37ZM170.125 37H165.121V28.5977H167.014V35.4648H170.125V37ZM176.266 37H171.262V28.5977H173.154V35.4648H176.266V37ZM177.016 36.6777V34.8027C177.355 35.0879 177.725 35.3027 178.123 35.4473C178.521 35.5879 178.924 35.6582 179.33 35.6582C179.568 35.6582 179.775 35.6367 179.951 35.5938C180.131 35.5508 180.279 35.4922 180.396 35.418C180.518 35.3398 180.607 35.25 180.666 35.1484C180.725 35.043 180.754 34.9297 180.754 34.8086C180.754 34.6445 180.707 34.498 180.613 34.3691C180.52 34.2402 180.391 34.1211 180.227 34.0117C180.066 33.9023 179.875 33.7969 179.652 33.6953C179.43 33.5938 179.189 33.4902 178.932 33.3848C178.275 33.1113 177.785 32.7773 177.461 32.3828C177.141 31.9883 176.98 31.5117 176.98 30.9531C176.98 30.5156 177.068 30.1406 177.244 29.8281C177.42 29.5117 177.658 29.252 177.959 29.0488C178.264 28.8457 178.615 28.6973 179.014 28.6035C179.412 28.5059 179.834 28.457 180.279 28.457C180.717 28.457 181.104 28.4844 181.439 28.5391C181.779 28.5898 182.092 28.6699 182.377 28.7793V30.5312C182.236 30.4336 182.082 30.3477 181.914 30.2734C181.75 30.1992 181.58 30.1387 181.404 30.0918C181.229 30.041 181.053 30.0039 180.877 29.9805C180.705 29.957 180.541 29.9453 180.385 29.9453C180.17 29.9453 179.975 29.9668 179.799 30.0098C179.623 30.0488 179.475 30.1055 179.354 30.1797C179.232 30.2539 179.139 30.3438 179.072 30.4492C179.006 30.5508 178.973 30.666 178.973 30.7949C178.973 30.9355 179.01 31.0625 179.084 31.1758C179.158 31.2852 179.264 31.3906 179.4 31.4922C179.537 31.5898 179.703 31.6875 179.898 31.7852C180.094 31.8789 180.314 31.9766 180.561 32.0781C180.896 32.2188 181.197 32.3691 181.463 32.5293C181.732 32.6855 181.963 32.8633 182.154 33.0625C182.346 33.2617 182.492 33.4902 182.594 33.748C182.695 34.002 182.746 34.2988 182.746 34.6387C182.746 35.1074 182.656 35.502 182.477 35.8223C182.301 36.1387 182.061 36.3965 181.756 36.5957C181.451 36.791 181.096 36.9316 180.689 37.0176C180.287 37.1035 179.861 37.1465 179.412 37.1465C178.951 37.1465 178.512 37.1074 178.094 37.0293C177.68 36.9512 177.32 36.834 177.016 36.6777Z" fill="white"/>
<path fill-rule="evenodd" clip-rule="evenodd" d="M257.933 201.57L254.024 199.898C253.884 199.909 253.744 199.914 253.601 199.914H253.449C252.673 196.147 249.359 193.285 245.386 193.285H240.614C240.632 189.94 243.325 187.209 246.614 187.209H253.601C256.902 187.209 259.603 189.958 259.603 193.318V193.805C259.603 195.94 258.512 197.828 256.871 198.921L257.933 201.57ZM245.386 208.199H238.399C238.256 208.199 238.116 208.193 237.976 208.183L234.067 209.854L235.13 207.205C233.488 206.112 232.397 204.225 232.397 202.09V201.603C232.397 198.243 235.098 195.494 238.399 195.494H238.551H240.852H245.386C248.111 195.494 250.423 197.37 251.148 199.914C251.301 200.452 251.388 201.017 251.388 201.603V202.09C251.388 202.101 251.386 202.112 251.386 202.124C251.368 205.468 248.675 208.199 245.386 208.199ZM259.533 199.566C260.986 198.04 261.837 195.989 261.837 193.805V193.318C261.837 188.752 258.151 185 253.601 185H246.614C242.076 185 238.398 188.734 238.38 193.286C233.839 193.296 230.163 197.043 230.163 201.603V202.09C230.163 204.274 231.014 206.324 232.467 207.85L230 214L238.401 210.408H245.386C249.921 210.408 253.597 206.678 253.62 202.132L262 205.715L259.533 199.566Z" fill="#201F1E"/>
<path d="M234.354 225.984H231.737V228.089H234.149V229.07H231.737V232H230.575V224.998H234.354V225.984ZM240.751 232H239.476L238.846 230.218H236.092L235.487 232H234.217L236.839 224.998H238.148L240.751 232ZM238.539 229.271L237.567 226.478C237.538 226.386 237.507 226.24 237.474 226.038H237.455C237.425 226.224 237.393 226.37 237.357 226.478L236.395 229.271H238.539ZM244.603 232.117C244.099 232.117 243.641 232.031 243.231 231.858C242.821 231.686 242.471 231.445 242.181 231.136C241.892 230.823 241.667 230.451 241.507 230.018C241.348 229.585 241.268 229.106 241.268 228.582C241.268 228.022 241.348 227.514 241.507 227.059C241.67 226.603 241.9 226.214 242.196 225.892C242.495 225.569 242.858 225.32 243.285 225.145C243.711 224.969 244.188 224.881 244.715 224.881C245.204 224.881 245.65 224.967 246.053 225.14C246.457 225.312 246.802 225.555 247.089 225.867C247.375 226.176 247.596 226.548 247.753 226.98C247.912 227.413 247.992 227.89 247.992 228.411C247.992 229.101 247.876 229.707 247.645 230.228C247.414 230.745 247.089 231.162 246.669 231.478L248.7 232.942H246.932L245.682 231.971C245.516 232.016 245.344 232.052 245.165 232.078C244.986 232.104 244.798 232.117 244.603 232.117ZM244.657 225.901C244.338 225.901 244.045 225.965 243.778 226.092C243.514 226.215 243.286 226.393 243.094 226.624C242.902 226.852 242.753 227.125 242.645 227.444C242.541 227.763 242.489 228.118 242.489 228.509C242.489 228.896 242.539 229.249 242.64 229.568C242.744 229.887 242.889 230.161 243.075 230.389C243.26 230.613 243.483 230.789 243.744 230.916C244.004 231.04 244.292 231.102 244.608 231.102C244.943 231.102 245.244 231.043 245.511 230.926C245.778 230.809 246.005 230.641 246.19 230.423C246.379 230.201 246.524 229.931 246.625 229.612C246.726 229.293 246.776 228.93 246.776 228.523C246.776 228.107 246.727 227.736 246.63 227.41C246.532 227.085 246.392 226.811 246.21 226.59C246.027 226.365 245.804 226.194 245.541 226.077C245.28 225.96 244.986 225.901 244.657 225.901ZM248.837 231.844V230.794C249.26 231.116 249.727 231.277 250.238 231.277C250.922 231.277 251.263 231.076 251.263 230.672C251.263 230.558 251.234 230.462 251.175 230.384C251.117 230.302 251.037 230.231 250.936 230.169C250.839 230.107 250.721 230.052 250.585 230.003C250.451 229.954 250.301 229.899 250.135 229.837C249.93 229.756 249.745 229.669 249.579 229.578C249.416 229.487 249.279 229.384 249.169 229.271C249.061 229.153 248.98 229.021 248.924 228.875C248.869 228.729 248.841 228.558 248.841 228.362C248.841 228.121 248.898 227.91 249.012 227.728C249.126 227.542 249.279 227.387 249.471 227.264C249.663 227.137 249.881 227.042 250.126 226.98C250.37 226.915 250.622 226.883 250.882 226.883C251.345 226.883 251.758 226.953 252.123 227.093V228.084C251.771 227.843 251.367 227.723 250.912 227.723C250.769 227.723 250.638 227.737 250.521 227.767C250.407 227.796 250.31 227.837 250.228 227.889C250.147 227.941 250.083 228.004 250.038 228.079C249.992 228.151 249.969 228.23 249.969 228.318C249.969 228.426 249.992 228.517 250.038 228.592C250.083 228.667 250.15 228.733 250.238 228.792C250.329 228.847 250.436 228.899 250.56 228.948C250.687 228.994 250.832 229.044 250.995 229.1C251.21 229.188 251.402 229.277 251.571 229.368C251.743 229.459 251.89 229.563 252.01 229.681C252.131 229.795 252.224 229.928 252.289 230.081C252.354 230.231 252.386 230.41 252.386 230.618C252.386 230.872 252.328 231.093 252.211 231.282C252.093 231.471 251.937 231.627 251.742 231.751C251.547 231.875 251.32 231.966 251.063 232.024C250.809 232.086 250.541 232.117 250.257 232.117C249.711 232.117 249.237 232.026 248.837 231.844Z" fill="black"/>
<path d="M138.228 141H136.954L136.324 139.218H133.57L132.965 141H131.695L134.317 133.998H135.626L138.228 141ZM136.016 138.271L135.045 135.478C135.015 135.386 134.984 135.24 134.952 135.038H134.932C134.903 135.224 134.871 135.37 134.835 135.478L133.873 138.271H136.016ZM143.614 141H142.481V140.15H142.462C142.097 140.795 141.536 141.117 140.777 141.117C140.162 141.117 139.669 140.894 139.298 140.448C138.93 139.999 138.746 139.389 138.746 138.617C138.746 137.79 138.949 137.128 139.356 136.63C139.766 136.132 140.312 135.883 140.992 135.883C141.666 135.883 142.156 136.153 142.462 136.693H142.481V133.598H143.614V141ZM142.496 138.715V138.061C142.496 137.706 142.38 137.405 142.149 137.157C141.918 136.91 141.623 136.786 141.265 136.786C140.842 136.786 140.509 136.944 140.264 137.26C140.024 137.576 139.903 138.013 139.903 138.573C139.903 139.081 140.019 139.483 140.25 139.779C140.484 140.072 140.798 140.219 141.192 140.219C141.58 140.219 141.894 140.077 142.135 139.794C142.375 139.507 142.496 139.148 142.496 138.715ZM148.931 141H147.833V140.219H147.813C147.468 140.818 146.962 141.117 146.295 141.117C145.803 141.117 145.417 140.984 145.137 140.717C144.861 140.45 144.722 140.097 144.722 139.657C144.722 138.713 145.266 138.163 146.353 138.007L147.838 137.797C147.838 137.084 147.499 136.728 146.822 136.728C146.226 136.728 145.689 136.933 145.211 137.343V136.352C145.738 136.039 146.347 135.883 147.037 135.883C148.3 135.883 148.931 136.505 148.931 137.748V141ZM147.838 138.544L146.788 138.69C146.462 138.733 146.217 138.812 146.051 138.93C145.888 139.044 145.806 139.245 145.806 139.535C145.806 139.747 145.881 139.921 146.031 140.058C146.184 140.191 146.387 140.258 146.641 140.258C146.986 140.258 147.271 140.137 147.496 139.896C147.724 139.652 147.838 139.346 147.838 138.979V138.544ZM151.47 140.263H151.451V143.3H150.318V136H151.451V136.879H151.47C151.858 136.215 152.424 135.883 153.17 135.883C153.804 135.883 154.299 136.106 154.654 136.552C155.009 136.998 155.186 137.597 155.186 138.349C155.186 139.182 154.986 139.849 154.586 140.351C154.185 140.852 153.638 141.103 152.945 141.103C152.307 141.103 151.816 140.823 151.47 140.263ZM151.441 138.29V138.91C151.441 139.275 151.557 139.584 151.788 139.838C152.022 140.092 152.318 140.219 152.677 140.219C153.096 140.219 153.425 140.056 153.663 139.73C153.904 139.402 154.024 138.944 154.024 138.358C154.024 137.867 153.912 137.483 153.687 137.206C153.466 136.926 153.165 136.786 152.784 136.786C152.38 136.786 152.055 136.929 151.807 137.216C151.563 137.502 151.441 137.86 151.441 138.29ZM158.98 140.946C158.759 141.057 158.468 141.112 158.106 141.112C157.136 141.112 156.651 140.647 156.651 139.716V136.889H155.816V136H156.651V134.843L157.784 134.521V136H158.98V136.889H157.784V139.389C157.784 139.685 157.838 139.896 157.945 140.023C158.053 140.15 158.232 140.214 158.482 140.214C158.674 140.214 158.84 140.159 158.98 140.048V140.946ZM160.528 134.95C160.343 134.95 160.183 134.89 160.05 134.77C159.919 134.649 159.854 134.496 159.854 134.311C159.854 134.125 159.919 133.97 160.05 133.847C160.183 133.723 160.343 133.661 160.528 133.661C160.72 133.661 160.883 133.723 161.016 133.847C161.15 133.97 161.217 134.125 161.217 134.311C161.217 134.486 161.15 134.638 161.016 134.765C160.883 134.888 160.72 134.95 160.528 134.95ZM161.09 141H159.957V136H161.09V141ZM166.881 136L164.947 141H163.721L161.881 136H163.111L164.219 139.496C164.304 139.753 164.356 139.978 164.376 140.17H164.39C164.42 139.929 164.465 139.711 164.527 139.516L165.689 136H166.881ZM171.807 138.808H168.399C168.412 139.27 168.554 139.626 168.824 139.877C169.097 140.128 169.472 140.253 169.947 140.253C170.481 140.253 170.971 140.093 171.417 139.774V140.688C170.961 140.974 170.359 141.117 169.61 141.117C168.874 141.117 168.297 140.891 167.877 140.438C167.46 139.983 167.252 139.343 167.252 138.52C167.252 137.742 167.481 137.108 167.94 136.62C168.402 136.129 168.975 135.883 169.659 135.883C170.343 135.883 170.872 136.103 171.246 136.542C171.62 136.981 171.807 137.592 171.807 138.373V138.808ZM170.714 138.007C170.71 137.6 170.614 137.284 170.426 137.06C170.237 136.832 169.976 136.718 169.644 136.718C169.319 136.718 169.042 136.837 168.814 137.074C168.59 137.312 168.451 137.623 168.399 138.007H170.714ZM179.219 140.771C178.819 141.002 178.345 141.117 177.799 141.117C177.056 141.117 176.457 140.886 176.002 140.424C175.546 139.958 175.318 139.356 175.318 138.617C175.318 137.794 175.562 137.133 176.051 136.635C176.542 136.133 177.198 135.883 178.018 135.883C178.474 135.883 178.876 135.963 179.224 136.122V137.177C178.876 136.916 178.505 136.786 178.111 136.786C177.633 136.786 177.24 136.949 176.934 137.274C176.628 137.597 176.475 138.02 176.475 138.544C176.475 139.062 176.619 139.47 176.905 139.77C177.195 140.069 177.582 140.219 178.067 140.219C178.474 140.219 178.858 140.074 179.219 139.784V140.771ZM184.185 141H183.087V140.219H183.067C182.722 140.818 182.216 141.117 181.549 141.117C181.057 141.117 180.671 140.984 180.391 140.717C180.115 140.45 179.976 140.097 179.976 139.657C179.976 138.713 180.52 138.163 181.607 138.007L183.092 137.797C183.092 137.084 182.753 136.728 182.076 136.728C181.48 136.728 180.943 136.933 180.465 137.343V136.352C180.992 136.039 181.601 135.883 182.291 135.883C183.554 135.883 184.185 136.505 184.185 137.748V141ZM183.092 138.544L182.042 138.69C181.716 138.733 181.47 138.812 181.304 138.93C181.142 139.044 181.06 139.245 181.06 139.535C181.06 139.747 181.135 139.921 181.285 140.058C181.438 140.191 181.641 140.258 181.895 140.258C182.24 140.258 182.525 140.137 182.75 139.896C182.978 139.652 183.092 139.346 183.092 138.979V138.544ZM188.472 137.079C188.336 136.972 188.139 136.918 187.882 136.918C187.546 136.918 187.266 137.069 187.042 137.372C186.817 137.675 186.705 138.087 186.705 138.607V141H185.572V136H186.705V137.03H186.724C186.835 136.679 187.004 136.405 187.232 136.21C187.463 136.011 187.72 135.912 188.004 135.912C188.209 135.912 188.365 135.943 188.472 136.005V137.079ZM193.731 141H192.598V140.15H192.579C192.214 140.795 191.653 141.117 190.894 141.117C190.279 141.117 189.786 140.894 189.415 140.448C189.047 139.999 188.863 139.389 188.863 138.617C188.863 137.79 189.067 137.128 189.473 136.63C189.884 136.132 190.429 135.883 191.109 135.883C191.783 135.883 192.273 136.153 192.579 136.693H192.598V133.598H193.731V141ZM192.613 138.715V138.061C192.613 137.706 192.497 137.405 192.266 137.157C192.035 136.91 191.741 136.786 191.383 136.786C190.959 136.786 190.626 136.944 190.382 137.26C190.141 137.576 190.02 138.013 190.02 138.573C190.02 139.081 190.136 139.483 190.367 139.779C190.601 140.072 190.915 140.219 191.309 140.219C191.697 140.219 192.011 140.077 192.252 139.794C192.493 139.507 192.613 139.148 192.613 138.715Z" fill="black"/>
<rect x="152" y="100" width="26" height="26" fill="#C4C4C4"/>
<path d="M290.5 186H297.5C297.776 186 298 186.224 298 186.5C298 186.745 297.823 186.95 297.59 186.992L297.5 187H290.5C290.224 187 290 186.776 290 186.5C290 186.255 290.177 186.05 290.41 186.008L290.5 186ZM288.504 184H299.496C299.774 184 300 184.224 300 184.5C300 184.745 299.822 184.95 299.587 184.992L299.496 185H288.504C288.226 185 288 184.776 288 184.5C288 184.255 288.178 184.05 288.413 184.008L288.504 184ZM294 174C296.465 174 297.863 175.574 298.066 177.474L298.128 177.474C299.714 177.474 301 178.711 301 180.237C301 181.763 299.714 183 298.128 183H289.872C288.286 183 287 181.763 287 180.237C287 178.768 288.192 177.566 289.697 177.479L289.934 177.474C290.139 175.561 291.535 174 294 174Z" fill="#0078D4"/>
</g>
<defs>
<filter id="filter0_dd" x="-4.4" y="324" width="336.8" height="92.8" filterUnits="userSpaceOnUse" color-interpolation-filters="sRGB">
<feFlood flood-opacity="0" result="BackgroundImageFix"/>
<feColorMatrix in="SourceAlpha" type="matrix" values="0 0 0 0 0 0 0 0 0 0 0 0 0 0 0 0 0 0 127 0"/>
<feOffset dy="6.4"/>
<feGaussianBlur stdDeviation="7.2"/>
<feColorMatrix type="matrix" values="0 0 0 0 0 0 0 0 0 0 0 0 0 0 0 0 0 0 0.13 0"/>
<feBlend mode="normal" in2="BackgroundImageFix" result="effect1_dropShadow"/>
<feColorMatrix in="SourceAlpha" type="matrix" values="0 0 0 0 0 0 0 0 0 0 0 0 0 0 0 0 0 0 127 0"/>
<feOffset dy="1.2"/>
<feGaussianBlur stdDeviation="1.8"/>
<feColorMatrix type="matrix" values="0 0 0 0 0 0 0 0 0 0 0 0 0 0 0 0 0 0 0.1 0"/>
<feBlend mode="normal" in2="effect1_dropShadow" result="effect2_dropShadow"/>
<feBlend mode="normal" in="SourceGraphic" in2="effect2_dropShadow" result="shape"/>
</filter>
<linearGradient id="paint0_linear" x1="165.145" y1="186.305" x2="184.631" y2="186.305" gradientUnits="userSpaceOnUse">
<stop stop-color="white" stop-opacity="0.5"/>
<stop offset="1" stop-color="white"/>
</linearGradient>
<linearGradient id="paint1_linear" x1="165.145" y1="217.581" x2="189.503" y2="217.581" gradientUnits="userSpaceOnUse">
<stop stop-color="white" stop-opacity="0.5"/>
<stop offset="1" stop-color="white"/>
</linearGradient>
<clipPath id="clip0">
<rect width="326" height="415" fill="white"/>
</clipPath>
<clipPath id="clip1">
<rect width="63.1787" height="60" fill="white" transform="translate(133 174)"/>
</clipPath>
</defs>
</svg>
