<svg xmlns="http://www.w3.org/2000/svg" xmlns:xlink="http://www.w3.org/1999/xlink" viewBox="0 0 251.1 287.64"><defs><style>.a{fill:#b3b3b3;}.b{fill:none;}.c{fill:url(#a);}.d{fill:url(#b);}.e{fill:url(#c);}.f{fill:#fff;}.g{fill:#ccc;}.h{fill:#e6e6e6;}</style><linearGradient id="a" x1="14633.66" y1="143.97" x2="14857.12" y2="143.97" gradientTransform="matrix(-1, 0, 0, 1, 14759.37, 0)" gradientUnits="userSpaceOnUse"><stop offset="0" stop-color="#faa21d"/><stop offset="0.28" stop-color="#f99e1b"/><stop offset="0.57" stop-color="#f69113"/><stop offset="0.87" stop-color="#f27d07"/><stop offset="1" stop-color="#ef7100"/></linearGradient><linearGradient id="b" x1="-15440.32" y1="143.97" x2="-15216.87" y2="143.97" gradientTransform="translate(15565.8)" xlink:href="#a"/><linearGradient id="c" x1="14682.39" y1="256.55" x2="14682.39" y2="87.6" gradientTransform="matrix(-1, 0, 0, 1, 14759.37, 0)" gradientUnits="userSpaceOnUse"><stop offset="0" stop-color="#50e6ff"/><stop offset="0.19" stop-color="#84edff"/><stop offset="0.37" stop-color="#b0f4ff"/><stop offset="0.55" stop-color="#d2f9ff"/><stop offset="0.72" stop-color="#ebfcff"/><stop offset="0.87" stop-color="#fafeff"/><stop offset="1" stop-color="#fff"/></linearGradient></defs><title>platforms2GrayComposer</title><path class="a" d="M245.32,67.81,131.37,1.57a11.62,11.62,0,0,0-11.67,0L5.78,67.84A11.61,11.61,0,0,0,0,77.88v131.9a11.59,11.59,0,0,0,5.78,10l113.93,66.24a11.61,11.61,0,0,0,11.68,0l113.93-66.24a11.59,11.59,0,0,0,5.78-10V77.85A11.62,11.62,0,0,0,245.32,67.81Z"/><polygon class="b" points="196.87 215.09 125.55 256.55 54.28 215.12 125.59 144.08 196.87 215.09"/><polygon class="b" points="54.19 72.58 125.54 31.08 196.96 72.6 125.59 143.86 54.19 72.58"/><polygon class="c" points="125.59 144.08 125.48 143.97 125.59 143.86 125.7 143.97 125.59 144.08"/><polygon class="d" points="125.59 144.08 125.48 143.97 125.59 143.86 125.7 143.97 125.59 144.08"/><polygon class="e" points="125.59 143.86 125.59 256.55 28.36 200.05 28.36 87.6 125.59 143.86"/><polygon class="f" points="231.94 82.24 231.94 205.35 125.56 267.19 19.18 205.35 19.18 82.26 125.55 20.4 231.94 82.24"/><ellipse class="g" cx="204.77" cy="165.04" rx="15.36" ry="8.69" transform="translate(-50.21 229.48) rotate(-53.05)"/><ellipse class="g" cx="155.78" cy="193.32" rx="15.36" ry="8.69" transform="translate(-92.35 201.61) rotate(-53.05)"/><polygon class="h" points="231.94 82.24 125.61 143.84 19.18 82.26 125.55 20.4 231.94 82.24"/><polygon class="g" points="18.93 82.12 18.93 205.69 125.73 267.77 125.73 144.02 18.93 82.12"/><polygon class="h" points="18.93 205.69 125.73 144.02 125.73 267.77 18.93 205.69"/></svg>