<svg width="180" height="139" viewBox="0 0 180 139" fill="none" xmlns="http://www.w3.org/2000/svg">
<path d="M153.448 50.3637C188.692 70.6527 188.864 103.494 153.88 123.783C118.808 144.072 61.8826 144.072 26.5522 123.783C-8.69175 103.494 -8.86446 70.6526 26.1203 50.4496C61.1915 30.0748 118.203 30.0748 153.448 50.3637Z" fill="#E6E6E6"/>
<path d="M68.0176 14.264L76.1077 9.61075C80.0168 7.3622 85.2384 7.23955 91.1283 9.58377L83.0373 14.237C77.1483 11.8912 71.9258 12.0155 68.0176 14.264Z" fill="#0078D4"/>
<path d="M145.264 49.7917L145.208 49.8162L145.222 49.8081C145.161 33.1909 132.933 12.7389 117.758 3.97851C109.817 -0.606077 102.58 -1.10076 97.4705 1.83789L89.3804 6.49035C94.4894 3.55252 101.727 4.0472 109.668 8.63097C124.526 17.2098 136.551 36.9938 137.105 53.4147L134.749 54.4581C145.221 62.5177 155.461 77.2224 155.403 89.1536C155.37 95.5526 152.883 99.9319 149.112 102.1L157.466 97.3522C161.236 95.1838 163.56 90.6843 163.593 84.2853C163.654 72.3574 155.736 57.8513 145.264 49.7917Z" fill="#0078D4"/>
<path d="M137.121 54.4228C137.058 37.8056 124.831 17.3536 109.655 8.59246C97.375 1.50257 86.7747 4.19429 83.1312 14.2416C70.4736 9.19997 60.8958 15.5695 60.8227 29.9095C60.7405 45.8538 72.6057 65.6623 87.3271 74.1618C88.1169 74.6173 88.8887 75.0318 89.6671 75.3949L132.839 100.319C133.191 100.526 133.571 100.683 133.966 100.785C145.855 107.081 155.383 101.921 155.449 88.9197C155.51 76.9885 147.593 62.4825 137.121 54.4228Z" fill="url(#paint0_linear)"/>
<g clip-path="url(#clip0)">
<path d="M66.4747 82.9019L89.644 96.2127L85.6473 98.3447L62.7676 85.1491L66.4747 82.9019Z" fill="#1F1D21"/>
<path d="M54.832 88.6641L78.1171 101.975L74.0046 104.107L51.0669 90.9114L54.832 88.6641Z" fill="#1F1D21"/>
<path d="M42.7264 95.1182L65.9537 108.487L62.1307 110.676L38.9614 97.3654L42.7264 95.1182Z" fill="#1F1D21"/>
<path d="M79.3337 66.0187L85.8791 69.7642L85.8211 96.0978L62.9414 82.8446L63.0573 49.6538L79.4495 59.0463L79.3337 66.0187Z" fill="#243A5E"/>
<path d="M79.3918 58.9884L82.4039 57.2598L82.3459 64.2322L79.334 66.0184L79.3918 58.9884Z" fill="#0078D4"/>
<path d="M62.9995 49.7111L66.0115 47.8672L82.4038 57.2597L79.3918 59.1036L62.9995 49.7111Z" fill="#185A97"/>
<path d="M79.3916 59.1038L82.4037 57.2598L88.9489 68.381L85.937 70.1097L79.3916 59.1038Z" fill="#0078D4"/>
<path d="M85.9372 70.0519L88.8913 68.3232L88.8333 94.5416L85.8213 96.1551L85.9372 70.0519Z" fill="#1D4A79"/>
<path d="M79.3918 59.104L85.9372 70.0523L79.334 66.3069L79.3918 59.104Z" fill="#156AB3"/>
<path d="M67.749 72.1266L74.2944 75.8721L74.2364 102.206L51.2988 88.9525L51.4147 55.7617L67.749 65.1542V72.1266Z" fill="#0078D4"/>
<path d="M51.5308 56.05L54.4849 54.3213L70.8771 63.7138L67.8651 65.4425L51.5308 56.05Z" fill="#32B0E7"/>
<path d="M67.749 65.4425L70.7611 63.7139L77.3064 74.4893L74.2944 76.2181L67.749 65.4425Z" fill="#45CAF2"/>
<path d="M74.2948 76.1603L77.3067 74.4316L77.1909 100.65L74.2368 102.263L74.2948 76.1603Z" fill="#156AB3"/>
<path d="M67.749 65.1543L74.2944 76.1603L67.749 72.4148V65.1543Z" fill="#32B0E7"/>
<path d="M55.817 78.6954L62.3622 82.4408L62.3043 108.659L39.3667 95.5213L39.4825 62.3306L55.8748 71.7231L55.817 78.6954Z" fill="#45CAF2"/>
<path d="M55.8169 71.7233L58.8288 69.9946V76.967L55.8169 78.6957V71.7233Z" fill="#0078D4"/>
<path d="M39.4824 62.3307L42.4944 60.6021L58.8288 69.9946L55.8167 71.7232L39.4824 62.3307Z" fill="#6ED5ED"/>
<path d="M55.8169 71.7233L58.8288 69.9946L65.3742 80.7701L62.3622 82.4988L55.8169 71.7233Z" fill="#84ECFD"/>
<path d="M62.3621 82.4987L65.3741 80.77L65.3162 106.931L62.3042 108.659L62.3621 82.4987Z" fill="#32B0E7"/>
<path d="M55.8169 71.7231L62.3622 82.4987L55.8169 78.6956V71.7231Z" fill="#50E6FF"/>
<path d="M51.0095 85.8986C51.415 86.129 51.7625 86.7052 51.7625 87.1662C51.7625 87.4543 51.5888 87.6848 51.357 87.6848V88.5491C51.357 88.7797 51.1833 88.8949 50.9516 88.7797C50.7199 88.6644 50.5462 88.3763 50.5462 88.1458V87.2814C50.3144 86.9933 50.1406 86.6476 50.1406 86.3019C50.2565 85.8409 50.604 85.668 51.0095 85.8986Z" fill="#45CAF2"/>
<path d="M66.0115 47.8672L82.4038 57.2598L88.9491 68.3233H88.8912L88.8333 94.5418L85.8213 96.1552L77.2486 91.142V100.65L74.2367 102.263L65.3744 97.0771V106.931L62.3623 108.659L39.3668 95.5213L39.4827 62.3306L42.4947 60.6019L51.357 65.7303V55.7616L51.7045 55.9344L54.4848 54.321L62.9416 59.1613V49.5959H62.9995L66.0115 47.8672ZM66.0115 47.291C65.8957 47.291 65.7798 47.291 65.7219 47.3486L62.9416 49.0773C62.8837 49.0773 62.7678 49.1349 62.7099 49.1349C62.5361 49.2502 62.4203 49.4231 62.4203 49.6536V58.1818L54.8323 53.8024C54.7165 53.7448 54.6585 53.7448 54.5427 53.7448C54.4269 53.7448 54.3689 53.7448 54.2531 53.8024L51.7624 55.243C51.6466 55.1853 51.5886 55.1853 51.4728 55.1853C51.357 55.1853 51.299 55.1853 51.1832 55.243C51.0094 55.3582 50.8936 55.5311 50.8936 55.7616V64.6931L42.8422 60.0833C42.7264 60.0257 42.6685 60.0257 42.5526 60.0257C42.4368 60.0257 42.3788 60.0257 42.263 60.0833L39.251 61.812C39.0772 61.9272 38.9614 62.1001 38.9614 62.3306L38.7876 95.5213C38.7876 95.7518 38.9034 95.9247 39.0772 96.0399L62.0149 109.178C62.1307 109.236 62.1886 109.236 62.3045 109.236C62.4203 109.236 62.4782 109.236 62.5941 109.178L65.606 107.449C65.7798 107.334 65.8957 107.161 65.8957 106.931V98.0568L73.8891 102.667C73.8891 102.667 73.947 102.667 73.947 102.724C74.0629 102.782 74.1207 102.782 74.2367 102.782C74.2945 102.782 74.2945 102.782 74.3525 102.782C74.4104 102.782 74.4683 102.724 74.5263 102.724C74.5263 102.724 74.5263 102.724 74.5841 102.724L77.5382 101.168C77.712 101.053 77.8278 100.88 77.8278 100.65V92.1792L85.5317 96.6738C85.6475 96.7314 85.7054 96.7314 85.8213 96.7314C85.9371 96.7314 85.9951 96.7314 86.1109 96.6738L89.1229 95.0603C89.2966 94.9451 89.4125 94.7722 89.4125 94.5418L89.4704 68.5539V68.4962C89.5284 68.3233 89.4704 68.2081 89.4125 68.0352L82.9251 56.9717C82.9251 56.914 82.8672 56.914 82.8093 56.8564C82.7514 56.7988 82.7514 56.7988 82.6934 56.7411L66.3011 47.3486C66.2432 47.291 66.1274 47.291 66.0115 47.291Z" fill="white"/>
</g>
<defs>
<linearGradient id="paint0_linear" x1="85.4924" y1="101.499" x2="128.376" y2="19.977" gradientUnits="userSpaceOnUse">
<stop stop-color="#0078D4"/>
<stop offset="0.073" stop-color="#0C7DD8"/>
<stop offset="0.313" stop-color="#308CE2"/>
<stop offset="0.539" stop-color="#4997E9"/>
<stop offset="0.743" stop-color="#599EED"/>
<stop offset="0.906" stop-color="#5EA0EF"/>
</linearGradient>
<clipPath id="clip0">
<rect width="52.6027" height="64.1782" fill="white" transform="translate(37.8081 46.6064)"/>
</clipPath>
</defs>
</svg>
