<svg width="326" height="415" viewBox="0 0 326 415" fill="none" xmlns="http://www.w3.org/2000/svg">
<g clip-path="url(#clip0)">
<rect x="44" y="28" width="220" height="220" rx="110" fill="#F5F5F5"/>
<rect x="98" y="119" width="113" height="113" rx="56.5" fill="white"/>
<g clip-path="url(#clip1)">
<path d="M183.476 154.396C182.366 154.396 181.416 154.897 180.996 155.946H179.503V153.156C179.503 152.559 179.182 152.285 178.565 152.285H177.344V150.711C177.344 147.992 175.246 146 172.432 146H137.141C134.328 146 131.872 147.992 131.872 150.711V152.285H131.008C130.391 152.285 129.713 152.559 129.713 153.156V156.471H128.183C127.763 155.422 126.813 154.921 125.702 154.921C124.209 154.921 123 156.113 123 157.556C123 158.999 124.209 160.168 125.702 160.168C126.813 160.168 127.763 159.62 128.183 158.57H129.7V161.468C129.7 162.064 130.379 162.768 130.996 162.768H131.86V164.962C131.86 167.682 134.315 170.103 137.129 170.103H172.42C175.233 170.103 177.331 167.682 177.331 164.962V162.768H178.553C179.17 162.768 179.491 162.064 179.491 161.468V158.045H180.996C181.416 159.095 182.366 159.643 183.476 159.643C184.969 159.643 186.179 158.487 186.179 157.032C186.179 155.577 184.969 154.396 183.476 154.396ZM174.629 165.165C174.629 166.322 173.839 167.479 172.642 167.479H155.145H136.944H136.919C135.722 167.479 134.575 166.322 134.575 165.165V165.141V151.045V151.021C134.575 149.864 135.722 149.137 136.919 149.137H136.944H155.145H172.642C173.839 149.137 174.629 149.864 174.629 151.021V165.165Z" fill="#0078D4"/>
<path d="M172.642 149.137H155.145V167.467H172.642C173.839 167.467 174.629 166.31 174.629 165.153V151.021C174.629 149.864 173.839 149.137 172.642 149.137Z" fill="url(#paint0_linear)"/>
<path d="M136.944 149.137C135.735 149.137 134.575 149.864 134.575 151.033V165.13C134.575 166.298 135.735 167.455 136.944 167.455H155.145V149.137H136.944Z" fill="#9CEBFF"/>
<path d="M169.101 158.105L165.436 155.314C165.016 154.992 164.436 155.004 164.029 155.326L160.475 158.117C159.994 158.498 159.92 159.19 160.315 159.655C160.5 159.882 160.771 160.025 161.08 160.049C161.117 160.049 161.154 160.049 161.203 160.049C161.462 160.049 161.709 159.965 161.907 159.81L164.757 157.568L167.719 159.822C168.187 160.18 168.928 160.097 169.298 159.643C169.483 159.417 169.569 159.131 169.532 158.844C169.495 158.546 169.335 158.284 169.101 158.105Z" fill="#0078D4"/>
<path d="M149.258 159.643C148.888 160.096 148.148 160.18 147.679 159.822L144.717 157.568L141.867 159.81C141.67 159.965 141.41 160.049 141.164 160.049C141.127 160.049 141.09 160.049 141.04 160.049C140.744 160.013 140.473 159.882 140.275 159.655C139.88 159.19 139.954 158.498 140.436 158.117L143.989 155.326C144.397 155.004 144.977 155.004 145.396 155.314L149.061 158.105C149.295 158.284 149.444 158.546 149.481 158.832C149.53 159.13 149.456 159.405 149.258 159.643Z" fill="#0078D4"/>
<path d="M179.503 188.206V177.58C179.503 176.423 178.528 175.481 177.343 175.481H155.145V203.686C160.302 203.686 179.503 202.124 179.503 188.206Z" fill="url(#paint1_linear)"/>
<path d="M132.958 175.481C131.761 175.481 130.799 176.423 130.799 177.58V188.206C130.799 202.1 149.925 203.674 155.12 203.686V175.481H132.958Z" fill="#9CEBFF"/>
<path d="M178.479 172.857H131.811C129.75 172.857 128.084 174.205 128.084 176.197V188.194C128.084 203.114 146.248 206.107 154.997 205.988C163.918 205.857 182.131 202.971 182.205 188.29V176.209C182.205 174.217 180.54 172.857 178.479 172.857ZM155.145 203.686C149.987 203.686 130.786 202.124 130.786 188.206V177.58C130.786 176.423 131.761 175.481 132.946 175.481H155.132H177.319C178.516 175.481 179.478 176.423 179.478 177.58V188.206C179.503 202.124 160.303 203.686 155.145 203.686Z" fill="#0078D4"/>
<path d="M177.344 197.926H167.373C166.904 197.926 166.522 197.556 166.522 197.103C166.522 196.65 166.904 196.28 167.373 196.28H177.344C177.813 196.28 178.195 196.65 178.195 197.103C178.195 197.556 177.813 197.926 177.344 197.926Z" fill="#0078D4"/>
<path d="M172.728 201.397H162.548C162.079 201.397 161.697 201.027 161.697 200.574C161.697 200.121 162.079 199.751 162.548 199.751H172.728C173.197 199.751 173.58 200.121 173.58 200.574C173.58 201.027 173.197 201.397 172.728 201.397Z" fill="#0078D4"/>
<path d="M142.312 197.926H132.514C132.045 197.926 131.663 197.556 131.663 197.103C131.663 196.65 132.045 196.28 132.514 196.28H142.312C142.781 196.28 143.163 196.65 143.163 197.103C143.163 197.556 142.781 197.926 142.312 197.926Z" fill="#0078D4"/>
<path d="M147.136 201.397H136.82C136.351 201.397 135.969 201.027 135.969 200.574C135.969 200.121 136.351 199.751 136.82 199.751H147.136C147.605 199.751 147.988 200.121 147.988 200.574C147.988 201.027 147.605 201.397 147.136 201.397Z" fill="#0078D4"/>
<path d="M153.405 181.838C152.985 181.671 152.541 181.587 152.072 181.587C151.603 181.587 151.171 181.671 150.739 181.838C150.32 182.005 149.937 182.255 149.604 182.565C149.382 182.78 149.185 183.019 149.037 183.281C148.888 183.543 148.777 183.806 148.703 184.092C148.629 184.366 148.592 184.652 148.592 184.951C148.592 185.237 148.629 185.523 148.703 185.797C148.777 186.072 148.888 186.346 149.037 186.608C149.185 186.871 149.382 187.109 149.604 187.324L154.713 192.261L155.132 192.667L155.552 192.261L160.66 187.324C160.883 187.109 161.08 186.871 161.228 186.608C161.376 186.346 161.487 186.084 161.561 185.797C161.635 185.523 161.672 185.237 161.672 184.951C161.672 184.664 161.635 184.378 161.561 184.092C161.487 183.818 161.376 183.543 161.228 183.281C161.08 183.019 160.883 182.78 160.66 182.565C160.327 182.243 159.957 182.005 159.525 181.838C159.106 181.671 158.661 181.587 158.192 181.587C157.724 181.587 157.279 181.671 156.86 181.838C156.44 182.005 156.058 182.255 155.725 182.565L155.12 183.162L154.515 182.565C154.207 182.243 153.824 182.005 153.405 181.838Z" fill="#0078D4"/>
</g>
<g filter="url(#filter0_dd)">
<rect x="7" y="261" width="294" height="48" rx="2" fill="white"/>
<path d="M21.8711 273.598L19.0996 278.895V282H18.1152V278.918L15.4141 273.598H16.5332L18.4141 277.395C18.4375 277.441 18.5059 277.613 18.6191 277.91H18.6367C18.6758 277.777 18.75 277.605 18.8594 277.395L20.8281 273.598H21.8711ZM24.3672 282.141C23.4805 282.141 22.7715 281.861 22.2402 281.303C21.7129 280.74 21.4492 279.996 21.4492 279.07C21.4492 278.062 21.7246 277.275 22.2754 276.709C22.8262 276.143 23.5703 275.859 24.5078 275.859C25.4023 275.859 26.0996 276.135 26.5996 276.686C27.1035 277.236 27.3555 278 27.3555 278.977C27.3555 279.934 27.084 280.701 26.541 281.279C26.002 281.854 25.2773 282.141 24.3672 282.141ZM24.4375 276.668C23.8203 276.668 23.332 276.879 22.9727 277.301C22.6133 277.719 22.4336 278.297 22.4336 279.035C22.4336 279.746 22.6152 280.307 22.9785 280.717C23.3418 281.127 23.8281 281.332 24.4375 281.332C25.0586 281.332 25.5352 281.131 25.8672 280.729C26.2031 280.326 26.3711 279.754 26.3711 279.012C26.3711 278.262 26.2031 277.684 25.8672 277.277C25.5352 276.871 25.0586 276.668 24.4375 276.668ZM33.7422 282H32.7812V281.051H32.7578C32.3594 281.777 31.7422 282.141 30.9062 282.141C29.4766 282.141 28.7617 281.289 28.7617 279.586V276H29.7168V279.434C29.7168 280.699 30.2012 281.332 31.1699 281.332C31.6387 281.332 32.0234 281.16 32.3242 280.816C32.6289 280.469 32.7812 280.016 32.7812 279.457V276H33.7422V282ZM38.8164 276.973C38.6484 276.844 38.4062 276.779 38.0898 276.779C37.6797 276.779 37.3359 276.973 37.0586 277.359C36.7852 277.746 36.6484 278.273 36.6484 278.941V282H35.6875V276H36.6484V277.236H36.6719C36.8086 276.814 37.0176 276.486 37.2988 276.252C37.5801 276.014 37.8945 275.895 38.2422 275.895C38.4922 275.895 38.6836 275.922 38.8164 275.977V276.973ZM47.4473 282H46.4863V281.062H46.4629C46.0449 281.781 45.4297 282.141 44.6172 282.141C44.0195 282.141 43.5508 281.982 43.2109 281.666C42.875 281.35 42.707 280.93 42.707 280.406C42.707 279.285 43.3672 278.633 44.6875 278.449L46.4863 278.197C46.4863 277.178 46.0742 276.668 45.25 276.668C44.5273 276.668 43.875 276.914 43.293 277.406V276.422C43.8828 276.047 44.5625 275.859 45.332 275.859C46.7422 275.859 47.4473 276.605 47.4473 278.098V282ZM46.4863 278.965L45.0391 279.164C44.5938 279.227 44.2578 279.338 44.0312 279.498C43.8047 279.654 43.6914 279.934 43.6914 280.336C43.6914 280.629 43.7949 280.869 44.002 281.057C44.2129 281.24 44.4922 281.332 44.8398 281.332C45.3164 281.332 45.709 281.166 46.0176 280.834C46.3301 280.498 46.4863 280.074 46.4863 279.562V278.965ZM48.8945 281.783V280.752C49.418 281.139 49.9941 281.332 50.623 281.332C51.4668 281.332 51.8887 281.051 51.8887 280.488C51.8887 280.328 51.8516 280.193 51.7773 280.084C51.707 279.971 51.6094 279.871 51.4844 279.785C51.3633 279.699 51.2188 279.623 51.0508 279.557C50.8867 279.486 50.709 279.414 50.5176 279.34C50.252 279.234 50.0176 279.129 49.8145 279.023C49.6152 278.914 49.4473 278.793 49.3105 278.66C49.1777 278.523 49.0762 278.369 49.0059 278.197C48.9395 278.025 48.9062 277.824 48.9062 277.594C48.9062 277.312 48.9707 277.064 49.0996 276.85C49.2285 276.631 49.4004 276.449 49.6152 276.305C49.8301 276.156 50.0742 276.045 50.3477 275.971C50.625 275.896 50.9102 275.859 51.2031 275.859C51.7227 275.859 52.1875 275.949 52.5977 276.129V277.102C52.1562 276.812 51.6484 276.668 51.0742 276.668C50.8945 276.668 50.7324 276.689 50.5879 276.732C50.4434 276.771 50.3184 276.828 50.2129 276.902C50.1113 276.977 50.0312 277.066 49.9727 277.172C49.918 277.273 49.8906 277.387 49.8906 277.512C49.8906 277.668 49.918 277.799 49.9727 277.904C50.0312 278.01 50.1152 278.104 50.2246 278.186C50.334 278.268 50.4668 278.342 50.623 278.408C50.7793 278.475 50.957 278.547 51.1562 278.625C51.4219 278.727 51.6602 278.832 51.8711 278.941C52.082 279.047 52.2617 279.168 52.4102 279.305C52.5586 279.438 52.6719 279.592 52.75 279.768C52.832 279.943 52.873 280.152 52.873 280.395C52.873 280.691 52.8066 280.949 52.6738 281.168C52.5449 281.387 52.3711 281.568 52.1523 281.713C51.9336 281.857 51.6816 281.965 51.3965 282.035C51.1113 282.105 50.8125 282.141 50.5 282.141C49.8828 282.141 49.3477 282.021 48.8945 281.783ZM53.9922 281.783V280.752C54.5156 281.139 55.0918 281.332 55.7207 281.332C56.5645 281.332 56.9863 281.051 56.9863 280.488C56.9863 280.328 56.9492 280.193 56.875 280.084C56.8047 279.971 56.707 279.871 56.582 279.785C56.4609 279.699 56.3164 279.623 56.1484 279.557C55.9844 279.486 55.8066 279.414 55.6152 279.34C55.3496 279.234 55.1152 279.129 54.9121 279.023C54.7129 278.914 54.5449 278.793 54.4082 278.66C54.2754 278.523 54.1738 278.369 54.1035 278.197C54.0371 278.025 54.0039 277.824 54.0039 277.594C54.0039 277.312 54.0684 277.064 54.1973 276.85C54.3262 276.631 54.498 276.449 54.7129 276.305C54.9277 276.156 55.1719 276.045 55.4453 275.971C55.7227 275.896 56.0078 275.859 56.3008 275.859C56.8203 275.859 57.2852 275.949 57.6953 276.129V277.102C57.2539 276.812 56.7461 276.668 56.1719 276.668C55.9922 276.668 55.8301 276.689 55.6855 276.732C55.541 276.771 55.416 276.828 55.3105 276.902C55.209 276.977 55.1289 277.066 55.0703 277.172C55.0156 277.273 54.9883 277.387 54.9883 277.512C54.9883 277.668 55.0156 277.799 55.0703 277.904C55.1289 278.01 55.2129 278.104 55.3223 278.186C55.4316 278.268 55.5645 278.342 55.7207 278.408C55.877 278.475 56.0547 278.547 56.2539 278.625C56.5195 278.727 56.7578 278.832 56.9688 278.941C57.1797 279.047 57.3594 279.168 57.5078 279.305C57.6562 279.438 57.7695 279.592 57.8477 279.768C57.9297 279.943 57.9707 280.152 57.9707 280.395C57.9707 280.691 57.9043 280.949 57.7715 281.168C57.6426 281.387 57.4688 281.568 57.25 281.713C57.0312 281.857 56.7793 281.965 56.4941 282.035C56.209 282.105 55.9102 282.141 55.5977 282.141C54.9805 282.141 54.4453 282.021 53.9922 281.783ZM59.9453 274.477C59.7734 274.477 59.627 274.418 59.5059 274.301C59.3848 274.184 59.3242 274.035 59.3242 273.855C59.3242 273.676 59.3848 273.527 59.5059 273.41C59.627 273.289 59.7734 273.229 59.9453 273.229C60.1211 273.229 60.2695 273.289 60.3906 273.41C60.5156 273.527 60.5781 273.676 60.5781 273.855C60.5781 274.027 60.5156 274.174 60.3906 274.295C60.2695 274.416 60.1211 274.477 59.9453 274.477ZM60.4141 282H59.4531V276H60.4141V282ZM61.9961 281.783V280.752C62.5195 281.139 63.0957 281.332 63.7246 281.332C64.5684 281.332 64.9902 281.051 64.9902 280.488C64.9902 280.328 64.9531 280.193 64.8789 280.084C64.8086 279.971 64.7109 279.871 64.5859 279.785C64.4648 279.699 64.3203 279.623 64.1523 279.557C63.9883 279.486 63.8105 279.414 63.6191 279.34C63.3535 279.234 63.1191 279.129 62.916 279.023C62.7168 278.914 62.5488 278.793 62.4121 278.66C62.2793 278.523 62.1777 278.369 62.1074 278.197C62.041 278.025 62.0078 277.824 62.0078 277.594C62.0078 277.312 62.0723 277.064 62.2012 276.85C62.3301 276.631 62.502 276.449 62.7168 276.305C62.9316 276.156 63.1758 276.045 63.4492 275.971C63.7266 275.896 64.0117 275.859 64.3047 275.859C64.8242 275.859 65.2891 275.949 65.6992 276.129V277.102C65.2578 276.812 64.75 276.668 64.1758 276.668C63.9961 276.668 63.834 276.689 63.6895 276.732C63.5449 276.771 63.4199 276.828 63.3145 276.902C63.2129 276.977 63.1328 277.066 63.0742 277.172C63.0195 277.273 62.9922 277.387 62.9922 277.512C62.9922 277.668 63.0195 277.799 63.0742 277.904C63.1328 278.01 63.2168 278.104 63.3262 278.186C63.4355 278.268 63.5684 278.342 63.7246 278.408C63.8809 278.475 64.0586 278.547 64.2578 278.625C64.5234 278.727 64.7617 278.832 64.9727 278.941C65.1836 279.047 65.3633 279.168 65.5117 279.305C65.6602 279.438 65.7734 279.592 65.8516 279.768C65.9336 279.943 65.9746 280.152 65.9746 280.395C65.9746 280.691 65.9082 280.949 65.7754 281.168C65.6465 281.387 65.4727 281.568 65.2539 281.713C65.0352 281.857 64.7832 281.965 64.498 282.035C64.2129 282.105 63.9141 282.141 63.6016 282.141C62.9844 282.141 62.4492 282.021 61.9961 281.783ZM70.2402 281.941C70.0137 282.066 69.7148 282.129 69.3438 282.129C68.293 282.129 67.7676 281.543 67.7676 280.371V276.82H66.7363V276H67.7676V274.535L68.7285 274.225V276H70.2402V276.82H68.7285V280.201C68.7285 280.604 68.7969 280.891 68.9336 281.062C69.0703 281.234 69.2969 281.32 69.6133 281.32C69.8555 281.32 70.0645 281.254 70.2402 281.121V281.941ZM75.8184 282H74.8574V281.062H74.834C74.416 281.781 73.8008 282.141 72.9883 282.141C72.3906 282.141 71.9219 281.982 71.582 281.666C71.2461 281.35 71.0781 280.93 71.0781 280.406C71.0781 279.285 71.7383 278.633 73.0586 278.449L74.8574 278.197C74.8574 277.178 74.4453 276.668 73.6211 276.668C72.8984 276.668 72.2461 276.914 71.6641 277.406V276.422C72.2539 276.047 72.9336 275.859 73.7031 275.859C75.1133 275.859 75.8184 276.605 75.8184 278.098V282ZM74.8574 278.965L73.4102 279.164C72.9648 279.227 72.6289 279.338 72.4023 279.498C72.1758 279.654 72.0625 279.934 72.0625 280.336C72.0625 280.629 72.166 280.869 72.373 281.057C72.584 281.24 72.8633 281.332 73.2109 281.332C73.6875 281.332 74.0801 281.166 74.3887 280.834C74.7012 280.498 74.8574 280.074 74.8574 279.562V278.965ZM82.6094 282H81.6484V278.578C81.6484 277.305 81.1836 276.668 80.2539 276.668C79.7734 276.668 79.375 276.85 79.0586 277.213C78.7461 277.572 78.5898 278.027 78.5898 278.578V282H77.6289V276H78.5898V276.996H78.6133C79.0664 276.238 79.7227 275.859 80.582 275.859C81.2383 275.859 81.7402 276.072 82.0879 276.498C82.4355 276.92 82.6094 277.531 82.6094 278.332V282ZM87.209 281.941C86.9824 282.066 86.6836 282.129 86.3125 282.129C85.2617 282.129 84.7363 281.543 84.7363 280.371V276.82H83.7051V276H84.7363V274.535L85.6973 274.225V276H87.209V276.82H85.6973V280.201C85.6973 280.604 85.7656 280.891 85.9023 281.062C86.0391 281.234 86.2656 281.32 86.582 281.32C86.8242 281.32 87.0332 281.254 87.209 281.121V281.941ZM92.2773 274.477C92.1055 274.477 91.959 274.418 91.8379 274.301C91.7168 274.184 91.6562 274.035 91.6562 273.855C91.6562 273.676 91.7168 273.527 91.8379 273.41C91.959 273.289 92.1055 273.229 92.2773 273.229C92.4531 273.229 92.6016 273.289 92.7227 273.41C92.8477 273.527 92.9102 273.676 92.9102 273.855C92.9102 274.027 92.8477 274.174 92.7227 274.295C92.6016 274.416 92.4531 274.477 92.2773 274.477ZM92.7461 282H91.7852V276H92.7461V282ZM94.3281 281.783V280.752C94.8516 281.139 95.4277 281.332 96.0566 281.332C96.9004 281.332 97.3223 281.051 97.3223 280.488C97.3223 280.328 97.2852 280.193 97.2109 280.084C97.1406 279.971 97.043 279.871 96.918 279.785C96.7969 279.699 96.6523 279.623 96.4844 279.557C96.3203 279.486 96.1426 279.414 95.9512 279.34C95.6855 279.234 95.4512 279.129 95.248 279.023C95.0488 278.914 94.8809 278.793 94.7441 278.66C94.6113 278.523 94.5098 278.369 94.4395 278.197C94.373 278.025 94.3398 277.824 94.3398 277.594C94.3398 277.312 94.4043 277.064 94.5332 276.85C94.6621 276.631 94.834 276.449 95.0488 276.305C95.2637 276.156 95.5078 276.045 95.7812 275.971C96.0586 275.896 96.3438 275.859 96.6367 275.859C97.1562 275.859 97.6211 275.949 98.0312 276.129V277.102C97.5898 276.812 97.082 276.668 96.5078 276.668C96.3281 276.668 96.166 276.689 96.0215 276.732C95.877 276.771 95.752 276.828 95.6465 276.902C95.5449 276.977 95.4648 277.066 95.4062 277.172C95.3516 277.273 95.3242 277.387 95.3242 277.512C95.3242 277.668 95.3516 277.799 95.4062 277.904C95.4648 278.01 95.5488 278.104 95.6582 278.186C95.7676 278.268 95.9004 278.342 96.0566 278.408C96.2129 278.475 96.3906 278.547 96.5898 278.625C96.8555 278.727 97.0938 278.832 97.3047 278.941C97.5156 279.047 97.6953 279.168 97.8438 279.305C97.9922 279.438 98.1055 279.592 98.1836 279.768C98.2656 279.943 98.3066 280.152 98.3066 280.395C98.3066 280.691 98.2402 280.949 98.1074 281.168C97.9785 281.387 97.8047 281.568 97.5859 281.713C97.3672 281.857 97.1152 281.965 96.8301 282.035C96.5449 282.105 96.2461 282.141 95.9336 282.141C95.3164 282.141 94.7812 282.021 94.3281 281.783ZM107.904 279.24H103.668C103.684 279.908 103.863 280.424 104.207 280.787C104.551 281.15 105.023 281.332 105.625 281.332C106.301 281.332 106.922 281.109 107.488 280.664V281.566C106.961 281.949 106.264 282.141 105.396 282.141C104.549 282.141 103.883 281.869 103.398 281.326C102.914 280.779 102.672 280.012 102.672 279.023C102.672 278.09 102.936 277.33 103.463 276.744C103.994 276.154 104.652 275.859 105.438 275.859C106.223 275.859 106.83 276.113 107.26 276.621C107.689 277.129 107.904 277.834 107.904 278.736V279.24ZM106.92 278.426C106.916 277.871 106.781 277.439 106.516 277.131C106.254 276.822 105.889 276.668 105.42 276.668C104.967 276.668 104.582 276.83 104.266 277.154C103.949 277.479 103.754 277.902 103.68 278.426H106.92ZM114.344 282H113.383V278.578C113.383 277.305 112.918 276.668 111.988 276.668C111.508 276.668 111.109 276.85 110.793 277.213C110.48 277.572 110.324 278.027 110.324 278.578V282H109.363V276H110.324V276.996H110.348C110.801 276.238 111.457 275.859 112.316 275.859C112.973 275.859 113.475 276.072 113.822 276.498C114.17 276.92 114.344 277.531 114.344 278.332V282ZM120.455 282H119.494V281.062H119.471C119.053 281.781 118.438 282.141 117.625 282.141C117.027 282.141 116.559 281.982 116.219 281.666C115.883 281.35 115.715 280.93 115.715 280.406C115.715 279.285 116.375 278.633 117.695 278.449L119.494 278.197C119.494 277.178 119.082 276.668 118.258 276.668C117.535 276.668 116.883 276.914 116.301 277.406V276.422C116.891 276.047 117.57 275.859 118.34 275.859C119.75 275.859 120.455 276.605 120.455 278.098V282ZM119.494 278.965L118.047 279.164C117.602 279.227 117.266 279.338 117.039 279.498C116.812 279.654 116.699 279.934 116.699 280.336C116.699 280.629 116.803 280.869 117.01 281.057C117.221 281.24 117.5 281.332 117.848 281.332C118.324 281.332 118.717 281.166 119.025 280.834C119.338 280.498 119.494 280.074 119.494 279.562V278.965ZM123.25 281.133H123.227V282H122.266V273.117H123.227V277.055H123.25C123.723 276.258 124.414 275.859 125.324 275.859C126.094 275.859 126.695 276.129 127.129 276.668C127.566 277.203 127.785 277.922 127.785 278.824C127.785 279.828 127.541 280.633 127.053 281.238C126.564 281.84 125.896 282.141 125.049 282.141C124.256 282.141 123.656 281.805 123.25 281.133ZM123.227 278.713V279.551C123.227 280.047 123.387 280.469 123.707 280.816C124.031 281.16 124.441 281.332 124.938 281.332C125.52 281.332 125.975 281.109 126.303 280.664C126.635 280.219 126.801 279.6 126.801 278.807C126.801 278.139 126.646 277.615 126.338 277.236C126.029 276.857 125.611 276.668 125.084 276.668C124.525 276.668 124.076 276.863 123.736 277.254C123.396 277.641 123.227 278.127 123.227 278.713ZM130.281 282H129.32V273.117H130.281V282ZM137.049 279.24H132.812C132.828 279.908 133.008 280.424 133.352 280.787C133.695 281.15 134.168 281.332 134.77 281.332C135.445 281.332 136.066 281.109 136.633 280.664V281.566C136.105 281.949 135.408 282.141 134.541 282.141C133.693 282.141 133.027 281.869 132.543 281.326C132.059 280.779 131.816 280.012 131.816 279.023C131.816 278.09 132.08 277.33 132.607 276.744C133.139 276.154 133.797 275.859 134.582 275.859C135.367 275.859 135.975 276.113 136.404 276.621C136.834 277.129 137.049 277.834 137.049 278.736V279.24ZM136.064 278.426C136.061 277.871 135.926 277.439 135.66 277.131C135.398 276.822 135.033 276.668 134.564 276.668C134.111 276.668 133.727 276.83 133.41 277.154C133.094 277.479 132.898 277.902 132.824 278.426H136.064ZM143.629 282H142.668V280.98H142.645C142.199 281.754 141.512 282.141 140.582 282.141C139.828 282.141 139.225 281.873 138.771 281.338C138.322 280.799 138.098 280.066 138.098 279.141C138.098 278.148 138.348 277.354 138.848 276.756C139.348 276.158 140.014 275.859 140.846 275.859C141.67 275.859 142.27 276.184 142.645 276.832H142.668V273.117H143.629V282ZM142.668 279.287V278.402C142.668 277.918 142.508 277.508 142.188 277.172C141.867 276.836 141.461 276.668 140.969 276.668C140.383 276.668 139.922 276.883 139.586 277.312C139.25 277.742 139.082 278.336 139.082 279.094C139.082 279.785 139.242 280.332 139.562 280.734C139.887 281.133 140.32 281.332 140.863 281.332C141.398 281.332 141.832 281.139 142.164 280.752C142.5 280.365 142.668 279.877 142.668 279.287ZM156.426 276L154.627 282H153.631L152.395 277.705C152.348 277.541 152.316 277.355 152.301 277.148H152.277C152.266 277.289 152.225 277.471 152.154 277.693L150.812 282H149.852L148.035 276H149.043L150.285 280.512C150.324 280.648 150.352 280.828 150.367 281.051H150.414C150.426 280.879 150.461 280.695 150.52 280.5L151.902 276H152.781L154.023 280.523C154.062 280.668 154.092 280.848 154.111 281.062H154.158C154.166 280.91 154.199 280.73 154.258 280.523L155.477 276H156.426ZM158.031 274.477C157.859 274.477 157.713 274.418 157.592 274.301C157.471 274.184 157.41 274.035 157.41 273.855C157.41 273.676 157.471 273.527 157.592 273.41C157.713 273.289 157.859 273.229 158.031 273.229C158.207 273.229 158.355 273.289 158.477 273.41C158.602 273.527 158.664 273.676 158.664 273.855C158.664 274.027 158.602 274.174 158.477 274.295C158.355 274.416 158.207 274.477 158.031 274.477ZM158.5 282H157.539V276H158.5V282ZM163.229 281.941C163.002 282.066 162.703 282.129 162.332 282.129C161.281 282.129 160.756 281.543 160.756 280.371V276.82H159.725V276H160.756V274.535L161.717 274.225V276H163.229V276.82H161.717V280.201C161.717 280.604 161.785 280.891 161.922 281.062C162.059 281.234 162.285 281.32 162.602 281.32C162.844 281.32 163.053 281.254 163.229 281.121V281.941ZM169.492 282H168.531V278.543C168.531 277.293 168.066 276.668 167.137 276.668C166.668 276.668 166.273 276.85 165.953 277.213C165.633 277.572 165.473 278.035 165.473 278.602V282H164.512V273.117H165.473V276.996H165.496C165.957 276.238 166.613 275.859 167.465 275.859C168.816 275.859 169.492 276.674 169.492 278.303V282ZM180.613 281.701C180 281.998 179.199 282.146 178.211 282.146C176.922 282.146 175.908 281.768 175.17 281.01C174.432 280.252 174.062 279.242 174.062 277.98C174.062 276.637 174.477 275.547 175.305 274.711C176.137 273.875 177.215 273.457 178.539 273.457C179.359 273.457 180.051 273.561 180.613 273.768V275.59C180.051 275.254 179.41 275.086 178.691 275.086C177.902 275.086 177.266 275.334 176.781 275.83C176.297 276.326 176.055 276.998 176.055 277.846C176.055 278.658 176.283 279.307 176.74 279.791C177.197 280.271 177.812 280.512 178.586 280.512C179.324 280.512 180 280.332 180.613 279.973V281.701ZM187.656 282H185.811V278.59C185.811 277.711 185.49 277.271 184.85 277.271C184.521 277.271 184.256 277.395 184.053 277.641C183.85 277.887 183.748 278.199 183.748 278.578V282H181.896V273.117H183.748V276.891H183.771C184.225 276.199 184.84 275.854 185.617 275.854C186.977 275.854 187.656 276.674 187.656 278.314V282ZM190.064 275.051C189.752 275.051 189.496 274.959 189.297 274.775C189.098 274.588 188.998 274.359 188.998 274.09C188.998 273.812 189.098 273.586 189.297 273.41C189.496 273.234 189.752 273.146 190.064 273.146C190.381 273.146 190.637 273.234 190.832 273.41C191.031 273.586 191.131 273.812 191.131 274.09C191.131 274.371 191.031 274.602 190.832 274.781C190.637 274.961 190.381 275.051 190.064 275.051ZM190.979 282H189.127V276H190.979V282ZM196.164 281.93C195.891 282.074 195.479 282.146 194.928 282.146C193.623 282.146 192.971 281.469 192.971 280.113V277.365H191.998V276H192.971V274.705L194.816 274.178V276H196.164V277.365H194.816V279.791C194.816 280.416 195.064 280.729 195.561 280.729C195.756 280.729 195.957 280.672 196.164 280.559V281.93ZM201.713 281.783C201.295 282.025 200.691 282.146 199.902 282.146C198.98 282.146 198.234 281.867 197.664 281.309C197.094 280.75 196.809 280.029 196.809 279.146C196.809 278.127 197.113 277.324 197.723 276.738C198.336 276.148 199.154 275.854 200.178 275.854C200.885 275.854 201.396 275.947 201.713 276.135V277.705C201.326 277.416 200.895 277.271 200.418 277.271C199.887 277.271 199.465 277.428 199.152 277.74C198.844 278.049 198.689 278.477 198.689 279.023C198.689 279.555 198.838 279.973 199.135 280.277C199.432 280.578 199.84 280.729 200.359 280.729C200.82 280.729 201.271 280.584 201.713 280.295V281.783ZM208.691 282H206.846V278.59C206.846 277.711 206.525 277.271 205.885 277.271C205.557 277.271 205.291 277.395 205.088 277.641C204.885 277.887 204.783 278.199 204.783 278.578V282H202.932V273.117H204.783V276.891H204.807C205.26 276.199 205.875 275.854 206.652 275.854C208.012 275.854 208.691 276.674 208.691 278.314V282ZM215.154 282H213.402V281.139H213.379C212.977 281.811 212.381 282.146 211.592 282.146C211.01 282.146 210.551 281.982 210.215 281.654C209.883 281.322 209.717 280.881 209.717 280.33C209.717 279.166 210.406 278.494 211.785 278.314L213.414 278.098C213.414 277.441 213.059 277.113 212.348 277.113C211.633 277.113 210.953 277.326 210.309 277.752V276.357C210.566 276.225 210.918 276.107 211.363 276.006C211.812 275.904 212.221 275.854 212.588 275.854C214.299 275.854 215.154 276.707 215.154 278.414V282ZM213.414 279.562V279.158L212.324 279.299C211.723 279.377 211.422 279.648 211.422 280.113C211.422 280.324 211.494 280.498 211.639 280.635C211.787 280.768 211.986 280.834 212.236 280.834C212.584 280.834 212.867 280.715 213.086 280.477C213.305 280.234 213.414 279.93 213.414 279.562ZM220.246 281.93C219.973 282.074 219.561 282.146 219.01 282.146C217.705 282.146 217.053 281.469 217.053 280.113V277.365H216.08V276H217.053V274.705L218.898 274.178V276H220.246V277.365H218.898V279.791C218.898 280.416 219.146 280.729 219.643 280.729C219.838 280.729 220.039 280.672 220.246 280.559V281.93ZM227.564 281.941C227.338 282.066 227.039 282.129 226.668 282.129C225.617 282.129 225.092 281.543 225.092 280.371V276.82H224.061V276H225.092V274.535L226.053 274.225V276H227.564V276.82H226.053V280.201C226.053 280.604 226.121 280.891 226.258 281.062C226.395 281.234 226.621 281.32 226.938 281.32C227.18 281.32 227.389 281.254 227.564 281.121V281.941ZM233.828 282H232.867V278.543C232.867 277.293 232.402 276.668 231.473 276.668C231.004 276.668 230.609 276.85 230.289 277.213C229.969 277.572 229.809 278.035 229.809 278.602V282H228.848V273.117H229.809V276.996H229.832C230.293 276.238 230.949 275.859 231.801 275.859C233.152 275.859 233.828 276.674 233.828 278.303V282ZM239.939 282H238.979V281.062H238.955C238.537 281.781 237.922 282.141 237.109 282.141C236.512 282.141 236.043 281.982 235.703 281.666C235.367 281.35 235.199 280.93 235.199 280.406C235.199 279.285 235.859 278.633 237.18 278.449L238.979 278.197C238.979 277.178 238.566 276.668 237.742 276.668C237.02 276.668 236.367 276.914 235.785 277.406V276.422C236.375 276.047 237.055 275.859 237.824 275.859C239.234 275.859 239.939 276.605 239.939 278.098V282ZM238.979 278.965L237.531 279.164C237.086 279.227 236.75 279.338 236.523 279.498C236.297 279.654 236.184 279.934 236.184 280.336C236.184 280.629 236.287 280.869 236.494 281.057C236.705 281.24 236.984 281.332 237.332 281.332C237.809 281.332 238.201 281.166 238.51 280.834C238.822 280.498 238.979 280.074 238.979 279.562V278.965ZM244.533 281.941C244.307 282.066 244.008 282.129 243.637 282.129C242.586 282.129 242.061 281.543 242.061 280.371V276.82H241.029V276H242.061V274.535L243.021 274.225V276H244.533V276.82H243.021V280.201C243.021 280.604 243.09 280.891 243.227 281.062C243.363 281.234 243.59 281.32 243.906 281.32C244.148 281.32 244.357 281.254 244.533 281.121V281.941ZM249.602 274.477C249.43 274.477 249.283 274.418 249.162 274.301C249.041 274.184 248.98 274.035 248.98 273.855C248.98 273.676 249.041 273.527 249.162 273.41C249.283 273.289 249.43 273.229 249.602 273.229C249.777 273.229 249.926 273.289 250.047 273.41C250.172 273.527 250.234 273.676 250.234 273.855C250.234 274.027 250.172 274.174 250.047 274.295C249.926 274.416 249.777 274.477 249.602 274.477ZM250.07 282H249.109V276H250.07V282ZM256.996 282H256.035V278.578C256.035 277.305 255.57 276.668 254.641 276.668C254.16 276.668 253.762 276.85 253.445 277.213C253.133 277.572 252.977 278.027 252.977 278.578V282H252.016V276H252.977V276.996H253C253.453 276.238 254.109 275.859 254.969 275.859C255.625 275.859 256.127 276.072 256.475 276.498C256.822 276.92 256.996 277.531 256.996 278.332V282ZM258.449 281.783V280.752C258.973 281.139 259.549 281.332 260.178 281.332C261.021 281.332 261.443 281.051 261.443 280.488C261.443 280.328 261.406 280.193 261.332 280.084C261.262 279.971 261.164 279.871 261.039 279.785C260.918 279.699 260.773 279.623 260.605 279.557C260.441 279.486 260.264 279.414 260.072 279.34C259.807 279.234 259.572 279.129 259.369 279.023C259.17 278.914 259.002 278.793 258.865 278.66C258.732 278.523 258.631 278.369 258.561 278.197C258.494 278.025 258.461 277.824 258.461 277.594C258.461 277.312 258.525 277.064 258.654 276.85C258.783 276.631 258.955 276.449 259.17 276.305C259.385 276.156 259.629 276.045 259.902 275.971C260.18 275.896 260.465 275.859 260.758 275.859C261.277 275.859 261.742 275.949 262.152 276.129V277.102C261.711 276.812 261.203 276.668 260.629 276.668C260.449 276.668 260.287 276.689 260.143 276.732C259.998 276.771 259.873 276.828 259.768 276.902C259.666 276.977 259.586 277.066 259.527 277.172C259.473 277.273 259.445 277.387 259.445 277.512C259.445 277.668 259.473 277.799 259.527 277.904C259.586 278.01 259.67 278.104 259.779 278.186C259.889 278.268 260.021 278.342 260.178 278.408C260.334 278.475 260.512 278.547 260.711 278.625C260.977 278.727 261.215 278.832 261.426 278.941C261.637 279.047 261.816 279.168 261.965 279.305C262.113 279.438 262.227 279.592 262.305 279.768C262.387 279.943 262.428 280.152 262.428 280.395C262.428 280.691 262.361 280.949 262.229 281.168C262.1 281.387 261.926 281.568 261.707 281.713C261.488 281.857 261.236 281.965 260.951 282.035C260.666 282.105 260.367 282.141 260.055 282.141C259.438 282.141 258.902 282.021 258.449 281.783ZM266.693 281.941C266.467 282.066 266.168 282.129 265.797 282.129C264.746 282.129 264.221 281.543 264.221 280.371V276.82H263.189V276H264.221V274.535L265.182 274.225V276H266.693V276.82H265.182V280.201C265.182 280.604 265.25 280.891 265.387 281.062C265.523 281.234 265.75 281.32 266.066 281.32C266.309 281.32 266.518 281.254 266.693 281.121V281.941ZM272.271 282H271.311V281.062H271.287C270.869 281.781 270.254 282.141 269.441 282.141C268.844 282.141 268.375 281.982 268.035 281.666C267.699 281.35 267.531 280.93 267.531 280.406C267.531 279.285 268.191 278.633 269.512 278.449L271.311 278.197C271.311 277.178 270.898 276.668 270.074 276.668C269.352 276.668 268.699 276.914 268.117 277.406V276.422C268.707 276.047 269.387 275.859 270.156 275.859C271.566 275.859 272.271 276.605 272.271 278.098V282ZM271.311 278.965L269.863 279.164C269.418 279.227 269.082 279.338 268.855 279.498C268.629 279.654 268.516 279.934 268.516 280.336C268.516 280.629 268.619 280.869 268.826 281.057C269.037 281.24 269.316 281.332 269.664 281.332C270.141 281.332 270.533 281.166 270.842 280.834C271.154 280.498 271.311 280.074 271.311 279.562V278.965ZM279.062 282H278.102V278.578C278.102 277.305 277.637 276.668 276.707 276.668C276.227 276.668 275.828 276.85 275.512 277.213C275.199 277.572 275.043 278.027 275.043 278.578V282H274.082V276H275.043V276.996H275.066C275.52 276.238 276.176 275.859 277.035 275.859C277.691 275.859 278.193 276.072 278.541 276.498C278.889 276.92 279.062 277.531 279.062 278.332V282ZM283.662 281.941C283.436 282.066 283.137 282.129 282.766 282.129C281.715 282.129 281.189 281.543 281.189 280.371V276.82H280.158V276H281.189V274.535L282.15 274.225V276H283.662V276.82H282.15V280.201C282.15 280.604 282.219 280.891 282.355 281.062C282.492 281.234 282.719 281.32 283.035 281.32C283.277 281.32 283.486 281.254 283.662 281.121V281.941ZM285.906 282H284.945V273.117H285.906V282ZM292.627 276L289.867 282.961C289.375 284.203 288.684 284.824 287.793 284.824C287.543 284.824 287.334 284.799 287.166 284.748V283.887C287.373 283.957 287.562 283.992 287.734 283.992C288.219 283.992 288.582 283.703 288.824 283.125L289.305 281.988L286.961 276H288.027L289.65 280.617C289.67 280.676 289.711 280.828 289.773 281.074H289.809C289.828 280.98 289.867 280.832 289.926 280.629L291.631 276H292.627ZM34.4922 298H33.5312V297.062H33.5078C33.0898 297.781 32.4746 298.141 31.6621 298.141C31.0645 298.141 30.5957 297.982 30.2559 297.666C29.9199 297.35 29.752 296.93 29.752 296.406C29.752 295.285 30.4121 294.633 31.7324 294.449L33.5312 294.197C33.5312 293.178 33.1191 292.668 32.2949 292.668C31.5723 292.668 30.9199 292.914 30.3379 293.406V292.422C30.9277 292.047 31.6074 291.859 32.377 291.859C33.7871 291.859 34.4922 292.605 34.4922 294.098V298ZM33.5312 294.965L32.084 295.164C31.6387 295.227 31.3027 295.338 31.0762 295.498C30.8496 295.654 30.7363 295.934 30.7363 296.336C30.7363 296.629 30.8398 296.869 31.0469 297.057C31.2578 297.24 31.5371 297.332 31.8848 297.332C32.3613 297.332 32.7539 297.166 33.0625 296.834C33.375 296.498 33.5312 296.074 33.5312 295.562V294.965ZM41.4238 298H40.4629V296.98H40.4395C39.9941 297.754 39.3066 298.141 38.377 298.141C37.623 298.141 37.0195 297.873 36.5664 297.338C36.1172 296.799 35.8926 296.066 35.8926 295.141C35.8926 294.148 36.1426 293.354 36.6426 292.756C37.1426 292.158 37.8086 291.859 38.6406 291.859C39.4648 291.859 40.0645 292.184 40.4395 292.832H40.4629V289.117H41.4238V298ZM40.4629 295.287V294.402C40.4629 293.918 40.3027 293.508 39.9824 293.172C39.6621 292.836 39.2559 292.668 38.7637 292.668C38.1777 292.668 37.7168 292.883 37.3809 293.312C37.0449 293.742 36.877 294.336 36.877 295.094C36.877 295.785 37.0371 296.332 37.3574 296.734C37.6816 297.133 38.1152 297.332 38.6582 297.332C39.1934 297.332 39.627 297.139 39.959 296.752C40.2949 296.365 40.4629 295.877 40.4629 295.287ZM48.4902 298H47.5293V296.98H47.5059C47.0605 297.754 46.373 298.141 45.4434 298.141C44.6895 298.141 44.0859 297.873 43.6328 297.338C43.1836 296.799 42.959 296.066 42.959 295.141C42.959 294.148 43.209 293.354 43.709 292.756C44.209 292.158 44.875 291.859 45.707 291.859C46.5312 291.859 47.1309 292.184 47.5059 292.832H47.5293V289.117H48.4902V298ZM47.5293 295.287V294.402C47.5293 293.918 47.3691 293.508 47.0488 293.172C46.7285 292.836 46.3223 292.668 45.8301 292.668C45.2441 292.668 44.7832 292.883 44.4473 293.312C44.1113 293.742 43.9434 294.336 43.9434 295.094C43.9434 295.785 44.1035 296.332 44.4238 296.734C44.748 297.133 45.1816 297.332 45.7246 297.332C46.2598 297.332 46.6934 297.139 47.0254 296.752C47.3613 296.365 47.5293 295.877 47.5293 295.287ZM50.0723 297.783V296.752C50.5957 297.139 51.1719 297.332 51.8008 297.332C52.6445 297.332 53.0664 297.051 53.0664 296.488C53.0664 296.328 53.0293 296.193 52.9551 296.084C52.8848 295.971 52.7871 295.871 52.6621 295.785C52.541 295.699 52.3965 295.623 52.2285 295.557C52.0645 295.486 51.8867 295.414 51.6953 295.34C51.4297 295.234 51.1953 295.129 50.9922 295.023C50.793 294.914 50.625 294.793 50.4883 294.66C50.3555 294.523 50.2539 294.369 50.1836 294.197C50.1172 294.025 50.084 293.824 50.084 293.594C50.084 293.312 50.1484 293.064 50.2773 292.85C50.4062 292.631 50.5781 292.449 50.793 292.305C51.0078 292.156 51.252 292.045 51.5254 291.971C51.8027 291.896 52.0879 291.859 52.3809 291.859C52.9004 291.859 53.3652 291.949 53.7754 292.129V293.102C53.334 292.812 52.8262 292.668 52.252 292.668C52.0723 292.668 51.9102 292.689 51.7656 292.732C51.6211 292.771 51.4961 292.828 51.3906 292.902C51.2891 292.977 51.209 293.066 51.1504 293.172C51.0957 293.273 51.0684 293.387 51.0684 293.512C51.0684 293.668 51.0957 293.799 51.1504 293.904C51.209 294.01 51.293 294.104 51.4023 294.186C51.5117 294.268 51.6445 294.342 51.8008 294.408C51.957 294.475 52.1348 294.547 52.334 294.625C52.5996 294.727 52.8379 294.832 53.0488 294.941C53.2598 295.047 53.4395 295.168 53.5879 295.305C53.7363 295.438 53.8496 295.592 53.9277 295.768C54.0098 295.943 54.0508 296.152 54.0508 296.395C54.0508 296.691 53.9844 296.949 53.8516 297.168C53.7227 297.387 53.5488 297.568 53.3301 297.713C53.1113 297.857 52.8594 297.965 52.5742 298.035C52.2891 298.105 51.9902 298.141 51.6777 298.141C51.0605 298.141 50.5254 298.021 50.0723 297.783ZM59.8105 297.133H59.7871V300.76H58.8262V292H59.7871V293.055H59.8105C60.2832 292.258 60.9746 291.859 61.8848 291.859C62.6582 291.859 63.2617 292.129 63.6953 292.668C64.1289 293.203 64.3457 293.922 64.3457 294.824C64.3457 295.828 64.1016 296.633 63.6133 297.238C63.125 297.84 62.457 298.141 61.6094 298.141C60.832 298.141 60.2324 297.805 59.8105 297.133ZM59.7871 294.713V295.551C59.7871 296.047 59.9473 296.469 60.2676 296.816C60.5918 297.16 61.002 297.332 61.498 297.332C62.0801 297.332 62.5352 297.109 62.8633 296.664C63.1953 296.219 63.3613 295.6 63.3613 294.807C63.3613 294.139 63.207 293.615 62.8984 293.236C62.5898 292.857 62.1719 292.668 61.6445 292.668C61.0859 292.668 60.6367 292.863 60.2969 293.254C59.957 293.641 59.7871 294.127 59.7871 294.713ZM70.7031 295.24H66.4668C66.4824 295.908 66.6621 296.424 67.0059 296.787C67.3496 297.15 67.8223 297.332 68.4238 297.332C69.0996 297.332 69.7207 297.109 70.2871 296.664V297.566C69.7598 297.949 69.0625 298.141 68.1953 298.141C67.3477 298.141 66.6816 297.869 66.1973 297.326C65.7129 296.779 65.4707 296.012 65.4707 295.023C65.4707 294.09 65.7344 293.33 66.2617 292.744C66.793 292.154 67.4512 291.859 68.2363 291.859C69.0215 291.859 69.6289 292.113 70.0586 292.621C70.4883 293.129 70.7031 293.834 70.7031 294.736V295.24ZM69.7188 294.426C69.7148 293.871 69.5801 293.439 69.3145 293.131C69.0527 292.822 68.6875 292.668 68.2188 292.668C67.7656 292.668 67.3809 292.83 67.0645 293.154C66.748 293.479 66.5527 293.902 66.4785 294.426H69.7188ZM75.291 292.973C75.123 292.844 74.8809 292.779 74.5645 292.779C74.1543 292.779 73.8105 292.973 73.5332 293.359C73.2598 293.746 73.123 294.273 73.123 294.941V298H72.1621V292H73.123V293.236H73.1465C73.2832 292.814 73.4922 292.486 73.7734 292.252C74.0547 292.014 74.3691 291.895 74.7168 291.895C74.9668 291.895 75.1582 291.922 75.291 291.977V292.973ZM75.9707 297.783V296.752C76.4941 297.139 77.0703 297.332 77.6992 297.332C78.543 297.332 78.9648 297.051 78.9648 296.488C78.9648 296.328 78.9277 296.193 78.8535 296.084C78.7832 295.971 78.6855 295.871 78.5605 295.785C78.4395 295.699 78.2949 295.623 78.127 295.557C77.9629 295.486 77.7852 295.414 77.5938 295.34C77.3281 295.234 77.0938 295.129 76.8906 295.023C76.6914 294.914 76.5234 294.793 76.3867 294.66C76.2539 294.523 76.1523 294.369 76.082 294.197C76.0156 294.025 75.9824 293.824 75.9824 293.594C75.9824 293.312 76.0469 293.064 76.1758 292.85C76.3047 292.631 76.4766 292.449 76.6914 292.305C76.9062 292.156 77.1504 292.045 77.4238 291.971C77.7012 291.896 77.9863 291.859 78.2793 291.859C78.7988 291.859 79.2637 291.949 79.6738 292.129V293.102C79.2324 292.812 78.7246 292.668 78.1504 292.668C77.9707 292.668 77.8086 292.689 77.6641 292.732C77.5195 292.771 77.3945 292.828 77.2891 292.902C77.1875 292.977 77.1074 293.066 77.0488 293.172C76.9941 293.273 76.9668 293.387 76.9668 293.512C76.9668 293.668 76.9941 293.799 77.0488 293.904C77.1074 294.01 77.1914 294.104 77.3008 294.186C77.4102 294.268 77.543 294.342 77.6992 294.408C77.8555 294.475 78.0332 294.547 78.2324 294.625C78.498 294.727 78.7363 294.832 78.9473 294.941C79.1582 295.047 79.3379 295.168 79.4863 295.305C79.6348 295.438 79.748 295.592 79.8262 295.768C79.9082 295.943 79.9492 296.152 79.9492 296.395C79.9492 296.691 79.8828 296.949 79.75 297.168C79.6211 297.387 79.4473 297.568 79.2285 297.713C79.0098 297.857 78.7578 297.965 78.4727 298.035C78.1875 298.105 77.8887 298.141 77.5762 298.141C76.959 298.141 76.4238 298.021 75.9707 297.783ZM83.9395 298.141C83.0527 298.141 82.3438 297.861 81.8125 297.303C81.2852 296.74 81.0215 295.996 81.0215 295.07C81.0215 294.062 81.2969 293.275 81.8477 292.709C82.3984 292.143 83.1426 291.859 84.0801 291.859C84.9746 291.859 85.6719 292.135 86.1719 292.686C86.6758 293.236 86.9277 294 86.9277 294.977C86.9277 295.934 86.6562 296.701 86.1133 297.279C85.5742 297.854 84.8496 298.141 83.9395 298.141ZM84.0098 292.668C83.3926 292.668 82.9043 292.879 82.5449 293.301C82.1855 293.719 82.0059 294.297 82.0059 295.035C82.0059 295.746 82.1875 296.307 82.5508 296.717C82.9141 297.127 83.4004 297.332 84.0098 297.332C84.6309 297.332 85.1074 297.131 85.4395 296.729C85.7754 296.326 85.9434 295.754 85.9434 295.012C85.9434 294.262 85.7754 293.684 85.4395 293.277C85.1074 292.871 84.6309 292.668 84.0098 292.668ZM93.4434 298H92.4824V294.578C92.4824 293.305 92.0176 292.668 91.0879 292.668C90.6074 292.668 90.209 292.85 89.8926 293.213C89.5801 293.572 89.4238 294.027 89.4238 294.578V298H88.4629V292H89.4238V292.996H89.4473C89.9004 292.238 90.5566 291.859 91.416 291.859C92.0723 291.859 92.5742 292.072 92.9219 292.498C93.2695 292.92 93.4434 293.531 93.4434 294.332V298ZM99.5547 298H98.5938V297.062H98.5703C98.1523 297.781 97.5371 298.141 96.7246 298.141C96.127 298.141 95.6582 297.982 95.3184 297.666C94.9824 297.35 94.8145 296.93 94.8145 296.406C94.8145 295.285 95.4746 294.633 96.7949 294.449L98.5938 294.197C98.5938 293.178 98.1816 292.668 97.3574 292.668C96.6348 292.668 95.9824 292.914 95.4004 293.406V292.422C95.9902 292.047 96.6699 291.859 97.4395 291.859C98.8496 291.859 99.5547 292.605 99.5547 294.098V298ZM98.5938 294.965L97.1465 295.164C96.7012 295.227 96.3652 295.338 96.1387 295.498C95.9121 295.654 95.7988 295.934 95.7988 296.336C95.7988 296.629 95.9023 296.869 96.1094 297.057C96.3203 297.24 96.5996 297.332 96.9473 297.332C97.4238 297.332 97.8164 297.166 98.125 296.834C98.4375 296.498 98.5938 296.074 98.5938 295.562V294.965ZM102.326 298H101.365V289.117H102.326V298ZM104.764 290.477C104.592 290.477 104.445 290.418 104.324 290.301C104.203 290.184 104.143 290.035 104.143 289.855C104.143 289.676 104.203 289.527 104.324 289.41C104.445 289.289 104.592 289.229 104.764 289.229C104.939 289.229 105.088 289.289 105.209 289.41C105.334 289.527 105.396 289.676 105.396 289.855C105.396 290.027 105.334 290.174 105.209 290.295C105.088 290.416 104.939 290.477 104.764 290.477ZM105.232 298H104.271V292H105.232V298ZM109.961 297.941C109.734 298.066 109.436 298.129 109.064 298.129C108.014 298.129 107.488 297.543 107.488 296.371V292.82H106.457V292H107.488V290.535L108.449 290.225V292H109.961V292.82H108.449V296.201C108.449 296.604 108.518 296.891 108.654 297.062C108.791 297.234 109.018 297.32 109.334 297.32C109.576 297.32 109.785 297.254 109.961 297.121V297.941ZM116.02 292L113.26 298.961C112.768 300.203 112.076 300.824 111.186 300.824C110.936 300.824 110.727 300.799 110.559 300.748V299.887C110.766 299.957 110.955 299.992 111.127 299.992C111.611 299.992 111.975 299.703 112.217 299.125L112.697 297.988L110.354 292H111.42L113.043 296.617C113.062 296.676 113.104 296.828 113.166 297.074H113.201C113.221 296.98 113.26 296.832 113.318 296.629L115.023 292H116.02ZM123.133 297.941C122.906 298.066 122.607 298.129 122.236 298.129C121.186 298.129 120.66 297.543 120.66 296.371V292.82H119.629V292H120.66V290.535L121.621 290.225V292H123.133V292.82H121.621V296.201C121.621 296.604 121.689 296.891 121.826 297.062C121.963 297.234 122.189 297.32 122.506 297.32C122.748 297.32 122.957 297.254 123.133 297.121V297.941ZM126.924 298.141C126.037 298.141 125.328 297.861 124.797 297.303C124.27 296.74 124.006 295.996 124.006 295.07C124.006 294.062 124.281 293.275 124.832 292.709C125.383 292.143 126.127 291.859 127.064 291.859C127.959 291.859 128.656 292.135 129.156 292.686C129.66 293.236 129.912 294 129.912 294.977C129.912 295.934 129.641 296.701 129.098 297.279C128.559 297.854 127.834 298.141 126.924 298.141ZM126.994 292.668C126.377 292.668 125.889 292.879 125.529 293.301C125.17 293.719 124.99 294.297 124.99 295.035C124.99 295.746 125.172 296.307 125.535 296.717C125.898 297.127 126.385 297.332 126.994 297.332C127.615 297.332 128.092 297.131 128.424 296.729C128.76 296.326 128.928 295.754 128.928 295.012C128.928 294.262 128.76 293.684 128.424 293.277C128.092 292.871 127.615 292.668 126.994 292.668ZM139.516 292L136.756 298.961C136.264 300.203 135.572 300.824 134.682 300.824C134.432 300.824 134.223 300.799 134.055 300.748V299.887C134.262 299.957 134.451 299.992 134.623 299.992C135.107 299.992 135.471 299.703 135.713 299.125L136.193 297.988L133.85 292H134.916L136.539 296.617C136.559 296.676 136.6 296.828 136.662 297.074H136.697C136.717 296.98 136.756 296.832 136.814 296.629L138.52 292H139.516ZM143.061 298.141C142.174 298.141 141.465 297.861 140.934 297.303C140.406 296.74 140.143 295.996 140.143 295.07C140.143 294.062 140.418 293.275 140.969 292.709C141.52 292.143 142.264 291.859 143.201 291.859C144.096 291.859 144.793 292.135 145.293 292.686C145.797 293.236 146.049 294 146.049 294.977C146.049 295.934 145.777 296.701 145.234 297.279C144.695 297.854 143.971 298.141 143.061 298.141ZM143.131 292.668C142.514 292.668 142.025 292.879 141.666 293.301C141.307 293.719 141.127 294.297 141.127 295.035C141.127 295.746 141.309 296.307 141.672 296.717C142.035 297.127 142.521 297.332 143.131 297.332C143.752 297.332 144.229 297.131 144.561 296.729C144.896 296.326 145.064 295.754 145.064 295.012C145.064 294.262 144.896 293.684 144.561 293.277C144.229 292.871 143.752 292.668 143.131 292.668ZM152.436 298H151.475V297.051H151.451C151.053 297.777 150.436 298.141 149.6 298.141C148.17 298.141 147.455 297.289 147.455 295.586V292H148.41V295.434C148.41 296.699 148.895 297.332 149.863 297.332C150.332 297.332 150.717 297.16 151.018 296.816C151.322 296.469 151.475 296.016 151.475 295.457V292H152.436V298ZM157.51 292.973C157.342 292.844 157.1 292.779 156.783 292.779C156.373 292.779 156.029 292.973 155.752 293.359C155.479 293.746 155.342 294.273 155.342 294.941V298H154.381V292H155.342V293.236H155.365C155.502 292.814 155.711 292.486 155.992 292.252C156.273 292.014 156.588 291.895 156.936 291.895C157.186 291.895 157.377 291.922 157.51 291.977V292.973ZM165.936 297.725C165.475 298.002 164.928 298.141 164.295 298.141C163.439 298.141 162.748 297.863 162.221 297.309C161.697 296.75 161.436 296.027 161.436 295.141C161.436 294.152 161.719 293.359 162.285 292.762C162.852 292.16 163.607 291.859 164.553 291.859C165.08 291.859 165.545 291.957 165.947 292.152V293.137C165.502 292.824 165.025 292.668 164.518 292.668C163.904 292.668 163.4 292.889 163.006 293.33C162.615 293.768 162.42 294.344 162.42 295.059C162.42 295.762 162.604 296.316 162.971 296.723C163.342 297.129 163.838 297.332 164.459 297.332C164.982 297.332 165.475 297.158 165.936 296.811V297.725ZM169.896 298.141C169.01 298.141 168.301 297.861 167.77 297.303C167.242 296.74 166.979 295.996 166.979 295.07C166.979 294.062 167.254 293.275 167.805 292.709C168.355 292.143 169.1 291.859 170.037 291.859C170.932 291.859 171.629 292.135 172.129 292.686C172.633 293.236 172.885 294 172.885 294.977C172.885 295.934 172.613 296.701 172.07 297.279C171.531 297.854 170.807 298.141 169.896 298.141ZM169.967 292.668C169.35 292.668 168.861 292.879 168.502 293.301C168.143 293.719 167.963 294.297 167.963 295.035C167.963 295.746 168.145 296.307 168.508 296.717C168.871 297.127 169.357 297.332 169.967 297.332C170.588 297.332 171.064 297.131 171.396 296.729C171.732 296.326 171.9 295.754 171.9 295.012C171.9 294.262 171.732 293.684 171.396 293.277C171.064 292.871 170.588 292.668 169.967 292.668ZM179.4 298H178.439V294.578C178.439 293.305 177.975 292.668 177.045 292.668C176.564 292.668 176.166 292.85 175.85 293.213C175.537 293.572 175.381 294.027 175.381 294.578V298H174.42V292H175.381V292.996H175.404C175.857 292.238 176.514 291.859 177.373 291.859C178.029 291.859 178.531 292.072 178.879 292.498C179.227 292.92 179.4 293.531 179.4 294.332V298ZM185.934 292L183.543 298H182.6L180.326 292H181.381L182.904 296.359C183.018 296.68 183.088 296.959 183.115 297.197H183.139C183.178 296.896 183.24 296.625 183.326 296.383L184.92 292H185.934ZM191.793 295.24H187.557C187.572 295.908 187.752 296.424 188.096 296.787C188.439 297.15 188.912 297.332 189.514 297.332C190.189 297.332 190.811 297.109 191.377 296.664V297.566C190.85 297.949 190.152 298.141 189.285 298.141C188.438 298.141 187.771 297.869 187.287 297.326C186.803 296.779 186.561 296.012 186.561 295.023C186.561 294.09 186.824 293.33 187.352 292.744C187.883 292.154 188.541 291.859 189.326 291.859C190.111 291.859 190.719 292.113 191.148 292.621C191.578 293.129 191.793 293.834 191.793 294.736V295.24ZM190.809 294.426C190.805 293.871 190.67 293.439 190.404 293.131C190.143 292.822 189.777 292.668 189.309 292.668C188.855 292.668 188.471 292.83 188.154 293.154C187.838 293.479 187.643 293.902 187.568 294.426H190.809ZM196.381 292.973C196.213 292.844 195.971 292.779 195.654 292.779C195.244 292.779 194.9 292.973 194.623 293.359C194.35 293.746 194.213 294.273 194.213 294.941V298H193.252V292H194.213V293.236H194.236C194.373 292.814 194.582 292.486 194.863 292.252C195.145 292.014 195.459 291.895 195.807 291.895C196.057 291.895 196.248 291.922 196.381 291.977V292.973ZM197.061 297.783V296.752C197.584 297.139 198.16 297.332 198.789 297.332C199.633 297.332 200.055 297.051 200.055 296.488C200.055 296.328 200.018 296.193 199.943 296.084C199.873 295.971 199.775 295.871 199.65 295.785C199.529 295.699 199.385 295.623 199.217 295.557C199.053 295.486 198.875 295.414 198.684 295.34C198.418 295.234 198.184 295.129 197.98 295.023C197.781 294.914 197.613 294.793 197.477 294.66C197.344 294.523 197.242 294.369 197.172 294.197C197.105 294.025 197.072 293.824 197.072 293.594C197.072 293.312 197.137 293.064 197.266 292.85C197.395 292.631 197.566 292.449 197.781 292.305C197.996 292.156 198.24 292.045 198.514 291.971C198.791 291.896 199.076 291.859 199.369 291.859C199.889 291.859 200.354 291.949 200.764 292.129V293.102C200.322 292.812 199.814 292.668 199.24 292.668C199.061 292.668 198.898 292.689 198.754 292.732C198.609 292.771 198.484 292.828 198.379 292.902C198.277 292.977 198.197 293.066 198.139 293.172C198.084 293.273 198.057 293.387 198.057 293.512C198.057 293.668 198.084 293.799 198.139 293.904C198.197 294.01 198.281 294.104 198.391 294.186C198.5 294.268 198.633 294.342 198.789 294.408C198.945 294.475 199.123 294.547 199.322 294.625C199.588 294.727 199.826 294.832 200.037 294.941C200.248 295.047 200.428 295.168 200.576 295.305C200.725 295.438 200.838 295.592 200.916 295.768C200.998 295.943 201.039 296.152 201.039 296.395C201.039 296.691 200.973 296.949 200.84 297.168C200.711 297.387 200.537 297.568 200.318 297.713C200.1 297.857 199.848 297.965 199.562 298.035C199.277 298.105 198.979 298.141 198.666 298.141C198.049 298.141 197.514 298.021 197.061 297.783ZM206.816 298H205.855V297.062H205.832C205.414 297.781 204.799 298.141 203.986 298.141C203.389 298.141 202.92 297.982 202.58 297.666C202.244 297.35 202.076 296.93 202.076 296.406C202.076 295.285 202.736 294.633 204.057 294.449L205.855 294.197C205.855 293.178 205.443 292.668 204.619 292.668C203.896 292.668 203.244 292.914 202.662 293.406V292.422C203.252 292.047 203.932 291.859 204.701 291.859C206.111 291.859 206.816 292.605 206.816 294.098V298ZM205.855 294.965L204.408 295.164C203.963 295.227 203.627 295.338 203.4 295.498C203.174 295.654 203.061 295.934 203.061 296.336C203.061 296.629 203.164 296.869 203.371 297.057C203.582 297.24 203.861 297.332 204.209 297.332C204.686 297.332 205.078 297.166 205.387 296.834C205.699 296.498 205.855 296.074 205.855 295.562V294.965ZM211.41 297.941C211.184 298.066 210.885 298.129 210.514 298.129C209.463 298.129 208.938 297.543 208.938 296.371V292.82H207.906V292H208.938V290.535L209.898 290.225V292H211.41V292.82H209.898V296.201C209.898 296.604 209.967 296.891 210.104 297.062C210.24 297.234 210.467 297.32 210.783 297.32C211.025 297.32 211.234 297.254 211.41 297.121V297.941ZM213.186 290.477C213.014 290.477 212.867 290.418 212.746 290.301C212.625 290.184 212.564 290.035 212.564 289.855C212.564 289.676 212.625 289.527 212.746 289.41C212.867 289.289 213.014 289.229 213.186 289.229C213.361 289.229 213.51 289.289 213.631 289.41C213.756 289.527 213.818 289.676 213.818 289.855C213.818 290.027 213.756 290.174 213.631 290.295C213.51 290.416 213.361 290.477 213.186 290.477ZM213.654 298H212.693V292H213.654V298ZM218.107 298.141C217.221 298.141 216.512 297.861 215.98 297.303C215.453 296.74 215.189 295.996 215.189 295.07C215.189 294.062 215.465 293.275 216.016 292.709C216.566 292.143 217.311 291.859 218.248 291.859C219.143 291.859 219.84 292.135 220.34 292.686C220.844 293.236 221.096 294 221.096 294.977C221.096 295.934 220.824 296.701 220.281 297.279C219.742 297.854 219.018 298.141 218.107 298.141ZM218.178 292.668C217.561 292.668 217.072 292.879 216.713 293.301C216.354 293.719 216.174 294.297 216.174 295.035C216.174 295.746 216.355 296.307 216.719 296.717C217.082 297.127 217.568 297.332 218.178 297.332C218.799 297.332 219.275 297.131 219.607 296.729C219.943 296.326 220.111 295.754 220.111 295.012C220.111 294.262 219.943 293.684 219.607 293.277C219.275 292.871 218.799 292.668 218.178 292.668ZM227.611 298H226.65V294.578C226.65 293.305 226.186 292.668 225.256 292.668C224.775 292.668 224.377 292.85 224.061 293.213C223.748 293.572 223.592 294.027 223.592 294.578V298H222.631V292H223.592V292.996H223.615C224.068 292.238 224.725 291.859 225.584 291.859C226.24 291.859 226.742 292.072 227.09 292.498C227.438 292.92 227.611 293.531 227.611 294.332V298ZM233.723 298H232.762V297.062H232.738C232.32 297.781 231.705 298.141 230.893 298.141C230.295 298.141 229.826 297.982 229.486 297.666C229.15 297.35 228.982 296.93 228.982 296.406C228.982 295.285 229.643 294.633 230.963 294.449L232.762 294.197C232.762 293.178 232.35 292.668 231.525 292.668C230.803 292.668 230.15 292.914 229.568 293.406V292.422C230.158 292.047 230.838 291.859 231.607 291.859C233.018 291.859 233.723 292.605 233.723 294.098V298ZM232.762 294.965L231.314 295.164C230.869 295.227 230.533 295.338 230.307 295.498C230.08 295.654 229.967 295.934 229.967 296.336C229.967 296.629 230.07 296.869 230.277 297.057C230.488 297.24 230.768 297.332 231.115 297.332C231.592 297.332 231.984 297.166 232.293 296.834C232.605 296.498 232.762 296.074 232.762 295.562V294.965ZM236.494 298H235.533V289.117H236.494V298ZM246.027 298H245.066V297.062H245.043C244.625 297.781 244.01 298.141 243.197 298.141C242.6 298.141 242.131 297.982 241.791 297.666C241.455 297.35 241.287 296.93 241.287 296.406C241.287 295.285 241.947 294.633 243.268 294.449L245.066 294.197C245.066 293.178 244.654 292.668 243.83 292.668C243.107 292.668 242.455 292.914 241.873 293.406V292.422C242.463 292.047 243.143 291.859 243.912 291.859C245.322 291.859 246.027 292.605 246.027 294.098V298ZM245.066 294.965L243.619 295.164C243.174 295.227 242.838 295.338 242.611 295.498C242.385 295.654 242.271 295.934 242.271 296.336C242.271 296.629 242.375 296.869 242.582 297.057C242.793 297.24 243.072 297.332 243.42 297.332C243.896 297.332 244.289 297.166 244.598 296.834C244.91 296.498 245.066 296.074 245.066 295.562V294.965ZM252.959 297.52C252.959 299.723 251.904 300.824 249.795 300.824C249.053 300.824 248.404 300.684 247.85 300.402V299.441C248.525 299.816 249.17 300.004 249.783 300.004C251.26 300.004 251.998 299.219 251.998 297.648V296.992H251.975C251.518 297.758 250.83 298.141 249.912 298.141C249.166 298.141 248.564 297.875 248.107 297.344C247.654 296.809 247.428 296.092 247.428 295.193C247.428 294.174 247.672 293.363 248.16 292.762C248.652 292.16 249.324 291.859 250.176 291.859C250.984 291.859 251.584 292.184 251.975 292.832H251.998V292H252.959V297.52ZM251.998 295.287V294.402C251.998 293.926 251.836 293.518 251.512 293.178C251.191 292.838 250.791 292.668 250.311 292.668C249.717 292.668 249.252 292.885 248.916 293.318C248.58 293.748 248.412 294.352 248.412 295.129C248.412 295.797 248.572 296.332 248.893 296.734C249.217 297.133 249.645 297.332 250.176 297.332C250.715 297.332 251.152 297.141 251.488 296.758C251.828 296.375 251.998 295.885 251.998 295.287ZM259.727 295.24H255.49C255.506 295.908 255.686 296.424 256.029 296.787C256.373 297.15 256.846 297.332 257.447 297.332C258.123 297.332 258.744 297.109 259.311 296.664V297.566C258.783 297.949 258.086 298.141 257.219 298.141C256.371 298.141 255.705 297.869 255.221 297.326C254.736 296.779 254.494 296.012 254.494 295.023C254.494 294.09 254.758 293.33 255.285 292.744C255.816 292.154 256.475 291.859 257.26 291.859C258.045 291.859 258.652 292.113 259.082 292.621C259.512 293.129 259.727 293.834 259.727 294.736V295.24ZM258.742 294.426C258.738 293.871 258.604 293.439 258.338 293.131C258.076 292.822 257.711 292.668 257.242 292.668C256.789 292.668 256.404 292.83 256.088 293.154C255.771 293.479 255.576 293.902 255.502 294.426H258.742ZM266.166 298H265.205V294.578C265.205 293.305 264.74 292.668 263.811 292.668C263.33 292.668 262.932 292.85 262.615 293.213C262.303 293.572 262.146 294.027 262.146 294.578V298H261.186V292H262.146V292.996H262.17C262.623 292.238 263.279 291.859 264.139 291.859C264.795 291.859 265.297 292.072 265.645 292.498C265.992 292.92 266.166 293.531 266.166 294.332V298ZM270.766 297.941C270.539 298.066 270.24 298.129 269.869 298.129C268.818 298.129 268.293 297.543 268.293 296.371V292.82H267.262V292H268.293V290.535L269.254 290.225V292H270.766V292.82H269.254V296.201C269.254 296.604 269.322 296.891 269.459 297.062C269.596 297.234 269.822 297.32 270.139 297.32C270.381 297.32 270.59 297.254 270.766 297.121V297.941ZM271.686 297.783V296.752C272.209 297.139 272.785 297.332 273.414 297.332C274.258 297.332 274.68 297.051 274.68 296.488C274.68 296.328 274.643 296.193 274.568 296.084C274.498 295.971 274.4 295.871 274.275 295.785C274.154 295.699 274.01 295.623 273.842 295.557C273.678 295.486 273.5 295.414 273.309 295.34C273.043 295.234 272.809 295.129 272.605 295.023C272.406 294.914 272.238 294.793 272.102 294.66C271.969 294.523 271.867 294.369 271.797 294.197C271.73 294.025 271.697 293.824 271.697 293.594C271.697 293.312 271.762 293.064 271.891 292.85C272.02 292.631 272.191 292.449 272.406 292.305C272.621 292.156 272.865 292.045 273.139 291.971C273.416 291.896 273.701 291.859 273.994 291.859C274.514 291.859 274.979 291.949 275.389 292.129V293.102C274.947 292.812 274.439 292.668 273.865 292.668C273.686 292.668 273.523 292.689 273.379 292.732C273.234 292.771 273.109 292.828 273.004 292.902C272.902 292.977 272.822 293.066 272.764 293.172C272.709 293.273 272.682 293.387 272.682 293.512C272.682 293.668 272.709 293.799 272.764 293.904C272.822 294.01 272.906 294.104 273.016 294.186C273.125 294.268 273.258 294.342 273.414 294.408C273.57 294.475 273.748 294.547 273.947 294.625C274.213 294.727 274.451 294.832 274.662 294.941C274.873 295.047 275.053 295.168 275.201 295.305C275.35 295.438 275.463 295.592 275.541 295.768C275.623 295.943 275.664 296.152 275.664 296.395C275.664 296.691 275.598 296.949 275.465 297.168C275.336 297.387 275.162 297.568 274.943 297.713C274.725 297.857 274.473 297.965 274.188 298.035C273.902 298.105 273.604 298.141 273.291 298.141C272.674 298.141 272.139 298.021 271.686 297.783ZM277.48 298.129C277.301 298.129 277.146 298.064 277.018 297.936C276.893 297.807 276.83 297.652 276.83 297.473C276.83 297.293 276.893 297.139 277.018 297.01C277.146 296.877 277.301 296.811 277.48 296.811C277.664 296.811 277.82 296.877 277.949 297.01C278.078 297.139 278.143 297.293 278.143 297.473C278.143 297.652 278.078 297.807 277.949 297.936C277.82 298.064 277.664 298.129 277.48 298.129Z" fill="#323130"/>
</g>
<path d="M36.3291 331.707C35.8115 331.98 35.167 332.117 34.3955 332.117C33.3994 332.117 32.6019 331.797 32.0029 331.155C31.404 330.514 31.1045 329.673 31.1045 328.631C31.1045 327.511 31.4414 326.606 32.1152 325.916C32.7891 325.226 33.6436 324.881 34.6787 324.881C35.3428 324.881 35.8929 324.977 36.3291 325.169V326.043C35.8278 325.763 35.2744 325.623 34.6689 325.623C33.8649 325.623 33.2122 325.892 32.7109 326.429C32.2129 326.966 31.9639 327.684 31.9639 328.582C31.9639 329.435 32.1966 330.115 32.6621 330.623C33.1309 331.128 33.7445 331.38 34.5029 331.38C35.2061 331.38 35.8148 331.224 36.3291 330.911V331.707ZM41.7979 332H40.9971V329.119C40.9971 328.077 40.6097 327.557 39.835 327.557C39.4443 327.557 39.1156 327.708 38.8486 328.011C38.5817 328.31 38.4482 328.696 38.4482 329.168V332H37.6475V324.598H38.4482V327.83H38.4678C38.8519 327.199 39.3988 326.883 40.1084 326.883C41.2347 326.883 41.7979 327.562 41.7979 328.919V332ZM43.7217 325.73C43.5785 325.73 43.4564 325.682 43.3555 325.584C43.2546 325.486 43.2041 325.363 43.2041 325.213C43.2041 325.063 43.2546 324.939 43.3555 324.842C43.4564 324.741 43.5785 324.69 43.7217 324.69C43.8682 324.69 43.9919 324.741 44.0928 324.842C44.1969 324.939 44.249 325.063 44.249 325.213C44.249 325.356 44.1969 325.478 44.0928 325.579C43.9919 325.68 43.8682 325.73 43.7217 325.73ZM44.1123 332H43.3115V327H44.1123V332ZM48.0527 331.951C47.8639 332.055 47.6149 332.107 47.3057 332.107C46.43 332.107 45.9922 331.619 45.9922 330.643V327.684H45.1328V327H45.9922V325.779L46.793 325.521V327H48.0527V327.684H46.793V330.501C46.793 330.836 46.8499 331.076 46.9639 331.219C47.0778 331.362 47.2666 331.434 47.5303 331.434C47.7321 331.434 47.9062 331.378 48.0527 331.268V331.951ZM52.5303 331.771C52.1462 332.002 51.6904 332.117 51.1631 332.117C50.4502 332.117 49.874 331.886 49.4346 331.424C48.9984 330.958 48.7803 330.356 48.7803 329.617C48.7803 328.794 49.0163 328.133 49.4883 327.635C49.9603 327.133 50.5902 326.883 51.3779 326.883C51.8174 326.883 52.2048 326.964 52.54 327.127V327.947C52.1689 327.687 51.7718 327.557 51.3486 327.557C50.8376 327.557 50.4176 327.741 50.0889 328.108C49.7633 328.473 49.6006 328.953 49.6006 329.549C49.6006 330.135 49.7536 330.597 50.0596 330.936C50.3688 331.274 50.7822 331.443 51.2998 331.443C51.736 331.443 52.1462 331.299 52.5303 331.009V331.771ZM57.8916 332H57.0908V329.119C57.0908 328.077 56.7035 327.557 55.9287 327.557C55.5381 327.557 55.2093 327.708 54.9424 328.011C54.6755 328.31 54.542 328.696 54.542 329.168V332H53.7412V324.598H54.542V327.83H54.5615C54.9456 327.199 55.4925 326.883 56.2021 326.883C57.3285 326.883 57.8916 327.562 57.8916 328.919V332ZM62.9844 332H62.1836V331.219H62.1641C61.8158 331.818 61.3031 332.117 60.626 332.117C60.1279 332.117 59.7373 331.985 59.4541 331.722C59.1742 331.458 59.0342 331.108 59.0342 330.672C59.0342 329.738 59.5843 329.194 60.6846 329.041L62.1836 328.831C62.1836 327.981 61.8402 327.557 61.1533 327.557C60.5511 327.557 60.0075 327.762 59.5225 328.172V327.352C60.014 327.039 60.5804 326.883 61.2217 326.883C62.3968 326.883 62.9844 327.505 62.9844 328.748V332ZM62.1836 329.471L60.9775 329.637C60.6064 329.689 60.3265 329.782 60.1377 329.915C59.9489 330.045 59.8545 330.278 59.8545 330.613C59.8545 330.857 59.9408 331.058 60.1133 331.214C60.2891 331.367 60.5218 331.443 60.8115 331.443C61.2087 331.443 61.5358 331.305 61.793 331.028C62.0534 330.748 62.1836 330.395 62.1836 329.969V329.471ZM66.8125 331.951C66.6237 332.055 66.3747 332.107 66.0654 332.107C65.1898 332.107 64.752 331.619 64.752 330.643V327.684H63.8926V327H64.752V325.779L65.5527 325.521V327H66.8125V327.684H65.5527V330.501C65.5527 330.836 65.6097 331.076 65.7236 331.219C65.8376 331.362 66.0264 331.434 66.29 331.434C66.4919 331.434 66.666 331.378 66.8125 331.268V331.951ZM71.0361 325.73C70.8929 325.73 70.7708 325.682 70.6699 325.584C70.569 325.486 70.5186 325.363 70.5186 325.213C70.5186 325.063 70.569 324.939 70.6699 324.842C70.7708 324.741 70.8929 324.69 71.0361 324.69C71.1826 324.69 71.3063 324.741 71.4072 324.842C71.5114 324.939 71.5635 325.063 71.5635 325.213C71.5635 325.356 71.5114 325.478 71.4072 325.579C71.3063 325.68 71.1826 325.73 71.0361 325.73ZM71.4268 332H70.626V327H71.4268V332ZM72.7451 331.819V330.96C73.1813 331.282 73.6615 331.443 74.1855 331.443C74.8887 331.443 75.2402 331.209 75.2402 330.74C75.2402 330.607 75.2093 330.494 75.1475 330.403C75.0889 330.309 75.0075 330.226 74.9033 330.154C74.8024 330.083 74.682 330.019 74.542 329.964C74.4053 329.905 74.2572 329.845 74.0977 329.783C73.8763 329.695 73.681 329.607 73.5117 329.52C73.3457 329.428 73.2057 329.327 73.0918 329.217C72.9811 329.103 72.8965 328.974 72.8379 328.831C72.7826 328.688 72.7549 328.52 72.7549 328.328C72.7549 328.094 72.8086 327.887 72.916 327.708C73.0234 327.526 73.1667 327.374 73.3457 327.254C73.5247 327.13 73.7282 327.037 73.9561 326.976C74.1872 326.914 74.4248 326.883 74.6689 326.883C75.1019 326.883 75.4893 326.958 75.8311 327.107V327.918C75.4632 327.677 75.04 327.557 74.5615 327.557C74.4118 327.557 74.2767 327.575 74.1562 327.61C74.0358 327.643 73.9316 327.69 73.8438 327.752C73.7591 327.814 73.6924 327.889 73.6436 327.977C73.598 328.061 73.5752 328.156 73.5752 328.26C73.5752 328.39 73.598 328.499 73.6436 328.587C73.6924 328.675 73.7624 328.753 73.8535 328.821C73.9447 328.89 74.0553 328.951 74.1855 329.007C74.3158 329.062 74.4639 329.122 74.6299 329.188C74.8512 329.272 75.0498 329.36 75.2256 329.451C75.4014 329.539 75.5511 329.64 75.6748 329.754C75.7985 329.865 75.8929 329.993 75.958 330.14C76.0264 330.286 76.0605 330.46 76.0605 330.662C76.0605 330.91 76.0052 331.124 75.8945 331.307C75.7871 331.489 75.6423 331.64 75.46 331.761C75.2777 331.881 75.0677 331.971 74.8301 332.029C74.5924 332.088 74.3434 332.117 74.083 332.117C73.5687 332.117 73.1227 332.018 72.7451 331.819ZM80.8604 331.277H80.8408V334.3H80.04V327H80.8408V327.879H80.8604C81.2542 327.215 81.8304 326.883 82.5889 326.883C83.2334 326.883 83.7363 327.107 84.0977 327.557C84.459 328.003 84.6396 328.602 84.6396 329.354C84.6396 330.19 84.4362 330.861 84.0293 331.365C83.6224 331.867 83.0658 332.117 82.3594 332.117C81.7116 332.117 81.2119 331.837 80.8604 331.277ZM80.8408 329.261V329.959C80.8408 330.372 80.9743 330.724 81.2412 331.014C81.5114 331.3 81.8532 331.443 82.2666 331.443C82.7516 331.443 83.1309 331.258 83.4043 330.887C83.681 330.516 83.8193 330 83.8193 329.339C83.8193 328.782 83.6908 328.346 83.4336 328.03C83.1764 327.715 82.8281 327.557 82.3887 327.557C81.9232 327.557 81.5488 327.719 81.2656 328.045C80.9824 328.367 80.8408 328.772 80.8408 329.261ZM88.0088 332.117C87.2699 332.117 86.679 331.884 86.2363 331.419C85.7969 330.95 85.5771 330.33 85.5771 329.559C85.5771 328.719 85.8066 328.063 86.2656 327.591C86.7246 327.119 87.3447 326.883 88.126 326.883C88.8714 326.883 89.4525 327.112 89.8691 327.571C90.2891 328.03 90.499 328.667 90.499 329.48C90.499 330.278 90.2728 330.918 89.8203 331.399C89.3711 331.878 88.7673 332.117 88.0088 332.117ZM88.0674 327.557C87.5531 327.557 87.1462 327.732 86.8467 328.084C86.5472 328.432 86.3975 328.914 86.3975 329.529C86.3975 330.122 86.5488 330.589 86.8516 330.931C87.1543 331.272 87.5596 331.443 88.0674 331.443C88.585 331.443 88.9821 331.276 89.2588 330.94C89.5387 330.605 89.6787 330.128 89.6787 329.51C89.6787 328.885 89.5387 328.403 89.2588 328.064C88.9821 327.726 88.585 327.557 88.0674 327.557ZM98.0771 327L96.5781 332H95.748L94.7178 328.421C94.6787 328.284 94.6527 328.13 94.6396 327.957H94.6201C94.6104 328.074 94.5762 328.226 94.5176 328.411L93.3994 332H92.5986L91.085 327H91.9248L92.96 330.76C92.9925 330.874 93.0153 331.023 93.0283 331.209H93.0674C93.0771 331.066 93.1064 330.913 93.1553 330.75L94.3076 327H95.04L96.0752 330.77C96.1077 330.89 96.1322 331.04 96.1484 331.219H96.1875C96.194 331.092 96.2217 330.942 96.2705 330.77L97.2861 327H98.0771ZM103.023 329.7H99.4932C99.5062 330.257 99.6559 330.687 99.9424 330.989C100.229 331.292 100.623 331.443 101.124 331.443C101.687 331.443 102.205 331.258 102.677 330.887V331.639C102.237 331.958 101.656 332.117 100.934 332.117C100.227 332.117 99.6722 331.891 99.2686 331.438C98.8649 330.983 98.6631 330.343 98.6631 329.52C98.6631 328.742 98.8828 328.108 99.3223 327.62C99.765 327.129 100.313 326.883 100.968 326.883C101.622 326.883 102.128 327.094 102.486 327.518C102.844 327.941 103.023 328.528 103.023 329.28V329.7ZM102.203 329.021C102.2 328.559 102.088 328.2 101.866 327.942C101.648 327.685 101.344 327.557 100.953 327.557C100.576 327.557 100.255 327.692 99.9912 327.962C99.7275 328.232 99.5648 328.585 99.5029 329.021H102.203ZM106.847 327.811C106.707 327.703 106.505 327.649 106.241 327.649C105.899 327.649 105.613 327.811 105.382 328.133C105.154 328.455 105.04 328.895 105.04 329.451V332H104.239V327H105.04V328.03H105.06C105.174 327.679 105.348 327.405 105.582 327.21C105.816 327.011 106.078 326.912 106.368 326.912C106.576 326.912 106.736 326.935 106.847 326.98V327.811ZM111.734 329.7H108.204C108.217 330.257 108.367 330.687 108.653 330.989C108.94 331.292 109.334 331.443 109.835 331.443C110.398 331.443 110.916 331.258 111.388 330.887V331.639C110.948 331.958 110.367 332.117 109.645 332.117C108.938 332.117 108.383 331.891 107.979 331.438C107.576 330.983 107.374 330.343 107.374 329.52C107.374 328.742 107.594 328.108 108.033 327.62C108.476 327.129 109.024 326.883 109.679 326.883C110.333 326.883 110.839 327.094 111.197 327.518C111.555 327.941 111.734 328.528 111.734 329.28V329.7ZM110.914 329.021C110.911 328.559 110.799 328.2 110.577 327.942C110.359 327.685 110.055 327.557 109.664 327.557C109.286 327.557 108.966 327.692 108.702 327.962C108.438 328.232 108.276 328.585 108.214 329.021H110.914ZM117.218 332H116.417V331.15H116.397C116.026 331.795 115.453 332.117 114.679 332.117C114.05 332.117 113.548 331.894 113.17 331.448C112.796 330.999 112.608 330.389 112.608 329.617C112.608 328.79 112.817 328.128 113.233 327.63C113.65 327.132 114.205 326.883 114.898 326.883C115.585 326.883 116.085 327.153 116.397 327.693H116.417V324.598H117.218V332ZM116.417 329.739V329.002C116.417 328.598 116.284 328.257 116.017 327.977C115.75 327.697 115.411 327.557 115.001 327.557C114.513 327.557 114.129 327.736 113.849 328.094C113.569 328.452 113.429 328.947 113.429 329.578C113.429 330.154 113.562 330.61 113.829 330.945C114.099 331.277 114.461 331.443 114.913 331.443C115.359 331.443 115.72 331.282 115.997 330.96C116.277 330.638 116.417 330.231 116.417 329.739ZM122.403 331.277H122.384V332H121.583V324.598H122.384V327.879H122.403C122.797 327.215 123.373 326.883 124.132 326.883C124.773 326.883 125.274 327.107 125.636 327.557C126 328.003 126.183 328.602 126.183 329.354C126.183 330.19 125.979 330.861 125.572 331.365C125.165 331.867 124.609 332.117 123.902 332.117C123.242 332.117 122.742 331.837 122.403 331.277ZM122.384 329.261V329.959C122.384 330.372 122.517 330.724 122.784 331.014C123.054 331.3 123.396 331.443 123.81 331.443C124.295 331.443 124.674 331.258 124.947 330.887C125.224 330.516 125.362 330 125.362 329.339C125.362 328.782 125.234 328.346 124.977 328.03C124.719 327.715 124.371 327.557 123.932 327.557C123.466 327.557 123.092 327.719 122.809 328.045C122.525 328.367 122.384 328.772 122.384 329.261ZM131.441 327L129.142 332.801C128.731 333.836 128.155 334.354 127.413 334.354C127.205 334.354 127.031 334.332 126.891 334.29V333.572C127.063 333.631 127.221 333.66 127.364 333.66C127.768 333.66 128.071 333.419 128.272 332.938L128.673 331.99L126.72 327H127.608L128.961 330.848C128.977 330.896 129.011 331.023 129.063 331.229H129.093C129.109 331.15 129.142 331.027 129.19 330.857L130.611 327H131.441ZM139.923 331.707C139.405 331.98 138.761 332.117 137.989 332.117C136.993 332.117 136.196 331.797 135.597 331.155C134.998 330.514 134.698 329.673 134.698 328.631C134.698 327.511 135.035 326.606 135.709 325.916C136.383 325.226 137.237 324.881 138.272 324.881C138.937 324.881 139.487 324.977 139.923 325.169V326.043C139.422 325.763 138.868 325.623 138.263 325.623C137.459 325.623 136.806 325.892 136.305 326.429C135.807 326.966 135.558 327.684 135.558 328.582C135.558 329.435 135.79 330.115 136.256 330.623C136.725 331.128 137.338 331.38 138.097 331.38C138.8 331.38 139.409 331.224 139.923 330.911V331.707ZM143.331 332.117C142.592 332.117 142.001 331.884 141.559 331.419C141.119 330.95 140.899 330.33 140.899 329.559C140.899 328.719 141.129 328.063 141.588 327.591C142.047 327.119 142.667 326.883 143.448 326.883C144.194 326.883 144.775 327.112 145.191 327.571C145.611 328.03 145.821 328.667 145.821 329.48C145.821 330.278 145.595 330.918 145.143 331.399C144.693 331.878 144.09 332.117 143.331 332.117ZM143.39 327.557C142.875 327.557 142.468 327.732 142.169 328.084C141.869 328.432 141.72 328.914 141.72 329.529C141.72 330.122 141.871 330.589 142.174 330.931C142.477 331.272 142.882 331.443 143.39 331.443C143.907 331.443 144.304 331.276 144.581 330.94C144.861 330.605 145.001 330.128 145.001 329.51C145.001 328.885 144.861 328.403 144.581 328.064C144.304 327.726 143.907 327.557 143.39 327.557ZM151.368 331.6C151.368 333.436 150.489 334.354 148.731 334.354C148.113 334.354 147.573 334.236 147.11 334.002V333.201C147.674 333.514 148.211 333.67 148.722 333.67C149.952 333.67 150.567 333.016 150.567 331.707V331.16H150.548C150.167 331.798 149.594 332.117 148.829 332.117C148.207 332.117 147.706 331.896 147.325 331.453C146.948 331.007 146.759 330.41 146.759 329.661C146.759 328.812 146.962 328.136 147.369 327.635C147.779 327.133 148.339 326.883 149.049 326.883C149.723 326.883 150.222 327.153 150.548 327.693H150.567V327H151.368V331.6ZM150.567 329.739V329.002C150.567 328.605 150.432 328.265 150.162 327.981C149.895 327.698 149.562 327.557 149.161 327.557C148.666 327.557 148.279 327.737 147.999 328.099C147.719 328.457 147.579 328.96 147.579 329.607C147.579 330.164 147.713 330.61 147.979 330.945C148.25 331.277 148.606 331.443 149.049 331.443C149.498 331.443 149.863 331.284 150.143 330.965C150.426 330.646 150.567 330.237 150.567 329.739ZM157.14 332H156.339V329.148C156.339 328.087 155.951 327.557 155.177 327.557C154.776 327.557 154.444 327.708 154.181 328.011C153.92 328.31 153.79 328.689 153.79 329.148V332H152.989V327H153.79V327.83H153.81C154.187 327.199 154.734 326.883 155.45 326.883C155.997 326.883 156.415 327.06 156.705 327.415C156.995 327.767 157.14 328.276 157.14 328.943V332ZM159.063 325.73C158.92 325.73 158.798 325.682 158.697 325.584C158.596 325.486 158.546 325.363 158.546 325.213C158.546 325.063 158.596 324.939 158.697 324.842C158.798 324.741 158.92 324.69 159.063 324.69C159.21 324.69 159.334 324.741 159.435 324.842C159.539 324.939 159.591 325.063 159.591 325.213C159.591 325.356 159.539 325.478 159.435 325.579C159.334 325.68 159.21 325.73 159.063 325.73ZM159.454 332H158.653V327H159.454V332ZM163.395 331.951C163.206 332.055 162.957 332.107 162.647 332.107C161.772 332.107 161.334 331.619 161.334 330.643V327.684H160.475V327H161.334V325.779L162.135 325.521V327H163.395V327.684H162.135V330.501C162.135 330.836 162.192 331.076 162.306 331.219C162.42 331.362 162.608 331.434 162.872 331.434C163.074 331.434 163.248 331.378 163.395 331.268V331.951ZM164.874 325.73C164.731 325.73 164.609 325.682 164.508 325.584C164.407 325.486 164.356 325.363 164.356 325.213C164.356 325.063 164.407 324.939 164.508 324.842C164.609 324.741 164.731 324.69 164.874 324.69C165.021 324.69 165.144 324.741 165.245 324.842C165.349 324.939 165.401 325.063 165.401 325.213C165.401 325.356 165.349 325.478 165.245 325.579C165.144 325.68 165.021 325.73 164.874 325.73ZM165.265 332H164.464V327H165.265V332ZM170.816 327L168.824 332H168.038L166.144 327H167.022L168.292 330.633C168.386 330.9 168.445 331.132 168.468 331.331H168.487C168.52 331.08 168.572 330.854 168.644 330.652L169.972 327H170.816ZM175.699 329.7H172.169C172.182 330.257 172.332 330.687 172.618 330.989C172.905 331.292 173.299 331.443 173.8 331.443C174.363 331.443 174.881 331.258 175.353 330.887V331.639C174.913 331.958 174.332 332.117 173.609 332.117C172.903 332.117 172.348 331.891 171.944 331.438C171.541 330.983 171.339 330.343 171.339 329.52C171.339 328.742 171.559 328.108 171.998 327.62C172.441 327.129 172.989 326.883 173.644 326.883C174.298 326.883 174.804 327.094 175.162 327.518C175.52 327.941 175.699 328.528 175.699 329.28V329.7ZM174.879 329.021C174.876 328.559 174.763 328.2 174.542 327.942C174.324 327.685 174.02 327.557 173.629 327.557C173.251 327.557 172.931 327.692 172.667 327.962C172.403 328.232 172.241 328.585 172.179 329.021H174.879ZM184.786 332H183.81L182.638 330.037C182.53 329.855 182.426 329.7 182.325 329.573C182.224 329.443 182.12 329.337 182.013 329.256C181.909 329.174 181.795 329.116 181.671 329.08C181.55 329.041 181.414 329.021 181.261 329.021H180.587V332H179.767V324.998H181.856C182.162 324.998 182.444 325.037 182.701 325.115C182.962 325.19 183.186 325.306 183.375 325.462C183.567 325.618 183.717 325.813 183.824 326.048C183.932 326.279 183.985 326.551 183.985 326.863C183.985 327.107 183.948 327.332 183.873 327.537C183.801 327.739 183.697 327.92 183.561 328.079C183.427 328.239 183.264 328.375 183.072 328.489C182.883 328.6 182.67 328.686 182.433 328.748V328.768C182.55 328.82 182.651 328.88 182.735 328.948C182.823 329.013 182.906 329.091 182.984 329.183C183.062 329.274 183.139 329.378 183.214 329.495C183.292 329.609 183.378 329.743 183.473 329.896L184.786 332ZM180.587 325.74V328.279H181.7C181.905 328.279 182.094 328.248 182.267 328.187C182.442 328.125 182.594 328.037 182.721 327.923C182.848 327.806 182.947 327.664 183.019 327.498C183.09 327.329 183.126 327.14 183.126 326.932C183.126 326.557 183.004 326.266 182.76 326.058C182.519 325.846 182.169 325.74 181.71 325.74H180.587ZM189.371 329.7H185.841C185.854 330.257 186.004 330.687 186.29 330.989C186.576 331.292 186.97 331.443 187.472 331.443C188.035 331.443 188.552 331.258 189.024 330.887V331.639C188.585 331.958 188.004 332.117 187.281 332.117C186.575 332.117 186.02 331.891 185.616 331.438C185.213 330.983 185.011 330.343 185.011 329.52C185.011 328.742 185.23 328.108 185.67 327.62C186.113 327.129 186.661 326.883 187.315 326.883C187.97 326.883 188.476 327.094 188.834 327.518C189.192 327.941 189.371 328.528 189.371 329.28V329.7ZM188.551 329.021C188.548 328.559 188.435 328.2 188.214 327.942C187.996 327.685 187.691 327.557 187.301 327.557C186.923 327.557 186.603 327.692 186.339 327.962C186.075 328.232 185.912 328.585 185.851 329.021H188.551ZM190.284 331.819V330.96C190.72 331.282 191.201 331.443 191.725 331.443C192.428 331.443 192.779 331.209 192.779 330.74C192.779 330.607 192.748 330.494 192.687 330.403C192.628 330.309 192.547 330.226 192.442 330.154C192.341 330.083 192.221 330.019 192.081 329.964C191.944 329.905 191.796 329.845 191.637 329.783C191.415 329.695 191.22 329.607 191.051 329.52C190.885 329.428 190.745 329.327 190.631 329.217C190.52 329.103 190.436 328.974 190.377 328.831C190.322 328.688 190.294 328.52 190.294 328.328C190.294 328.094 190.348 327.887 190.455 327.708C190.562 327.526 190.706 327.374 190.885 327.254C191.064 327.13 191.267 327.037 191.495 326.976C191.726 326.914 191.964 326.883 192.208 326.883C192.641 326.883 193.028 326.958 193.37 327.107V327.918C193.002 327.677 192.579 327.557 192.101 327.557C191.951 327.557 191.816 327.575 191.695 327.61C191.575 327.643 191.471 327.69 191.383 327.752C191.298 327.814 191.231 327.889 191.183 327.977C191.137 328.061 191.114 328.156 191.114 328.26C191.114 328.39 191.137 328.499 191.183 328.587C191.231 328.675 191.301 328.753 191.393 328.821C191.484 328.89 191.594 328.951 191.725 329.007C191.855 329.062 192.003 329.122 192.169 329.188C192.39 329.272 192.589 329.36 192.765 329.451C192.94 329.539 193.09 329.64 193.214 329.754C193.338 329.865 193.432 329.993 193.497 330.14C193.565 330.286 193.6 330.46 193.6 330.662C193.6 330.91 193.544 331.124 193.434 331.307C193.326 331.489 193.181 331.64 192.999 331.761C192.817 331.881 192.607 331.971 192.369 332.029C192.132 332.088 191.882 332.117 191.622 332.117C191.108 332.117 190.662 332.018 190.284 331.819ZM198.854 329.7H195.323C195.336 330.257 195.486 330.687 195.772 330.989C196.059 331.292 196.453 331.443 196.954 331.443C197.517 331.443 198.035 331.258 198.507 330.887V331.639C198.067 331.958 197.486 332.117 196.764 332.117C196.057 332.117 195.502 331.891 195.099 331.438C194.695 330.983 194.493 330.343 194.493 329.52C194.493 328.742 194.713 328.108 195.152 327.62C195.595 327.129 196.144 326.883 196.798 326.883C197.452 326.883 197.958 327.094 198.316 327.518C198.674 327.941 198.854 328.528 198.854 329.28V329.7ZM198.033 329.021C198.03 328.559 197.918 328.2 197.696 327.942C197.478 327.685 197.174 327.557 196.783 327.557C196.406 327.557 196.085 327.692 195.821 327.962C195.558 328.232 195.395 328.585 195.333 329.021H198.033ZM203.648 332H202.848V331.219H202.828C202.48 331.818 201.967 332.117 201.29 332.117C200.792 332.117 200.401 331.985 200.118 331.722C199.838 331.458 199.698 331.108 199.698 330.672C199.698 329.738 200.248 329.194 201.349 329.041L202.848 328.831C202.848 327.981 202.504 327.557 201.817 327.557C201.215 327.557 200.672 327.762 200.187 328.172V327.352C200.678 327.039 201.244 326.883 201.886 326.883C203.061 326.883 203.648 327.505 203.648 328.748V332ZM202.848 329.471L201.642 329.637C201.271 329.689 200.991 329.782 200.802 329.915C200.613 330.045 200.519 330.278 200.519 330.613C200.519 330.857 200.605 331.058 200.777 331.214C200.953 331.367 201.186 331.443 201.476 331.443C201.873 331.443 202.2 331.305 202.457 331.028C202.717 330.748 202.848 330.395 202.848 329.969V329.471ZM207.765 327.811C207.625 327.703 207.423 327.649 207.159 327.649C206.817 327.649 206.531 327.811 206.3 328.133C206.072 328.455 205.958 328.895 205.958 329.451V332H205.157V327H205.958V328.03H205.978C206.091 327.679 206.266 327.405 206.5 327.21C206.734 327.011 206.996 326.912 207.286 326.912C207.494 326.912 207.654 326.935 207.765 326.98V327.811ZM212.042 331.771C211.658 332.002 211.202 332.117 210.675 332.117C209.962 332.117 209.386 331.886 208.946 331.424C208.51 330.958 208.292 330.356 208.292 329.617C208.292 328.794 208.528 328.133 209 327.635C209.472 327.133 210.102 326.883 210.89 326.883C211.329 326.883 211.716 326.964 212.052 327.127V327.947C211.681 327.687 211.284 327.557 210.86 327.557C210.349 327.557 209.929 327.741 209.601 328.108C209.275 328.473 209.112 328.953 209.112 329.549C209.112 330.135 209.265 330.597 209.571 330.936C209.881 331.274 210.294 331.443 210.812 331.443C211.248 331.443 211.658 331.299 212.042 331.009V331.771ZM217.403 332H216.603V329.119C216.603 328.077 216.215 327.557 215.44 327.557C215.05 327.557 214.721 327.708 214.454 328.011C214.187 328.31 214.054 328.696 214.054 329.168V332H213.253V324.598H214.054V327.83H214.073C214.457 327.199 215.004 326.883 215.714 326.883C216.84 326.883 217.403 327.562 217.403 328.919V332ZM223.98 331.951C223.792 332.055 223.543 332.107 223.233 332.107C222.358 332.107 221.92 331.619 221.92 330.643V327.684H221.061V327H221.92V325.779L222.721 325.521V327H223.98V327.684H222.721V330.501C222.721 330.836 222.778 331.076 222.892 331.219C223.006 331.362 223.194 331.434 223.458 331.434C223.66 331.434 223.834 331.378 223.98 331.268V331.951ZM229.068 329.7H225.538C225.551 330.257 225.701 330.687 225.987 330.989C226.274 331.292 226.668 331.443 227.169 331.443C227.732 331.443 228.25 331.258 228.722 330.887V331.639C228.282 331.958 227.701 332.117 226.979 332.117C226.272 332.117 225.717 331.891 225.313 331.438C224.91 330.983 224.708 330.343 224.708 329.52C224.708 328.742 224.928 328.108 225.367 327.62C225.81 327.129 226.358 326.883 227.013 326.883C227.667 326.883 228.173 327.094 228.531 327.518C228.889 327.941 229.068 328.528 229.068 329.28V329.7ZM228.248 329.021C228.245 328.559 228.132 328.2 227.911 327.942C227.693 327.685 227.389 327.557 226.998 327.557C226.62 327.557 226.3 327.692 226.036 327.962C225.772 328.232 225.61 328.585 225.548 329.021H228.248ZM233.692 331.771C233.308 332.002 232.853 332.117 232.325 332.117C231.612 332.117 231.036 331.886 230.597 331.424C230.16 330.958 229.942 330.356 229.942 329.617C229.942 328.794 230.178 328.133 230.65 327.635C231.122 327.133 231.752 326.883 232.54 326.883C232.979 326.883 233.367 326.964 233.702 327.127V327.947C233.331 327.687 232.934 327.557 232.511 327.557C232 327.557 231.58 327.741 231.251 328.108C230.925 328.473 230.763 328.953 230.763 329.549C230.763 330.135 230.916 330.597 231.222 330.936C231.531 331.274 231.944 331.443 232.462 331.443C232.898 331.443 233.308 331.299 233.692 331.009V331.771ZM239.054 332H238.253V329.119C238.253 328.077 237.866 327.557 237.091 327.557C236.7 327.557 236.371 327.708 236.104 328.011C235.838 328.31 235.704 328.696 235.704 329.168V332H234.903V324.598H235.704V327.83H235.724C236.108 327.199 236.655 326.883 237.364 326.883C238.491 326.883 239.054 327.562 239.054 328.919V332ZM244.718 332H243.917V329.148C243.917 328.087 243.53 327.557 242.755 327.557C242.354 327.557 242.022 327.708 241.759 328.011C241.498 328.31 241.368 328.689 241.368 329.148V332H240.567V327H241.368V327.83H241.388C241.765 327.199 242.312 326.883 243.028 326.883C243.575 326.883 243.993 327.06 244.283 327.415C244.573 327.767 244.718 328.276 244.718 328.943V332ZM248.321 332.117C247.582 332.117 246.992 331.884 246.549 331.419C246.109 330.95 245.89 330.33 245.89 329.559C245.89 328.719 246.119 328.063 246.578 327.591C247.037 327.119 247.657 326.883 248.438 326.883C249.184 326.883 249.765 327.112 250.182 327.571C250.602 328.03 250.812 328.667 250.812 329.48C250.812 330.278 250.585 330.918 250.133 331.399C249.684 331.878 249.08 332.117 248.321 332.117ZM248.38 327.557C247.866 327.557 247.459 327.732 247.159 328.084C246.86 328.432 246.71 328.914 246.71 329.529C246.71 330.122 246.861 330.589 247.164 330.931C247.467 331.272 247.872 331.443 248.38 331.443C248.897 331.443 249.295 331.276 249.571 330.94C249.851 330.605 249.991 330.128 249.991 329.51C249.991 328.885 249.851 328.403 249.571 328.064C249.295 327.726 248.897 327.557 248.38 327.557ZM252.892 332H252.091V324.598H252.892V332ZM256.603 332.117C255.864 332.117 255.273 331.884 254.83 331.419C254.391 330.95 254.171 330.33 254.171 329.559C254.171 328.719 254.4 328.063 254.859 327.591C255.318 327.119 255.938 326.883 256.72 326.883C257.465 326.883 258.046 327.112 258.463 327.571C258.883 328.03 259.093 328.667 259.093 329.48C259.093 330.278 258.867 330.918 258.414 331.399C257.965 331.878 257.361 332.117 256.603 332.117ZM256.661 327.557C256.147 327.557 255.74 327.732 255.44 328.084C255.141 328.432 254.991 328.914 254.991 329.529C254.991 330.122 255.143 330.589 255.445 330.931C255.748 331.272 256.153 331.443 256.661 331.443C257.179 331.443 257.576 331.276 257.853 330.94C258.132 330.605 258.272 330.128 258.272 329.51C258.272 328.885 258.132 328.403 257.853 328.064C257.576 327.726 257.179 327.557 256.661 327.557ZM264.64 331.6C264.64 333.436 263.761 334.354 262.003 334.354C261.384 334.354 260.844 334.236 260.382 334.002V333.201C260.945 333.514 261.482 333.67 261.993 333.67C263.224 333.67 263.839 333.016 263.839 331.707V331.16H263.819C263.438 331.798 262.866 332.117 262.101 332.117C261.479 332.117 260.978 331.896 260.597 331.453C260.219 331.007 260.03 330.41 260.03 329.661C260.03 328.812 260.234 328.136 260.641 327.635C261.051 327.133 261.611 326.883 262.32 326.883C262.994 326.883 263.494 327.153 263.819 327.693H263.839V327H264.64V331.6ZM263.839 329.739V329.002C263.839 328.605 263.704 328.265 263.434 327.981C263.167 327.698 262.833 327.557 262.433 327.557C261.938 327.557 261.55 327.737 261.271 328.099C260.991 328.457 260.851 328.96 260.851 329.607C260.851 330.164 260.984 330.61 261.251 330.945C261.521 331.277 261.878 331.443 262.32 331.443C262.77 331.443 263.134 331.284 263.414 330.965C263.697 330.646 263.839 330.237 263.839 329.739ZM266.671 325.73C266.528 325.73 266.406 325.682 266.305 325.584C266.204 325.486 266.153 325.363 266.153 325.213C266.153 325.063 266.204 324.939 266.305 324.842C266.406 324.741 266.528 324.69 266.671 324.69C266.817 324.69 266.941 324.741 267.042 324.842C267.146 324.939 267.198 325.063 267.198 325.213C267.198 325.356 267.146 325.478 267.042 325.579C266.941 325.68 266.817 325.73 266.671 325.73ZM267.062 332H266.261V327H267.062V332ZM272.701 329.7H269.171C269.184 330.257 269.334 330.687 269.62 330.989C269.907 331.292 270.3 331.443 270.802 331.443C271.365 331.443 271.882 331.258 272.354 330.887V331.639C271.915 331.958 271.334 332.117 270.611 332.117C269.905 332.117 269.35 331.891 268.946 331.438C268.543 330.983 268.341 330.343 268.341 329.52C268.341 328.742 268.561 328.108 269 327.62C269.443 327.129 269.991 326.883 270.646 326.883C271.3 326.883 271.806 327.094 272.164 327.518C272.522 327.941 272.701 328.528 272.701 329.28V329.7ZM271.881 329.021C271.878 328.559 271.765 328.2 271.544 327.942C271.326 327.685 271.021 327.557 270.631 327.557C270.253 327.557 269.933 327.692 269.669 327.962C269.405 328.232 269.243 328.585 269.181 329.021H271.881ZM273.614 331.819V330.96C274.05 331.282 274.531 331.443 275.055 331.443C275.758 331.443 276.109 331.209 276.109 330.74C276.109 330.607 276.078 330.494 276.017 330.403C275.958 330.309 275.877 330.226 275.772 330.154C275.672 330.083 275.551 330.019 275.411 329.964C275.274 329.905 275.126 329.845 274.967 329.783C274.745 329.695 274.55 329.607 274.381 329.52C274.215 329.428 274.075 329.327 273.961 329.217C273.85 329.103 273.766 328.974 273.707 328.831C273.652 328.688 273.624 328.52 273.624 328.328C273.624 328.094 273.678 327.887 273.785 327.708C273.893 327.526 274.036 327.374 274.215 327.254C274.394 327.13 274.597 327.037 274.825 326.976C275.056 326.914 275.294 326.883 275.538 326.883C275.971 326.883 276.358 326.958 276.7 327.107V327.918C276.332 327.677 275.909 327.557 275.431 327.557C275.281 327.557 275.146 327.575 275.025 327.61C274.905 327.643 274.801 327.69 274.713 327.752C274.628 327.814 274.562 327.889 274.513 327.977C274.467 328.061 274.444 328.156 274.444 328.26C274.444 328.39 274.467 328.499 274.513 328.587C274.562 328.675 274.632 328.753 274.723 328.821C274.814 328.89 274.924 328.951 275.055 329.007C275.185 329.062 275.333 329.122 275.499 329.188C275.72 329.272 275.919 329.36 276.095 329.451C276.271 329.539 276.42 329.64 276.544 329.754C276.668 329.865 276.762 329.993 276.827 330.14C276.896 330.286 276.93 330.46 276.93 330.662C276.93 330.91 276.874 331.124 276.764 331.307C276.656 331.489 276.511 331.64 276.329 331.761C276.147 331.881 275.937 331.971 275.699 332.029C275.462 332.088 275.213 332.117 274.952 332.117C274.438 332.117 273.992 332.018 273.614 331.819Z" fill="#828282"/>
<path d="M147.027 70.8203V75.6328L151.238 71.4219V74.4023L144.949 80.6914V72.9258H140.738V51.9258H170.133V60.3203H168.027V54.0313H142.844V70.8203H147.027ZM153.344 62.4258H174.344V77.1367H170.133V82.8242L164.445 77.1367H153.344V62.4258ZM172.238 75.0039V64.5039H155.449V75.0039H165.348L168.055 77.7109V75.0039H172.238Z" fill="#201F1E"/>
<path d="M143.373 103.648C142.74 103.977 141.953 104.141 141.012 104.141C139.793 104.141 138.816 103.756 138.082 102.986C137.348 102.217 136.98 101.207 136.98 99.957C136.98 98.6133 137.393 97.5273 138.217 96.6992C139.045 95.8711 140.09 95.457 141.352 95.457C142.164 95.457 142.838 95.5723 143.373 95.8027V97.1855C142.807 96.8496 142.182 96.6816 141.498 96.6816C140.588 96.6816 139.85 96.9727 139.283 97.5547C138.721 98.1367 138.439 98.9141 138.439 99.8867C138.439 100.812 138.703 101.551 139.23 102.102C139.758 102.648 140.451 102.922 141.311 102.922C142.104 102.922 142.791 102.734 143.373 102.359V103.648ZM150.146 104H148.787V100.719C148.787 99.5312 148.391 98.9375 147.598 98.9375C147.199 98.9375 146.863 99.1094 146.59 99.4531C146.316 99.7969 146.18 100.236 146.18 100.771V104H144.814V95.1172H146.18V98.9961H146.203C146.656 98.2383 147.305 97.8594 148.148 97.8594C149.48 97.8594 150.146 98.6738 150.146 100.303V104ZM152.484 96.7402C152.262 96.7402 152.07 96.668 151.91 96.5234C151.754 96.3789 151.676 96.1953 151.676 95.9727C151.676 95.75 151.754 95.5645 151.91 95.416C152.07 95.2676 152.262 95.1934 152.484 95.1934C152.715 95.1934 152.91 95.2676 153.07 95.416C153.23 95.5645 153.311 95.75 153.311 95.9727C153.311 96.1836 153.23 96.3652 153.07 96.5176C152.91 96.666 152.715 96.7402 152.484 96.7402ZM153.158 104H151.799V98H153.158V104ZM158.104 103.936C157.838 104.068 157.488 104.135 157.055 104.135C155.891 104.135 155.309 103.576 155.309 102.459V99.0664H154.307V98H155.309V96.6113L156.668 96.2246V98H158.104V99.0664H156.668V102.066C156.668 102.422 156.732 102.676 156.861 102.828C156.99 102.98 157.205 103.057 157.506 103.057C157.736 103.057 157.936 102.99 158.104 102.857V103.936ZM163.465 103.725C162.984 104.002 162.416 104.141 161.76 104.141C160.869 104.141 160.15 103.863 159.604 103.309C159.057 102.75 158.783 102.027 158.783 101.141C158.783 100.152 159.076 99.3594 159.662 98.7617C160.252 98.1602 161.039 97.8594 162.023 97.8594C162.57 97.8594 163.053 97.9551 163.471 98.1465V99.4121C163.053 99.0996 162.607 98.9434 162.135 98.9434C161.561 98.9434 161.09 99.1387 160.723 99.5293C160.355 99.916 160.172 100.424 160.172 101.053C160.172 101.674 160.344 102.164 160.688 102.523C161.035 102.883 161.5 103.062 162.082 103.062C162.57 103.062 163.031 102.889 163.465 102.541V103.725ZM170.15 104H168.791V100.719C168.791 99.5312 168.395 98.9375 167.602 98.9375C167.203 98.9375 166.867 99.1094 166.594 99.4531C166.32 99.7969 166.184 100.236 166.184 100.771V104H164.818V95.1172H166.184V98.9961H166.207C166.66 98.2383 167.309 97.8594 168.152 97.8594C169.484 97.8594 170.15 98.6738 170.15 100.303V104ZM176.408 104H175.09V103.062H175.066C174.652 103.781 174.045 104.141 173.244 104.141C172.654 104.141 172.191 103.98 171.855 103.66C171.523 103.34 171.357 102.916 171.357 102.389C171.357 101.256 172.01 100.596 173.314 100.408L175.096 100.156C175.096 99.3008 174.689 98.873 173.877 98.873C173.162 98.873 172.518 99.1191 171.943 99.6113V98.4219C172.576 98.0469 173.307 97.8594 174.135 97.8594C175.65 97.8594 176.408 98.6055 176.408 100.098V104ZM175.096 101.053L173.836 101.229C173.445 101.279 173.15 101.375 172.951 101.516C172.756 101.652 172.658 101.895 172.658 102.242C172.658 102.496 172.748 102.705 172.928 102.869C173.111 103.029 173.355 103.109 173.66 103.109C174.074 103.109 174.416 102.965 174.686 102.676C174.959 102.383 175.096 102.016 175.096 101.574V101.053ZM181.236 103.936C180.971 104.068 180.621 104.135 180.188 104.135C179.023 104.135 178.441 103.576 178.441 102.459V99.0664H177.439V98H178.441V96.6113L179.801 96.2246V98H181.236V99.0664H179.801V102.066C179.801 102.422 179.865 102.676 179.994 102.828C180.123 102.98 180.338 103.057 180.639 103.057C180.869 103.057 181.068 102.99 181.236 102.857V103.936Z" fill="black"/>
</g>
<defs>
<filter id="filter0_dd" x="-14.4" y="253" width="336.8" height="76.8" filterUnits="userSpaceOnUse" color-interpolation-filters="sRGB">
<feFlood flood-opacity="0" result="BackgroundImageFix"/>
<feColorMatrix in="SourceAlpha" type="matrix" values="0 0 0 0 0 0 0 0 0 0 0 0 0 0 0 0 0 0 127 0"/>
<feOffset dy="6.4"/>
<feGaussianBlur stdDeviation="7.2"/>
<feColorMatrix type="matrix" values="0 0 0 0 0 0 0 0 0 0 0 0 0 0 0 0 0 0 0.13 0"/>
<feBlend mode="normal" in2="BackgroundImageFix" result="effect1_dropShadow"/>
<feColorMatrix in="SourceAlpha" type="matrix" values="0 0 0 0 0 0 0 0 0 0 0 0 0 0 0 0 0 0 127 0"/>
<feOffset dy="1.2"/>
<feGaussianBlur stdDeviation="1.8"/>
<feColorMatrix type="matrix" values="0 0 0 0 0 0 0 0 0 0 0 0 0 0 0 0 0 0 0.1 0"/>
<feBlend mode="normal" in2="effect1_dropShadow" result="effect2_dropShadow"/>
<feBlend mode="normal" in="SourceGraphic" in2="effect2_dropShadow" result="shape"/>
</filter>
<linearGradient id="paint0_linear" x1="155.145" y1="158.305" x2="174.631" y2="158.305" gradientUnits="userSpaceOnUse">
<stop stop-color="white" stop-opacity="0.5"/>
<stop offset="1" stop-color="white"/>
</linearGradient>
<linearGradient id="paint1_linear" x1="155.145" y1="189.581" x2="179.503" y2="189.581" gradientUnits="userSpaceOnUse">
<stop stop-color="white" stop-opacity="0.5"/>
<stop offset="1" stop-color="white"/>
</linearGradient>
<clipPath id="clip0">
<rect width="326" height="415" fill="white"/>
</clipPath>
<clipPath id="clip1">
<rect width="63.1787" height="60" fill="white" transform="translate(123 146)"/>
</clipPath>
</defs>
</svg>
