<svg width="326" height="415" viewBox="0 0 326 415" fill="none" xmlns="http://www.w3.org/2000/svg">
<g clip-path="url(#clip0)">
<rect x="54" y="87" width="220" height="220" rx="110" fill="#F5F5F5"/>
<rect x="5.5" y="32.5" width="316" height="316" rx="158" stroke="#106EBE" stroke-dasharray="5 5"/>
<rect x="108" y="147" width="113" height="113" rx="56.5" fill="white"/>
<g clip-path="url(#clip1)">
<path d="M193.476 182.396C192.366 182.396 191.416 182.897 190.996 183.946H189.503V181.156C189.503 180.559 189.182 180.285 188.565 180.285H187.344V178.711C187.344 175.992 185.246 174 182.432 174H147.141C144.328 174 141.872 175.992 141.872 178.711V180.285H141.008C140.391 180.285 139.713 180.559 139.713 181.156V184.471H138.183C137.763 183.422 136.813 182.921 135.702 182.921C134.209 182.921 133 184.113 133 185.556C133 186.999 134.209 188.168 135.702 188.168C136.813 188.168 137.763 187.62 138.183 186.57H139.7V189.468C139.7 190.064 140.379 190.768 140.996 190.768H141.86V192.962C141.86 195.682 144.315 198.103 147.129 198.103H182.42C185.233 198.103 187.331 195.682 187.331 192.962V190.768H188.553C189.17 190.768 189.491 190.064 189.491 189.468V186.045H190.996C191.416 187.095 192.366 187.643 193.476 187.643C194.969 187.643 196.179 186.487 196.179 185.032C196.179 183.577 194.969 182.396 193.476 182.396ZM184.629 193.165C184.629 194.322 183.839 195.479 182.642 195.479H165.145H146.944H146.919C145.722 195.479 144.575 194.322 144.575 193.165V193.141V179.045V179.021C144.575 177.864 145.722 177.137 146.919 177.137H146.944H165.145H182.642C183.839 177.137 184.629 177.864 184.629 179.021V193.165Z" fill="#0078D4"/>
<path d="M182.642 177.137H165.145V195.467H182.642C183.839 195.467 184.629 194.31 184.629 193.153V179.021C184.629 177.864 183.839 177.137 182.642 177.137Z" fill="url(#paint0_linear)"/>
<path d="M146.944 177.137C145.735 177.137 144.575 177.864 144.575 179.033V193.13C144.575 194.298 145.735 195.455 146.944 195.455H165.145V177.137H146.944Z" fill="#9CEBFF"/>
<path d="M179.101 186.105L175.436 183.314C175.016 182.992 174.436 183.004 174.029 183.326L170.475 186.117C169.994 186.498 169.92 187.19 170.315 187.655C170.5 187.882 170.771 188.025 171.08 188.049C171.117 188.049 171.154 188.049 171.203 188.049C171.462 188.049 171.709 187.965 171.907 187.81L174.757 185.568L177.719 187.822C178.187 188.18 178.928 188.097 179.298 187.643C179.483 187.417 179.569 187.131 179.532 186.844C179.495 186.546 179.335 186.284 179.101 186.105Z" fill="#0078D4"/>
<path d="M159.258 187.643C158.888 188.096 158.148 188.18 157.679 187.822L154.717 185.568L151.867 187.81C151.67 187.965 151.41 188.049 151.164 188.049C151.127 188.049 151.09 188.049 151.04 188.049C150.744 188.013 150.473 187.882 150.275 187.655C149.88 187.19 149.954 186.498 150.436 186.117L153.989 183.326C154.397 183.004 154.977 183.004 155.396 183.314L159.061 186.105C159.295 186.284 159.444 186.546 159.481 186.832C159.53 187.13 159.456 187.405 159.258 187.643Z" fill="#0078D4"/>
<path d="M189.503 216.206V205.58C189.503 204.423 188.528 203.481 187.343 203.481H165.145V231.686C170.302 231.686 189.503 230.124 189.503 216.206Z" fill="url(#paint1_linear)"/>
<path d="M142.958 203.481C141.761 203.481 140.799 204.423 140.799 205.58V216.206C140.799 230.1 159.925 231.674 165.12 231.686V203.481H142.958Z" fill="#9CEBFF"/>
<path d="M188.479 200.857H141.811C139.75 200.857 138.084 202.205 138.084 204.197V216.194C138.084 231.114 156.248 234.107 164.997 233.988C173.918 233.857 192.131 230.971 192.205 216.29V204.209C192.205 202.217 190.54 200.857 188.479 200.857ZM165.145 231.686C159.987 231.686 140.786 230.124 140.786 216.206V205.58C140.786 204.423 141.761 203.481 142.946 203.481H165.132H187.319C188.516 203.481 189.478 204.423 189.478 205.58V216.206C189.503 230.124 170.303 231.686 165.145 231.686Z" fill="#0078D4"/>
<path d="M187.344 225.926H177.373C176.904 225.926 176.522 225.556 176.522 225.103C176.522 224.65 176.904 224.28 177.373 224.28H187.344C187.813 224.28 188.195 224.65 188.195 225.103C188.195 225.556 187.813 225.926 187.344 225.926Z" fill="#0078D4"/>
<path d="M182.728 229.397H172.548C172.079 229.397 171.697 229.027 171.697 228.574C171.697 228.121 172.079 227.751 172.548 227.751H182.728C183.197 227.751 183.58 228.121 183.58 228.574C183.58 229.027 183.197 229.397 182.728 229.397Z" fill="#0078D4"/>
<path d="M152.312 225.926H142.514C142.045 225.926 141.663 225.556 141.663 225.103C141.663 224.65 142.045 224.28 142.514 224.28H152.312C152.781 224.28 153.163 224.65 153.163 225.103C153.163 225.556 152.781 225.926 152.312 225.926Z" fill="#0078D4"/>
<path d="M157.136 229.397H146.82C146.351 229.397 145.969 229.027 145.969 228.574C145.969 228.121 146.351 227.751 146.82 227.751H157.136C157.605 227.751 157.988 228.121 157.988 228.574C157.988 229.027 157.605 229.397 157.136 229.397Z" fill="#0078D4"/>
<path d="M163.405 209.838C162.985 209.671 162.541 209.587 162.072 209.587C161.603 209.587 161.171 209.671 160.739 209.838C160.32 210.005 159.937 210.255 159.604 210.565C159.382 210.78 159.185 211.019 159.037 211.281C158.888 211.543 158.777 211.806 158.703 212.092C158.629 212.366 158.592 212.652 158.592 212.951C158.592 213.237 158.629 213.523 158.703 213.797C158.777 214.072 158.888 214.346 159.037 214.608C159.185 214.871 159.382 215.109 159.604 215.324L164.713 220.261L165.132 220.667L165.552 220.261L170.66 215.324C170.883 215.109 171.08 214.871 171.228 214.608C171.376 214.346 171.487 214.084 171.561 213.797C171.635 213.523 171.672 213.237 171.672 212.951C171.672 212.664 171.635 212.378 171.561 212.092C171.487 211.818 171.376 211.543 171.228 211.281C171.08 211.019 170.883 210.78 170.66 210.565C170.327 210.243 169.957 210.005 169.525 209.838C169.106 209.671 168.661 209.587 168.192 209.587C167.724 209.587 167.279 209.671 166.86 209.838C166.44 210.005 166.058 210.255 165.725 210.565L165.12 211.162L164.515 210.565C164.207 210.243 163.824 210.005 163.405 209.838Z" fill="#0078D4"/>
</g>
<g filter="url(#filter0_dd)">
<rect x="22.5" y="332" width="283" height="64" rx="2" fill="white"/>
<path d="M78.3594 353H77.375V349.168H73.0273V353H72.043V344.598H73.0273V348.283H77.375V344.598H78.3594V353ZM82.9414 353.141C82.0547 353.141 81.3457 352.861 80.8145 352.303C80.2871 351.74 80.0234 350.996 80.0234 350.07C80.0234 349.062 80.2988 348.275 80.8496 347.709C81.4004 347.143 82.1445 346.859 83.082 346.859C83.9766 346.859 84.6738 347.135 85.1738 347.686C85.6777 348.236 85.9297 349 85.9297 349.977C85.9297 350.934 85.6582 351.701 85.1152 352.279C84.5762 352.854 83.8516 353.141 82.9414 353.141ZM83.0117 347.668C82.3945 347.668 81.9062 347.879 81.5469 348.301C81.1875 348.719 81.0078 349.297 81.0078 350.035C81.0078 350.746 81.1895 351.307 81.5527 351.717C81.916 352.127 82.4023 352.332 83.0117 352.332C83.6328 352.332 84.1094 352.131 84.4414 351.729C84.7773 351.326 84.9453 350.754 84.9453 350.012C84.9453 349.262 84.7773 348.684 84.4414 348.277C84.1094 347.871 83.6328 347.668 83.0117 347.668ZM88.4492 352.133H88.4258V355.76H87.4648V347H88.4258V348.055H88.4492C88.9219 347.258 89.6133 346.859 90.5234 346.859C91.2969 346.859 91.9004 347.129 92.334 347.668C92.7676 348.203 92.9844 348.922 92.9844 349.824C92.9844 350.828 92.7402 351.633 92.252 352.238C91.7637 352.84 91.0957 353.141 90.248 353.141C89.4707 353.141 88.8711 352.805 88.4492 352.133ZM88.4258 349.713V350.551C88.4258 351.047 88.5859 351.469 88.9062 351.816C89.2305 352.16 89.6406 352.332 90.1367 352.332C90.7188 352.332 91.1738 352.109 91.502 351.664C91.834 351.219 92 350.6 92 349.807C92 349.139 91.8457 348.615 91.5371 348.236C91.2285 347.857 90.8105 347.668 90.2832 347.668C89.7246 347.668 89.2754 347.863 88.9355 348.254C88.5957 348.641 88.4258 349.127 88.4258 349.713ZM95.0117 345.477C94.8398 345.477 94.6934 345.418 94.5723 345.301C94.4512 345.184 94.3906 345.035 94.3906 344.855C94.3906 344.676 94.4512 344.527 94.5723 344.41C94.6934 344.289 94.8398 344.229 95.0117 344.229C95.1875 344.229 95.3359 344.289 95.457 344.41C95.582 344.527 95.6445 344.676 95.6445 344.855C95.6445 345.027 95.582 345.174 95.457 345.295C95.3359 345.416 95.1875 345.477 95.0117 345.477ZM95.4805 353H94.5195V347H95.4805V353ZM100.209 352.941C99.9824 353.066 99.6836 353.129 99.3125 353.129C98.2617 353.129 97.7363 352.543 97.7363 351.371V347.82H96.7051V347H97.7363V345.535L98.6973 345.225V347H100.209V347.82H98.6973V351.201C98.6973 351.604 98.7656 351.891 98.9023 352.062C99.0391 352.234 99.2656 352.32 99.582 352.32C99.8242 352.32 100.033 352.254 100.209 352.121V352.941ZM105.787 353H104.826V352.062H104.803C104.385 352.781 103.77 353.141 102.957 353.141C102.359 353.141 101.891 352.982 101.551 352.666C101.215 352.35 101.047 351.93 101.047 351.406C101.047 350.285 101.707 349.633 103.027 349.449L104.826 349.197C104.826 348.178 104.414 347.668 103.59 347.668C102.867 347.668 102.215 347.914 101.633 348.406V347.422C102.223 347.047 102.902 346.859 103.672 346.859C105.082 346.859 105.787 347.605 105.787 349.098V353ZM104.826 349.965L103.379 350.164C102.934 350.227 102.598 350.338 102.371 350.498C102.145 350.654 102.031 350.934 102.031 351.336C102.031 351.629 102.135 351.869 102.342 352.057C102.553 352.24 102.832 352.332 103.18 352.332C103.656 352.332 104.049 352.166 104.357 351.834C104.67 351.498 104.826 351.074 104.826 350.562V349.965ZM108.559 353H107.598V344.117H108.559V353ZM110.996 345.477C110.824 345.477 110.678 345.418 110.557 345.301C110.436 345.184 110.375 345.035 110.375 344.855C110.375 344.676 110.436 344.527 110.557 344.41C110.678 344.289 110.824 344.229 110.996 344.229C111.172 344.229 111.32 344.289 111.441 344.41C111.566 344.527 111.629 344.676 111.629 344.855C111.629 345.027 111.566 345.174 111.441 345.295C111.32 345.416 111.172 345.477 110.996 345.477ZM111.465 353H110.504V347H111.465V353ZM116.193 352.941C115.967 353.066 115.668 353.129 115.297 353.129C114.246 353.129 113.721 352.543 113.721 351.371V347.82H112.689V347H113.721V345.535L114.682 345.225V347H116.193V347.82H114.682V351.201C114.682 351.604 114.75 351.891 114.887 352.062C115.023 352.234 115.25 352.32 115.566 352.32C115.809 352.32 116.018 352.254 116.193 352.121V352.941ZM122.252 347L119.492 353.961C119 355.203 118.309 355.824 117.418 355.824C117.168 355.824 116.959 355.799 116.791 355.748V354.887C116.998 354.957 117.188 354.992 117.359 354.992C117.844 354.992 118.207 354.703 118.449 354.125L118.93 352.988L116.586 347H117.652L119.275 351.617C119.295 351.676 119.336 351.828 119.398 352.074H119.434C119.453 351.98 119.492 351.832 119.551 351.629L121.256 347H122.252ZM130.877 353H129.916V352.062H129.893C129.475 352.781 128.859 353.141 128.047 353.141C127.449 353.141 126.98 352.982 126.641 352.666C126.305 352.35 126.137 351.93 126.137 351.406C126.137 350.285 126.797 349.633 128.117 349.449L129.916 349.197C129.916 348.178 129.504 347.668 128.68 347.668C127.957 347.668 127.305 347.914 126.723 348.406V347.422C127.312 347.047 127.992 346.859 128.762 346.859C130.172 346.859 130.877 347.605 130.877 349.098V353ZM129.916 349.965L128.469 350.164C128.023 350.227 127.688 350.338 127.461 350.498C127.234 350.654 127.121 350.934 127.121 351.336C127.121 351.629 127.225 351.869 127.432 352.057C127.643 352.24 127.922 352.332 128.27 352.332C128.746 352.332 129.139 352.166 129.447 351.834C129.76 351.498 129.916 351.074 129.916 350.562V349.965ZM132.324 352.783V351.752C132.848 352.139 133.424 352.332 134.053 352.332C134.896 352.332 135.318 352.051 135.318 351.488C135.318 351.328 135.281 351.193 135.207 351.084C135.137 350.971 135.039 350.871 134.914 350.785C134.793 350.699 134.648 350.623 134.48 350.557C134.316 350.486 134.139 350.414 133.947 350.34C133.682 350.234 133.447 350.129 133.244 350.023C133.045 349.914 132.877 349.793 132.74 349.66C132.607 349.523 132.506 349.369 132.436 349.197C132.369 349.025 132.336 348.824 132.336 348.594C132.336 348.312 132.4 348.064 132.529 347.85C132.658 347.631 132.83 347.449 133.045 347.305C133.26 347.156 133.504 347.045 133.777 346.971C134.055 346.896 134.34 346.859 134.633 346.859C135.152 346.859 135.617 346.949 136.027 347.129V348.102C135.586 347.812 135.078 347.668 134.504 347.668C134.324 347.668 134.162 347.689 134.018 347.732C133.873 347.771 133.748 347.828 133.643 347.902C133.541 347.977 133.461 348.066 133.402 348.172C133.348 348.273 133.32 348.387 133.32 348.512C133.32 348.668 133.348 348.799 133.402 348.904C133.461 349.01 133.545 349.104 133.654 349.186C133.764 349.268 133.896 349.342 134.053 349.408C134.209 349.475 134.387 349.547 134.586 349.625C134.852 349.727 135.09 349.832 135.301 349.941C135.512 350.047 135.691 350.168 135.84 350.305C135.988 350.438 136.102 350.592 136.18 350.768C136.262 350.943 136.303 351.152 136.303 351.395C136.303 351.691 136.236 351.949 136.104 352.168C135.975 352.387 135.801 352.568 135.582 352.713C135.363 352.857 135.111 352.965 134.826 353.035C134.541 353.105 134.242 353.141 133.93 353.141C133.312 353.141 132.777 353.021 132.324 352.783ZM137.422 352.783V351.752C137.945 352.139 138.521 352.332 139.15 352.332C139.994 352.332 140.416 352.051 140.416 351.488C140.416 351.328 140.379 351.193 140.305 351.084C140.234 350.971 140.137 350.871 140.012 350.785C139.891 350.699 139.746 350.623 139.578 350.557C139.414 350.486 139.236 350.414 139.045 350.34C138.779 350.234 138.545 350.129 138.342 350.023C138.143 349.914 137.975 349.793 137.838 349.66C137.705 349.523 137.604 349.369 137.533 349.197C137.467 349.025 137.434 348.824 137.434 348.594C137.434 348.312 137.498 348.064 137.627 347.85C137.756 347.631 137.928 347.449 138.143 347.305C138.357 347.156 138.602 347.045 138.875 346.971C139.152 346.896 139.438 346.859 139.73 346.859C140.25 346.859 140.715 346.949 141.125 347.129V348.102C140.684 347.812 140.176 347.668 139.602 347.668C139.422 347.668 139.26 347.689 139.115 347.732C138.971 347.771 138.846 347.828 138.74 347.902C138.639 347.977 138.559 348.066 138.5 348.172C138.445 348.273 138.418 348.387 138.418 348.512C138.418 348.668 138.445 348.799 138.5 348.904C138.559 349.01 138.643 349.104 138.752 349.186C138.861 349.268 138.994 349.342 139.15 349.408C139.307 349.475 139.484 349.547 139.684 349.625C139.949 349.727 140.188 349.832 140.398 349.941C140.609 350.047 140.789 350.168 140.938 350.305C141.086 350.438 141.199 350.592 141.277 350.768C141.359 350.943 141.4 351.152 141.4 351.395C141.4 351.691 141.334 351.949 141.201 352.168C141.072 352.387 140.898 352.568 140.68 352.713C140.461 352.857 140.209 352.965 139.924 353.035C139.639 353.105 139.34 353.141 139.027 353.141C138.41 353.141 137.875 353.021 137.422 352.783ZM143.375 345.477C143.203 345.477 143.057 345.418 142.936 345.301C142.814 345.184 142.754 345.035 142.754 344.855C142.754 344.676 142.814 344.527 142.936 344.41C143.057 344.289 143.203 344.229 143.375 344.229C143.551 344.229 143.699 344.289 143.82 344.41C143.945 344.527 144.008 344.676 144.008 344.855C144.008 345.027 143.945 345.174 143.82 345.295C143.699 345.416 143.551 345.477 143.375 345.477ZM143.844 353H142.883V347H143.844V353ZM145.426 352.783V351.752C145.949 352.139 146.525 352.332 147.154 352.332C147.998 352.332 148.42 352.051 148.42 351.488C148.42 351.328 148.383 351.193 148.309 351.084C148.238 350.971 148.141 350.871 148.016 350.785C147.895 350.699 147.75 350.623 147.582 350.557C147.418 350.486 147.24 350.414 147.049 350.34C146.783 350.234 146.549 350.129 146.346 350.023C146.146 349.914 145.979 349.793 145.842 349.66C145.709 349.523 145.607 349.369 145.537 349.197C145.471 349.025 145.438 348.824 145.438 348.594C145.438 348.312 145.502 348.064 145.631 347.85C145.76 347.631 145.932 347.449 146.146 347.305C146.361 347.156 146.605 347.045 146.879 346.971C147.156 346.896 147.441 346.859 147.734 346.859C148.254 346.859 148.719 346.949 149.129 347.129V348.102C148.688 347.812 148.18 347.668 147.605 347.668C147.426 347.668 147.264 347.689 147.119 347.732C146.975 347.771 146.85 347.828 146.744 347.902C146.643 347.977 146.562 348.066 146.504 348.172C146.449 348.273 146.422 348.387 146.422 348.512C146.422 348.668 146.449 348.799 146.504 348.904C146.562 349.01 146.646 349.104 146.756 349.186C146.865 349.268 146.998 349.342 147.154 349.408C147.311 349.475 147.488 349.547 147.688 349.625C147.953 349.727 148.191 349.832 148.402 349.941C148.613 350.047 148.793 350.168 148.941 350.305C149.09 350.438 149.203 350.592 149.281 350.768C149.363 350.943 149.404 351.152 149.404 351.395C149.404 351.691 149.338 351.949 149.205 352.168C149.076 352.387 148.902 352.568 148.684 352.713C148.465 352.857 148.213 352.965 147.928 353.035C147.643 353.105 147.344 353.141 147.031 353.141C146.414 353.141 145.879 353.021 145.426 352.783ZM153.67 352.941C153.443 353.066 153.145 353.129 152.773 353.129C151.723 353.129 151.197 352.543 151.197 351.371V347.82H150.166V347H151.197V345.535L152.158 345.225V347H153.67V347.82H152.158V351.201C152.158 351.604 152.227 351.891 152.363 352.062C152.5 352.234 152.727 352.32 153.043 352.32C153.285 352.32 153.494 352.254 153.67 352.121V352.941ZM159.248 353H158.287V352.062H158.264C157.846 352.781 157.23 353.141 156.418 353.141C155.82 353.141 155.352 352.982 155.012 352.666C154.676 352.35 154.508 351.93 154.508 351.406C154.508 350.285 155.168 349.633 156.488 349.449L158.287 349.197C158.287 348.178 157.875 347.668 157.051 347.668C156.328 347.668 155.676 347.914 155.094 348.406V347.422C155.684 347.047 156.363 346.859 157.133 346.859C158.543 346.859 159.248 347.605 159.248 349.098V353ZM158.287 349.965L156.84 350.164C156.395 350.227 156.059 350.338 155.832 350.498C155.605 350.654 155.492 350.934 155.492 351.336C155.492 351.629 155.596 351.869 155.803 352.057C156.014 352.24 156.293 352.332 156.641 352.332C157.117 352.332 157.51 352.166 157.818 351.834C158.131 351.498 158.287 351.074 158.287 350.562V349.965ZM166.039 353H165.078V349.578C165.078 348.305 164.613 347.668 163.684 347.668C163.203 347.668 162.805 347.85 162.488 348.213C162.176 348.572 162.02 349.027 162.02 349.578V353H161.059V347H162.02V347.996H162.043C162.496 347.238 163.152 346.859 164.012 346.859C164.668 346.859 165.17 347.072 165.518 347.498C165.865 347.92 166.039 348.531 166.039 349.332V353ZM170.639 352.941C170.412 353.066 170.113 353.129 169.742 353.129C168.691 353.129 168.166 352.543 168.166 351.371V347.82H167.135V347H168.166V345.535L169.127 345.225V347H170.639V347.82H169.127V351.201C169.127 351.604 169.195 351.891 169.332 352.062C169.469 352.234 169.695 352.32 170.012 352.32C170.254 352.32 170.463 352.254 170.639 352.121V352.941ZM175.707 345.477C175.535 345.477 175.389 345.418 175.268 345.301C175.146 345.184 175.086 345.035 175.086 344.855C175.086 344.676 175.146 344.527 175.268 344.41C175.389 344.289 175.535 344.229 175.707 344.229C175.883 344.229 176.031 344.289 176.152 344.41C176.277 344.527 176.34 344.676 176.34 344.855C176.34 345.027 176.277 345.174 176.152 345.295C176.031 345.416 175.883 345.477 175.707 345.477ZM176.176 353H175.215V347H176.176V353ZM177.758 352.783V351.752C178.281 352.139 178.857 352.332 179.486 352.332C180.33 352.332 180.752 352.051 180.752 351.488C180.752 351.328 180.715 351.193 180.641 351.084C180.57 350.971 180.473 350.871 180.348 350.785C180.227 350.699 180.082 350.623 179.914 350.557C179.75 350.486 179.572 350.414 179.381 350.34C179.115 350.234 178.881 350.129 178.678 350.023C178.479 349.914 178.311 349.793 178.174 349.66C178.041 349.523 177.939 349.369 177.869 349.197C177.803 349.025 177.77 348.824 177.77 348.594C177.77 348.312 177.834 348.064 177.963 347.85C178.092 347.631 178.264 347.449 178.479 347.305C178.693 347.156 178.938 347.045 179.211 346.971C179.488 346.896 179.773 346.859 180.066 346.859C180.586 346.859 181.051 346.949 181.461 347.129V348.102C181.02 347.812 180.512 347.668 179.938 347.668C179.758 347.668 179.596 347.689 179.451 347.732C179.307 347.771 179.182 347.828 179.076 347.902C178.975 347.977 178.895 348.066 178.836 348.172C178.781 348.273 178.754 348.387 178.754 348.512C178.754 348.668 178.781 348.799 178.836 348.904C178.895 349.01 178.979 349.104 179.088 349.186C179.197 349.268 179.33 349.342 179.486 349.408C179.643 349.475 179.82 349.547 180.02 349.625C180.285 349.727 180.523 349.832 180.734 349.941C180.945 350.047 181.125 350.168 181.273 350.305C181.422 350.438 181.535 350.592 181.613 350.768C181.695 350.943 181.736 351.152 181.736 351.395C181.736 351.691 181.67 351.949 181.537 352.168C181.408 352.387 181.234 352.568 181.016 352.713C180.797 352.857 180.545 352.965 180.26 353.035C179.975 353.105 179.676 353.141 179.363 353.141C178.746 353.141 178.211 353.021 177.758 352.783ZM191.334 350.24H187.098C187.113 350.908 187.293 351.424 187.637 351.787C187.98 352.15 188.453 352.332 189.055 352.332C189.73 352.332 190.352 352.109 190.918 351.664V352.566C190.391 352.949 189.693 353.141 188.826 353.141C187.979 353.141 187.312 352.869 186.828 352.326C186.344 351.779 186.102 351.012 186.102 350.023C186.102 349.09 186.365 348.33 186.893 347.744C187.424 347.154 188.082 346.859 188.867 346.859C189.652 346.859 190.26 347.113 190.689 347.621C191.119 348.129 191.334 348.834 191.334 349.736V350.24ZM190.35 349.426C190.346 348.871 190.211 348.439 189.945 348.131C189.684 347.822 189.318 347.668 188.85 347.668C188.396 347.668 188.012 347.83 187.695 348.154C187.379 348.479 187.184 348.902 187.109 349.426H190.35ZM197.773 353H196.812V349.578C196.812 348.305 196.348 347.668 195.418 347.668C194.938 347.668 194.539 347.85 194.223 348.213C193.91 348.572 193.754 349.027 193.754 349.578V353H192.793V347H193.754V347.996H193.777C194.23 347.238 194.887 346.859 195.746 346.859C196.402 346.859 196.904 347.072 197.252 347.498C197.6 347.92 197.773 348.531 197.773 349.332V353ZM203.885 353H202.924V352.062H202.9C202.482 352.781 201.867 353.141 201.055 353.141C200.457 353.141 199.988 352.982 199.648 352.666C199.312 352.35 199.145 351.93 199.145 351.406C199.145 350.285 199.805 349.633 201.125 349.449L202.924 349.197C202.924 348.178 202.512 347.668 201.688 347.668C200.965 347.668 200.312 347.914 199.73 348.406V347.422C200.32 347.047 201 346.859 201.77 346.859C203.18 346.859 203.885 347.605 203.885 349.098V353ZM202.924 349.965L201.477 350.164C201.031 350.227 200.695 350.338 200.469 350.498C200.242 350.654 200.129 350.934 200.129 351.336C200.129 351.629 200.232 351.869 200.439 352.057C200.65 352.24 200.93 352.332 201.277 352.332C201.754 352.332 202.146 352.166 202.455 351.834C202.768 351.498 202.924 351.074 202.924 350.562V349.965ZM206.68 352.133H206.656V353H205.695V344.117H206.656V348.055H206.68C207.152 347.258 207.844 346.859 208.754 346.859C209.523 346.859 210.125 347.129 210.559 347.668C210.996 348.203 211.215 348.922 211.215 349.824C211.215 350.828 210.971 351.633 210.482 352.238C209.994 352.84 209.326 353.141 208.479 353.141C207.686 353.141 207.086 352.805 206.68 352.133ZM206.656 349.713V350.551C206.656 351.047 206.816 351.469 207.137 351.816C207.461 352.16 207.871 352.332 208.367 352.332C208.949 352.332 209.404 352.109 209.732 351.664C210.064 351.219 210.23 350.6 210.23 349.807C210.23 349.139 210.076 348.615 209.768 348.236C209.459 347.857 209.041 347.668 208.514 347.668C207.955 347.668 207.506 347.863 207.166 348.254C206.826 348.641 206.656 349.127 206.656 349.713ZM213.711 353H212.75V344.117H213.711V353ZM220.479 350.24H216.242C216.258 350.908 216.438 351.424 216.781 351.787C217.125 352.15 217.598 352.332 218.199 352.332C218.875 352.332 219.496 352.109 220.062 351.664V352.566C219.535 352.949 218.838 353.141 217.971 353.141C217.123 353.141 216.457 352.869 215.973 352.326C215.488 351.779 215.246 351.012 215.246 350.023C215.246 349.09 215.51 348.33 216.037 347.744C216.568 347.154 217.227 346.859 218.012 346.859C218.797 346.859 219.404 347.113 219.834 347.621C220.264 348.129 220.479 348.834 220.479 349.736V350.24ZM219.494 349.426C219.49 348.871 219.355 348.439 219.09 348.131C218.828 347.822 218.463 347.668 217.994 347.668C217.541 347.668 217.156 347.83 216.84 348.154C216.523 348.479 216.328 348.902 216.254 349.426H219.494ZM227.059 353H226.098V351.98H226.074C225.629 352.754 224.941 353.141 224.012 353.141C223.258 353.141 222.654 352.873 222.201 352.338C221.752 351.799 221.527 351.066 221.527 350.141C221.527 349.148 221.777 348.354 222.277 347.756C222.777 347.158 223.443 346.859 224.275 346.859C225.1 346.859 225.699 347.184 226.074 347.832H226.098V344.117H227.059V353ZM226.098 350.287V349.402C226.098 348.918 225.938 348.508 225.617 348.172C225.297 347.836 224.891 347.668 224.398 347.668C223.812 347.668 223.352 347.883 223.016 348.312C222.68 348.742 222.512 349.336 222.512 350.094C222.512 350.785 222.672 351.332 222.992 351.734C223.316 352.133 223.75 352.332 224.293 352.332C224.828 352.332 225.262 352.139 225.594 351.752C225.93 351.365 226.098 350.877 226.098 350.287ZM239.855 347L238.057 353H237.061L235.824 348.705C235.777 348.541 235.746 348.355 235.73 348.148H235.707C235.695 348.289 235.654 348.471 235.584 348.693L234.242 353H233.281L231.465 347H232.473L233.715 351.512C233.754 351.648 233.781 351.828 233.797 352.051H233.844C233.855 351.879 233.891 351.695 233.949 351.5L235.332 347H236.211L237.453 351.523C237.492 351.668 237.521 351.848 237.541 352.062H237.588C237.596 351.91 237.629 351.73 237.688 351.523L238.906 347H239.855ZM241.461 345.477C241.289 345.477 241.143 345.418 241.021 345.301C240.9 345.184 240.84 345.035 240.84 344.855C240.84 344.676 240.9 344.527 241.021 344.41C241.143 344.289 241.289 344.229 241.461 344.229C241.637 344.229 241.785 344.289 241.906 344.41C242.031 344.527 242.094 344.676 242.094 344.855C242.094 345.027 242.031 345.174 241.906 345.295C241.785 345.416 241.637 345.477 241.461 345.477ZM241.93 353H240.969V347H241.93V353ZM246.658 352.941C246.432 353.066 246.133 353.129 245.762 353.129C244.711 353.129 244.186 352.543 244.186 351.371V347.82H243.154V347H244.186V345.535L245.146 345.225V347H246.658V347.82H245.146V351.201C245.146 351.604 245.215 351.891 245.352 352.062C245.488 352.234 245.715 352.32 246.031 352.32C246.273 352.32 246.482 352.254 246.658 352.121V352.941ZM252.922 353H251.961V349.543C251.961 348.293 251.496 347.668 250.566 347.668C250.098 347.668 249.703 347.85 249.383 348.213C249.062 348.572 248.902 349.035 248.902 349.602V353H247.941V344.117H248.902V347.996H248.926C249.387 347.238 250.043 346.859 250.895 346.859C252.246 346.859 252.922 347.674 252.922 349.303V353ZM37.8945 368.701C37.2812 368.998 36.4805 369.146 35.4922 369.146C34.2031 369.146 33.1895 368.768 32.4512 368.01C31.7129 367.252 31.3438 366.242 31.3438 364.98C31.3438 363.637 31.7578 362.547 32.5859 361.711C33.418 360.875 34.4961 360.457 35.8203 360.457C36.6406 360.457 37.332 360.561 37.8945 360.768V362.59C37.332 362.254 36.6914 362.086 35.9727 362.086C35.1836 362.086 34.5469 362.334 34.0625 362.83C33.5781 363.326 33.3359 363.998 33.3359 364.846C33.3359 365.658 33.5645 366.307 34.0215 366.791C34.4785 367.271 35.0938 367.512 35.8672 367.512C36.6055 367.512 37.2812 367.332 37.8945 366.973V368.701ZM44.9375 369H43.0918V365.59C43.0918 364.711 42.7715 364.271 42.1309 364.271C41.8027 364.271 41.5371 364.395 41.334 364.641C41.1309 364.887 41.0293 365.199 41.0293 365.578V369H39.1777V360.117H41.0293V363.891H41.0527C41.5059 363.199 42.1211 362.854 42.8984 362.854C44.2578 362.854 44.9375 363.674 44.9375 365.314V369ZM47.3457 362.051C47.0332 362.051 46.7773 361.959 46.5781 361.775C46.3789 361.588 46.2793 361.359 46.2793 361.09C46.2793 360.812 46.3789 360.586 46.5781 360.41C46.7773 360.234 47.0332 360.146 47.3457 360.146C47.6621 360.146 47.918 360.234 48.1133 360.41C48.3125 360.586 48.4121 360.812 48.4121 361.09C48.4121 361.371 48.3125 361.602 48.1133 361.781C47.918 361.961 47.6621 362.051 47.3457 362.051ZM48.2598 369H46.4082V363H48.2598V369ZM53.4453 368.93C53.1719 369.074 52.7598 369.146 52.209 369.146C50.9043 369.146 50.252 368.469 50.252 367.113V364.365H49.2793V363H50.252V361.705L52.0977 361.178V363H53.4453V364.365H52.0977V366.791C52.0977 367.416 52.3457 367.729 52.8418 367.729C53.0371 367.729 53.2383 367.672 53.4453 367.559V368.93ZM58.9941 368.783C58.5762 369.025 57.9727 369.146 57.1836 369.146C56.2617 369.146 55.5156 368.867 54.9453 368.309C54.375 367.75 54.0898 367.029 54.0898 366.146C54.0898 365.127 54.3945 364.324 55.0039 363.738C55.6172 363.148 56.4355 362.854 57.459 362.854C58.166 362.854 58.6777 362.947 58.9941 363.135V364.705C58.6074 364.416 58.1758 364.271 57.6992 364.271C57.168 364.271 56.7461 364.428 56.4336 364.74C56.125 365.049 55.9707 365.477 55.9707 366.023C55.9707 366.555 56.1191 366.973 56.416 367.277C56.7129 367.578 57.1211 367.729 57.6406 367.729C58.1016 367.729 58.5527 367.584 58.9941 367.295V368.783ZM65.9727 369H64.127V365.59C64.127 364.711 63.8066 364.271 63.166 364.271C62.8379 364.271 62.5723 364.395 62.3691 364.641C62.166 364.887 62.0645 365.199 62.0645 365.578V369H60.2129V360.117H62.0645V363.891H62.0879C62.541 363.199 63.1562 362.854 63.9336 362.854C65.293 362.854 65.9727 363.674 65.9727 365.314V369ZM72.4355 369H70.6836V368.139H70.6602C70.2578 368.811 69.6621 369.146 68.873 369.146C68.291 369.146 67.832 368.982 67.4961 368.654C67.1641 368.322 66.998 367.881 66.998 367.33C66.998 366.166 67.6875 365.494 69.0664 365.314L70.6953 365.098C70.6953 364.441 70.3398 364.113 69.6289 364.113C68.9141 364.113 68.2344 364.326 67.5898 364.752V363.357C67.8477 363.225 68.1992 363.107 68.6445 363.006C69.0938 362.904 69.502 362.854 69.8691 362.854C71.5801 362.854 72.4355 363.707 72.4355 365.414V369ZM70.6953 366.562V366.158L69.6055 366.299C69.0039 366.377 68.7031 366.648 68.7031 367.113C68.7031 367.324 68.7754 367.498 68.9199 367.635C69.0684 367.768 69.2676 367.834 69.5176 367.834C69.8652 367.834 70.1484 367.715 70.3672 367.477C70.5859 367.234 70.6953 366.93 70.6953 366.562ZM77.5273 368.93C77.2539 369.074 76.8418 369.146 76.291 369.146C74.9863 369.146 74.334 368.469 74.334 367.113V364.365H73.3613V363H74.334V361.705L76.1797 361.178V363H77.5273V364.365H76.1797V366.791C76.1797 367.416 76.4277 367.729 76.9238 367.729C77.1191 367.729 77.3203 367.672 77.5273 367.559V368.93ZM80.3281 367.523L79.4668 370.488H78.0254L78.623 367.523H80.3281ZM90.1895 362.139H87.2246V364.201H89.9492V365.736H87.2246V369H85.332V360.598H90.1895V362.139ZM98.3105 369H96.248L95.6504 367.131H92.6621L92.0703 369H90.0195L93.0781 360.598H95.3223L98.3105 369ZM95.2168 365.678L94.3145 362.854C94.248 362.643 94.2012 362.391 94.1738 362.098H94.127C94.1074 362.344 94.0586 362.588 93.9805 362.83L93.0664 365.678H95.2168ZM102.91 369.146C101.707 369.146 100.727 368.756 99.9688 367.975C99.2109 367.186 98.832 366.164 98.832 364.91C98.832 363.586 99.2168 362.512 99.9863 361.688C100.752 360.867 101.771 360.457 103.045 360.457C104.244 360.457 105.213 360.85 105.951 361.635C106.693 362.416 107.064 363.451 107.064 364.74C107.064 366.057 106.68 367.121 105.91 367.934C105.883 367.961 105.857 367.988 105.834 368.016C105.811 368.039 105.785 368.062 105.758 368.086L107.885 370.131H105.236L104.123 369C103.756 369.098 103.352 369.146 102.91 369.146ZM102.992 362.086C102.332 362.086 101.805 362.336 101.41 362.836C101.02 363.332 100.824 363.99 100.824 364.811C100.824 365.643 101.02 366.301 101.41 366.785C101.801 367.27 102.312 367.512 102.945 367.512C103.598 367.512 104.115 367.277 104.498 366.809C104.881 366.332 105.072 365.678 105.072 364.846C105.072 363.979 104.887 363.301 104.516 362.812C104.148 362.328 103.641 362.086 102.992 362.086ZM117.611 369H115.391L113.475 366.023H113.451V369H111.6V360.117H113.451V365.771H113.475L115.262 363H117.459L115.309 365.818L117.611 369ZM124.109 369H122.264V365.666C122.264 364.736 121.932 364.271 121.268 364.271C120.947 364.271 120.684 364.395 120.477 364.641C120.27 364.887 120.166 365.199 120.166 365.578V369H118.314V363H120.166V363.949H120.189C120.631 363.219 121.273 362.854 122.117 362.854C123.445 362.854 124.109 363.678 124.109 365.326V369ZM128.439 369.146C127.439 369.146 126.652 368.867 126.078 368.309C125.508 367.746 125.223 366.984 125.223 366.023C125.223 365.031 125.52 364.256 126.113 363.697C126.707 363.135 127.51 362.854 128.521 362.854C129.518 362.854 130.299 363.135 130.865 363.697C131.432 364.256 131.715 364.996 131.715 365.918C131.715 366.914 131.422 367.701 130.836 368.279C130.254 368.857 129.455 369.146 128.439 369.146ZM128.486 364.271C128.049 364.271 127.709 364.422 127.467 364.723C127.225 365.023 127.104 365.449 127.104 366C127.104 367.152 127.568 367.729 128.498 367.729C129.385 367.729 129.828 367.137 129.828 365.953C129.828 364.832 129.381 364.271 128.486 364.271ZM141.605 363L139.877 369H137.932L137.047 365.484C136.988 365.25 136.955 364.994 136.947 364.717H136.912C136.885 365.021 136.846 365.27 136.795 365.461L135.846 369H133.924L132.23 363H134.117L134.943 366.914C134.982 367.098 135.012 367.32 135.031 367.582H135.066C135.086 367.309 135.121 367.078 135.172 366.891L136.203 363H137.967L138.893 366.914C138.916 367.012 138.943 367.238 138.975 367.594H139.016C139.035 367.367 139.066 367.141 139.109 366.914L139.889 363H141.605ZM144.342 369H142.49V360.117H144.342V369ZM151.291 366.527H147.377C147.439 367.398 147.988 367.834 149.023 367.834C149.684 367.834 150.264 367.678 150.764 367.365V368.701C150.209 368.998 149.488 369.146 148.602 369.146C147.633 369.146 146.881 368.879 146.346 368.344C145.811 367.805 145.543 367.055 145.543 366.094C145.543 365.098 145.832 364.309 146.41 363.727C146.988 363.145 147.699 362.854 148.543 362.854C149.418 362.854 150.094 363.113 150.57 363.633C151.051 364.152 151.291 364.857 151.291 365.748V366.527ZM149.574 365.391C149.574 364.531 149.227 364.102 148.531 364.102C148.234 364.102 147.977 364.225 147.758 364.471C147.543 364.717 147.412 365.023 147.365 365.391H149.574ZM158.264 369H156.412V368.174H156.389C155.967 368.822 155.348 369.146 154.531 369.146C153.781 369.146 153.178 368.883 152.721 368.355C152.264 367.824 152.035 367.084 152.035 366.135C152.035 365.143 152.287 364.348 152.791 363.75C153.295 363.152 153.955 362.854 154.771 362.854C155.545 362.854 156.084 363.131 156.389 363.686H156.412V360.117H158.264V369ZM156.447 366.082V365.631C156.447 365.24 156.334 364.916 156.107 364.658C155.881 364.4 155.586 364.271 155.223 364.271C154.812 364.271 154.492 364.434 154.262 364.758C154.031 365.078 153.916 365.52 153.916 366.082C153.916 366.609 154.027 367.016 154.25 367.301C154.473 367.586 154.781 367.729 155.176 367.729C155.551 367.729 155.855 367.578 156.09 367.277C156.328 366.977 156.447 366.578 156.447 366.082ZM165.705 368.314C165.705 369.428 165.383 370.289 164.738 370.898C164.094 371.512 163.16 371.818 161.938 371.818C161.129 371.818 160.488 371.703 160.016 371.473V369.914C160.633 370.273 161.256 370.453 161.885 370.453C162.51 370.453 162.994 370.287 163.338 369.955C163.682 369.627 163.854 369.18 163.854 368.613V368.139H163.83C163.408 368.811 162.785 369.146 161.961 369.146C161.195 369.146 160.588 368.877 160.139 368.338C159.689 367.799 159.465 367.076 159.465 366.17C159.465 365.154 159.715 364.348 160.215 363.75C160.715 363.152 161.373 362.854 162.189 362.854C162.92 362.854 163.467 363.135 163.83 363.697H163.854V363H165.705V368.314ZM163.877 366.117V365.643C163.877 365.264 163.764 364.941 163.537 364.676C163.314 364.406 163.023 364.271 162.664 364.271C162.254 364.271 161.932 364.432 161.697 364.752C161.463 365.072 161.346 365.523 161.346 366.105C161.346 366.605 161.457 367.002 161.68 367.295C161.902 367.584 162.207 367.729 162.594 367.729C162.977 367.729 163.285 367.582 163.52 367.289C163.758 366.992 163.877 366.602 163.877 366.117ZM172.643 366.527H168.729C168.791 367.398 169.34 367.834 170.375 367.834C171.035 367.834 171.615 367.678 172.115 367.365V368.701C171.561 368.998 170.84 369.146 169.953 369.146C168.984 369.146 168.232 368.879 167.697 368.344C167.162 367.805 166.895 367.055 166.895 366.094C166.895 365.098 167.184 364.309 167.762 363.727C168.34 363.145 169.051 362.854 169.895 362.854C170.77 362.854 171.445 363.113 171.922 363.633C172.402 364.152 172.643 364.857 172.643 365.748V366.527ZM170.926 365.391C170.926 364.531 170.578 364.102 169.883 364.102C169.586 364.102 169.328 364.225 169.109 364.471C168.895 364.717 168.764 365.023 168.717 365.391H170.926ZM175.619 368.303H175.596V369H173.744V360.117H175.596V363.902H175.619C176.076 363.203 176.727 362.854 177.57 362.854C178.344 362.854 178.939 363.119 179.357 363.65C179.775 364.182 179.984 364.908 179.984 365.83C179.984 366.83 179.74 367.633 179.252 368.238C178.764 368.844 178.111 369.146 177.295 369.146C176.557 369.146 175.998 368.865 175.619 368.303ZM175.566 365.771V366.387C175.566 366.773 175.678 367.094 175.9 367.348C176.123 367.602 176.408 367.729 176.756 367.729C177.178 367.729 177.504 367.566 177.734 367.242C177.969 366.914 178.086 366.451 178.086 365.854C178.086 365.357 177.979 364.971 177.764 364.693C177.553 364.412 177.25 364.271 176.855 364.271C176.484 364.271 176.176 364.41 175.93 364.688C175.688 364.965 175.566 365.326 175.566 365.771ZM186.061 369H184.309V368.139H184.285C183.883 368.811 183.287 369.146 182.498 369.146C181.916 369.146 181.457 368.982 181.121 368.654C180.789 368.322 180.623 367.881 180.623 367.33C180.623 366.166 181.312 365.494 182.691 365.314L184.32 365.098C184.32 364.441 183.965 364.113 183.254 364.113C182.539 364.113 181.859 364.326 181.215 364.752V363.357C181.473 363.225 181.824 363.107 182.27 363.006C182.719 362.904 183.127 362.854 183.494 362.854C185.205 362.854 186.061 363.707 186.061 365.414V369ZM184.32 366.562V366.158L183.23 366.299C182.629 366.377 182.328 366.648 182.328 367.113C182.328 367.324 182.4 367.498 182.545 367.635C182.693 367.768 182.893 367.834 183.143 367.834C183.49 367.834 183.773 367.715 183.992 367.477C184.211 367.234 184.32 366.93 184.32 366.562ZM187.133 368.842V367.342C187.438 367.525 187.74 367.662 188.041 367.752C188.346 367.842 188.633 367.887 188.902 367.887C189.23 367.887 189.488 367.842 189.676 367.752C189.867 367.662 189.963 367.525 189.963 367.342C189.963 367.225 189.92 367.127 189.834 367.049C189.748 366.971 189.637 366.902 189.5 366.844C189.367 366.785 189.221 366.732 189.061 366.686C188.9 366.639 188.746 366.586 188.598 366.527C188.359 366.438 188.148 366.342 187.965 366.24C187.785 366.135 187.633 366.014 187.508 365.877C187.387 365.74 187.293 365.582 187.227 365.402C187.164 365.223 187.133 365.01 187.133 364.764C187.133 364.428 187.205 364.139 187.35 363.896C187.498 363.654 187.693 363.457 187.936 363.305C188.182 363.148 188.461 363.035 188.773 362.965C189.09 362.891 189.418 362.854 189.758 362.854C190.023 362.854 190.293 362.875 190.566 362.918C190.84 362.957 191.109 363.016 191.375 363.094V364.523C191.141 364.387 190.889 364.285 190.619 364.219C190.354 364.148 190.092 364.113 189.834 364.113C189.713 364.113 189.598 364.125 189.488 364.148C189.383 364.168 189.289 364.199 189.207 364.242C189.125 364.281 189.061 364.334 189.014 364.4C188.967 364.463 188.943 364.535 188.943 364.617C188.943 364.727 188.979 364.82 189.049 364.898C189.119 364.977 189.211 365.045 189.324 365.104C189.438 365.158 189.562 365.209 189.699 365.256C189.84 365.299 189.979 365.344 190.115 365.391C190.361 365.477 190.584 365.57 190.783 365.672C190.982 365.773 191.152 365.893 191.293 366.029C191.438 366.166 191.547 366.326 191.621 366.51C191.699 366.693 191.738 366.912 191.738 367.166C191.738 367.521 191.66 367.826 191.504 368.08C191.352 368.33 191.146 368.535 190.889 368.695C190.635 368.852 190.34 368.965 190.004 369.035C189.672 369.109 189.326 369.146 188.967 369.146C188.307 369.146 187.695 369.045 187.133 368.842ZM198.201 366.527H194.287C194.35 367.398 194.898 367.834 195.934 367.834C196.594 367.834 197.174 367.678 197.674 367.365V368.701C197.119 368.998 196.398 369.146 195.512 369.146C194.543 369.146 193.791 368.879 193.256 368.344C192.721 367.805 192.453 367.055 192.453 366.094C192.453 365.098 192.742 364.309 193.32 363.727C193.898 363.145 194.609 362.854 195.453 362.854C196.328 362.854 197.004 363.113 197.48 363.633C197.961 364.152 198.201 364.857 198.201 365.748V366.527ZM196.484 365.391C196.484 364.531 196.137 364.102 195.441 364.102C195.145 364.102 194.887 364.225 194.668 364.471C194.453 364.717 194.322 365.023 194.275 365.391H196.484ZM210.506 369.135C210.299 369.135 210.102 369.107 209.914 369.053C209.73 368.998 209.555 368.924 209.387 368.83C209.223 368.736 209.066 368.627 208.918 368.502C208.77 368.373 208.629 368.236 208.496 368.092C208.352 368.209 208.178 368.33 207.975 368.455C207.771 368.58 207.541 368.693 207.283 368.795C207.029 368.893 206.748 368.973 206.439 369.035C206.131 369.102 205.801 369.135 205.449 369.135C204.992 369.135 204.568 369.08 204.178 368.971C203.791 368.861 203.457 368.699 203.176 368.484C202.895 368.266 202.674 367.996 202.514 367.676C202.357 367.355 202.279 366.984 202.279 366.562C202.279 366.23 202.338 365.936 202.455 365.678C202.576 365.416 202.732 365.188 202.924 364.992C203.115 364.797 203.332 364.629 203.574 364.488C203.816 364.348 204.062 364.23 204.312 364.137C204.191 364.043 204.068 363.936 203.943 363.814C203.822 363.689 203.713 363.555 203.615 363.41C203.518 363.262 203.438 363.102 203.375 362.93C203.316 362.758 203.287 362.576 203.287 362.385C203.287 362.076 203.35 361.803 203.475 361.564C203.6 361.326 203.773 361.125 203.996 360.961C204.223 360.797 204.492 360.672 204.805 360.586C205.117 360.5 205.461 360.457 205.836 360.457C206.195 360.457 206.523 360.502 206.82 360.592C207.121 360.682 207.379 360.807 207.594 360.967C207.809 361.127 207.975 361.32 208.092 361.547C208.209 361.77 208.268 362.016 208.268 362.285C208.268 362.719 208.137 363.096 207.875 363.416C207.617 363.732 207.252 363.99 206.779 364.189C206.967 364.275 207.146 364.373 207.318 364.482C207.49 364.592 207.658 364.717 207.822 364.857C207.986 364.998 208.146 365.158 208.303 365.338C208.459 365.514 208.613 365.717 208.766 365.947C209.086 365.545 209.314 365.117 209.451 364.664C209.592 364.207 209.662 363.732 209.662 363.24C209.662 363.092 209.652 362.949 209.633 362.812C209.617 362.676 209.59 362.549 209.551 362.432H211.127C211.17 362.557 211.201 362.678 211.221 362.795C211.24 362.912 211.25 363.051 211.25 363.211C211.25 363.59 211.209 363.959 211.127 364.318C211.049 364.678 210.938 365.021 210.793 365.35C210.648 365.678 210.473 365.988 210.266 366.281C210.062 366.574 209.838 366.848 209.592 367.102C209.783 367.301 209.98 367.455 210.184 367.564C210.387 367.67 210.578 367.723 210.758 367.723C210.945 367.723 211.137 367.703 211.332 367.664C211.527 367.621 211.697 367.562 211.842 367.488V368.883C211.627 368.969 211.414 369.031 211.203 369.07C210.996 369.113 210.764 369.135 210.506 369.135ZM205.543 367.734C205.773 367.734 205.99 367.713 206.193 367.67C206.396 367.623 206.588 367.562 206.768 367.488C206.947 367.414 207.113 367.328 207.266 367.23C207.422 367.133 207.564 367.031 207.693 366.926C207.494 366.613 207.297 366.35 207.102 366.135C206.906 365.916 206.713 365.73 206.521 365.578C206.33 365.422 206.139 365.291 205.947 365.186C205.76 365.08 205.57 364.984 205.379 364.898C205.219 364.977 205.064 365.064 204.916 365.162C204.771 365.256 204.643 365.367 204.529 365.496C204.416 365.621 204.324 365.766 204.254 365.93C204.188 366.09 204.154 366.275 204.154 366.486C204.154 366.674 204.188 366.844 204.254 366.996C204.32 367.148 204.414 367.279 204.535 367.389C204.66 367.498 204.807 367.584 204.975 367.646C205.146 367.705 205.336 367.734 205.543 367.734ZM206.627 362.414C206.627 362.301 206.605 362.199 206.562 362.109C206.52 362.02 206.461 361.945 206.387 361.887C206.312 361.824 206.229 361.777 206.135 361.746C206.041 361.711 205.941 361.693 205.836 361.693C205.707 361.693 205.588 361.713 205.479 361.752C205.373 361.791 205.279 361.844 205.197 361.91C205.119 361.977 205.059 362.057 205.016 362.15C204.973 362.24 204.951 362.338 204.951 362.443C204.951 362.662 205.02 362.863 205.156 363.047C205.293 363.23 205.463 363.379 205.666 363.492C205.795 363.445 205.916 363.391 206.029 363.328C206.146 363.266 206.248 363.191 206.334 363.105C206.424 363.02 206.494 362.92 206.545 362.807C206.6 362.693 206.627 362.562 206.627 362.414ZM221.123 369H219.371V368.139H219.348C218.945 368.811 218.35 369.146 217.561 369.146C216.979 369.146 216.52 368.982 216.184 368.654C215.852 368.322 215.686 367.881 215.686 367.33C215.686 366.166 216.375 365.494 217.754 365.314L219.383 365.098C219.383 364.441 219.027 364.113 218.316 364.113C217.602 364.113 216.922 364.326 216.277 364.752V363.357C216.535 363.225 216.887 363.107 217.332 363.006C217.781 362.904 218.189 362.854 218.557 362.854C220.268 362.854 221.123 363.707 221.123 365.414V369ZM219.383 366.562V366.158L218.293 366.299C217.691 366.377 217.391 366.648 217.391 367.113C217.391 367.324 217.463 367.498 217.607 367.635C217.756 367.768 217.955 367.834 218.205 367.834C218.553 367.834 218.836 367.715 219.055 367.477C219.273 367.234 219.383 366.93 219.383 366.562ZM228.459 369H226.607V368.174H226.584C226.162 368.822 225.543 369.146 224.727 369.146C223.977 369.146 223.373 368.883 222.916 368.355C222.459 367.824 222.23 367.084 222.23 366.135C222.23 365.143 222.482 364.348 222.986 363.75C223.49 363.152 224.15 362.854 224.967 362.854C225.74 362.854 226.279 363.131 226.584 363.686H226.607V360.117H228.459V369ZM226.643 366.082V365.631C226.643 365.24 226.529 364.916 226.303 364.658C226.076 364.4 225.781 364.271 225.418 364.271C225.008 364.271 224.688 364.434 224.457 364.758C224.227 365.078 224.111 365.52 224.111 366.082C224.111 366.609 224.223 367.016 224.445 367.301C224.668 367.586 224.977 367.729 225.371 367.729C225.746 367.729 226.051 367.578 226.285 367.277C226.523 366.977 226.643 366.578 226.643 366.082ZM235.01 369H233.258V368.139H233.234C232.832 368.811 232.236 369.146 231.447 369.146C230.865 369.146 230.406 368.982 230.07 368.654C229.738 368.322 229.572 367.881 229.572 367.33C229.572 366.166 230.262 365.494 231.641 365.314L233.27 365.098C233.27 364.441 232.914 364.113 232.203 364.113C231.488 364.113 230.809 364.326 230.164 364.752V363.357C230.422 363.225 230.773 363.107 231.219 363.006C231.668 362.904 232.076 362.854 232.443 362.854C234.154 362.854 235.01 363.707 235.01 365.414V369ZM233.27 366.562V366.158L232.18 366.299C231.578 366.377 231.277 366.648 231.277 367.113C231.277 367.324 231.35 367.498 231.494 367.635C231.643 367.768 231.842 367.834 232.092 367.834C232.439 367.834 232.723 367.715 232.941 367.477C233.16 367.234 233.27 366.93 233.27 366.562ZM238.35 368.303H238.326V371.76H236.475V363H238.326V363.902H238.35C238.807 363.203 239.449 362.854 240.277 362.854C241.055 362.854 241.654 363.121 242.076 363.656C242.502 364.188 242.715 364.912 242.715 365.83C242.715 366.83 242.467 367.633 241.971 368.238C241.479 368.844 240.822 369.146 240.002 369.146C239.279 369.146 238.729 368.865 238.35 368.303ZM238.297 365.842V366.322C238.297 366.736 238.406 367.074 238.625 367.336C238.844 367.598 239.131 367.729 239.486 367.729C239.908 367.729 240.234 367.566 240.465 367.242C240.699 366.914 240.816 366.451 240.816 365.854C240.816 364.799 240.406 364.271 239.586 364.271C239.207 364.271 238.896 364.416 238.654 364.705C238.416 364.99 238.297 365.369 238.297 365.842ZM247.543 368.93C247.27 369.074 246.857 369.146 246.307 369.146C245.002 369.146 244.35 368.469 244.35 367.113V364.365H243.377V363H244.35V361.705L246.195 361.178V363H247.543V364.365H246.195V366.791C246.195 367.416 246.443 367.729 246.939 367.729C247.135 367.729 247.336 367.672 247.543 367.559V368.93ZM249.529 362.051C249.217 362.051 248.961 361.959 248.762 361.775C248.562 361.588 248.463 361.359 248.463 361.09C248.463 360.812 248.562 360.586 248.762 360.41C248.961 360.234 249.217 360.146 249.529 360.146C249.846 360.146 250.102 360.234 250.297 360.41C250.496 360.586 250.596 360.812 250.596 361.09C250.596 361.371 250.496 361.602 250.297 361.781C250.102 361.961 249.846 362.051 249.529 362.051ZM250.443 369H248.592V363H250.443V369ZM257.715 363L255.482 369H253.373L251.246 363H253.227L254.27 366.697C254.387 367.115 254.455 367.471 254.475 367.764H254.498C254.525 367.486 254.598 367.143 254.715 366.732L255.781 363H257.715ZM263.779 366.527H259.865C259.928 367.398 260.477 367.834 261.512 367.834C262.172 367.834 262.752 367.678 263.252 367.365V368.701C262.697 368.998 261.977 369.146 261.09 369.146C260.121 369.146 259.369 368.879 258.834 368.344C258.299 367.805 258.031 367.055 258.031 366.094C258.031 365.098 258.32 364.309 258.898 363.727C259.477 363.145 260.188 362.854 261.031 362.854C261.906 362.854 262.582 363.113 263.059 363.633C263.539 364.152 263.779 364.857 263.779 365.748V366.527ZM262.062 365.391C262.062 364.531 261.715 364.102 261.02 364.102C260.723 364.102 260.465 364.225 260.246 364.471C260.031 364.717 259.9 365.023 259.854 365.391H262.062ZM272.744 368.783C272.326 369.025 271.723 369.146 270.934 369.146C270.012 369.146 269.266 368.867 268.695 368.309C268.125 367.75 267.84 367.029 267.84 366.146C267.84 365.127 268.145 364.324 268.754 363.738C269.367 363.148 270.186 362.854 271.209 362.854C271.916 362.854 272.428 362.947 272.744 363.135V364.705C272.357 364.416 271.926 364.271 271.449 364.271C270.918 364.271 270.496 364.428 270.184 364.74C269.875 365.049 269.721 365.477 269.721 366.023C269.721 366.555 269.869 366.973 270.166 367.277C270.463 367.578 270.871 367.729 271.391 367.729C271.852 367.729 272.303 367.584 272.744 367.295V368.783ZM278.955 369H277.203V368.139H277.18C276.777 368.811 276.182 369.146 275.393 369.146C274.811 369.146 274.352 368.982 274.016 368.654C273.684 368.322 273.518 367.881 273.518 367.33C273.518 366.166 274.207 365.494 275.586 365.314L277.215 365.098C277.215 364.441 276.859 364.113 276.148 364.113C275.434 364.113 274.754 364.326 274.109 364.752V363.357C274.367 363.225 274.719 363.107 275.164 363.006C275.613 362.904 276.021 362.854 276.389 362.854C278.1 362.854 278.955 363.707 278.955 365.414V369ZM277.215 366.562V366.158L276.125 366.299C275.523 366.377 275.223 366.648 275.223 367.113C275.223 367.324 275.295 367.498 275.439 367.635C275.588 367.768 275.787 367.834 276.037 367.834C276.385 367.834 276.668 367.715 276.887 367.477C277.105 367.234 277.215 366.93 277.215 366.562ZM284.334 364.67C284.111 364.549 283.852 364.488 283.555 364.488C283.152 364.488 282.838 364.637 282.611 364.934C282.385 365.227 282.271 365.627 282.271 366.135V369H280.42V363H282.271V364.113H282.295C282.588 363.301 283.115 362.895 283.877 362.895C284.072 362.895 284.225 362.918 284.334 362.965V364.67ZM291.025 369H289.174V368.174H289.15C288.729 368.822 288.109 369.146 287.293 369.146C286.543 369.146 285.939 368.883 285.482 368.355C285.025 367.824 284.797 367.084 284.797 366.135C284.797 365.143 285.049 364.348 285.553 363.75C286.057 363.152 286.717 362.854 287.533 362.854C288.307 362.854 288.846 363.131 289.15 363.686H289.174V360.117H291.025V369ZM289.209 366.082V365.631C289.209 365.24 289.096 364.916 288.869 364.658C288.643 364.4 288.348 364.271 287.984 364.271C287.574 364.271 287.254 364.434 287.023 364.758C286.793 365.078 286.678 365.52 286.678 366.082C286.678 366.609 286.789 367.016 287.012 367.301C287.234 367.586 287.543 367.729 287.938 367.729C288.312 367.729 288.617 367.578 288.852 367.277C289.09 366.977 289.209 366.578 289.209 366.082ZM292.191 368.842V367.342C292.496 367.525 292.799 367.662 293.1 367.752C293.404 367.842 293.691 367.887 293.961 367.887C294.289 367.887 294.547 367.842 294.734 367.752C294.926 367.662 295.021 367.525 295.021 367.342C295.021 367.225 294.979 367.127 294.893 367.049C294.807 366.971 294.695 366.902 294.559 366.844C294.426 366.785 294.279 366.732 294.119 366.686C293.959 366.639 293.805 366.586 293.656 366.527C293.418 366.438 293.207 366.342 293.023 366.24C292.844 366.135 292.691 366.014 292.566 365.877C292.445 365.74 292.352 365.582 292.285 365.402C292.223 365.223 292.191 365.01 292.191 364.764C292.191 364.428 292.264 364.139 292.408 363.896C292.557 363.654 292.752 363.457 292.994 363.305C293.24 363.148 293.52 363.035 293.832 362.965C294.148 362.891 294.477 362.854 294.816 362.854C295.082 362.854 295.352 362.875 295.625 362.918C295.898 362.957 296.168 363.016 296.434 363.094V364.523C296.199 364.387 295.947 364.285 295.678 364.219C295.412 364.148 295.15 364.113 294.893 364.113C294.771 364.113 294.656 364.125 294.547 364.148C294.441 364.168 294.348 364.199 294.266 364.242C294.184 364.281 294.119 364.334 294.072 364.4C294.025 364.463 294.002 364.535 294.002 364.617C294.002 364.727 294.037 364.82 294.107 364.898C294.178 364.977 294.27 365.045 294.383 365.104C294.496 365.158 294.621 365.209 294.758 365.256C294.898 365.299 295.037 365.344 295.174 365.391C295.42 365.477 295.643 365.57 295.842 365.672C296.041 365.773 296.211 365.893 296.352 366.029C296.496 366.166 296.605 366.326 296.68 366.51C296.758 366.693 296.797 366.912 296.797 367.166C296.797 367.521 296.719 367.826 296.562 368.08C296.41 368.33 296.205 368.535 295.947 368.695C295.693 368.852 295.398 368.965 295.062 369.035C294.73 369.109 294.385 369.146 294.025 369.146C293.365 369.146 292.754 369.045 292.191 368.842ZM104.814 385H103.854V384.062H103.83C103.412 384.781 102.797 385.141 101.984 385.141C101.387 385.141 100.918 384.982 100.578 384.666C100.242 384.35 100.074 383.93 100.074 383.406C100.074 382.285 100.734 381.633 102.055 381.449L103.854 381.197C103.854 380.178 103.441 379.668 102.617 379.668C101.895 379.668 101.242 379.914 100.66 380.406V379.422C101.25 379.047 101.93 378.859 102.699 378.859C104.109 378.859 104.814 379.605 104.814 381.098V385ZM103.854 381.965L102.406 382.164C101.961 382.227 101.625 382.338 101.398 382.498C101.172 382.654 101.059 382.934 101.059 383.336C101.059 383.629 101.162 383.869 101.369 384.057C101.58 384.24 101.859 384.332 102.207 384.332C102.684 384.332 103.076 384.166 103.385 383.834C103.697 383.498 103.854 383.074 103.854 382.562V381.965ZM107.586 385H106.625V376.117H107.586V385ZM112.039 385.141C111.152 385.141 110.443 384.861 109.912 384.303C109.385 383.74 109.121 382.996 109.121 382.07C109.121 381.062 109.396 380.275 109.947 379.709C110.498 379.143 111.242 378.859 112.18 378.859C113.074 378.859 113.771 379.135 114.271 379.686C114.775 380.236 115.027 381 115.027 381.977C115.027 382.934 114.756 383.701 114.213 384.279C113.674 384.854 112.949 385.141 112.039 385.141ZM112.109 379.668C111.492 379.668 111.004 379.879 110.645 380.301C110.285 380.719 110.105 381.297 110.105 382.035C110.105 382.746 110.287 383.307 110.65 383.717C111.014 384.127 111.5 384.332 112.109 384.332C112.73 384.332 113.207 384.131 113.539 383.729C113.875 383.326 114.043 382.754 114.043 382.012C114.043 381.262 113.875 380.684 113.539 380.277C113.207 379.871 112.73 379.668 112.109 379.668ZM121.543 385H120.582V381.578C120.582 380.305 120.117 379.668 119.188 379.668C118.707 379.668 118.309 379.85 117.992 380.213C117.68 380.572 117.523 381.027 117.523 381.578V385H116.562V379H117.523V379.996H117.547C118 379.238 118.656 378.859 119.516 378.859C120.172 378.859 120.674 379.072 121.021 379.498C121.369 379.92 121.543 380.531 121.543 381.332V385ZM128.48 384.52C128.48 386.723 127.426 387.824 125.316 387.824C124.574 387.824 123.926 387.684 123.371 387.402V386.441C124.047 386.816 124.691 387.004 125.305 387.004C126.781 387.004 127.52 386.219 127.52 384.648V383.992H127.496C127.039 384.758 126.352 385.141 125.434 385.141C124.688 385.141 124.086 384.875 123.629 384.344C123.176 383.809 122.949 383.092 122.949 382.193C122.949 381.174 123.193 380.363 123.682 379.762C124.174 379.16 124.846 378.859 125.697 378.859C126.506 378.859 127.105 379.184 127.496 379.832H127.52V379H128.48V384.52ZM127.52 382.287V381.402C127.52 380.926 127.357 380.518 127.033 380.178C126.713 379.838 126.312 379.668 125.832 379.668C125.238 379.668 124.773 379.885 124.438 380.318C124.102 380.748 123.934 381.352 123.934 382.129C123.934 382.797 124.094 383.332 124.414 383.734C124.738 384.133 125.166 384.332 125.697 384.332C126.236 384.332 126.674 384.141 127.01 383.758C127.35 383.375 127.52 382.885 127.52 382.287ZM141.277 379L139.479 385H138.482L137.246 380.705C137.199 380.541 137.168 380.355 137.152 380.148H137.129C137.117 380.289 137.076 380.471 137.006 380.693L135.664 385H134.703L132.887 379H133.895L135.137 383.512C135.176 383.648 135.203 383.828 135.219 384.051H135.266C135.277 383.879 135.312 383.695 135.371 383.5L136.754 379H137.633L138.875 383.523C138.914 383.668 138.943 383.848 138.963 384.062H139.01C139.018 383.91 139.051 383.73 139.109 383.523L140.328 379H141.277ZM142.883 377.477C142.711 377.477 142.564 377.418 142.443 377.301C142.322 377.184 142.262 377.035 142.262 376.855C142.262 376.676 142.322 376.527 142.443 376.41C142.564 376.289 142.711 376.229 142.883 376.229C143.059 376.229 143.207 376.289 143.328 376.41C143.453 376.527 143.516 376.676 143.516 376.855C143.516 377.027 143.453 377.174 143.328 377.295C143.207 377.416 143.059 377.477 142.883 377.477ZM143.352 385H142.391V379H143.352V385ZM148.08 384.941C147.854 385.066 147.555 385.129 147.184 385.129C146.133 385.129 145.607 384.543 145.607 383.371V379.82H144.576V379H145.607V377.535L146.568 377.225V379H148.08V379.82H146.568V383.201C146.568 383.604 146.637 383.891 146.773 384.062C146.91 384.234 147.137 384.32 147.453 384.32C147.695 384.32 147.904 384.254 148.08 384.121V384.941ZM154.344 385H153.383V381.543C153.383 380.293 152.918 379.668 151.988 379.668C151.52 379.668 151.125 379.85 150.805 380.213C150.484 380.572 150.324 381.035 150.324 381.602V385H149.363V376.117H150.324V379.996H150.348C150.809 379.238 151.465 378.859 152.316 378.859C153.668 378.859 154.344 379.674 154.344 381.303V385ZM164.574 385H163.613V383.98H163.59C163.145 384.754 162.457 385.141 161.527 385.141C160.773 385.141 160.17 384.873 159.717 384.338C159.268 383.799 159.043 383.066 159.043 382.141C159.043 381.148 159.293 380.354 159.793 379.756C160.293 379.158 160.959 378.859 161.791 378.859C162.615 378.859 163.215 379.184 163.59 379.832H163.613V376.117H164.574V385ZM163.613 382.287V381.402C163.613 380.918 163.453 380.508 163.133 380.172C162.812 379.836 162.406 379.668 161.914 379.668C161.328 379.668 160.867 379.883 160.531 380.312C160.195 380.742 160.027 381.336 160.027 382.094C160.027 382.785 160.188 383.332 160.508 383.734C160.832 384.133 161.266 384.332 161.809 384.332C162.344 384.332 162.777 384.139 163.109 383.752C163.445 383.365 163.613 382.877 163.613 382.287ZM167.012 377.477C166.84 377.477 166.693 377.418 166.572 377.301C166.451 377.184 166.391 377.035 166.391 376.855C166.391 376.676 166.451 376.527 166.572 376.41C166.693 376.289 166.84 376.229 167.012 376.229C167.188 376.229 167.336 376.289 167.457 376.41C167.582 376.527 167.645 376.676 167.645 376.855C167.645 377.027 167.582 377.174 167.457 377.295C167.336 377.416 167.188 377.477 167.012 377.477ZM167.48 385H166.52V379H167.48V385ZM172.391 376.961C172.203 376.855 171.99 376.803 171.752 376.803C171.08 376.803 170.744 377.227 170.744 378.074V379H172.15V379.82H170.744V385H169.789V379.82H168.764V379H169.789V378.027C169.789 377.398 169.971 376.902 170.334 376.539C170.697 376.172 171.15 375.988 171.693 375.988C171.986 375.988 172.219 376.023 172.391 376.094V376.961ZM176.152 376.961C175.965 376.855 175.752 376.803 175.514 376.803C174.842 376.803 174.506 377.227 174.506 378.074V379H175.912V379.82H174.506V385H173.551V379.82H172.525V379H173.551V378.027C173.551 377.398 173.732 376.902 174.096 376.539C174.459 376.172 174.912 375.988 175.455 375.988C175.748 375.988 175.98 376.023 176.152 376.094V376.961ZM181.771 382.24H177.535C177.551 382.908 177.73 383.424 178.074 383.787C178.418 384.15 178.891 384.332 179.492 384.332C180.168 384.332 180.789 384.109 181.355 383.664V384.566C180.828 384.949 180.131 385.141 179.264 385.141C178.416 385.141 177.75 384.869 177.266 384.326C176.781 383.779 176.539 383.012 176.539 382.023C176.539 381.09 176.803 380.33 177.33 379.744C177.861 379.154 178.52 378.859 179.305 378.859C180.09 378.859 180.697 379.113 181.127 379.621C181.557 380.129 181.771 380.834 181.771 381.736V382.24ZM180.787 381.426C180.783 380.871 180.648 380.439 180.383 380.131C180.121 379.822 179.756 379.668 179.287 379.668C178.834 379.668 178.449 379.83 178.133 380.154C177.816 380.479 177.621 380.902 177.547 381.426H180.787ZM186.359 379.973C186.191 379.844 185.949 379.779 185.633 379.779C185.223 379.779 184.879 379.973 184.602 380.359C184.328 380.746 184.191 381.273 184.191 381.941V385H183.23V379H184.191V380.236H184.215C184.352 379.814 184.561 379.486 184.842 379.252C185.123 379.014 185.438 378.895 185.785 378.895C186.035 378.895 186.227 378.922 186.359 378.977V379.973ZM192.225 382.24H187.988C188.004 382.908 188.184 383.424 188.527 383.787C188.871 384.15 189.344 384.332 189.945 384.332C190.621 384.332 191.242 384.109 191.809 383.664V384.566C191.281 384.949 190.584 385.141 189.717 385.141C188.869 385.141 188.203 384.869 187.719 384.326C187.234 383.779 186.992 383.012 186.992 382.023C186.992 381.09 187.256 380.33 187.783 379.744C188.314 379.154 188.973 378.859 189.758 378.859C190.543 378.859 191.15 379.113 191.58 379.621C192.01 380.129 192.225 380.834 192.225 381.736V382.24ZM191.24 381.426C191.236 380.871 191.102 380.439 190.836 380.131C190.574 379.822 190.209 379.668 189.74 379.668C189.287 379.668 188.902 379.83 188.586 380.154C188.27 380.479 188.074 380.902 188 381.426H191.24ZM198.664 385H197.703V381.578C197.703 380.305 197.238 379.668 196.309 379.668C195.828 379.668 195.43 379.85 195.113 380.213C194.801 380.572 194.645 381.027 194.645 381.578V385H193.684V379H194.645V379.996H194.668C195.121 379.238 195.777 378.859 196.637 378.859C197.293 378.859 197.795 379.072 198.143 379.498C198.49 379.92 198.664 380.531 198.664 381.332V385ZM203.264 384.941C203.037 385.066 202.738 385.129 202.367 385.129C201.316 385.129 200.791 384.543 200.791 383.371V379.82H199.76V379H200.791V377.535L201.752 377.225V379H203.264V379.82H201.752V383.201C201.752 383.604 201.82 383.891 201.957 384.062C202.094 384.234 202.32 384.32 202.637 384.32C202.879 384.32 203.088 384.254 203.264 384.121V384.941ZM207.477 384.783V383.752C208 384.139 208.576 384.332 209.205 384.332C210.049 384.332 210.471 384.051 210.471 383.488C210.471 383.328 210.434 383.193 210.359 383.084C210.289 382.971 210.191 382.871 210.066 382.785C209.945 382.699 209.801 382.623 209.633 382.557C209.469 382.486 209.291 382.414 209.1 382.34C208.834 382.234 208.6 382.129 208.396 382.023C208.197 381.914 208.029 381.793 207.893 381.66C207.76 381.523 207.658 381.369 207.588 381.197C207.521 381.025 207.488 380.824 207.488 380.594C207.488 380.312 207.553 380.064 207.682 379.85C207.811 379.631 207.982 379.449 208.197 379.305C208.412 379.156 208.656 379.045 208.93 378.971C209.207 378.896 209.492 378.859 209.785 378.859C210.305 378.859 210.77 378.949 211.18 379.129V380.102C210.738 379.812 210.23 379.668 209.656 379.668C209.477 379.668 209.314 379.689 209.17 379.732C209.025 379.771 208.9 379.828 208.795 379.902C208.693 379.977 208.613 380.066 208.555 380.172C208.5 380.273 208.473 380.387 208.473 380.512C208.473 380.668 208.5 380.799 208.555 380.904C208.613 381.01 208.697 381.104 208.807 381.186C208.916 381.268 209.049 381.342 209.205 381.408C209.361 381.475 209.539 381.547 209.738 381.625C210.004 381.727 210.242 381.832 210.453 381.941C210.664 382.047 210.844 382.168 210.992 382.305C211.141 382.438 211.254 382.592 211.332 382.768C211.414 382.943 211.455 383.152 211.455 383.395C211.455 383.691 211.389 383.949 211.256 384.168C211.127 384.387 210.953 384.568 210.734 384.713C210.516 384.857 210.264 384.965 209.979 385.035C209.693 385.105 209.395 385.141 209.082 385.141C208.465 385.141 207.93 385.021 207.477 384.783ZM217.918 385H216.57L213.922 382.117H213.898V385H212.938V376.117H213.898V381.748H213.922L216.441 379H217.701L214.918 381.895L217.918 385ZM219.395 377.477C219.223 377.477 219.076 377.418 218.955 377.301C218.834 377.184 218.773 377.035 218.773 376.855C218.773 376.676 218.834 376.527 218.955 376.41C219.076 376.289 219.223 376.229 219.395 376.229C219.57 376.229 219.719 376.289 219.84 376.41C219.965 376.527 220.027 376.676 220.027 376.855C220.027 377.027 219.965 377.174 219.84 377.295C219.719 377.416 219.57 377.477 219.395 377.477ZM219.863 385H218.902V379H219.863V385ZM222.77 385H221.809V376.117H222.77V385ZM225.676 385H224.715V376.117H225.676V385ZM227.258 384.783V383.752C227.781 384.139 228.357 384.332 228.986 384.332C229.83 384.332 230.252 384.051 230.252 383.488C230.252 383.328 230.215 383.193 230.141 383.084C230.07 382.971 229.973 382.871 229.848 382.785C229.727 382.699 229.582 382.623 229.414 382.557C229.25 382.486 229.072 382.414 228.881 382.34C228.615 382.234 228.381 382.129 228.178 382.023C227.979 381.914 227.811 381.793 227.674 381.66C227.541 381.523 227.439 381.369 227.369 381.197C227.303 381.025 227.27 380.824 227.27 380.594C227.27 380.312 227.334 380.064 227.463 379.85C227.592 379.631 227.764 379.449 227.979 379.305C228.193 379.156 228.438 379.045 228.711 378.971C228.988 378.896 229.273 378.859 229.566 378.859C230.086 378.859 230.551 378.949 230.961 379.129V380.102C230.52 379.812 230.012 379.668 229.438 379.668C229.258 379.668 229.096 379.689 228.951 379.732C228.807 379.771 228.682 379.828 228.576 379.902C228.475 379.977 228.395 380.066 228.336 380.172C228.281 380.273 228.254 380.387 228.254 380.512C228.254 380.668 228.281 380.799 228.336 380.904C228.395 381.01 228.479 381.104 228.588 381.186C228.697 381.268 228.83 381.342 228.986 381.408C229.143 381.475 229.32 381.547 229.52 381.625C229.785 381.727 230.023 381.832 230.234 381.941C230.445 382.047 230.625 382.168 230.773 382.305C230.922 382.438 231.035 382.592 231.113 382.768C231.195 382.943 231.236 383.152 231.236 383.395C231.236 383.691 231.17 383.949 231.037 384.168C230.908 384.387 230.734 384.568 230.516 384.713C230.297 384.857 230.045 384.965 229.76 385.035C229.475 385.105 229.176 385.141 228.863 385.141C228.246 385.141 227.711 385.021 227.258 384.783Z" fill="#323130"/>
</g>
<path d="M75.8188 202.963V206.263L78.7063 203.375V205.419L74.3938 209.731V204.406H71.5063V190.006H91.6626V195.763H90.2188V191.45H72.9501V202.963H75.8188ZM80.1501 197.206H94.5501V207.294H91.6626V211.194L87.7626 207.294H80.1501V197.206ZM93.1063 205.831V198.631H81.5938V205.831H88.3813L90.2376 207.688V205.831H93.1063Z" fill="#201F1E"/>
<path d="M69.9775 226.707C69.4502 226.98 68.7943 227.117 68.0098 227.117C66.9941 227.117 66.1803 226.797 65.5684 226.155C64.9564 225.514 64.6504 224.673 64.6504 223.631C64.6504 222.511 64.9938 221.606 65.6807 220.916C66.3708 220.226 67.2415 219.881 68.293 219.881C68.9701 219.881 69.5316 219.977 69.9775 220.169V221.321C69.5055 221.041 68.9847 220.901 68.415 220.901C67.6566 220.901 67.0413 221.144 66.5693 221.629C66.1006 222.114 65.8662 222.762 65.8662 223.572C65.8662 224.344 66.0859 224.959 66.5254 225.418C66.9648 225.874 67.5426 226.102 68.2588 226.102C68.9196 226.102 69.4925 225.945 69.9775 225.633V226.707ZM75.6221 227H74.4893V224.266C74.4893 223.276 74.1589 222.781 73.498 222.781C73.166 222.781 72.8861 222.924 72.6582 223.211C72.4303 223.497 72.3164 223.864 72.3164 224.31V227H71.1787V219.598H72.3164V222.83H72.3359C72.7135 222.199 73.2539 221.883 73.957 221.883C75.0671 221.883 75.6221 222.562 75.6221 223.919V227ZM77.5703 220.95C77.3848 220.95 77.2253 220.89 77.0918 220.77C76.9616 220.649 76.8965 220.496 76.8965 220.311C76.8965 220.125 76.9616 219.97 77.0918 219.847C77.2253 219.723 77.3848 219.661 77.5703 219.661C77.7624 219.661 77.9251 219.723 78.0586 219.847C78.1921 219.97 78.2588 220.125 78.2588 220.311C78.2588 220.486 78.1921 220.638 78.0586 220.765C77.9251 220.888 77.7624 220.95 77.5703 220.95ZM78.1318 227H76.999V222H78.1318V227ZM82.2529 226.946C82.0316 227.057 81.7402 227.112 81.3789 227.112C80.4089 227.112 79.9238 226.647 79.9238 225.716V222.889H79.0889V222H79.9238V220.843L81.0566 220.521V222H82.2529V222.889H81.0566V225.389C81.0566 225.685 81.1104 225.896 81.2178 226.023C81.3252 226.15 81.5042 226.214 81.7549 226.214C81.9469 226.214 82.113 226.159 82.2529 226.048V226.946ZM86.7207 226.771C86.3203 227.002 85.8467 227.117 85.2998 227.117C84.5576 227.117 83.9587 226.886 83.5029 226.424C83.0472 225.958 82.8193 225.356 82.8193 224.617C82.8193 223.794 83.0635 223.133 83.5518 222.635C84.0433 222.133 84.6992 221.883 85.5195 221.883C85.9753 221.883 86.3773 221.963 86.7256 222.122V223.177C86.3773 222.916 86.0062 222.786 85.6123 222.786C85.1338 222.786 84.7415 222.949 84.4355 223.274C84.1296 223.597 83.9766 224.02 83.9766 224.544C83.9766 225.062 84.1198 225.47 84.4062 225.77C84.696 226.069 85.0833 226.219 85.5684 226.219C85.9753 226.219 86.3594 226.074 86.7207 225.784V226.771ZM92.292 227H91.1592V224.266C91.1592 223.276 90.8288 222.781 90.168 222.781C89.8359 222.781 89.556 222.924 89.3281 223.211C89.1003 223.497 88.9863 223.864 88.9863 224.31V227H87.8486V219.598H88.9863V222.83H89.0059C89.3835 222.199 89.9238 221.883 90.627 221.883C91.737 221.883 92.292 222.562 92.292 223.919V227ZM97.5068 227H96.4082V226.219H96.3887C96.0436 226.818 95.5374 227.117 94.8701 227.117C94.3786 227.117 93.9928 226.984 93.7129 226.717C93.4362 226.45 93.2979 226.097 93.2979 225.657C93.2979 224.713 93.8415 224.163 94.9287 224.007L96.4131 223.797C96.4131 223.084 96.0745 222.728 95.3975 222.728C94.8018 222.728 94.2646 222.933 93.7861 223.343V222.352C94.3135 222.039 94.9222 221.883 95.6123 221.883C96.8753 221.883 97.5068 222.505 97.5068 223.748V227ZM96.4131 224.544L95.3633 224.69C95.0378 224.733 94.792 224.812 94.626 224.93C94.4632 225.044 94.3818 225.245 94.3818 225.535C94.3818 225.747 94.4567 225.921 94.6064 226.058C94.7594 226.191 94.9629 226.258 95.2168 226.258C95.5618 226.258 95.8467 226.137 96.0713 225.896C96.2992 225.652 96.4131 225.346 96.4131 224.979V224.544ZM101.53 226.946C101.309 227.057 101.018 227.112 100.656 227.112C99.6862 227.112 99.2012 226.647 99.2012 225.716V222.889H98.3662V222H99.2012V220.843L100.334 220.521V222H101.53V222.889H100.334V225.389C100.334 225.685 100.388 225.896 100.495 226.023C100.603 226.15 100.782 226.214 101.032 226.214C101.224 226.214 101.39 226.159 101.53 226.048V226.946Z" fill="black"/>
<rect x="128" y="19" width="73" height="26" fill="#106EBE"/>
<path fill-rule="evenodd" clip-rule="evenodd" d="M227 70H230V84H214V70H217V69H218V70H226V69H227V70ZM217 71H215V73H229V71H227V72H226V71H218V72H217V71ZM229 83H215V74H229V83ZM217 82V75H221V82H217ZM218 81V76H220V81H218ZM223 82V75H227V82H223ZM224 81V76H226V81H224Z" fill="#0078D4"/>
<path d="M54 127V134C54 134.276 53.9453 134.536 53.8359 134.781C53.7318 135.021 53.5885 135.232 53.4062 135.414C53.2292 135.591 53.0182 135.734 52.7734 135.844C52.5286 135.948 52.2708 136 52 136H39.9453C39.6797 136 39.4271 135.948 39.1875 135.844C38.9531 135.74 38.7474 135.602 38.5703 135.43C38.3984 135.253 38.2604 135.047 38.1562 134.812C38.0521 134.573 38 134.32 38 134.055V125H52V127H54ZM53 128H52V133.5C52 133.635 51.9505 133.753 51.8516 133.852C51.7526 133.951 51.6354 134 51.5 134C51.3646 134 51.2474 133.951 51.1484 133.852C51.0495 133.753 51 133.635 51 133.5V126H39V134.055C39 134.185 39.0234 134.307 39.0703 134.422C39.1224 134.536 39.1901 134.638 39.2734 134.727C39.362 134.81 39.4635 134.878 39.5781 134.93C39.6927 134.977 39.8151 135 39.9453 135H52C52.1406 135 52.2708 134.974 52.3906 134.922C52.5104 134.87 52.6146 134.799 52.7031 134.711C52.7969 134.617 52.8698 134.51 52.9219 134.391C52.974 134.271 53 134.141 53 134V128ZM50 128H40V127H50V128ZM50 134H46V133H50V134ZM50 132H46V131H50V132ZM50 130H46V129H50V130ZM45 134H40V128.977H45V134ZM41 133H44V129.977H41V133Z" fill="#106EBE"/>
<path d="M146.406 36.6777V34.8027C146.746 35.0879 147.115 35.3027 147.514 35.4473C147.912 35.5879 148.314 35.6582 148.721 35.6582C148.959 35.6582 149.166 35.6367 149.342 35.5938C149.521 35.5508 149.67 35.4922 149.787 35.418C149.908 35.3398 149.998 35.25 150.057 35.1484C150.115 35.043 150.145 34.9297 150.145 34.8086C150.145 34.6445 150.098 34.498 150.004 34.3691C149.91 34.2402 149.781 34.1211 149.617 34.0117C149.457 33.9023 149.266 33.7969 149.043 33.6953C148.82 33.5938 148.58 33.4902 148.322 33.3848C147.666 33.1113 147.176 32.7773 146.852 32.3828C146.531 31.9883 146.371 31.5117 146.371 30.9531C146.371 30.5156 146.459 30.1406 146.635 29.8281C146.811 29.5117 147.049 29.252 147.35 29.0488C147.654 28.8457 148.006 28.6973 148.404 28.6035C148.803 28.5059 149.225 28.457 149.67 28.457C150.107 28.457 150.494 28.4844 150.83 28.5391C151.17 28.5898 151.482 28.6699 151.768 28.7793V30.5312C151.627 30.4336 151.473 30.3477 151.305 30.2734C151.141 30.1992 150.971 30.1387 150.795 30.0918C150.619 30.041 150.443 30.0039 150.268 29.9805C150.096 29.957 149.932 29.9453 149.775 29.9453C149.561 29.9453 149.365 29.9668 149.189 30.0098C149.014 30.0488 148.865 30.1055 148.744 30.1797C148.623 30.2539 148.529 30.3438 148.463 30.4492C148.396 30.5508 148.363 30.666 148.363 30.7949C148.363 30.9355 148.4 31.0625 148.475 31.1758C148.549 31.2852 148.654 31.3906 148.791 31.4922C148.928 31.5898 149.094 31.6875 149.289 31.7852C149.484 31.8789 149.705 31.9766 149.951 32.0781C150.287 32.2188 150.588 32.3691 150.854 32.5293C151.123 32.6855 151.354 32.8633 151.545 33.0625C151.736 33.2617 151.883 33.4902 151.984 33.748C152.086 34.002 152.137 34.2988 152.137 34.6387C152.137 35.1074 152.047 35.502 151.867 35.8223C151.691 36.1387 151.451 36.3965 151.146 36.5957C150.842 36.791 150.486 36.9316 150.08 37.0176C149.678 37.1035 149.252 37.1465 148.803 37.1465C148.342 37.1465 147.902 37.1074 147.484 37.0293C147.07 36.9512 146.711 36.834 146.406 36.6777ZM160.504 37H158.113L155.664 33.3496C155.617 33.2793 155.543 33.125 155.441 32.8867H155.412V37H153.52V28.5977H155.412V32.5703H155.441C155.488 32.4609 155.566 32.3047 155.676 32.1016L157.996 28.5977H160.252L157.322 32.6055L160.504 37ZM163.205 37H161.312V28.5977H163.205V37ZM170.125 37H165.121V28.5977H167.014V35.4648H170.125V37ZM176.266 37H171.262V28.5977H173.154V35.4648H176.266V37ZM177.016 36.6777V34.8027C177.355 35.0879 177.725 35.3027 178.123 35.4473C178.521 35.5879 178.924 35.6582 179.33 35.6582C179.568 35.6582 179.775 35.6367 179.951 35.5938C180.131 35.5508 180.279 35.4922 180.396 35.418C180.518 35.3398 180.607 35.25 180.666 35.1484C180.725 35.043 180.754 34.9297 180.754 34.8086C180.754 34.6445 180.707 34.498 180.613 34.3691C180.52 34.2402 180.391 34.1211 180.227 34.0117C180.066 33.9023 179.875 33.7969 179.652 33.6953C179.43 33.5938 179.189 33.4902 178.932 33.3848C178.275 33.1113 177.785 32.7773 177.461 32.3828C177.141 31.9883 176.98 31.5117 176.98 30.9531C176.98 30.5156 177.068 30.1406 177.244 29.8281C177.42 29.5117 177.658 29.252 177.959 29.0488C178.264 28.8457 178.615 28.6973 179.014 28.6035C179.412 28.5059 179.834 28.457 180.279 28.457C180.717 28.457 181.104 28.4844 181.439 28.5391C181.779 28.5898 182.092 28.6699 182.377 28.7793V30.5312C182.236 30.4336 182.082 30.3477 181.914 30.2734C181.75 30.1992 181.58 30.1387 181.404 30.0918C181.229 30.041 181.053 30.0039 180.877 29.9805C180.705 29.957 180.541 29.9453 180.385 29.9453C180.17 29.9453 179.975 29.9668 179.799 30.0098C179.623 30.0488 179.475 30.1055 179.354 30.1797C179.232 30.2539 179.139 30.3438 179.072 30.4492C179.006 30.5508 178.973 30.666 178.973 30.7949C178.973 30.9355 179.01 31.0625 179.084 31.1758C179.158 31.2852 179.264 31.3906 179.4 31.4922C179.537 31.5898 179.703 31.6875 179.898 31.7852C180.094 31.8789 180.314 31.9766 180.561 32.0781C180.896 32.2188 181.197 32.3691 181.463 32.5293C181.732 32.6855 181.963 32.8633 182.154 33.0625C182.346 33.2617 182.492 33.4902 182.594 33.748C182.695 34.002 182.746 34.2988 182.746 34.6387C182.746 35.1074 182.656 35.502 182.477 35.8223C182.301 36.1387 182.061 36.3965 181.756 36.5957C181.451 36.791 181.096 36.9316 180.689 37.0176C180.287 37.1035 179.861 37.1465 179.412 37.1465C178.951 37.1465 178.512 37.1074 178.094 37.0293C177.68 36.9512 177.32 36.834 177.016 36.6777Z" fill="white"/>
<path fill-rule="evenodd" clip-rule="evenodd" d="M257.933 196.57L254.024 194.898C253.884 194.909 253.744 194.914 253.601 194.914H253.449C252.673 191.147 249.359 188.285 245.386 188.285H240.614C240.632 184.94 243.325 182.209 246.614 182.209H253.601C256.902 182.209 259.603 184.958 259.603 188.318V188.805C259.603 190.94 258.512 192.828 256.871 193.921L257.933 196.57ZM245.386 203.199H238.399C238.256 203.199 238.116 203.193 237.976 203.183L234.067 204.854L235.13 202.205C233.488 201.112 232.397 199.225 232.397 197.09V196.603C232.397 193.243 235.098 190.494 238.399 190.494H238.551H240.852H245.386C248.111 190.494 250.423 192.37 251.148 194.914C251.301 195.452 251.388 196.017 251.388 196.603V197.09C251.388 197.101 251.386 197.112 251.386 197.124C251.368 200.468 248.675 203.199 245.386 203.199ZM259.533 194.566C260.986 193.04 261.837 190.989 261.837 188.805V188.318C261.837 183.752 258.151 180 253.601 180H246.614C242.076 180 238.398 183.734 238.38 188.286C233.839 188.296 230.163 192.043 230.163 196.603V197.09C230.163 199.274 231.014 201.324 232.467 202.85L230 209L238.401 205.408H245.386C249.921 205.408 253.597 201.678 253.62 197.132L262 200.715L259.533 194.566Z" fill="#201F1E"/>
<path d="M236.81 216.984H234.193V219.089H236.605V220.07H234.193V223H233.031V215.998H236.81V216.984ZM243.207 223H241.932L241.302 221.218H238.549L237.943 223H236.674L239.296 215.998H240.604L243.207 223ZM240.995 220.271L240.023 217.478C239.994 217.386 239.963 217.24 239.93 217.038H239.911C239.882 217.224 239.849 217.37 239.813 217.478L238.851 220.271H240.995ZM247.059 223.117C246.555 223.117 246.097 223.031 245.687 222.858C245.277 222.686 244.927 222.445 244.637 222.136C244.348 221.823 244.123 221.451 243.964 221.018C243.804 220.585 243.724 220.106 243.724 219.582C243.724 219.022 243.804 218.514 243.964 218.059C244.126 217.603 244.356 217.214 244.652 216.892C244.952 216.569 245.315 216.32 245.741 216.145C246.167 215.969 246.644 215.881 247.172 215.881C247.66 215.881 248.106 215.967 248.51 216.14C248.913 216.312 249.258 216.555 249.545 216.867C249.831 217.176 250.052 217.548 250.209 217.98C250.368 218.413 250.448 218.89 250.448 219.411C250.448 220.101 250.332 220.707 250.101 221.228C249.87 221.745 249.545 222.162 249.125 222.478L251.156 223.942H249.388L248.138 222.971C247.972 223.016 247.8 223.052 247.621 223.078C247.442 223.104 247.255 223.117 247.059 223.117ZM247.113 216.901C246.794 216.901 246.501 216.965 246.234 217.092C245.97 217.215 245.743 217.393 245.551 217.624C245.358 217.852 245.209 218.125 245.101 218.444C244.997 218.763 244.945 219.118 244.945 219.509C244.945 219.896 244.996 220.249 245.096 220.568C245.201 220.887 245.345 221.161 245.531 221.389C245.717 221.613 245.94 221.789 246.2 221.916C246.46 222.04 246.748 222.102 247.064 222.102C247.399 222.102 247.701 222.043 247.968 221.926C248.234 221.809 248.461 221.641 248.646 221.423C248.835 221.201 248.98 220.931 249.081 220.612C249.182 220.293 249.232 219.93 249.232 219.523C249.232 219.107 249.183 218.736 249.086 218.41C248.988 218.085 248.848 217.811 248.666 217.59C248.483 217.365 248.26 217.194 247.997 217.077C247.736 216.96 247.442 216.901 247.113 216.901ZM251.293 222.844V221.794C251.716 222.116 252.183 222.277 252.694 222.277C253.378 222.277 253.719 222.076 253.719 221.672C253.719 221.558 253.69 221.462 253.632 221.384C253.573 221.302 253.493 221.231 253.392 221.169C253.295 221.107 253.177 221.052 253.041 221.003C252.907 220.954 252.758 220.899 252.592 220.837C252.386 220.756 252.201 220.669 252.035 220.578C251.872 220.487 251.735 220.384 251.625 220.271C251.517 220.153 251.436 220.021 251.381 219.875C251.325 219.729 251.298 219.558 251.298 219.362C251.298 219.121 251.355 218.91 251.468 218.728C251.582 218.542 251.735 218.387 251.927 218.264C252.12 218.137 252.338 218.042 252.582 217.98C252.826 217.915 253.078 217.883 253.339 217.883C253.801 217.883 254.214 217.953 254.579 218.093V219.084C254.227 218.843 253.824 218.723 253.368 218.723C253.225 218.723 253.094 218.737 252.977 218.767C252.863 218.796 252.766 218.837 252.684 218.889C252.603 218.941 252.539 219.004 252.494 219.079C252.448 219.151 252.426 219.23 252.426 219.318C252.426 219.426 252.448 219.517 252.494 219.592C252.539 219.667 252.606 219.733 252.694 219.792C252.785 219.847 252.893 219.899 253.016 219.948C253.143 219.994 253.288 220.044 253.451 220.1C253.666 220.188 253.858 220.277 254.027 220.368C254.2 220.459 254.346 220.563 254.467 220.681C254.587 220.795 254.68 220.928 254.745 221.081C254.81 221.231 254.843 221.41 254.843 221.618C254.843 221.872 254.784 222.093 254.667 222.282C254.55 222.471 254.393 222.627 254.198 222.751C254.003 222.875 253.776 222.966 253.519 223.024C253.265 223.086 252.997 223.117 252.714 223.117C252.167 223.117 251.693 223.026 251.293 222.844Z" fill="black"/>
<path d="M139.686 135H138.411L137.781 133.218H135.027L134.422 135H133.152L135.774 127.998H137.083L139.686 135ZM137.474 132.271L136.502 129.478C136.473 129.386 136.442 129.24 136.409 129.038H136.39C136.36 129.224 136.328 129.37 136.292 129.478L135.33 132.271H137.474ZM145.071 135H143.938V134.15H143.919C143.554 134.795 142.993 135.117 142.234 135.117C141.619 135.117 141.126 134.894 140.755 134.448C140.387 133.999 140.203 133.389 140.203 132.617C140.203 131.79 140.407 131.128 140.813 130.63C141.224 130.132 141.769 129.883 142.449 129.883C143.123 129.883 143.613 130.153 143.919 130.693H143.938V127.598H145.071V135ZM143.953 132.715V132.061C143.953 131.706 143.838 131.405 143.606 131.157C143.375 130.91 143.081 130.786 142.723 130.786C142.299 130.786 141.966 130.944 141.722 131.26C141.481 131.576 141.36 132.013 141.36 132.573C141.36 133.081 141.476 133.483 141.707 133.779C141.941 134.072 142.256 134.219 142.649 134.219C143.037 134.219 143.351 134.077 143.592 133.794C143.833 133.507 143.953 133.148 143.953 132.715ZM150.389 135H149.29V134.219H149.271C148.925 134.818 148.419 135.117 147.752 135.117C147.26 135.117 146.875 134.984 146.595 134.717C146.318 134.45 146.18 134.097 146.18 133.657C146.18 132.713 146.723 132.163 147.811 132.007L149.295 131.797C149.295 131.084 148.956 130.728 148.279 130.728C147.684 130.728 147.146 130.933 146.668 131.343V130.352C147.195 130.039 147.804 129.883 148.494 129.883C149.757 129.883 150.389 130.505 150.389 131.748V135ZM149.295 132.544L148.245 132.69C147.92 132.733 147.674 132.812 147.508 132.93C147.345 133.044 147.264 133.245 147.264 133.535C147.264 133.747 147.339 133.921 147.488 134.058C147.641 134.191 147.845 134.258 148.099 134.258C148.444 134.258 148.729 134.137 148.953 133.896C149.181 133.652 149.295 133.346 149.295 132.979V132.544ZM152.928 134.263H152.908V137.3H151.775V130H152.908V130.879H152.928C153.315 130.215 153.882 129.883 154.627 129.883C155.262 129.883 155.757 130.106 156.111 130.552C156.466 130.998 156.644 131.597 156.644 132.349C156.644 133.182 156.443 133.849 156.043 134.351C155.643 134.852 155.096 135.103 154.402 135.103C153.764 135.103 153.273 134.823 152.928 134.263ZM152.898 132.29V132.91C152.898 133.275 153.014 133.584 153.245 133.838C153.479 134.092 153.776 134.219 154.134 134.219C154.554 134.219 154.882 134.056 155.12 133.73C155.361 133.402 155.481 132.944 155.481 132.358C155.481 131.867 155.369 131.483 155.145 131.206C154.923 130.926 154.622 130.786 154.241 130.786C153.838 130.786 153.512 130.929 153.265 131.216C153.021 131.502 152.898 131.86 152.898 132.29ZM160.438 134.946C160.216 135.057 159.925 135.112 159.563 135.112C158.593 135.112 158.108 134.647 158.108 133.716V130.889H157.273V130H158.108V128.843L159.241 128.521V130H160.438V130.889H159.241V133.389C159.241 133.685 159.295 133.896 159.402 134.023C159.51 134.15 159.689 134.214 159.939 134.214C160.132 134.214 160.298 134.159 160.438 134.048V134.946ZM161.985 128.95C161.8 128.95 161.64 128.89 161.507 128.77C161.377 128.649 161.312 128.496 161.312 128.311C161.312 128.125 161.377 127.97 161.507 127.847C161.64 127.723 161.8 127.661 161.985 127.661C162.177 127.661 162.34 127.723 162.474 127.847C162.607 127.97 162.674 128.125 162.674 128.311C162.674 128.486 162.607 128.638 162.474 128.765C162.34 128.888 162.177 128.95 161.985 128.95ZM162.547 135H161.414V130H162.547V135ZM168.338 130L166.404 135H165.179L163.338 130H164.568L165.677 133.496C165.761 133.753 165.813 133.978 165.833 134.17H165.848C165.877 133.929 165.923 133.711 165.984 133.516L167.146 130H168.338ZM173.265 132.808H169.856C169.869 133.27 170.011 133.626 170.281 133.877C170.555 134.128 170.929 134.253 171.404 134.253C171.938 134.253 172.428 134.093 172.874 133.774V134.688C172.418 134.974 171.816 135.117 171.067 135.117C170.332 135.117 169.754 134.891 169.334 134.438C168.917 133.983 168.709 133.343 168.709 132.52C168.709 131.742 168.938 131.108 169.397 130.62C169.86 130.129 170.433 129.883 171.116 129.883C171.8 129.883 172.329 130.103 172.703 130.542C173.077 130.981 173.265 131.592 173.265 132.373V132.808ZM172.171 132.007C172.168 131.6 172.072 131.284 171.883 131.06C171.694 130.832 171.434 130.718 171.102 130.718C170.776 130.718 170.499 130.837 170.271 131.074C170.047 131.312 169.909 131.623 169.856 132.007H172.171ZM180.677 134.771C180.276 135.002 179.803 135.117 179.256 135.117C178.514 135.117 177.915 134.886 177.459 134.424C177.003 133.958 176.775 133.356 176.775 132.617C176.775 131.794 177.02 131.133 177.508 130.635C177.999 130.133 178.655 129.883 179.476 129.883C179.931 129.883 180.333 129.963 180.682 130.122V131.177C180.333 130.916 179.962 130.786 179.568 130.786C179.09 130.786 178.698 130.949 178.392 131.274C178.086 131.597 177.933 132.02 177.933 132.544C177.933 133.062 178.076 133.47 178.362 133.77C178.652 134.069 179.039 134.219 179.524 134.219C179.931 134.219 180.315 134.074 180.677 133.784V134.771ZM185.643 135H184.544V134.219H184.524C184.179 134.818 183.673 135.117 183.006 135.117C182.514 135.117 182.129 134.984 181.849 134.717C181.572 134.45 181.434 134.097 181.434 133.657C181.434 132.713 181.977 132.163 183.064 132.007L184.549 131.797C184.549 131.084 184.21 130.728 183.533 130.728C182.938 130.728 182.4 130.933 181.922 131.343V130.352C182.449 130.039 183.058 129.883 183.748 129.883C185.011 129.883 185.643 130.505 185.643 131.748V135ZM184.549 132.544L183.499 132.69C183.174 132.733 182.928 132.812 182.762 132.93C182.599 133.044 182.518 133.245 182.518 133.535C182.518 133.747 182.592 133.921 182.742 134.058C182.895 134.191 183.099 134.258 183.353 134.258C183.698 134.258 183.982 134.137 184.207 133.896C184.435 133.652 184.549 133.346 184.549 132.979V132.544ZM189.93 131.079C189.793 130.972 189.596 130.918 189.339 130.918C189.004 130.918 188.724 131.069 188.499 131.372C188.274 131.675 188.162 132.087 188.162 132.607V135H187.029V130H188.162V131.03H188.182C188.292 130.679 188.462 130.405 188.689 130.21C188.921 130.011 189.178 129.912 189.461 129.912C189.666 129.912 189.822 129.943 189.93 130.005V131.079ZM195.188 135H194.056V134.15H194.036C193.672 134.795 193.11 135.117 192.352 135.117C191.736 135.117 191.243 134.894 190.872 134.448C190.504 133.999 190.32 133.389 190.32 132.617C190.32 131.79 190.524 131.128 190.931 130.63C191.341 130.132 191.886 129.883 192.566 129.883C193.24 129.883 193.73 130.153 194.036 130.693H194.056V127.598H195.188V135ZM194.07 132.715V132.061C194.07 131.706 193.955 131.405 193.724 131.157C193.493 130.91 193.198 130.786 192.84 130.786C192.417 130.786 192.083 130.944 191.839 131.26C191.598 131.576 191.478 132.013 191.478 132.573C191.478 133.081 191.593 133.483 191.824 133.779C192.059 134.072 192.373 134.219 192.767 134.219C193.154 134.219 193.468 134.077 193.709 133.794C193.95 133.507 194.07 133.148 194.07 132.715Z" fill="black"/>
<rect x="152" y="94" width="26" height="26" fill="#C4C4C4"/>
<path d="M290.5 186H297.5C297.776 186 298 186.224 298 186.5C298 186.745 297.823 186.95 297.59 186.992L297.5 187H290.5C290.224 187 290 186.776 290 186.5C290 186.255 290.177 186.05 290.41 186.008L290.5 186ZM288.504 184H299.496C299.774 184 300 184.224 300 184.5C300 184.745 299.822 184.95 299.587 184.992L299.496 185H288.504C288.226 185 288 184.776 288 184.5C288 184.255 288.178 184.05 288.413 184.008L288.504 184ZM294 174C296.465 174 297.863 175.574 298.066 177.474L298.128 177.474C299.714 177.474 301 178.711 301 180.237C301 181.763 299.714 183 298.128 183H289.872C288.286 183 287 181.763 287 180.237C287 178.768 288.192 177.566 289.697 177.479L289.934 177.474C290.139 175.561 291.535 174 294 174Z" fill="#0078D4"/>
<path d="M93.1083 78.275L100.2 80.7583V84.4L92.2 89L89 87.2083V73L92.2 74.1167V85.3667L96.7083 82.775L94.4917 81.7417L93.1083 78.275Z" fill="#0078D4"/>
<path d="M282.718 122.921C282.733 122.846 282.741 122.772 282.741 122.697V122.463C282.741 122.113 282.696 121.779 282.607 121.459C282.517 121.139 282.391 120.856 282.227 120.611C282.071 120.365 281.885 120.172 281.669 120.031C281.461 119.882 281.238 119.804 281 119.796H280.989C280.751 119.804 280.528 119.882 280.319 120.031C280.104 120.172 279.918 120.365 279.762 120.611C279.598 120.856 279.471 121.139 279.382 121.459C279.293 121.779 279.248 122.113 279.248 122.463V122.697C279.248 122.772 279.256 122.846 279.271 122.921C279.278 123.017 279.289 123.106 279.304 123.188C279.326 123.278 279.352 123.367 279.382 123.456C279.427 123.575 279.49 123.698 279.572 123.824L279.895 124.349L280.431 125.107V132.192H281.558V125.107L282.093 124.349L282.417 123.824C282.499 123.698 282.562 123.575 282.607 123.456C282.636 123.367 282.659 123.278 282.674 123.188C282.696 123.106 282.711 123.017 282.718 122.921ZM278.099 123.411C278.136 123.344 278.155 123.266 278.155 123.177L278.032 120.086C278.032 120.012 278.002 119.945 277.943 119.886C277.891 119.834 277.824 119.804 277.742 119.796H277.72C277.638 119.796 277.571 119.822 277.519 119.874C277.459 119.934 277.426 120.005 277.418 120.086C277.404 120.555 277.389 120.979 277.374 121.358C277.359 121.522 277.351 121.678 277.351 121.827C277.344 121.976 277.337 122.11 277.329 122.229C277.329 122.363 277.329 122.497 277.329 122.63C277.329 122.697 277.303 122.757 277.251 122.809C277.199 122.854 277.136 122.876 277.061 122.876C276.987 122.876 276.924 122.854 276.872 122.809C276.82 122.757 276.794 122.697 276.794 122.63L276.704 120.086C276.697 120.012 276.663 119.945 276.604 119.886C276.552 119.834 276.481 119.804 276.392 119.796H276.381C276.299 119.804 276.232 119.834 276.18 119.886C276.12 119.945 276.087 120.012 276.079 120.086C276.065 120.548 276.05 120.972 276.035 121.358C276.02 121.522 276.013 121.678 276.013 121.827C276.005 121.976 276.001 122.11 276.001 122.229C275.994 122.363 275.99 122.497 275.99 122.63C275.99 122.697 275.964 122.757 275.912 122.809C275.86 122.854 275.797 122.876 275.722 122.876C275.648 122.876 275.585 122.854 275.533 122.809C275.481 122.757 275.455 122.697 275.455 122.63L275.365 120.086C275.358 120.005 275.325 119.934 275.265 119.874C275.213 119.822 275.146 119.796 275.064 119.796H275.053C274.964 119.804 274.893 119.834 274.841 119.886C274.781 119.945 274.752 120.012 274.752 120.086L274.629 123.177C274.629 123.266 274.648 123.344 274.685 123.411L275.823 125.096V132.192H276.961V125.096L278.099 123.411ZM283.856 118C284.005 118 284.132 118.052 284.236 118.156C284.332 118.253 284.381 118.372 284.381 118.513V133.476C284.381 133.624 284.332 133.747 284.236 133.844C284.132 133.948 284.005 134 283.856 134H273.513C273.372 134 273.253 133.948 273.156 133.844C273.052 133.747 273 133.624 273 133.476V118.513C273 118.372 273.052 118.253 273.156 118.156C273.253 118.052 273.372 118 273.513 118H283.856Z" fill="#0078D4"/>
<path d="M31.7922 190.75C32.536 190.669 33.239 190.468 33.901 190.148C34.5556 189.828 35.1432 189.426 35.6639 188.943C36.1846 188.452 36.6197 187.89 36.9693 187.258C37.3189 186.618 37.557 185.934 37.6834 185.205H34.9944V183.208H37.7392C37.6499 182.434 37.4342 181.705 37.0921 181.021C36.7573 180.337 36.3259 179.73 35.7978 179.202C35.2696 178.674 34.6634 178.243 33.9791 177.908C33.2947 177.566 32.5658 177.35 31.7922 177.261V180.006H30.2078V177.261C29.4268 177.35 28.6941 177.566 28.0098 177.908C27.3254 178.243 26.7192 178.674 26.1911 179.202C25.6629 179.73 25.2315 180.337 24.8968 181.021C24.5546 181.705 24.3389 182.434 24.2497 183.208H26.9944V185.205H24.3166C24.443 185.941 24.6811 186.626 25.0307 187.258C25.3803 187.89 25.8154 188.452 26.3361 188.943C26.8494 189.426 27.4333 189.828 28.0879 190.148C28.7499 190.468 29.4565 190.669 30.2078 190.75V188.006H31.7922V190.75ZM30.9888 176C31.7252 176 32.4356 176.097 33.1199 176.29C33.8043 176.483 34.444 176.751 35.0391 177.093C35.6267 177.443 36.166 177.86 36.6569 178.343C37.1404 178.834 37.557 179.373 37.9066 179.961C38.2487 180.556 38.5165 181.196 38.7099 181.88C38.9033 182.564 39 183.275 39 184.011C39 184.748 38.9033 185.454 38.7099 186.131C38.5165 186.815 38.2487 187.455 37.9066 188.05C37.557 188.638 37.1404 189.177 36.6569 189.668C36.166 190.152 35.6267 190.564 35.0391 190.907C34.444 191.256 33.8043 191.524 33.1199 191.71C32.4356 191.903 31.7252 192 30.9888 192C30.2524 192 29.5458 191.903 28.8689 191.71C28.1846 191.524 27.5449 191.256 26.9498 190.907C26.3622 190.564 25.8229 190.152 25.3319 189.668C24.8484 189.177 24.4356 188.638 24.0934 188.05C23.7438 187.455 23.4761 186.815 23.2901 186.131C23.0967 185.454 23 184.748 23 184.011C23 183.275 23.0967 182.564 23.2901 181.88C23.4761 181.196 23.7438 180.556 24.0934 179.961C24.4356 179.373 24.8484 178.834 25.3319 178.343C25.8229 177.86 26.3622 177.443 26.9498 177.093C27.5449 176.751 28.1846 176.483 28.8689 176.29C29.5458 176.097 30.2524 176 30.9888 176Z" fill="#0078D4"/>
</g>
<defs>
<filter id="filter0_dd" x="-4.4" y="324" width="336.8" height="92.8" filterUnits="userSpaceOnUse" color-interpolation-filters="sRGB">
<feFlood flood-opacity="0" result="BackgroundImageFix"/>
<feColorMatrix in="SourceAlpha" type="matrix" values="0 0 0 0 0 0 0 0 0 0 0 0 0 0 0 0 0 0 127 0"/>
<feOffset dy="6.4"/>
<feGaussianBlur stdDeviation="7.2"/>
<feColorMatrix type="matrix" values="0 0 0 0 0 0 0 0 0 0 0 0 0 0 0 0 0 0 0.13 0"/>
<feBlend mode="normal" in2="BackgroundImageFix" result="effect1_dropShadow"/>
<feColorMatrix in="SourceAlpha" type="matrix" values="0 0 0 0 0 0 0 0 0 0 0 0 0 0 0 0 0 0 127 0"/>
<feOffset dy="1.2"/>
<feGaussianBlur stdDeviation="1.8"/>
<feColorMatrix type="matrix" values="0 0 0 0 0 0 0 0 0 0 0 0 0 0 0 0 0 0 0.1 0"/>
<feBlend mode="normal" in2="effect1_dropShadow" result="effect2_dropShadow"/>
<feBlend mode="normal" in="SourceGraphic" in2="effect2_dropShadow" result="shape"/>
</filter>
<linearGradient id="paint0_linear" x1="165.145" y1="186.305" x2="184.631" y2="186.305" gradientUnits="userSpaceOnUse">
<stop stop-color="white" stop-opacity="0.5"/>
<stop offset="1" stop-color="white"/>
</linearGradient>
<linearGradient id="paint1_linear" x1="165.145" y1="217.581" x2="189.503" y2="217.581" gradientUnits="userSpaceOnUse">
<stop stop-color="white" stop-opacity="0.5"/>
<stop offset="1" stop-color="white"/>
</linearGradient>
<clipPath id="clip0">
<rect width="326" height="415" fill="white"/>
</clipPath>
<clipPath id="clip1">
<rect width="63.1787" height="60" fill="white" transform="translate(133 174)"/>
</clipPath>
</defs>
</svg>
