<svg xmlns="http://www.w3.org/2000/svg" viewBox="0 0 18 18"><defs><linearGradient id="a" x1="5.57" y1="17.5" x2="5.57" y2=".5" gradientUnits="userSpaceOnUse"><stop offset=".05" stop-color="#949494"/><stop offset=".36" stop-color="#979797"/><stop offset=".54" stop-color="#9f9f9f"/><stop offset=".69" stop-color="#adadad"/><stop offset=".73" stop-color="#b3b3b3"/></linearGradient><linearGradient id="b" x1="10.56" y1="6.02" x2="10.56" y2="19.71" gradientUnits="userSpaceOnUse"><stop offset=".18" stop-color="#5ea0ef"/><stop offset="1" stop-color="#0078d4"/></linearGradient></defs><path d="M10.56 16.93a.56.56 0 01-.57.57H1.14a.56.56 0 01-.56-.57V1.07A.56.56 0 011.14.5H10a.56.56 0 01.57.57z" fill="url(#a)"/><path d="M2 6.46a1.08 1.08 0 011.13-1.08h5a1.08 1.08 0 011.05 1.08A1.08 1.08 0 018.1 7.55h-5A1.09 1.09 0 012 6.46zM2 3.24a1.09 1.09 0 011.13-1.09h5a1.08 1.08 0 011.05 1.09A1.08 1.08 0 018.1 4.32h-5A1.08 1.08 0 012 3.24z" fill="#003067"/><circle cx="3.17" cy="3.24" r=".73" fill="#50e6ff"/><circle cx="3.17" cy="6.46" r=".73" fill="#50e6ff"/><path d="M17.42 14.38a3.12 3.12 0 00-2.67-3 3.93 3.93 0 00-4-3.8 4 4 0 00-3.83 2.66 3.7 3.7 0 00-3.22 3.59 3.77 3.77 0 003.86 3.67h6.77a3.15 3.15 0 003.09-3.12z" fill="url(#b)"/><path fill="none" d="M0 0h18v18H0z"/></svg>