<svg width="86" height="68" viewBox="0 0 86 68" fill="none" xmlns="http://www.w3.org/2000/svg">
<rect x="0.5" y="0.5" width="85" height="67" stroke="#C4C4C4"/>
<path d="M42.375 24V34.1864L49.1475 40.9774L47.4775 42.6473L40 35.1884V24H42.375Z" fill="#656565"/>
<path d="M52.5 25.8749H58.0107C57.318 24.4276 56.4521 23.1226 55.4131 21.9599C54.374 20.7971 53.1989 19.7952 51.8877 18.9541C50.5765 18.1129 49.1663 17.4759 47.6572 17.0429C46.1481 16.61 44.5957 16.3873 43 16.375C41.4785 16.375 40.0127 16.5729 38.6025 16.9687C37.1924 17.3646 35.8688 17.9212 34.6318 18.6386C33.3949 19.3561 32.2692 20.2281 31.2549 21.2548C30.2406 22.2815 29.3747 23.401 28.6572 24.6132C27.9398 25.8254 27.377 27.149 26.9688 28.5839C26.5605 30.0187 26.3626 31.4907 26.375 32.9998C26.375 34.5213 26.5729 35.9871 26.9688 37.3973C27.3646 38.8074 27.9212 40.131 28.6387 41.3679C29.3561 42.6049 30.2282 43.7305 31.2549 44.7449C32.2816 45.7592 33.401 46.625 34.6133 47.3425C35.8255 48.0599 37.1491 48.6228 38.584 49.031C40.0189 49.4392 41.4909 49.6371 43 49.6247C44.8555 49.6247 46.6429 49.3278 48.3623 48.7341C50.0817 48.1403 51.6465 47.2992 53.0566 46.2107C54.4668 45.1221 55.6852 43.8419 56.7119 42.3699C57.7386 40.8979 58.5055 39.2527 59.0127 37.4344L61.2949 38.0652C60.7383 40.1186 59.8724 41.9988 58.6973 43.7058C57.5221 45.4128 56.1243 46.8786 54.5039 48.1032C52.8835 49.3278 51.096 50.2865 49.1416 50.9792C47.1872 51.6719 45.14 52.012 43 51.9997C41.2559 51.9997 39.5736 51.777 37.9531 51.3317C36.3327 50.8864 34.8174 50.2494 33.4072 49.4206C31.9971 48.5918 30.7168 47.6023 29.5664 46.4519C28.416 45.3015 27.4264 44.015 26.5977 42.5925C25.7689 41.17 25.1318 39.6609 24.6865 38.0652C24.2412 36.4695 24.0124 34.7811 24 32.9998C24 31.2557 24.2227 29.5734 24.668 27.953C25.1133 26.3326 25.7503 24.8173 26.5791 23.4071C27.4079 21.997 28.3975 20.7167 29.5479 19.5664C30.6982 18.416 31.9847 17.4264 33.4072 16.5976C34.8298 15.7689 36.3389 15.1318 37.9346 14.6865C39.5303 14.2412 41.2188 14.0124 43 14C44.7318 14 46.4141 14.2288 48.0469 14.6865C49.6797 15.1442 51.2135 15.7936 52.6484 16.6347C54.0833 17.4759 55.3945 18.5088 56.582 19.7333C57.7695 20.9579 58.7839 22.3248 59.625 23.8339V18.75H62V28.2499H52.5V25.8749Z" fill="#0078D4"/>
</svg>
