<svg width="86" height="68" viewBox="0 0 86 68" fill="none" xmlns="http://www.w3.org/2000/svg">
<rect x="0.5" y="0.5" width="85" height="67" stroke="#C4C4C4"/>
<g clip-path="url(#clip0)">
<path d="M61.609 36.4726C61.3487 35.7178 60.9844 35.0411 60.5159 34.4164C60.0474 33.7918 59.4748 33.2712 58.8241 32.8288C58.1734 32.3863 57.4446 32.0479 56.6638 31.8397C56.3254 30.7466 55.8049 29.7315 55.1022 28.7945C54.3994 27.8575 53.6446 27.0767 52.7597 26.426C51.8748 25.7493 50.8857 25.2548 49.8186 24.8904C48.7515 24.526 47.6323 24.3699 46.4871 24.3699C45.8624 24.3699 45.2378 24.4219 44.6652 24.5521C44.0926 24.6562 43.4939 24.8123 42.9213 24.9945L42.8433 25.0205C42.8433 24.9164 42.8693 24.8123 42.8693 24.7082C42.8693 24.6041 42.8953 24.5 42.8953 24.3959C42.8953 23.2767 42.6871 22.1836 42.3227 21.1685C41.9583 20.1534 41.4378 19.2164 40.7871 18.3836C40.1364 17.5507 39.3296 16.8479 38.4446 16.2493C37.5076 15.6767 36.5186 15.2603 35.4254 15C35.6076 15.7288 35.6857 16.4575 35.6857 17.1603C35.6857 18.4877 35.4254 19.737 34.9309 20.9342C34.4364 22.1055 33.7597 23.1466 32.8748 24.0055C31.9898 24.8644 30.9748 25.5671 29.8296 26.0616C28.6583 26.5562 27.435 26.8164 26.1076 26.8164C25.4049 26.8164 24.7022 26.7384 23.9734 26.5562C24.2597 27.7534 24.7282 28.8466 25.4049 29.8616C26.0816 30.8767 26.9405 31.7096 27.9556 32.3863C27.357 33.1411 26.8885 33.974 26.5761 34.8849C26.2638 35.7699 26.1076 36.7069 26.1076 37.6959C26.1076 38.8671 26.3419 39.9863 26.7583 41.0014C27.1748 42.0164 27.7734 42.9014 28.5542 43.6822C29.335 44.437 30.22 45.0616 31.235 45.5041C32.2501 45.9466 33.3172 46.1548 34.4885 46.1548H36.0761V43.7342H34.4885C33.6556 43.7342 32.9008 43.5781 32.146 43.2658C31.4172 42.9534 30.7665 42.511 30.246 41.9644C29.6994 41.4178 29.283 40.7671 28.9706 40.0384C28.6583 39.3096 28.5022 38.5288 28.5022 37.6959C28.5022 36.863 28.6583 36.0822 28.9706 35.3274C29.283 34.5986 29.6994 33.9479 30.272 33.4014C30.8186 32.8548 31.4433 32.4384 32.172 32.126C32.9008 31.8137 33.6556 31.6575 34.4885 31.6575C35.2172 31.6575 35.8939 31.8137 36.5706 32.0479C37.2213 32.3082 37.846 32.6726 38.3926 33.1411C38.6528 32.2041 39.0433 31.3452 39.5378 30.5904C40.0323 29.8356 40.6569 29.1589 41.3597 28.5863C42.0885 28.0137 42.8693 27.5973 43.7282 27.2849C44.5871 26.9726 45.498 26.8425 46.4611 26.8425C47.5022 26.8425 48.4912 27.0247 49.4022 27.389C50.3131 27.7534 51.172 28.274 51.9008 28.9247C52.6296 29.5753 53.2542 30.3562 53.7227 31.2151C54.2172 32.1 54.5296 33.037 54.6857 34.0781C55.3624 34.0781 56.0131 34.1822 56.5857 34.4425C57.1583 34.7027 57.7049 35.0411 58.1474 35.4575C58.6159 35.874 58.9542 36.3945 59.2145 36.9932C59.4748 37.5918 59.5789 38.2164 59.5789 38.9192C59.5789 39.5959 59.4487 40.2205 59.2145 40.7932C58.9802 41.3658 58.6419 41.8863 58.1994 42.3288C57.757 42.7712 57.2364 43.1096 56.6638 43.3699C56.0912 43.6301 55.4665 43.7342 54.8159 43.7342H52.4994V46.1548H54.8159C55.8049 46.1548 56.7419 45.9466 57.6008 45.5822C58.4597 45.2178 59.2145 44.6973 59.8912 44.0466C60.5419 43.3959 61.0624 42.6151 61.4528 41.7562C61.8172 40.8712 62.0254 39.9342 62.0254 38.9452C61.9994 38.0342 61.8693 37.2274 61.609 36.4726ZM40.1624 26.4521C39.5898 26.9205 39.0433 27.4151 38.5487 27.9356C38.0542 28.4562 37.6117 29.0288 37.2474 29.6795C36.8049 29.5233 36.3624 29.3932 35.8939 29.3151C35.4254 29.237 34.957 29.211 34.4885 29.211C33.6296 29.211 32.7967 29.3411 32.0159 29.5753C31.235 29.8096 30.4802 30.174 29.7775 30.6425C29.0227 30.2521 28.372 29.7055 27.8254 29.0548C29.1268 28.8726 30.3501 28.4822 31.4953 27.8836C32.6665 27.2849 33.6816 26.5301 34.5665 25.6452C35.4515 24.7603 36.1802 23.7192 36.7789 22.574C37.3515 21.4288 37.7419 20.1795 37.9501 18.8521C38.757 19.5548 39.3816 20.3616 39.8241 21.3247C40.2665 22.2877 40.4748 23.3027 40.4748 24.3699C40.4748 25.0726 40.3706 25.7493 40.1624 26.4521Z" fill="#0778D3"/>
<path d="M44.7178 53L39.5383 47.6384L41.1 46.0247L43.6246 48.6274V36.6028H45.837V48.6535L48.3616 46.0507L49.9233 47.6644L44.7178 53Z" fill="#656565"/>
</g>
<defs>
<clipPath id="clip0">
<rect x="24" y="15" width="38" height="38" fill="white"/>
</clipPath>
</defs>
</svg>
