<svg width="86" height="68" viewBox="0 0 86 68" fill="none" xmlns="http://www.w3.org/2000/svg">
<rect x="0.5" y="0.5" width="85" height="67" stroke="#C4C4C4"/>
<path fill-rule="evenodd" clip-rule="evenodd" d="M41.7018 15.4639C40.5763 15.1546 39.4079 15 38.1965 15C36.9593 15.0086 35.7866 15.1675 34.6783 15.4768C33.57 15.7861 32.5218 16.2286 31.5338 16.8042C30.5458 17.3798 29.6523 18.0672 28.8533 18.8662C28.0543 19.6652 27.3669 20.5544 26.7913 21.5338C26.2157 22.5132 25.7732 23.5657 25.4639 24.6912C25.1546 25.8167 25 26.9851 25 28.1965C25.0086 29.4337 25.1675 30.6064 25.4768 31.7147C25.7861 32.823 26.2286 33.8711 26.8042 34.8592C27.3798 35.8472 28.0672 36.7407 28.8662 37.5397C29.6652 38.3387 30.5544 39.026 31.5338 39.6017C32.3162 40.0615 33.1452 40.4364 34.0209 40.7262L35.4104 37.6314C35.3256 37.4893 35.2448 37.3427 35.168 37.1917C34.9274 36.7192 34.7126 36.2381 34.5236 35.7484C34.3346 35.2587 34.1757 34.7861 34.0468 34.3308C33.9179 33.8754 33.8191 33.4802 33.7504 33.1452H37.4246L38.1652 31.4956H33.4669C33.3896 30.9372 33.3337 30.3873 33.2994 29.846C33.265 29.3048 33.2478 28.7549 33.2478 28.1965C33.2564 27.6294 33.2779 27.0753 33.3122 26.534C33.3466 25.9928 33.3982 25.4472 33.4669 24.8974H41.1277L41.8683 23.2478H33.7504L34.0468 22.0622C34.1585 21.6154 34.3174 21.1429 34.5236 20.6446C34.7298 20.1463 34.9489 19.6609 35.1809 19.1883C35.4129 18.7158 35.6878 18.2905 36.0057 17.9125C36.3235 17.5345 36.6629 17.2295 37.0238 16.9975C37.3846 16.7655 37.7755 16.6496 38.1965 16.6496C38.6347 16.6582 39.0299 16.7741 39.3821 16.9975C39.7344 17.2209 40.0694 17.5259 40.3873 17.9125C40.7052 18.2991 40.9844 18.7287 41.225 19.2012C41.4655 19.6738 41.6803 20.1549 41.8693 20.6446C42.0583 21.1343 42.2173 21.6068 42.3462 22.0622C42.3533 22.0872 42.3603 22.1121 42.3672 22.1368L42.5313 21.7712C42.7672 21.2458 43.1428 20.8117 43.6027 20.5047C43.5589 20.3787 43.5137 20.2535 43.4673 20.1291C43.2783 19.6222 43.0593 19.1282 42.8101 18.6471C42.5609 18.166 42.2817 17.7106 41.9724 17.281C42.6941 17.5388 43.3857 17.861 44.0473 18.2476C44.7088 18.6342 45.3231 19.0852 45.8901 19.6007C46.0332 19.7308 46.173 19.8639 46.3096 20H48.546C48.2293 19.5983 47.8896 19.216 47.5268 18.8533C46.7278 18.0543 45.8386 17.3669 44.8592 16.7913C43.8797 16.2157 42.8273 15.7732 41.7018 15.4639ZM27.1264 31.4956C26.8085 30.4389 26.6496 29.3392 26.6496 28.1965C26.6496 27.0538 26.8085 25.9541 27.1264 24.8974H31.8044C31.7357 25.4558 31.6842 26.0057 31.6498 26.5469C31.6154 27.0882 31.5982 27.638 31.5982 28.1965C31.5982 28.7635 31.6154 29.3177 31.6498 29.8589C31.6842 30.4002 31.7357 30.9458 31.8044 31.4956H27.1264ZM32.3457 18.2476C33.0072 17.8524 33.6989 17.5302 34.4205 17.281C34.1198 17.702 33.8406 18.1574 33.5829 18.6471C33.3251 19.1368 33.1017 19.6351 32.9127 20.142C32.7237 20.6489 32.5605 21.1644 32.423 21.6885C32.2856 22.2125 32.1653 22.7323 32.0622 23.2478H27.7707C28.0972 22.5433 28.4924 21.8861 28.9564 21.2761C29.4203 20.6661 29.9358 20.1076 30.5028 19.6007C31.0699 19.0938 31.6842 18.6428 32.3457 18.2476ZM28.9564 35.104C28.4924 34.494 28.0972 33.8411 27.7707 33.1452H32.0622C32.1567 33.6521 32.277 34.1718 32.423 34.7045C32.5691 35.2372 32.7366 35.757 32.9256 36.2639C33.1146 36.7708 33.3337 37.2648 33.5829 37.7459C33.832 38.227 34.1112 38.6824 34.4205 39.1119C33.6989 38.8542 33.0072 38.532 32.3457 38.1454C31.6842 37.7588 31.0699 37.3077 30.5028 36.7922C29.9358 36.2768 29.4203 35.714 28.9564 35.104Z" fill="#0078D4"/>
<path d="M42.7296 30.8769L42.8035 31.0352L51.2402 53.037C51.4647 53.6224 51.1812 54.2824 50.6071 54.5113C50.0809 54.7211 49.493 54.4957 49.2258 54.0058L49.1612 53.8658L46.9868 48.1953L36.2336 48.1956L36.0909 48.1864L33.7439 53.8915C33.5055 54.4711 32.8514 54.744 32.2829 54.5009C31.7618 54.2781 31.4936 53.6991 31.6361 53.1577L31.6853 53.0113L40.7347 31.0095C41.0998 30.1221 42.2868 30.0844 42.7296 30.8769ZM41.9264 34.4804L37.1283 45.9192H46.3994L41.9264 34.4804Z" fill="#656565"/>
<path d="M58.0687 22.423C58.6449 22.423 59.121 22.8512 59.1964 23.4066L59.2068 23.5611L59.2063 30.7625L61.8622 30.7636C62.4383 30.7636 62.9144 31.1918 62.9898 31.7472L63.0002 31.9017C63.0002 32.4778 62.5721 32.9539 62.0166 33.0293L61.8622 33.0397L59.2063 33.0385L59.2068 44.0406C59.2068 44.6167 58.7786 45.0929 58.2232 45.1682L58.0687 45.1786C57.4926 45.1786 57.0164 44.7505 56.9411 44.195L56.9307 44.0406V23.5611C56.9307 22.9325 57.4402 22.423 58.0687 22.423ZM45.9329 22.423H54.2751C54.8512 22.423 55.3274 22.8512 55.4027 23.4066L55.4131 23.5611V28.1188C55.4131 31.6764 52.5291 34.5604 48.9715 34.5604C48.343 34.5604 47.8335 34.0508 47.8335 33.4223C47.8335 32.7938 48.343 32.2843 48.9715 32.2843C51.1869 32.2843 52.9983 30.5549 53.1295 28.3725L53.1371 28.1188V24.6991H45.9329C45.3044 24.6991 44.7949 24.1896 44.7949 23.5611C44.7949 22.9849 45.2231 22.5088 45.7785 22.4334L45.9329 22.423Z" fill="#656565"/>
</svg>
