<svg width="86" height="68" viewBox="0 0 86 68" fill="none" xmlns="http://www.w3.org/2000/svg">
<rect x="37.4264" y="8" width="35.4565" height="4" fill="#656565"/>
<rect x="37.4264" y="20" width="31.5169" height="4" fill="#0078D4"/>
<rect x="37.4264" y="44" width="31.5169" height="4" fill="#0078D4"/>
<rect x="37.4264" y="56" width="35.4565" height="4" fill="#0078D4"/>
<rect x="37.4264" y="32" width="35.4565" height="4" fill="#656565"/>
<rect x="0.5" y="0.5" width="85" height="67" stroke="#C4C4C4"/>
<path d="M12.0622 17.1855C11.0568 17.1855 10.2713 16.7686 9.70573 15.9346C9.14467 15.1006 8.86414 13.8952 8.86414 12.3184C8.86414 10.5866 9.15813 9.27637 9.74612 8.3877C10.3341 7.49902 11.1824 7.05469 12.2911 7.05469C14.4142 7.05469 15.4757 8.72949 15.4757 12.0791C15.4757 13.738 15.175 15.0049 14.5735 15.8799C13.9765 16.7503 13.1394 17.1855 12.0622 17.1855ZM12.217 8.31934C11.0455 8.31934 10.4598 9.62956 10.4598 12.25C10.4598 14.7018 11.0343 15.9277 12.1834 15.9277C13.3145 15.9277 13.88 14.6813 13.88 12.1885C13.88 9.60905 13.3257 8.31934 12.217 8.31934Z" fill="#0078D4"/>
<path d="M20.1415 7V17.0215H18.5795V8.94141C18.2967 9.14648 17.9915 9.32194 17.6638 9.46777C17.3407 9.60905 16.9704 9.73438 16.5529 9.84375V8.49023C16.8133 8.40365 17.0646 8.3125 17.307 8.2168C17.5494 8.12109 17.7873 8.014 18.0207 7.89551C18.2586 7.77702 18.4964 7.64486 18.7343 7.49902C18.9767 7.35319 19.2258 7.18685 19.4817 7H20.1415Z" fill="#0078D4"/>
<path d="M12.0622 39.3164C11.0568 39.3164 10.2713 38.8994 9.70573 38.0654C9.14467 37.2314 8.86414 36.026 8.86414 34.4492C8.86414 32.7174 9.15813 31.4072 9.74612 30.5186C10.3341 29.6299 11.1824 29.1855 12.2911 29.1855C14.4142 29.1855 15.4757 30.8604 15.4757 34.21C15.4757 35.8688 15.175 37.1357 14.5735 38.0107C13.9765 38.8812 13.1394 39.3164 12.0622 39.3164ZM12.217 30.4502C11.0455 30.4502 10.4598 31.7604 10.4598 34.3809C10.4598 36.8327 11.0343 38.0586 12.1834 38.0586C13.3145 38.0586 13.88 36.8122 13.88 34.3193C13.88 31.7399 13.3257 30.4502 12.217 30.4502Z" fill="#0078D4"/>
<path d="M22.7201 39.1523H16.6606V38.3936C16.6606 38.0837 16.7033 37.7943 16.7886 37.5254C16.8739 37.252 16.9883 36.9967 17.1319 36.7598C17.2756 36.5182 17.4439 36.2926 17.6369 36.083C17.8299 35.8688 18.0364 35.6637 18.2563 35.4678C18.4762 35.2673 18.7007 35.0758 18.9296 34.8936C19.1585 34.7067 19.3829 34.5199 19.6029 34.333C19.8093 34.1553 19.9978 33.9821 20.1684 33.8135C20.339 33.6403 20.4848 33.4626 20.606 33.2803C20.7272 33.098 20.8215 32.9066 20.8888 32.7061C20.9561 32.501 20.9898 32.2799 20.9898 32.043C20.9898 31.7832 20.9494 31.5576 20.8686 31.3662C20.7923 31.1702 20.6823 31.0085 20.5387 30.8809C20.3996 30.7487 20.2335 30.6507 20.0405 30.5869C19.8475 30.5186 19.6365 30.4844 19.4076 30.4844C19.0126 30.4844 18.6109 30.5778 18.2024 30.7646C17.794 30.9515 17.4013 31.2318 17.0242 31.6055V30.0811C17.2217 29.9307 17.4214 29.8008 17.6234 29.6914C17.8254 29.5775 18.0341 29.484 18.2496 29.4111C18.465 29.3337 18.6917 29.2767 18.9296 29.2402C19.1675 29.2038 19.4211 29.1855 19.6904 29.1855C20.1258 29.1855 20.5208 29.2448 20.8753 29.3633C21.2299 29.4772 21.5329 29.6481 21.7843 29.876C22.0356 30.0993 22.2286 30.3796 22.3633 30.7168C22.5024 31.054 22.572 31.4414 22.572 31.8789C22.572 32.2754 22.5226 32.6331 22.4239 32.9521C22.3296 33.2666 22.1927 33.5605 22.0132 33.834C21.8381 34.1074 21.6249 34.3672 21.3736 34.6133C21.1222 34.8594 20.8417 35.1123 20.532 35.3721C20.2716 35.5863 20.0113 35.7959 19.751 36.001C19.4951 36.2015 19.264 36.3997 19.0575 36.5957C18.851 36.7871 18.6827 36.9808 18.5525 37.1768C18.4269 37.3682 18.364 37.5618 18.364 37.7578V37.792H22.7201V39.1523Z" fill="#0078D4"/>
<path d="M12.0622 61.4473C11.0568 61.4473 10.2713 61.0303 9.70573 60.1963C9.14467 59.3623 8.86414 58.1569 8.86414 56.5801C8.86414 54.8483 9.15813 53.5381 9.74612 52.6494C10.3341 51.7607 11.1824 51.3164 12.2911 51.3164C14.4142 51.3164 15.4757 52.9912 15.4757 56.3408C15.4757 57.9997 15.175 59.2666 14.5735 60.1416C13.9765 61.012 13.1394 61.4473 12.0622 61.4473ZM12.217 52.5811C11.0455 52.5811 10.4598 53.8913 10.4598 56.5117C10.4598 58.9635 11.0343 60.1895 12.1834 60.1895C13.3145 60.1895 13.88 58.943 13.88 56.4502C13.88 53.8708 13.3257 52.5811 12.217 52.5811Z" fill="#0078D4"/>
<path d="M16.829 60.9209V59.4307C17.4574 59.9365 18.1665 60.1895 18.9565 60.1895C19.5984 60.1895 20.1101 60.0413 20.4916 59.7451C20.8776 59.4489 21.0706 59.0479 21.0706 58.542C21.0706 57.43 20.2335 56.874 18.5593 56.874H17.8119V55.6025H18.5256C20.0113 55.6025 20.7542 55.0785 20.7542 54.0303C20.7542 53.0641 20.1751 52.5811 19.0171 52.5811C18.3708 52.5811 17.7626 52.8158 17.1925 53.2852V51.877C17.8479 51.5033 18.6221 51.3164 19.5153 51.3164C20.3726 51.3164 21.0594 51.5352 21.5755 51.9727C22.0917 52.4102 22.3498 52.9707 22.3498 53.6543C22.3498 54.944 21.7035 55.7734 20.4108 56.1426V56.1699C21.1065 56.2383 21.6563 56.4867 22.0603 56.915C22.4643 57.3389 22.6663 57.8698 22.6663 58.5078C22.6663 59.3874 22.3408 60.0983 21.69 60.6406C21.0392 61.1784 20.1819 61.4473 19.1181 61.4473C18.162 61.4473 17.399 61.2718 16.829 60.9209Z" fill="#0078D4"/>
</svg>
