<svg width="86" height="68" viewBox="0 0 86 68" fill="none" xmlns="http://www.w3.org/2000/svg">
<rect x="0.5" y="0.5" width="85" height="67" stroke="#C4C4C4"/>
<g clip-path="url(#clip0)">
<path d="M61.6089 36.4726C61.3486 35.7178 60.9842 35.0411 60.5157 34.4164C60.0472 33.7918 59.4746 33.2712 58.824 32.8288C58.1733 32.3863 57.4445 32.0479 56.6637 31.8397C56.3253 30.7466 55.8048 29.7315 55.102 28.7945C54.3993 27.8575 53.6445 27.0767 52.7596 26.426C51.8746 25.7493 50.8856 25.2548 49.8185 24.8904C48.7514 24.526 47.6322 24.3699 46.487 24.3699C45.8623 24.3699 45.2377 24.4219 44.665 24.5521C44.0924 24.6562 43.4938 24.8123 42.9212 24.9945L42.8431 25.0205C42.8431 24.9164 42.8692 24.8123 42.8692 24.7082C42.8692 24.6041 42.8952 24.5 42.8952 24.3959C42.8952 23.2767 42.687 22.1836 42.3226 21.1685C41.9582 20.1534 41.4377 19.2164 40.787 18.3836C40.1363 17.5507 39.3294 16.8479 38.4445 16.2493C37.5075 15.6767 36.5185 15.2603 35.4253 15C35.6075 15.7288 35.6856 16.4575 35.6856 17.1603C35.6856 18.4877 35.4253 19.737 34.9308 20.9342C34.4363 22.1055 33.7596 23.1466 32.8746 24.0055C31.9897 24.8644 30.9746 25.5671 29.8294 26.0616C28.6582 26.5562 27.4349 26.8164 26.1075 26.8164C25.4048 26.8164 24.702 26.7384 23.9733 26.5562C24.2596 27.7534 24.7281 28.8466 25.4048 29.8616C26.0815 30.8767 26.9404 31.7096 27.9555 32.3863C27.3568 33.1411 26.8883 33.974 26.576 34.8849C26.2637 35.7699 26.1075 36.7069 26.1075 37.6959C26.1075 38.8671 26.3418 39.9863 26.7582 41.0014C27.1746 42.0164 27.7733 42.9014 28.5541 43.6822C29.3349 44.437 30.2198 45.0616 31.2349 45.5041C32.25 45.9466 33.3171 46.1548 34.4883 46.1548H36.076V43.7342H34.4883C33.6555 43.7342 32.9007 43.5781 32.1459 43.2658C31.4171 42.9534 30.7664 42.511 30.2459 41.9644C29.6993 41.4178 29.2829 40.7671 28.9705 40.0384C28.6582 39.3096 28.502 38.5288 28.502 37.6959C28.502 36.863 28.6582 36.0822 28.9705 35.3274C29.2829 34.5986 29.6993 33.9479 30.2719 33.4014C30.8185 32.8548 31.4431 32.4384 32.1719 32.126C32.9007 31.8137 33.6555 31.6575 34.4883 31.6575C35.2171 31.6575 35.8938 31.8137 36.5705 32.0479C37.2212 32.3082 37.8459 32.6726 38.3924 33.1411C38.6527 32.2041 39.0431 31.3452 39.5377 30.5904C40.0322 29.8356 40.6568 29.1589 41.3596 28.5863C42.0883 28.0137 42.8692 27.5973 43.7281 27.2849C44.587 26.9726 45.4979 26.8425 46.4609 26.8425C47.502 26.8425 48.4911 27.0247 49.402 27.389C50.313 27.7534 51.1719 28.274 51.9007 28.9247C52.6294 29.5753 53.2541 30.3562 53.7226 31.2151C54.2171 32.1 54.5294 33.037 54.6856 34.0781C55.3623 34.0781 56.013 34.1822 56.5856 34.4425C57.1582 34.7027 57.7048 35.0411 58.1472 35.4575C58.6157 35.874 58.9541 36.3945 59.2144 36.9932C59.4746 37.5918 59.5788 38.2164 59.5788 38.9192C59.5788 39.5959 59.4486 40.2205 59.2144 40.7932C58.9801 41.3658 58.6418 41.8863 58.1993 42.3288C57.7568 42.7712 57.2363 43.1096 56.6637 43.3699C56.0911 43.6301 55.4664 43.7342 54.8157 43.7342H52.4993V46.1548H54.8157C55.8048 46.1548 56.7418 45.9466 57.6007 45.5822C58.4596 45.2178 59.2144 44.6973 59.8911 44.0466C60.5418 43.3959 61.0623 42.6151 61.4527 41.7562C61.8171 40.8712 62.0253 39.9342 62.0253 38.9452C61.9993 38.0342 61.8692 37.2274 61.6089 36.4726ZM40.1623 26.4521C39.5897 26.9205 39.0431 27.4151 38.5486 27.9356C38.0541 28.4562 37.6116 29.0288 37.2472 29.6795C36.8048 29.5233 36.3623 29.3932 35.8938 29.3151C35.4253 29.237 34.9568 29.211 34.4883 29.211C33.6294 29.211 32.7966 29.3411 32.0157 29.5753C31.2349 29.8096 30.4801 30.174 29.7774 30.6425C29.0226 30.2521 28.3719 29.7055 27.8253 29.0548C29.1267 28.8726 30.35 28.4822 31.4952 27.8836C32.6664 27.2849 33.6815 26.5301 34.5664 25.6452C35.4513 24.7603 36.1801 23.7192 36.7787 22.574C37.3513 21.4288 37.7418 20.1795 37.95 18.8521C38.7568 19.5548 39.3815 20.3616 39.824 21.3247C40.2664 22.2877 40.4746 23.3027 40.4746 24.3699C40.4746 25.0726 40.3705 25.7493 40.1623 26.4521Z" fill="#0778D3"/>
<path d="M44.7178 53L39.5383 47.6383L41.1 46.0246L43.6246 48.6274V36.6027H45.837V48.6534L48.3616 46.0507L49.9233 47.6644L44.7178 53Z" fill="#656565"/>
</g>
<defs>
<clipPath id="clip0">
<rect width="38" height="38" fill="white" transform="translate(24 15)"/>
</clipPath>
</defs>
</svg>
