<svg xmlns="http://www.w3.org/2000/svg" viewBox="0 0 18 18"><defs><radialGradient id="a" cx="55.71" cy="71.92" r="9" gradientTransform="matrix(.94 0 0 .94 -43.61 -58.92)" gradientUnits="userSpaceOnUse"><stop offset=".67" stop-color="#6bb9f2"/><stop offset=".74" stop-color="#61b4f1"/><stop offset=".85" stop-color="#47a8ef"/><stop offset=".99" stop-color="#1d94eb"/><stop offset="1" stop-color="#1b93eb"/></radialGradient></defs><path d="M9 .5A8.5 8.5 0 1017.5 9 8.5 8.5 0 009 .5z" fill="url(#a)"/><circle cx="9" cy="9" r="7.03" fill="#fff"/><circle cx="7.45" cy="9" r=".77" fill="#32bedd"/><path d="M5.26 6.8h-.38a.29.29 0 00-.29.29v5.72a.59.59 0 00.59.59h5.57a.29.29 0 00.29-.3v-.38a.29.29 0 00-.29-.29h-5a.14.14 0 01-.14-.15V7.09a.29.29 0 00-.35-.29z" fill="#32bedd"/><circle cx="10.55" cy="9" r=".77" fill="#32bedd"/><path d="M12.42 4.6H7.23a.29.29 0 00-.29.3v.38a.29.29 0 00.29.29h5a.15.15 0 01.15.15v5.19a.29.29 0 00.29.29h.38a.29.29 0 00.29-.29V5.19a.59.59 0 00-.58-.59z" fill="#32bedd"/></svg>