<svg width="48" height="48" viewBox="0 0 48 48" fill="none" xmlns="http://www.w3.org/2000/svg">
<rect width="48" height="48" fill="#0078D4"/>
<path d="M12 28.5517V36H19.4483V28.5517H12Z" fill="white"/>
<path d="M20.2759 22.0122V25.9882C20.2759 26.9588 21.0599 27.7242 22.0119 27.7242H25.9881C26.9588 27.7242 27.7242 26.9402 27.7242 25.9882V22.0122C27.7242 21.0415 26.9401 20.2762 25.9881 20.2762H22.0119C21.0412 20.2575 20.2759 21.0415 20.2759 22.0122Z" fill="white"/>
<path d="M28.5517 15.7242C28.5517 17.7931 30.2131 19.4483 32.2478 19.4483H32.3038C34.3572 19.4483 36 17.7743 36 15.7242C36 13.6553 34.3386 12.0002 32.3038 12.0002H32.2478C30.2131 11.9813 28.5517 13.6553 28.5517 15.7242Z" fill="#54C8E8"/>
</svg>
