<svg width="48" height="48" viewBox="0 0 48 48" fill="none" xmlns="http://www.w3.org/2000/svg">
<rect width="48" height="48" fill="#0078D4"/>
<path d="M30.75 22.5H24C21.0938 22.5 18.75 20.1562 18.75 17.25C18.75 14.3438 21.0938 12 24 12H30.75C33.6562 12 36 14.3438 36 17.25C36 20.1562 33.6375 22.5 30.75 22.5Z" fill="white"/>
<path d="M24 36H17.25C14.3438 36 12 33.6562 12 30.75C12 27.8438 14.3438 25.5 17.25 25.5H24C26.9062 25.5 29.25 27.8438 29.25 30.75C29.25 33.6562 26.8875 36 24 36Z" fill="#54C8E8"/>
<path d="M16.875 31.875C17.4963 31.875 18 31.3713 18 30.75C18 30.1287 17.4963 29.625 16.875 29.625C16.2537 29.625 15.75 30.1287 15.75 30.75C15.75 31.3713 16.2537 31.875 16.875 31.875Z" fill="white"/>
<path d="M20.625 31.875C21.2463 31.875 21.75 31.3713 21.75 30.75C21.75 30.1287 21.2463 29.625 20.625 29.625C20.0037 29.625 19.5 30.1287 19.5 30.75C19.5 31.3713 20.0037 31.875 20.625 31.875Z" fill="white"/>
<path d="M24.3749 31.875C24.9963 31.875 25.4999 31.3713 25.4999 30.75C25.4999 30.1287 24.9963 29.625 24.3749 29.625C23.7536 29.625 23.2499 30.1287 23.2499 30.75C23.2499 31.3713 23.7536 31.875 24.3749 31.875Z" fill="white"/>
<path d="M23.625 18.375C24.2463 18.375 24.75 17.8713 24.75 17.25C24.75 16.6287 24.2463 16.125 23.625 16.125C23.0037 16.125 22.5 16.6287 22.5 17.25C22.5 17.8713 23.0037 18.375 23.625 18.375Z" fill="#54C8E8"/>
<path d="M27.3749 18.375C27.9963 18.375 28.4999 17.8713 28.4999 17.25C28.4999 16.6287 27.9963 16.125 27.3749 16.125C26.7536 16.125 26.2499 16.6287 26.2499 17.25C26.2499 17.8713 26.7536 18.375 27.3749 18.375Z" fill="#54C8E8"/>
<path d="M31.1249 18.375C31.7463 18.375 32.2499 17.8713 32.2499 17.25C32.2499 16.6287 31.7463 16.125 31.1249 16.125C30.5036 16.125 29.9999 16.6287 29.9999 17.25C29.9999 17.8713 30.5036 18.375 31.1249 18.375Z" fill="#54C8E8"/>
<path d="M19.3123 18.5441L18.0186 17.2503L19.3123 15.9565V18.5441Z" fill="white"/>
<path d="M28.7067 29.4565L30.0005 30.7503L28.7067 32.0441V29.4565Z" fill="#54C8E8"/>
</svg>
