<svg width="48" height="48" viewBox="0 0 48 48" fill="none" xmlns="http://www.w3.org/2000/svg">
<rect width="48" height="48" fill="#0078D4"/>
<path d="M28.5 21.019C29.3284 21.019 30 20.3475 30 19.519C30 18.6906 29.3284 18.019 28.5 18.019C27.6716 18.019 27 18.6906 27 19.519C27 20.3475 27.6716 21.019 28.5 21.019Z" fill="white"/>
<path d="M28.5 30C29.3284 30 30 29.3284 30 28.5C30 27.6716 29.3284 27 28.5 27C27.6716 27 27 27.6716 27 28.5C27 29.3284 27.6716 30 28.5 30Z" fill="white"/>
<path d="M19.5 21.019C20.3284 21.019 21 20.3475 21 19.519C21 18.6906 20.3284 18.019 19.5 18.019C18.6716 18.019 18 18.6906 18 19.519C18 20.3475 18.6716 21.019 19.5 21.019Z" fill="white"/>
<path d="M19.5 30C20.3284 30 21 29.3284 21 28.5C21 27.6716 20.3284 27 19.5 27C18.6716 27 18 27.6716 18 28.5C18 29.3284 18.6716 30 19.5 30Z" fill="white"/>
<path d="M24 20.25C25.2426 20.25 26.25 19.2426 26.25 18C26.25 16.7574 25.2426 15.75 24 15.75C22.7574 15.75 21.75 16.7574 21.75 18C21.75 19.2426 22.7574 20.25 24 20.25Z" fill="white"/>
<path d="M24 32.25C25.2426 32.25 26.25 31.2426 26.25 30C26.25 28.7574 25.2426 27.75 24 27.75C22.7574 27.75 21.75 28.7574 21.75 30C21.75 31.2426 22.7574 32.25 24 32.25Z" fill="white"/>
<path d="M24 14.25C24.6213 14.25 25.125 13.7463 25.125 13.125C25.125 12.5037 24.6213 12 24 12C23.3787 12 22.875 12.5037 22.875 13.125C22.875 13.7463 23.3787 14.25 24 14.25Z" fill="white"/>
<path d="M24 36C24.6213 36 25.125 35.4963 25.125 34.875C25.125 34.2537 24.6213 33.75 24 33.75C23.3787 33.75 22.875 34.2537 22.875 34.875C22.875 35.4963 23.3787 36 24 36Z" fill="white"/>
<path d="M24 14.25C24.6213 14.25 25.125 13.7463 25.125 13.125C25.125 12.5037 24.6213 12 24 12C23.3787 12 22.875 12.5037 22.875 13.125C22.875 13.7463 23.3787 14.25 24 14.25Z" fill="#54C8E8"/>
<path d="M24 36C24.6213 36 25.125 35.4963 25.125 34.875C25.125 34.2537 24.6213 33.75 24 33.75C23.3787 33.75 22.875 34.2537 22.875 34.875C22.875 35.4963 23.3787 36 24 36Z" fill="#54C8E8"/>
<path d="M18 26.25C19.2426 26.25 20.25 25.2426 20.25 24C20.25 22.7574 19.2426 21.75 18 21.75C16.7574 21.75 15.75 22.7574 15.75 24C15.75 25.2426 16.7574 26.25 18 26.25Z" fill="white"/>
<path d="M30 26.25C31.2426 26.25 32.25 25.2426 32.25 24C32.25 22.7574 31.2426 21.75 30 21.75C28.7574 21.75 27.75 22.7574 27.75 24C27.75 25.2426 28.7574 26.25 30 26.25Z" fill="white"/>
<path d="M13.125 25.125C13.7463 25.125 14.25 24.6213 14.25 24C14.25 23.3787 13.7463 22.875 13.125 22.875C12.5037 22.875 12 23.3787 12 24C12 24.6213 12.5037 25.125 13.125 25.125Z" fill="white"/>
<path d="M34.875 25.125C35.4963 25.125 36 24.6213 36 24C36 23.3787 35.4963 22.875 34.875 22.875C34.2537 22.875 33.75 23.3787 33.75 24C33.75 24.6213 34.2537 25.125 34.875 25.125Z" fill="white"/>
<path d="M24 26.25C25.2426 26.25 26.25 25.2426 26.25 24C26.25 22.7574 25.2426 21.75 24 21.75C22.7574 21.75 21.75 22.7574 21.75 24C21.75 25.2426 22.7574 26.25 24 26.25Z" fill="white"/>
<path d="M13.125 25.125C13.7463 25.125 14.25 24.6213 14.25 24C14.25 23.3787 13.7463 22.875 13.125 22.875C12.5037 22.875 12 23.3787 12 24C12 24.6213 12.5037 25.125 13.125 25.125Z" fill="#54C8E8"/>
<path d="M34.875 25.125C35.4963 25.125 36 24.6213 36 24C36 23.3787 35.4963 22.875 34.875 22.875C34.2537 22.875 33.75 23.3787 33.75 24C33.75 24.6213 34.2537 25.125 34.875 25.125Z" fill="#54C8E8"/>
<path d="M31.875 17.25C32.4963 17.25 33 16.7463 33 16.125C33 15.5037 32.4963 15 31.875 15C31.2537 15 30.75 15.5037 30.75 16.125C30.75 16.7463 31.2537 17.25 31.875 17.25Z" fill="#54C8E8"/>
<path d="M16.125 33C16.7463 33 17.25 32.4963 17.25 31.875C17.25 31.2537 16.7463 30.75 16.125 30.75C15.5037 30.75 15 31.2537 15 31.875C15 32.4963 15.5037 33 16.125 33Z" fill="#54C8E8"/>
<path d="M16.125 17.25C16.7463 17.25 17.25 16.7463 17.25 16.125C17.25 15.5037 16.7463 15 16.125 15C15.5037 15 15 15.5037 15 16.125C15 16.7463 15.5037 17.25 16.125 17.25Z" fill="#54C8E8"/>
<path d="M31.875 33C32.4963 33 33 32.4963 33 31.875C33 31.2537 32.4963 30.75 31.875 30.75C31.2537 30.75 30.75 31.2537 30.75 31.875C30.75 32.4963 31.2537 33 31.875 33Z" fill="#54C8E8"/>
</svg>
