<svg width="48" height="48" viewBox="0 0 48 48" fill="none" xmlns="http://www.w3.org/2000/svg">
<rect width="48" height="48" fill="#0078D4"/>
<path d="M24 14.25C29.3813 14.25 33.75 18.6187 33.75 24C33.75 29.3813 29.3813 33.75 24 33.75C18.6187 33.75 14.25 29.3813 14.25 24C14.25 18.6187 18.6187 14.25 24 14.25ZM24 12C17.3813 12 12 17.3813 12 24C12 30.6187 17.3813 36 24 36C30.6187 36 36 30.6187 36 24C36 17.3813 30.6187 12 24 12Z" fill="white"/>
<path fill-rule="evenodd" clip-rule="evenodd" d="M25.8643 17.252L25.4914 18.1867C25.0018 18.0585 24.501 18 24.0002 18C23.4358 18 22.8788 18.0801 22.3449 18.2334L21.9512 17.3173L20.5386 17.9243L20.9333 18.8429C20.0433 19.3709 19.2842 20.1317 18.7575 21.0817L17.8206 20.708L17.251 22.136L18.1911 22.5111C17.9244 23.5626 17.9554 24.6368 18.2406 25.6322L17.3096 26.0322L17.9166 27.4449L18.8482 27.0446C19.3755 27.9374 20.1357 28.7007 21.0851 29.2325L20.707 30.1803L22.1351 30.75L22.5087 29.8132C22.9984 29.9415 23.4993 30 24.0002 30C24.5581 30 25.1089 29.9218 25.6372 29.7718L26.04 30.7092L27.4527 30.1022L27.0507 29.1668C27.9474 28.6387 28.7123 27.8748 29.2422 26.9195L30.1793 27.2933L30.749 25.8653L29.8089 25.4903C30.0775 24.4323 30.0447 23.3512 29.7549 22.3507L30.7015 21.9439L30.0945 20.5313L29.1431 20.9401C28.6161 20.0538 27.8591 19.2961 26.9151 18.7674L27.2923 17.8216L25.8643 17.252ZM24.0002 20.25C24.469 20.25 24.9377 20.3438 25.3877 20.5125C26.3252 20.8875 27.0564 21.6 27.4502 22.5187C27.844 23.4375 27.8627 24.45 27.4877 25.3875C26.9064 26.8313 25.5377 27.75 24.0002 27.75C23.5315 27.75 23.0627 27.6562 22.6127 27.4875C20.7002 26.7188 19.7627 24.5437 20.5127 22.6125C21.094 21.1687 22.4627 20.25 24.0002 20.25Z" fill="#54C8E8"/>
</svg>
