<?xml version="1.0"?>
<svg width="48" height="48" xmlns="http://www.w3.org/2000/svg" xmlns:svg="http://www.w3.org/2000/svg">
 <g class="layer">
  <title>Layer 1</title>
  <rect fill="#0078D4" height="48" id="svg_1" width="48" x="-0.049727" y="0"/>
  <path d="m40.351318,6.878171l-30.821234,0l0,23.801092l30.821234,0l0,-23.801092z" fill="white" id="svg_2"/>
  <path d="m25.023248,9.927897l-12,0l0,2.25l12,0l0,-2.25z" fill="#0078D4" id="svg_3"/>
  <path d="m19.603059,13.280085l-6.430632,0l0,2.25l6.430632,0l0,-2.25z" fill="#54C8E8" id="svg_4"/>
  <path d="m32.333043,13.350324l-12,0l0,2.25l12,0l0,-2.25z" fill="#54C8E8" id="svg_5"/>
  <path d="m28.603555,17.000871l-15.480855,0l0,2.25l15.480855,0l0,-2.25z" fill="#54C8E8" id="svg_6"/>
  <text fill="#ffffff" font-family="Sans-serif" font-size="7" font-weight="bold" id="svg_8" stroke="#000000" stroke-width="0" text-anchor="middle" transform="matrix(0.965366 0 0 1 1.31772 0)" x="24.350165" xml:space="preserve" y="38.399798">S U B M I T</text>
  <path d="m38.034809,9.925224l-12,0l0,2.25l12,0l0,-2.25z" fill="#0078D4" id="svg_11"/>
  <path d="m38.084536,16.986388l-8.618598,0l0,2.25l8.618598,0l0,-2.25z" fill="#54C8E8" id="svg_12"/>
  <path d="m38.034808,13.406079l-5.03829,0l0,2.25l5.03829,0l0,-2.25z" fill="#54C8E8" id="svg_13"/>
  <path d="m26.49826,20.616422l-13.392342,0l0,2.25l13.392342,0l0,-2.25z" fill="#67b3c6" id="svg_14"/>
  <path d="m38.084535,20.616421l-10.906017,0l0,2.25l10.906017,0l0,-2.25z" fill="#67b3c6" id="svg_15"/>
  <path d="m22.072601,24.097277l-8.916957,0l0,2.25l8.916957,0l0,-2.25z" fill="#98d3e2" id="svg_16"/>
  <path d="m33.012432,24.047551l-10.259573,0l0,2.25l10.259573,0l0,-2.25z" fill="#98d3e2" id="svg_17"/>
  <path d="m38.009945,24.047552l-4.342118,0l0,2.25l4.342118,0l0,-2.25z" fill="#98d3e2" id="svg_18"/>
 </g>
</svg>