<svg width="48" height="48" viewBox="0 0 48 48" fill="none" xmlns="http://www.w3.org/2000/svg">
<rect width="48" height="48" fill="#0078D4"/>
<path d="M29.94 24.36L28.46 25.84L30.4 27.94H24.24V16.02L26.18 17.96L27.66 16.46L23.22 12L18.76 16.46L20.24 17.94L22.16 16.04V22.16H16.02L17.94 20.24L16.46 18.74L12 23.2L16.46 27.66L17.94 26.18L16.02 24.24H22.16V36H24.24V30.04H30.4L28.46 31.8L29.94 33.28L34.4 28.82L29.94 24.36Z" fill="white"/>
<path d="M24.2399 30.04H30.3999L28.4599 31.8L29.9399 33.28L34.3999 28.8199L29.9399 24.36L28.4599 25.84L30.3999 27.94H24.2399V30.04Z" fill="#54C8E8"/>
</svg>
