<svg width="48" height="48" viewBox="0 0 48 48" fill="none" xmlns="http://www.w3.org/2000/svg">
<rect width="48" height="48" fill="#0078D4"/>
<path d="M14.25 14.25H33.75L14.25 33.75H33.75" stroke="#54C8E8" stroke-width="2" stroke-miterlimit="10"/>
<path d="M14.25 16.5C15.4926 16.5 16.5 15.4926 16.5 14.25C16.5 13.0074 15.4926 12 14.25 12C13.0074 12 12 13.0074 12 14.25C12 15.4926 13.0074 16.5 14.25 16.5Z" fill="white"/>
<path d="M33.75 36C34.9926 36 36 34.9926 36 33.75C36 32.5074 34.9926 31.5 33.75 31.5C32.5074 31.5 31.5 32.5074 31.5 33.75C31.5 34.9926 32.5074 36 33.75 36Z" fill="#54C8E8"/>
<path d="M33.75 16.5C34.9926 16.5 36 15.4926 36 14.25C36 13.0074 34.9926 12 33.75 12C32.5074 12 31.5 13.0074 31.5 14.25C31.5 15.4926 32.5074 16.5 33.75 16.5Z" fill="white"/>
<path d="M14.25 36C15.4926 36 16.5 34.9926 16.5 33.75C16.5 32.5074 15.4926 31.5 14.25 31.5C13.0074 31.5 12 32.5074 12 33.75C12 34.9926 13.0074 36 14.25 36Z" fill="white"/>
<path d="M22.8039 27.0722V19.2678C22.8039 19.07 22.7457 18.8956 22.6643 18.7327C22.6527 18.7095 22.6411 18.6862 22.6294 18.663C22.3968 18.2675 21.9665 18 21.478 18C20.8034 18 20.2451 18.5001 20.152 19.1515C20.0939 19.1398 20.0241 19.1398 19.9659 19.1398C18.9191 19.1398 18.0701 19.9889 18.0701 21.0473C18.0701 21.2102 18.0933 21.3614 18.1282 21.5126C17.4304 22.2919 17 23.3154 17 24.432C17 26.2929 18.1747 27.8864 19.8147 28.5028C19.8147 28.5261 19.8147 28.5494 19.8263 28.5726C19.9659 29.317 20.5707 29.9218 21.3268 30.073C21.7455 30.1544 22.1409 30.0963 22.4782 29.9451C22.6876 29.852 22.8155 29.6543 22.8155 29.4333L22.8039 27.0722Z" fill="white"/>
<path d="M23.2691 27.0722V19.2678C23.2691 19.07 23.3273 18.8956 23.4087 18.7327C23.4203 18.7095 23.432 18.6862 23.4436 18.663C23.6762 18.2675 24.1066 18 24.5951 18C25.2697 18 25.828 18.5001 25.921 19.1515C25.9792 19.1398 26.049 19.1398 26.1071 19.1398C27.1539 19.1398 28.003 19.9889 28.003 21.0473C28.003 21.2102 27.9797 21.3614 27.9448 21.5126C28.6427 22.2919 29.073 23.3154 29.073 24.432C29.073 26.2929 27.8983 27.8864 26.2583 28.5028C26.2583 28.5261 26.2583 28.5494 26.2467 28.5726C26.1071 29.317 25.5023 29.9218 24.7463 30.073C24.3276 30.1544 23.9321 30.0963 23.5948 29.9451C23.3855 29.852 23.2575 29.6543 23.2575 29.4333L23.2691 27.0722Z" fill="white"/>
</svg>
