<svg width="48" height="48" viewBox="0 0 48 48" fill="none" xmlns="http://www.w3.org/2000/svg">
<rect width="48" height="48" fill="#0078D4"/>
<path d="M14.25 14.25H33.75L14.25 33.75H33.75" stroke="#54C8E8" stroke-width="2" stroke-miterlimit="10"/>
<path d="M14.25 16.5C15.4926 16.5 16.5 15.4926 16.5 14.25C16.5 13.0074 15.4926 12 14.25 12C13.0074 12 12 13.0074 12 14.25C12 15.4926 13.0074 16.5 14.25 16.5Z" fill="white"/>
<path d="M24 26.25C25.2426 26.25 26.25 25.2426 26.25 24C26.25 22.7574 25.2426 21.75 24 21.75C22.7574 21.75 21.75 22.7574 21.75 24C21.75 25.2426 22.7574 26.25 24 26.25Z" fill="white"/>
<path d="M33.75 36C34.9926 36 36 34.9926 36 33.75C36 32.5074 34.9926 31.5 33.75 31.5C32.5074 31.5 31.5 32.5074 31.5 33.75C31.5 34.9926 32.5074 36 33.75 36Z" fill="#54C8E8"/>
<path d="M33.75 16.5C34.9926 16.5 36 15.4926 36 14.25C36 13.0074 34.9926 12 33.75 12C32.5074 12 31.5 13.0074 31.5 14.25C31.5 15.4926 32.5074 16.5 33.75 16.5Z" fill="white"/>
<path d="M14.25 36C15.4926 36 16.5 34.9926 16.5 33.75C16.5 32.5074 15.4926 31.5 14.25 31.5C13.0074 31.5 12 32.5074 12 33.75C12 34.9926 13.0074 36 14.25 36Z" fill="white"/>
</svg>
