<svg width="48" height="48" viewBox="0 0 48 48" fill="none" xmlns="http://www.w3.org/2000/svg">
<rect width="48" height="48" fill="#0078D4"/>
<path d="M23.5025 29.9798V14.5125C23.5025 14.1207 23.3872 13.7749 23.2259 13.4522C23.2028 13.4061 23.1797 13.36 23.1567 13.3139C22.6957 12.5302 21.8428 12 20.8746 12C19.5377 12 18.4312 12.9912 18.2468 14.282C18.1316 14.259 17.9933 14.259 17.878 14.259C15.8034 14.259 14.1207 15.9417 14.1207 18.0394C14.1207 18.3621 14.1668 18.6617 14.236 18.9614C12.8529 20.5058 12 22.5343 12 24.7472C12 28.4353 14.3282 31.5933 17.5784 32.815C17.5784 32.8611 17.5783 32.9073 17.6014 32.9534C17.878 34.4286 19.0767 35.6273 20.575 35.9269C21.4048 36.0883 22.1886 35.9731 22.857 35.6734C23.2719 35.489 23.5255 35.0971 23.5255 34.6591L23.5025 29.9798Z" fill="white"/>
<path d="M24.4245 29.9798V14.5125C24.4245 14.1207 24.5397 13.7749 24.7011 13.4522C24.7241 13.4061 24.7472 13.36 24.7702 13.3139C25.2313 12.5302 26.0842 12 27.0523 12C28.3893 12 29.4957 12.9912 29.6801 14.282C29.7954 14.259 29.9337 14.259 30.0489 14.259C32.1235 14.259 33.8062 15.9417 33.8062 18.0394C33.8062 18.3621 33.7601 18.6617 33.691 18.9614C35.0741 20.5058 35.9269 22.5343 35.9269 24.7472C35.9269 28.4353 33.5988 31.5933 30.3486 32.815C30.3486 32.8611 30.3486 32.9073 30.3255 32.9534C30.0489 34.4286 28.8503 35.6273 27.352 35.9269C26.5221 36.0883 25.7384 35.9731 25.0699 35.6734C24.655 35.489 24.4014 35.0971 24.4014 34.6591L24.4245 29.9798Z" fill="white"/>
</svg>
